# Blender 5.1.2
# www.blender.org
mtllib CG-Model.mtl
o Plane
v -9.530300 -0.491377 -0.761596
v -9.530300 0.491377 -0.761596
v 11.157622 -0.491377 -0.761596
v 11.157622 0.491377 -0.761596
v -9.530300 -0.738711 0.000000
v -9.530300 0.738711 0.000000
v 11.157622 -0.738711 0.000000
v 11.157622 0.738711 0.000000
v -9.530300 0.246237 -1.000000
v -9.530300 -0.246237 -1.000000
v 11.157622 0.246237 -1.000000
v 11.157622 -0.246237 -1.000000
v 12.609282 0.344511 -0.621489
v 11.927015 0.505866 -0.670911
v -9.530300 0.246237 0.000000
v -9.530300 -0.246237 0.000000
v 13.327595 -0.075889 -0.476755
v 13.327595 -0.197646 -0.398857
v 13.327595 -0.274398 0.000000
v 13.327595 0.197646 -0.398857
v 13.327595 0.274398 0.000000
v 13.327595 -0.091466 0.000000
v 13.327595 0.075889 -0.476755
v 13.327595 0.091466 0.000000
v 13.803816 -0.021082 -0.051713
v 13.803816 -0.061828 -0.036294
v 13.803816 -0.065451 0.000000
v 13.803816 0.061828 -0.036294
v 13.803816 0.065451 0.000000
v 13.803816 -0.021817 0.000000
v 13.803816 0.021082 -0.051713
v 13.803816 0.021817 0.000000
v 13.875731 0.008819 0.000000
v 0.160913 -0.491377 -0.761596
v 0.160913 0.491377 -0.761596
v 0.160913 0.738711 0.000000
v 0.160913 -0.738711 0.000000
v 0.160913 -0.246237 -1.000000
v 0.160913 0.246237 -1.000000
v -9.977055 0.000000 0.000000
v -9.977055 0.000000 -1.000000
v -9.977055 -0.246237 0.000000
v -9.977055 0.246237 0.000000
v -9.977055 -0.246237 -0.953018
v -9.977055 0.246237 -0.953018
v -9.977055 0.738711 0.000000
v -9.977055 -0.738711 0.000000
v -9.155571 0.093866 -1.234221
v -9.155571 -0.093866 -1.234221
v -0.177377 -0.093866 -1.234221
v -0.177377 0.093866 -1.234221
v -8.304668 0.093866 -6.151714
v -8.304668 -0.093866 -6.151714
v -5.169948 -0.093866 -6.151714
v -5.169948 0.093866 -6.151714
v -9.876535 0.000000 -1.000000
v 11.157622 0.000000 -1.000000
v -9.530300 0.000000 0.000000
v 13.327595 -0.000000 -0.476755
v 13.803816 -0.000000 -0.051713
v 6.892735 0.000000 -1.000000
v -9.977055 0.491377 -0.761596
v -9.977055 -0.491377 -0.761596
v -9.365295 0.000000 -1.234221
v 0.882724 0.000000 -1.966635
v -8.514393 0.000000 -6.151714
v -4.722203 0.000000 -6.151714
v -11.610521 0.222370 -0.352956
v -12.213844 0.295373 0.000000
v -12.191547 0.418729 0.000000
v -11.490205 0.049639 -0.339638
v -11.538972 0.318566 -0.351956
v -11.982010 0.541667 0.000000
v -11.992484 0.110729 0.000000
v -11.849524 0.454080 -0.228501
v -11.101708 -0.206907 -0.425624
v 12.968439 0.390476 0.000000
v 12.609282 0.506554 0.000000
v 11.927015 0.710554 0.000000
v 12.968439 -0.390476 0.000000
v 12.968439 0.118476 -0.607566
v 12.609282 -0.506554 0.000000
v 12.609282 0.161063 -0.738377
v 12.102657 -0.622633 0.000000
v 12.968439 -0.000000 -0.607566
v 12.102657 0.203650 -0.869189
v 12.609282 -0.000000 -0.738377
v 12.102657 -0.000000 -0.869189
v 12.968439 -0.271079 -0.489541
v 12.968439 -0.118476 -0.607566
v 12.609282 -0.344511 -0.580226
v 12.609282 -0.161063 -0.738377
v 12.102657 -0.203650 -0.869189
v 12.102657 -0.417944 -0.670911
v 12.968439 0.271079 -0.489541
v 12.565870 0.647469 0.000000
v 12.871503 0.531391 0.000000
v 12.565870 0.485426 -0.569563
v 12.871503 0.411994 -0.478878
v -8.760000 0.000000 -7.217230
v -4.240000 -0.000000 -7.300000
v -8.760000 -0.258615 -7.147934
v -4.240000 -0.300000 -7.219615
v -8.760000 -0.447934 -6.958615
v -4.240000 -0.519615 -7.000000
v -8.760000 -0.517230 -6.700000
v -4.240000 -0.600000 -6.700000
v -8.760000 -0.447934 -6.441385
v -4.240000 -0.519615 -6.400000
v -8.760000 -0.258615 -6.252066
v -4.240000 -0.300000 -6.180385
v -8.760000 0.000000 -6.182770
v -4.240000 -0.000000 -6.100000
v -8.760000 0.258615 -6.252066
v -4.240000 0.300000 -6.180385
v -8.760000 0.447934 -6.441385
v -4.240000 0.519615 -6.400000
v -8.760000 0.517230 -6.700000
v -4.240000 0.600000 -6.700000
v -8.760000 0.447934 -6.958615
v -4.240000 0.519615 -7.000000
v -8.760000 0.258615 -7.147934
v -4.240000 0.300000 -7.219615
v -3.490523 -0.212615 -7.068260
v -3.490523 -0.000000 -7.125229
v -3.490523 -0.368260 -6.912615
v -3.490523 -0.425230 -6.700000
v -3.490523 -0.368260 -6.487385
v -3.490523 -0.212615 -6.331740
v -3.490523 -0.000000 -6.274770
v -3.490523 0.212615 -6.331740
v -3.490523 0.368260 -6.487385
v -3.490523 0.425230 -6.700000
v -3.490523 0.368260 -6.912615
v -3.490523 0.212615 -7.068260
v -3.490523 -0.238552 -7.113183
v -3.490523 -0.000000 -7.177104
v -3.490523 -0.413184 -6.938551
v -3.490523 -0.477104 -6.700000
v -3.490523 -0.413184 -6.461448
v -3.490523 -0.238552 -6.286816
v -3.490523 -0.000000 -6.222897
v -3.490523 0.238552 -6.286816
v -3.490523 0.413184 -6.461448
v -3.490523 0.477103 -6.700000
v -3.490523 0.413184 -6.938551
v -3.490523 0.238552 -7.113183
v -4.226222 -0.229367 -7.097274
v -4.226222 -0.000000 -7.158733
v -4.226222 -0.397275 -6.929367
v -4.226222 -0.458733 -6.700000
v -4.226222 -0.397275 -6.470634
v -4.226222 -0.229367 -6.302725
v -4.226222 -0.000000 -6.241267
v -4.226222 0.229366 -6.302725
v -4.226222 0.397274 -6.470633
v -4.226222 0.458733 -6.700000
v -4.226222 0.397274 -6.929366
v -4.226222 0.229366 -7.097274
v -4.226222 -0.273370 -7.173491
v -4.226222 -0.000000 -7.246740
v -4.226222 -0.473491 -6.973370
v -4.226222 -0.546740 -6.700000
v -4.226222 -0.473491 -6.426630
v -4.226222 -0.273370 -6.226509
v -4.226222 -0.000000 -6.153260
v -4.226222 0.273370 -6.226509
v -4.226222 0.473491 -6.426630
v -4.226222 0.546740 -6.700000
v -4.226222 0.473491 -6.973370
v -4.226222 0.273370 -7.173491
v -3.901342 -0.213004 -7.068933
v -3.901342 -0.000000 -7.126007
v -3.901342 -0.368933 -6.913003
v -3.901342 -0.426007 -6.700000
v -3.901342 -0.368933 -6.486996
v -3.901342 -0.213004 -6.331067
v -3.901342 -0.000000 -6.273993
v -3.901342 0.213003 -6.331067
v -3.901342 0.368933 -6.486996
v -3.901342 0.426007 -6.700000
v -3.901342 0.368933 -6.913003
v -3.901342 0.213003 -7.068933
v -3.273282 -0.147781 -6.955963
v -3.273282 -0.000000 -6.995561
v -3.273282 -0.255964 -6.847780
v -3.273282 -0.295561 -6.700000
v -3.273282 -0.255964 -6.552219
v -3.273282 -0.147781 -6.444036
v -3.273282 -0.000000 -6.404438
v -3.273282 0.147780 -6.444036
v -3.273282 0.255963 -6.552219
v -3.273282 0.295561 -6.700000
v -3.273282 0.255963 -6.847780
v -3.273282 0.147780 -6.955963
v -2.521488 -0.000000 -6.700000
v -8.760000 0.000000 -7.300000
v -8.760000 -0.300000 -7.219615
v -8.760000 -0.519615 -7.000000
v -8.760000 -0.600000 -6.700000
v -8.760000 -0.519615 -6.400000
v -8.760000 -0.300000 -6.180385
v -8.760000 0.000000 -6.100000
v -8.760000 0.300000 -6.180385
v -8.760000 0.519615 -6.400000
v -8.760000 0.600000 -6.700000
v -8.760000 0.519615 -7.000000
v -8.760000 0.300000 -7.219615
v -8.326891 0.000000 -6.923534
v -8.326891 -0.111767 -6.893586
v -8.326891 -0.193586 -6.811767
v -8.326891 -0.223534 -6.700000
v -8.326891 -0.193586 -6.588233
v -8.326891 -0.111767 -6.506413
v -8.326891 0.000000 -6.476466
v -8.326891 0.111767 -6.506413
v -8.326891 0.193586 -6.588233
v -8.326891 0.223534 -6.700000
v -8.326891 0.193586 -6.811767
v -8.326891 0.111767 -6.893586
v -8.326891 0.000000 -7.217230
v -8.326891 -0.258615 -7.147934
v -8.326891 -0.447934 -6.958615
v -8.326891 -0.517230 -6.700000
v -8.326891 -0.447934 -6.441385
v -8.326891 -0.258615 -6.252066
v -8.326891 0.000000 -6.182770
v -8.326891 0.258615 -6.252066
v -8.326891 0.447934 -6.441385
v -8.326891 0.517230 -6.700000
v -8.326891 0.447934 -6.958615
v -8.326891 0.258615 -7.147934
v -8.588819 0.000000 -7.062640
v -8.588819 -0.181320 -7.014055
v -8.588819 -0.314055 -6.881320
v -8.588819 -0.362640 -6.700000
v -8.588819 -0.314055 -6.518680
v -8.588819 -0.181320 -6.385944
v -8.588819 0.000000 -6.337359
v -8.588819 0.181320 -6.385944
v -8.588819 0.314056 -6.518680
v -8.588819 0.362640 -6.700000
v -8.588819 0.314056 -6.881320
v -8.588819 0.181320 -7.014055
v -8.913871 0.000000 -7.163504
v -8.913871 -0.231752 -7.101406
v -8.913871 -0.401406 -6.931752
v -8.913871 -0.463504 -6.700000
v -8.913871 -0.401406 -6.468248
v -8.913871 -0.231752 -6.298594
v -8.913871 0.000000 -6.236495
v -8.913871 0.231752 -6.298594
v -8.913871 0.401406 -6.468248
v -8.913871 0.463504 -6.700000
v -8.913871 0.401406 -6.931752
v -8.913871 0.231752 -7.101406
v -9.337793 0.000000 -7.200966
v -9.337793 -0.250483 -7.133849
v -9.337793 -0.433850 -6.950483
v -9.337793 -0.500966 -6.700000
v -9.337793 -0.433850 -6.449516
v -9.337793 -0.250483 -6.266150
v -9.337793 0.000000 -6.199033
v -9.337793 0.250483 -6.266150
v -9.337793 0.433850 -6.449516
v -9.337793 0.500967 -6.700000
v -9.337793 0.433850 -6.950483
v -9.337793 0.250483 -7.133849
v -9.337793 0.000000 -7.234599
v -9.337793 -0.267300 -7.162976
v -9.337793 -0.462977 -6.967299
v -9.337793 -0.534599 -6.700000
v -9.337793 -0.462976 -6.432700
v -9.337793 -0.267300 -6.237023
v -9.337793 0.000000 -6.165401
v -9.337793 0.267300 -6.237023
v -9.337793 0.462977 -6.432700
v -9.337793 0.534599 -6.700000
v -9.337793 0.462977 -6.967299
v -9.337793 0.267300 -7.162976
v -8.915062 -0.000000 -7.133400
v -8.915062 -0.216700 -7.075336
v -8.915062 -0.375336 -6.916700
v -8.915062 -0.433401 -6.700000
v -8.915062 -0.375336 -6.483299
v -8.915062 -0.216700 -6.324664
v -8.915062 -0.000000 -6.266599
v -8.915062 0.216700 -6.324664
v -8.915062 0.375336 -6.483299
v -8.915062 0.433401 -6.700000
v -8.915062 0.375336 -6.916700
v -8.915062 0.216700 -7.075336
v -8.590295 -0.000000 -7.035210
v -8.590295 -0.167605 -6.990300
v -8.590295 -0.290301 -6.867605
v -8.590295 -0.335211 -6.700000
v -8.590295 -0.290301 -6.532394
v -8.590295 -0.167605 -6.409699
v -8.590295 -0.000000 -6.364789
v -8.590295 0.167605 -6.409699
v -8.590295 0.290300 -6.532394
v -8.590295 0.335210 -6.700000
v -8.590295 0.290300 -6.867605
v -8.590295 0.167605 -6.990300
v -8.326773 -0.000000 -6.898658
v -8.326773 -0.099330 -6.872043
v -8.326773 -0.172044 -6.799329
v -8.326773 -0.198659 -6.700000
v -8.326773 -0.172044 -6.600670
v -8.326773 -0.099330 -6.527956
v -8.326773 -0.000000 -6.501341
v -8.326773 0.099329 -6.527956
v -8.326773 0.172043 -6.600670
v -8.326773 0.198658 -6.700000
v -8.326773 0.172043 -6.799329
v -8.326773 0.099329 -6.872043
v -8.098018 -0.000000 -6.726828
v -8.098018 -0.013414 -6.723234
v -8.098018 -0.023234 -6.713414
v -8.098018 -0.026829 -6.700000
v -8.098018 -0.023234 -6.686586
v -8.098018 -0.013414 -6.676766
v -8.098018 -0.000000 -6.673172
v -8.098018 0.013414 -6.676766
v -8.098018 0.023234 -6.686586
v -8.098018 0.026828 -6.700000
v -8.098018 0.023234 -6.713414
v -8.098018 0.013414 -6.723234
v -8.285122 0.455987 -6.362306
v -7.936966 1.367143 -5.836250
v -8.285122 0.520445 -6.473951
v -7.936966 1.431601 -5.947895
v -6.285121 0.455987 -6.362306
v -7.719411 1.367143 -5.836250
v -6.285121 0.520445 -6.473951
v -7.719411 1.431601 -5.947895
v -8.399473 0.488216 -6.418128
v -7.987065 1.463232 -5.855202
v -6.030373 0.488216 -6.418128
v -7.602993 1.463232 -5.855202
v -8.285122 -0.520445 -6.473951
v -7.936966 -1.431601 -5.947894
v -8.285122 -0.455986 -6.362306
v -7.936966 -1.367143 -5.836250
v -6.285121 -0.520445 -6.473951
v -7.719411 -1.431601 -5.947894
v -6.285121 -0.455986 -6.362306
v -7.719411 -1.367143 -5.836250
v -8.399473 -0.488216 -6.418128
v -7.987065 -1.463232 -5.855202
v -6.030373 -0.488216 -6.418128
v -7.602993 -1.463232 -5.855202
v -11.524984 0.190057 -0.218267
v -11.167939 -0.180696 -0.950453
v -11.524984 0.050458 -0.157464
v -11.167939 -0.320295 -0.889650
v -9.265800 0.079549 -0.436505
v -11.386364 -0.632489 -1.842682
v -9.265800 -0.060050 -0.375702
v -11.386364 -0.772088 -1.781879
v -11.762841 0.120258 -0.187865
v -11.439615 -0.259330 -0.937499
v -8.956917 0.009750 -0.406103
v -11.325557 -0.766283 -1.938660
v -10.478303 0.043058 -0.172079
v -11.631338 -0.779499 -1.796515
v -10.478303 0.182657 -0.232882
v -11.631338 -0.639900 -1.857318
v -11.921218 -0.766543 -1.939175
v -10.393187 0.112857 -0.202480
v -11.524984 0.190057 -0.218267
v -11.524984 0.050458 -0.157464
v -11.762841 0.120258 -0.187865
v -11.646520 0.537021 0.064458
v -11.433998 1.545218 0.064458
v -11.646520 0.537021 -0.064458
v -11.433998 1.545218 -0.064458
v -7.108664 0.537021 0.064458
v -10.970195 1.545218 0.064458
v -7.108664 0.537021 -0.064458
v -10.970195 1.545218 -0.064458
v -11.760871 0.537021 0.000000
v -11.540804 1.744552 0.000000
v -6.688002 0.537021 0.000000
v -10.844810 1.744552 0.000000
v -9.530300 -0.491377 0.761596
v -9.530300 0.491377 0.761596
v 11.157622 -0.491377 0.761596
v 11.157622 0.491377 0.761596
v -9.530300 0.246237 1.000000
v -9.530300 -0.246237 1.000000
v 11.157622 0.246237 1.000000
v 11.157622 -0.246237 1.000000
v 12.609282 0.344511 0.621489
v 11.927015 0.505866 0.670911
v 13.327595 -0.075889 0.476755
v 13.327595 -0.197646 0.398857
v 13.327595 0.197646 0.398857
v 13.327595 0.075889 0.476755
v 13.803816 -0.021082 0.051713
v 13.803816 -0.061828 0.036294
v 13.803816 0.061828 0.036294
v 13.803816 0.021082 0.051713
v 0.160913 -0.491377 0.761596
v 0.160913 0.491377 0.761596
v 0.160913 -0.246237 1.000000
v 0.160913 0.246237 1.000000
v -9.977055 0.000000 1.000000
v -9.977055 -0.246237 0.953018
v -9.977055 0.246237 0.953018
v -9.155571 0.093866 1.234221
v -9.155571 -0.093866 1.234221
v -0.177377 -0.093866 1.234221
v -0.177377 0.093866 1.234221
v -8.304668 0.093866 6.151714
v -8.304668 -0.093866 6.151714
v -5.169948 -0.093866 6.151714
v -5.169948 0.093866 6.151714
v -9.876535 0.000000 1.000000
v 11.157622 0.000000 1.000000
v 13.327595 -0.000000 0.476755
v 13.803816 -0.000000 0.051713
v 6.892735 0.000000 1.000000
v -9.977055 0.491377 0.761596
v -9.977055 -0.491377 0.761596
v -9.365295 0.000000 1.234221
v 0.882724 0.000000 1.966635
v -8.514393 0.000000 6.151714
v -4.722203 0.000000 6.151714
v -11.610521 0.222370 0.352956
v -11.490205 0.049639 0.339638
v -11.538972 0.318566 0.351956
v -11.849524 0.454080 0.228501
v -11.101708 -0.206907 0.425624
v 12.968439 0.118476 0.607566
v 12.609282 0.161063 0.738377
v 12.968439 -0.000000 0.607566
v 12.102657 0.203650 0.869189
v 12.609282 -0.000000 0.738377
v 12.102657 -0.000000 0.869189
v 12.968439 -0.271079 0.489541
v 12.968439 -0.118476 0.607566
v 12.609282 -0.344511 0.580226
v 12.609282 -0.161063 0.738377
v 12.102657 -0.203650 0.869189
v 12.102657 -0.417944 0.670911
v 12.968439 0.271079 0.489541
v 12.565870 0.485426 0.569563
v 12.871503 0.411994 0.478878
v -8.760000 0.000000 7.217230
v -4.240000 -0.000000 7.300000
v -8.760000 -0.258615 7.147934
v -4.240000 -0.300000 7.219615
v -8.760000 -0.447934 6.958615
v -4.240000 -0.519615 7.000000
v -8.760000 -0.517230 6.700000
v -4.240000 -0.600000 6.700000
v -8.760000 -0.447934 6.441385
v -4.240000 -0.519615 6.400000
v -8.760000 -0.258615 6.252066
v -4.240000 -0.300000 6.180385
v -8.760000 0.000000 6.182770
v -4.240000 -0.000000 6.100000
v -8.760000 0.258615 6.252066
v -4.240000 0.300000 6.180385
v -8.760000 0.447934 6.441385
v -4.240000 0.519615 6.400000
v -8.760000 0.517230 6.700000
v -4.240000 0.600000 6.700000
v -8.760000 0.447934 6.958615
v -4.240000 0.519615 7.000000
v -8.760000 0.258615 7.147934
v -4.240000 0.300000 7.219615
v -3.490523 -0.212615 7.068260
v -3.490523 -0.000000 7.125229
v -3.490523 -0.368260 6.912615
v -3.490523 -0.425230 6.700000
v -3.490523 -0.368260 6.487385
v -3.490523 -0.212615 6.331740
v -3.490523 -0.000000 6.274770
v -3.490523 0.212615 6.331740
v -3.490523 0.368260 6.487385
v -3.490523 0.425230 6.700000
v -3.490523 0.368260 6.912615
v -3.490523 0.212615 7.068260
v -3.490523 -0.238552 7.113183
v -3.490523 -0.000000 7.177104
v -3.490523 -0.413184 6.938551
v -3.490523 -0.477104 6.700000
v -3.490523 -0.413184 6.461448
v -3.490523 -0.238552 6.286816
v -3.490523 -0.000000 6.222897
v -3.490523 0.238552 6.286816
v -3.490523 0.413184 6.461448
v -3.490523 0.477103 6.700000
v -3.490523 0.413184 6.938551
v -3.490523 0.238552 7.113183
v -4.226222 -0.229367 7.097274
v -4.226222 -0.000000 7.158733
v -4.226222 -0.397275 6.929367
v -4.226222 -0.458733 6.700000
v -4.226222 -0.397275 6.470634
v -4.226222 -0.229367 6.302725
v -4.226222 -0.000000 6.241267
v -4.226222 0.229366 6.302725
v -4.226222 0.397274 6.470633
v -4.226222 0.458733 6.700000
v -4.226222 0.397274 6.929366
v -4.226222 0.229366 7.097274
v -4.226222 -0.273370 7.173491
v -4.226222 -0.000000 7.246740
v -4.226222 -0.473491 6.973370
v -4.226222 -0.546740 6.700000
v -4.226222 -0.473491 6.426630
v -4.226222 -0.273370 6.226509
v -4.226222 -0.000000 6.153260
v -4.226222 0.273370 6.226509
v -4.226222 0.473491 6.426630
v -4.226222 0.546740 6.700000
v -4.226222 0.473491 6.973370
v -4.226222 0.273370 7.173491
v -3.901342 -0.213004 7.068933
v -3.901342 -0.000000 7.126007
v -3.901342 -0.368933 6.913003
v -3.901342 -0.426007 6.700000
v -3.901342 -0.368933 6.486996
v -3.901342 -0.213004 6.331067
v -3.901342 -0.000000 6.273993
v -3.901342 0.213003 6.331067
v -3.901342 0.368933 6.486996
v -3.901342 0.426007 6.700000
v -3.901342 0.368933 6.913003
v -3.901342 0.213003 7.068933
v -3.273282 -0.147781 6.955963
v -3.273282 -0.000000 6.995561
v -3.273282 -0.255964 6.847780
v -3.273282 -0.295561 6.700000
v -3.273282 -0.255964 6.552219
v -3.273282 -0.147781 6.444036
v -3.273282 -0.000000 6.404438
v -3.273282 0.147780 6.444036
v -3.273282 0.255963 6.552219
v -3.273282 0.295561 6.700000
v -3.273282 0.255963 6.847780
v -3.273282 0.147780 6.955963
v -2.521488 -0.000000 6.700000
v -8.760000 0.000000 7.300000
v -8.760000 -0.300000 7.219615
v -8.760000 -0.519615 7.000000
v -8.760000 -0.600000 6.700000
v -8.760000 -0.519615 6.400000
v -8.760000 -0.300000 6.180385
v -8.760000 0.000000 6.100000
v -8.760000 0.300000 6.180385
v -8.760000 0.519615 6.400000
v -8.760000 0.600000 6.700000
v -8.760000 0.519615 7.000000
v -8.760000 0.300000 7.219615
v -8.326891 0.000000 6.923534
v -8.326891 -0.111767 6.893586
v -8.326891 -0.193586 6.811767
v -8.326891 -0.223534 6.700000
v -8.326891 -0.193586 6.588233
v -8.326891 -0.111767 6.506413
v -8.326891 0.000000 6.476466
v -8.326891 0.111767 6.506413
v -8.326891 0.193586 6.588233
v -8.326891 0.223534 6.700000
v -8.326891 0.193586 6.811767
v -8.326891 0.111767 6.893586
v -8.326891 0.000000 7.217230
v -8.326891 -0.258615 7.147934
v -8.326891 -0.447934 6.958615
v -8.326891 -0.517230 6.700000
v -8.326891 -0.447934 6.441385
v -8.326891 -0.258615 6.252066
v -8.326891 0.000000 6.182770
v -8.326891 0.258615 6.252066
v -8.326891 0.447934 6.441385
v -8.326891 0.517230 6.700000
v -8.326891 0.447934 6.958615
v -8.326891 0.258615 7.147934
v -8.588819 0.000000 7.062640
v -8.588819 -0.181320 7.014055
v -8.588819 -0.314055 6.881320
v -8.588819 -0.362640 6.700000
v -8.588819 -0.314055 6.518680
v -8.588819 -0.181320 6.385944
v -8.588819 0.000000 6.337359
v -8.588819 0.181320 6.385944
v -8.588819 0.314056 6.518680
v -8.588819 0.362640 6.700000
v -8.588819 0.314056 6.881320
v -8.588819 0.181320 7.014055
v -8.913871 0.000000 7.163504
v -8.913871 -0.231752 7.101406
v -8.913871 -0.401406 6.931752
v -8.913871 -0.463504 6.700000
v -8.913871 -0.401406 6.468248
v -8.913871 -0.231752 6.298594
v -8.913871 0.000000 6.236495
v -8.913871 0.231752 6.298594
v -8.913871 0.401406 6.468248
v -8.913871 0.463504 6.700000
v -8.913871 0.401406 6.931752
v -8.913871 0.231752 7.101406
v -9.337793 0.000000 7.200966
v -9.337793 -0.250483 7.133849
v -9.337793 -0.433850 6.950483
v -9.337793 -0.500966 6.700000
v -9.337793 -0.433850 6.449516
v -9.337793 -0.250483 6.266150
v -9.337793 0.000000 6.199033
v -9.337793 0.250483 6.266150
v -9.337793 0.433850 6.449516
v -9.337793 0.500967 6.700000
v -9.337793 0.433850 6.950483
v -9.337793 0.250483 7.133849
v -9.337793 0.000000 7.234599
v -9.337793 -0.267300 7.162976
v -9.337793 -0.462977 6.967299
v -9.337793 -0.534599 6.700000
v -9.337793 -0.462976 6.432700
v -9.337793 -0.267300 6.237023
v -9.337793 0.000000 6.165401
v -9.337793 0.267300 6.237023
v -9.337793 0.462977 6.432700
v -9.337793 0.534599 6.700000
v -9.337793 0.462977 6.967299
v -9.337793 0.267300 7.162976
v -8.915062 -0.000000 7.133400
v -8.915062 -0.216700 7.075336
v -8.915062 -0.375336 6.916700
v -8.915062 -0.433401 6.700000
v -8.915062 -0.375336 6.483299
v -8.915062 -0.216700 6.324664
v -8.915062 -0.000000 6.266599
v -8.915062 0.216700 6.324664
v -8.915062 0.375336 6.483299
v -8.915062 0.433401 6.700000
v -8.915062 0.375336 6.916700
v -8.915062 0.216700 7.075336
v -8.590295 -0.000000 7.035210
v -8.590295 -0.167605 6.990300
v -8.590295 -0.290301 6.867605
v -8.590295 -0.335211 6.700000
v -8.590295 -0.290301 6.532394
v -8.590295 -0.167605 6.409699
v -8.590295 -0.000000 6.364789
v -8.590295 0.167605 6.409699
v -8.590295 0.290300 6.532394
v -8.590295 0.335210 6.700000
v -8.590295 0.290300 6.867605
v -8.590295 0.167605 6.990300
v -8.326773 -0.000000 6.898658
v -8.326773 -0.099330 6.872043
v -8.326773 -0.172044 6.799329
v -8.326773 -0.198659 6.700000
v -8.326773 -0.172044 6.600670
v -8.326773 -0.099330 6.527956
v -8.326773 -0.000000 6.501341
v -8.326773 0.099329 6.527956
v -8.326773 0.172043 6.600670
v -8.326773 0.198658 6.700000
v -8.326773 0.172043 6.799329
v -8.326773 0.099329 6.872043
v -8.098018 -0.000000 6.726828
v -8.098018 -0.013414 6.723234
v -8.098018 -0.023234 6.713414
v -8.098018 -0.026829 6.700000
v -8.098018 -0.023234 6.686586
v -8.098018 -0.013414 6.676766
v -8.098018 -0.000000 6.673172
v -8.098018 0.013414 6.676766
v -8.098018 0.023234 6.686586
v -8.098018 0.026828 6.700000
v -8.098018 0.023234 6.713414
v -8.098018 0.013414 6.723234
v -8.285122 0.455987 6.362306
v -7.936966 1.367143 5.836250
v -8.285122 0.520445 6.473951
v -7.936966 1.431601 5.947895
v -6.285121 0.455987 6.362306
v -7.719411 1.367143 5.836250
v -6.285121 0.520445 6.473951
v -7.719411 1.431601 5.947895
v -8.399473 0.488216 6.418128
v -7.987065 1.463232 5.855202
v -6.030373 0.488216 6.418128
v -7.602993 1.463232 5.855202
v -8.285122 -0.520445 6.473951
v -7.936966 -1.431601 5.947894
v -8.285122 -0.455986 6.362306
v -7.936966 -1.367143 5.836250
v -6.285121 -0.520445 6.473951
v -7.719411 -1.431601 5.947894
v -6.285121 -0.455986 6.362306
v -7.719411 -1.367143 5.836250
v -8.399473 -0.488216 6.418128
v -7.987065 -1.463232 5.855202
v -6.030373 -0.488216 6.418128
v -7.602993 -1.463232 5.855202
v -11.524984 0.190057 0.218267
v -11.167939 -0.180696 0.950453
v -11.524984 0.050458 0.157464
v -11.167939 -0.320295 0.889650
v -9.265800 0.079549 0.436505
v -11.386364 -0.632489 1.842682
v -9.265800 -0.060050 0.375702
v -11.386364 -0.772088 1.781879
v -11.762841 0.120258 0.187865
v -11.439615 -0.259330 0.937499
v -8.956917 0.009750 0.406103
v -11.325557 -0.766283 1.938660
v -10.478303 0.043058 0.172079
v -11.631338 -0.779499 1.796515
v -10.478303 0.182657 0.232882
v -11.631338 -0.639900 1.857318
v -11.921218 -0.766543 1.939175
v -10.393187 0.112857 0.202480
v -11.524984 0.190057 0.218267
v -11.524984 0.050458 0.157464
v -11.762841 0.120258 0.187865
v -11.646520 0.537021 -0.064458
v -11.433998 1.545218 -0.064458
v -11.646520 0.537021 0.064458
v -11.433998 1.545218 0.064458
v -7.108664 0.537021 -0.064458
v -10.970195 1.545218 -0.064458
v -7.108664 0.537021 0.064458
v -10.970195 1.545218 0.064458
vn -0.3886 -0.4678 -0.7938
vn -0.0000 0.6972 -0.7169
vn -0.0000 0.9511 -0.3089
vn -0.0000 -0.9511 -0.3089
vn -0.0000 -0.6972 -0.7169
vn -0.0000 -0.0000 -1.0000
vn -0.0395 0.6587 -0.7514
vn -0.2722 0.4717 -0.8387
vn -0.0000 -0.0000 1.0000
vn 0.3912 -0.9050 -0.1672
vn 0.6339 -0.2737 -0.7233
vn 0.6168 0.7832 -0.0782
vn 0.6326 0.3857 -0.6716
vn 0.3912 0.9050 -0.1672
vn 0.6326 -0.3857 -0.6716
vn 0.6659 -0.0000 -0.7461
vn 0.5838 -0.0000 -0.8119
vn 0.7167 -0.6940 -0.0693
vn 0.5911 0.2855 -0.7544
vn -0.0000 0.8382 -0.5453
vn -0.1022 0.9381 -0.3310
vn -0.0845 0.1533 -0.9846
vn -0.0000 1.0000 -0.0000
vn 0.0206 -0.9724 -0.2323
vn -0.3237 0.5292 -0.7844
vn -0.0000 -0.8382 -0.5453
vn -0.4075 0.9105 -0.0705
vn 0.0789 -0.9926 -0.0919
vn -0.0000 -1.0000 -0.0000
vn 0.0789 0.9926 -0.0919
vn -0.4075 -0.9105 -0.0705
vn -0.3237 -0.5292 -0.7844
vn 0.0206 0.9724 -0.2323
vn -0.0395 -0.6587 -0.7514
vn -0.0845 -0.1533 -0.9846
vn -0.3948 -0.2410 -0.8866
vn -0.3519 -0.9122 -0.2100
vn -0.3404 0.1999 -0.9188
vn -0.5006 0.2317 -0.8341
vn 0.5126 0.2072 0.8333
vn 0.5057 0.5733 0.6447
vn 0.3422 -0.0000 -0.9396
vn 0.2326 -0.6491 -0.7243
vn 0.2500 -0.0000 -0.9682
vn 0.2739 -0.9391 -0.2073
vn 0.2188 0.5856 -0.7805
vn 0.3652 0.5333 -0.7630
vn 0.1371 -0.0000 -0.9906
vn 0.3260 -0.5494 -0.7694
vn 0.3226 -0.6010 -0.7313
vn 0.0262 0.9533 -0.3008
vn 0.1094 -0.9479 -0.2991
vn 0.2005 -0.9401 -0.2756
vn 0.3260 0.5494 -0.7694
vn 0.2739 0.9391 -0.2073
vn 0.1262 -0.6834 -0.7190
vn 0.1087 0.6410 -0.7598
vn 0.1567 0.3836 -0.9101
vn 0.2761 -0.9295 -0.2445
vn 0.0849 0.9555 -0.2825
vn 0.3201 0.9150 -0.2456
vn 0.8134 0.5648 -0.1393
vn 0.3676 0.3723 -0.8522
vn -0.0000 -0.2588 -0.9659
vn -0.0000 -0.7071 -0.7071
vn -0.0000 -0.9659 -0.2588
vn -0.0000 -0.9659 0.2588
vn -0.0000 -0.7071 0.7071
vn -0.0000 -0.2588 0.9659
vn -0.0000 0.2588 0.9659
vn -0.0000 0.7071 0.7071
vn -0.0000 0.9659 0.2588
vn -0.0000 0.9659 -0.2588
vn 0.1564 -0.6984 -0.6984
vn -0.0000 0.7071 -0.7071
vn -0.0000 0.2588 -0.9659
vn -0.1575 -0.9539 0.2556
vn 0.1564 0.9540 -0.2556
vn 0.1564 0.9540 0.2556
vn 0.1564 0.6984 0.6984
vn 0.1564 0.2556 0.9540
vn 0.1564 -0.2556 0.9540
vn 0.1564 -0.6984 0.6984
vn 0.1564 -0.9540 0.2556
vn 0.1564 0.2556 -0.9540
vn 0.1564 -0.2556 -0.9540
vn 0.1564 -0.9540 -0.2556
vn 0.1564 0.6984 -0.6984
vn 1.0000 -0.0000 -0.0000
vn 0.0968 -0.7038 -0.7038
vn -0.1575 -0.2556 -0.9539
vn -0.1575 0.9539 -0.2556
vn -0.1575 -0.6983 0.6983
vn -0.1575 0.2556 0.9539
vn -0.1575 -0.6983 -0.6983
vn -0.1575 0.6983 -0.6983
vn -0.1575 -0.2556 0.9539
vn -0.1575 0.6983 0.6983
vn -0.1575 -0.9539 -0.2556
vn -0.1575 0.2556 -0.9539
vn -0.1575 0.9539 0.2556
vn 0.1967 0.2538 -0.9471
vn 0.0968 0.9614 0.2576
vn 0.0968 -0.2576 0.9614
vn 0.0968 -0.9614 -0.2576
vn 0.0968 0.9614 -0.2576
vn 0.0968 0.2576 0.9614
vn 0.0968 -0.9614 0.2576
vn 0.0968 0.7038 -0.7038
vn 0.0968 -0.2576 -0.9614
vn 0.0968 0.7038 0.7038
vn 0.0968 -0.7038 0.7038
vn 0.0968 0.2576 -0.9614
vn 0.3550 -0.6610 0.6610
vn 0.1967 -0.6933 -0.6933
vn 0.1967 0.9471 0.2538
vn 0.1967 -0.2538 0.9471
vn 0.1967 -0.9471 -0.2538
vn 0.1967 0.9471 -0.2538
vn 0.1967 0.2538 0.9471
vn 0.1967 -0.9471 0.2538
vn 0.1967 0.6933 -0.6933
vn 0.1967 -0.2538 -0.9471
vn 0.1967 0.6933 0.6933
vn 0.1967 -0.6933 0.6933
vn 0.3550 0.2420 -0.9030
vn 0.3550 -0.6610 -0.6610
vn 0.3550 0.9030 0.2420
vn 0.3550 -0.2420 0.9030
vn 0.3550 -0.9030 -0.2420
vn 0.3550 0.9030 -0.2420
vn 0.3550 0.2420 0.9030
vn 0.3550 -0.9030 0.2420
vn 0.3550 0.6610 -0.6610
vn 0.3550 -0.2420 -0.9030
vn 0.3550 0.6610 0.6610
vn -1.0000 -0.0000 -0.0000
vn 0.4564 -0.8594 -0.2303
vn 0.2871 -0.9253 -0.2479
vn 0.4564 0.8594 -0.2303
vn 0.4564 0.2303 0.8594
vn 0.4564 -0.8594 0.2303
vn 0.4564 0.6292 -0.6292
vn 0.4564 -0.2303 -0.8594
vn 0.4564 0.6292 0.6292
vn 0.4564 -0.6292 0.6292
vn 0.4564 0.2303 -0.8594
vn 0.4564 -0.6292 -0.6292
vn 0.4564 0.8594 0.2303
vn 0.4564 -0.2303 0.8594
vn 0.1599 -0.2555 0.9535
vn 0.2871 0.9253 -0.2479
vn 0.2871 0.2479 0.9253
vn 0.2871 -0.9253 0.2479
vn 0.2871 0.6773 -0.6773
vn 0.2871 -0.2479 -0.9253
vn 0.2871 0.6773 0.6773
vn 0.2871 -0.6773 0.6773
vn 0.2871 0.2479 -0.9253
vn 0.2871 -0.6773 -0.6773
vn 0.2871 0.9253 0.2479
vn 0.2871 -0.2479 0.9253
vn -0.1526 -0.6988 0.6988
vn 0.1599 -0.9535 -0.2555
vn 0.1599 0.9535 -0.2555
vn 0.1599 0.2555 0.9535
vn 0.1599 -0.9535 0.2555
vn 0.1599 0.6980 -0.6980
vn 0.1599 -0.2555 -0.9535
vn 0.1599 0.6980 0.6980
vn 0.1599 -0.6980 0.6980
vn 0.1599 0.2555 -0.9535
vn 0.1599 -0.6980 -0.6980
vn 0.1599 0.9535 0.2555
vn -1.0000 -0.0000 -0.0001
vn -0.2803 0.9272 -0.2484
vn -0.1526 0.2558 0.9546
vn -0.1526 -0.6988 -0.6988
vn -0.1526 0.6988 -0.6988
vn -0.1526 -0.2558 0.9546
vn -0.1526 0.6988 0.6988
vn -0.1526 -0.9546 -0.2558
vn -0.1526 0.2558 -0.9546
vn -0.1526 0.9546 0.2558
vn -0.1526 -0.9546 0.2558
vn -0.1526 -0.2558 -0.9546
vn -0.1526 0.9546 -0.2558
vn -0.4476 0.8638 -0.2314
vn -0.2803 -0.6788 0.6788
vn -0.2803 0.2484 0.9272
vn -0.2803 -0.6788 -0.6788
vn -0.2803 0.6788 -0.6788
vn -0.2803 -0.2484 0.9272
vn -0.2803 0.6788 0.6788
vn -0.2803 -0.9272 -0.2484
vn -0.2803 0.2484 -0.9272
vn -0.2803 0.9272 0.2484
vn -0.2803 -0.9272 0.2484
vn -0.2803 -0.2484 -0.9272
vn -0.5873 -0.2095 -0.7818
vn -0.4476 -0.6323 0.6323
vn -0.4476 0.2314 0.8638
vn -0.4476 -0.6323 -0.6323
vn -0.4476 0.6323 -0.6323
vn -0.4476 -0.2314 0.8638
vn -0.4476 0.6323 0.6323
vn -0.4476 -0.8638 -0.2314
vn -0.4476 0.2314 -0.8638
vn -0.4476 0.8638 0.2314
vn -0.4476 -0.8638 0.2314
vn -0.4476 -0.2314 -0.8638
vn -0.5873 0.7818 -0.2095
vn -0.5873 -0.5723 0.5723
vn -0.5873 0.2095 0.7818
vn -0.5873 -0.5723 -0.5723
vn -0.5873 0.5723 -0.5723
vn -0.5873 -0.2095 0.7818
vn -0.5873 0.5723 0.5723
vn -0.5873 -0.7818 -0.2095
vn -0.5873 0.2095 -0.7818
vn -0.5873 0.7818 0.2095
vn -0.5873 -0.7818 0.2095
vn -0.5506 0.5727 -0.6074
vn -0.0000 0.5000 -0.8660
vn 0.2472 -0.1579 0.9560
vn -0.0000 -0.5000 0.8660
vn -0.0000 -0.8660 -0.5000
vn -0.0000 0.1935 0.9811
vn -0.0000 0.9464 -0.3230
vn 0.2472 0.7490 -0.6147
vn -0.5506 -0.2397 0.7996
vn -0.5506 0.2397 0.7996
vn -0.0000 0.5000 0.8660
vn 0.2472 -0.7490 -0.6148
vn -0.0000 -0.5000 -0.8660
vn -0.0000 0.8660 -0.5000
vn -0.0000 -0.9464 -0.3230
vn -0.0000 -0.1935 0.9811
vn 0.2472 0.1579 0.9560
vn -0.5506 -0.5727 -0.6074
vn -0.2817 -0.9019 0.3274
vn -0.0000 -0.8921 0.4518
vn 0.2414 0.6658 -0.7060
vn -0.0000 0.8921 -0.4518
vn 0.1586 0.7348 0.6594
vn -0.2920 0.9037 -0.3131
vn -0.2879 -0.7894 0.5422
vn 0.1521 0.0013 0.9884
vn 0.2501 -0.9625 0.1053
vn -0.2782 0.7994 -0.5325
vn 0.0135 0.4117 0.9112
vn 0.0104 -0.9975 -0.0704
vn 0.0099 0.5580 -0.8298
vn 0.0135 0.3868 0.9221
vn -0.4425 0.0864 -0.8926
vn 0.0950 0.3439 0.9342
vn -0.0000 0.3077 0.9515
vn -0.0000 0.3077 -0.9515
vn 0.0950 0.3439 -0.9342
vn -0.4425 0.0864 0.8926
vn -0.3886 -0.4678 0.7938
vn -0.0000 0.6972 0.7169
vn -0.0000 0.9511 0.3089
vn -0.0000 -0.9511 0.3089
vn -0.0000 -0.6972 0.7169
vn -0.0395 0.6587 0.7514
vn -0.2722 0.4717 0.8387
vn 0.3912 -0.9050 0.1672
vn 0.6339 -0.2737 0.7233
vn 0.6168 0.7832 0.0782
vn 0.6326 0.3857 0.6716
vn 0.3912 0.9050 0.1672
vn 0.6326 -0.3857 0.6716
vn 0.6659 -0.0000 0.7461
vn 0.5838 -0.0000 0.8119
vn 0.7167 -0.6940 0.0693
vn 0.5911 0.2855 0.7544
vn -0.0000 0.8382 0.5453
vn -0.1022 0.9381 0.3310
vn -0.0845 0.1533 0.9846
vn 0.0206 -0.9724 0.2323
vn -0.3237 0.5292 0.7844
vn -0.0000 -0.8382 0.5453
vn -0.4075 0.9105 0.0705
vn 0.0789 -0.9926 0.0919
vn 0.0789 0.9926 0.0919
vn -0.4075 -0.9105 0.0705
vn -0.3237 -0.5292 0.7844
vn 0.0206 0.9724 0.2323
vn -0.0395 -0.6587 0.7514
vn -0.0845 -0.1533 0.9846
vn -0.3948 -0.2410 0.8866
vn -0.3519 -0.9122 0.2100
vn -0.3404 0.1999 0.9188
vn -0.5006 0.2317 0.8341
vn 0.5126 0.2072 -0.8333
vn 0.5057 0.5733 -0.6447
vn 0.3422 -0.0000 0.9396
vn 0.2326 -0.6491 0.7243
vn 0.2500 -0.0000 0.9682
vn 0.2739 -0.9391 0.2073
vn 0.2188 0.5856 0.7805
vn 0.3652 0.5334 0.7630
vn 0.1371 -0.0000 0.9906
vn 0.3260 -0.5494 0.7694
vn 0.3226 -0.6010 0.7313
vn 0.0262 0.9533 0.3008
vn 0.1094 -0.9479 0.2991
vn 0.2005 -0.9401 0.2756
vn 0.3260 0.5494 0.7694
vn 0.2739 0.9391 0.2073
vn 0.1262 -0.6834 0.7190
vn 0.1087 0.6410 0.7598
vn 0.1567 0.3836 0.9101
vn 0.2761 -0.9295 0.2445
vn 0.0849 0.9555 0.2825
vn 0.3201 0.9150 0.2456
vn 0.8134 0.5648 0.1393
vn 0.3676 0.3723 0.8522
vn -0.5506 0.5727 0.6074
vn 0.2472 -0.1579 -0.9560
vn -0.0000 -0.8660 0.5000
vn -0.0000 0.1935 -0.9811
vn -0.0000 0.9464 0.3230
vn 0.2472 0.7490 0.6147
vn -0.5506 -0.2397 -0.7996
vn -0.5506 0.2397 -0.7996
vn 0.2472 -0.7490 0.6148
vn -0.0000 0.8660 0.5000
vn -0.0000 -0.9464 0.3230
vn -0.0000 -0.1935 -0.9811
vn 0.2472 0.1579 -0.9560
vn -0.5506 -0.5727 0.6074
vn -0.2817 -0.9019 -0.3274
vn -0.0000 -0.8921 -0.4518
vn 0.2414 0.6658 0.7060
vn -0.0000 0.8921 0.4518
vn 0.1586 0.7348 -0.6594
vn -0.2920 0.9037 0.3131
vn -0.2879 -0.7894 -0.5422
vn 0.1521 0.0013 -0.9884
vn 0.2501 -0.9625 -0.1053
vn -0.2782 0.7994 0.5325
vn 0.0135 0.4117 -0.9112
vn 0.0104 -0.9975 0.0704
vn 0.0099 0.5580 0.8298
vn 0.0135 0.3868 -0.9221
vt 0.458333 0.250000
vt 0.375000 0.250000
vt 0.541667 0.371341
vt 0.625000 0.371341
vt 0.625000 0.500000
vt 0.541667 0.500000
vt 0.753659 0.500000
vt 0.875000 0.500000
vt 0.875000 0.625000
vt 0.753659 0.625000
vt 0.246341 0.500000
vt 0.375000 0.500000
vt 0.375000 0.625000
vt 0.246341 0.625000
vt 0.375000 0.371341
vt 0.458333 0.371341
vt 0.458333 0.500000
vt 0.500000 0.371341
vt 0.500000 0.500000
vt 0.625000 0.250000
vt 0.541667 0.250000
vt 0.000000 0.000000
vt 0.375000 0.562868
vt 0.375000 0.612701
vt 0.359581 0.580910
vt 0.625000 0.612702
vt 0.625000 0.625000
vt 0.541667 0.562868
vt 0.625000 0.562868
vt 0.640419 0.580910
vt 0.458333 0.562868
vt 0.500000 0.562868
vt 0.500000 0.580910
vt 0.125000 0.500000
vt 0.125000 0.625000
vt 0.500000 0.250000
vt 0.458333 0.547151
vt 0.500000 0.547151
vt 0.375000 0.515717
vt 0.458333 0.515717
vt 0.458333 0.531434
vt 0.375000 0.531434
vt 0.500000 0.515717
vt 0.500000 0.531434
vt 0.375000 0.547151
vt 0.625000 0.531434
vt 0.541667 0.531434
vt 0.541667 0.515717
vt 0.625000 0.515717
vt 0.625000 0.547151
vt 0.541667 0.547151
vt 1.000000 0.500000
vt 1.000000 1.000000
vt 0.916667 1.000000
vt 0.916667 0.500000
vt 0.833333 1.000000
vt 0.833333 0.500000
vt 0.750000 1.000000
vt 0.750000 0.500000
vt 0.666667 1.000000
vt 0.666667 0.500000
vt 0.583333 1.000000
vt 0.583333 0.500000
vt 0.500000 1.000000
vt 0.500000 0.500000
vt 0.416667 1.000000
vt 0.416667 0.500000
vt 0.333333 1.000000
vt 0.333333 0.500000
vt 0.250000 1.000000
vt 0.250000 0.500000
vt 0.166667 1.000000
vt 0.166667 0.500000
vt 0.083333 1.000000
vt 0.083333 0.500000
vt 0.000000 1.000000
vt 0.000000 0.500000
vt 0.853446 0.070826
vt 0.750000 0.043108
vt 0.064752 0.356953
vt 0.036094 0.250000
vt 0.250000 0.463906
vt 0.356953 0.435248
vt 0.370000 0.457846
vt 0.250000 0.490000
vt 0.435248 0.356953
vt 0.457846 0.370000
vt 0.463906 0.250000
vt 0.490000 0.250000
vt 0.435248 0.143047
vt 0.457846 0.130000
vt 0.356953 0.064752
vt 0.370000 0.042154
vt 0.250000 0.036094
vt 0.250000 0.010000
vt 0.143047 0.064752
vt 0.130000 0.042154
vt 0.064752 0.143047
vt 0.042154 0.130000
vt 0.010000 0.250000
vt 0.042154 0.370000
vt 0.143047 0.435248
vt 0.130000 0.457846
vt 0.405429 0.339737
vt 0.339737 0.405429
vt 0.250000 0.429474
vt 0.429474 0.250000
vt 0.405429 0.160263
vt 0.339737 0.094571
vt 0.250000 0.070526
vt 0.160263 0.094571
vt 0.094571 0.160263
vt 0.070526 0.250000
vt 0.094571 0.339737
vt 0.160263 0.405429
vt 0.853446 0.429174
vt 0.750000 0.456892
vt 0.750000 0.490000
vt 0.870000 0.457846
vt 0.929174 0.353446
vt 0.957846 0.370000
vt 0.956892 0.250000
vt 0.990000 0.250000
vt 0.929174 0.146554
vt 0.957846 0.130000
vt 0.870000 0.042154
vt 0.750000 0.010000
vt 0.646554 0.070826
vt 0.630000 0.042154
vt 0.570826 0.146554
vt 0.542154 0.130000
vt 0.543108 0.250000
vt 0.510000 0.250000
vt 0.570826 0.353446
vt 0.542154 0.370000
vt 0.646554 0.429174
vt 0.630000 0.457846
vt 0.827435 0.294707
vt 0.839414 0.250000
vt 0.794707 0.327435
vt 0.750000 0.339414
vt 0.827435 0.205293
vt 0.794707 0.172566
vt 0.750000 0.160586
vt 0.705293 0.172566
vt 0.672566 0.205293
vt 0.660586 0.250000
vt 0.672565 0.294707
vt 0.705293 0.327435
vt 0.677437 0.291894
vt 0.708106 0.322563
vt 0.791894 0.322563
vt 0.750000 0.333789
vt 0.822563 0.291894
vt 0.833788 0.250000
vt 0.822563 0.208106
vt 0.791894 0.177437
vt 0.750000 0.166212
vt 0.708106 0.177437
vt 0.677437 0.208106
vt 0.666212 0.250000
vt 0.375000 0.125000
vt 0.625000 0.125000
vt 0.625000 0.750000
vt 0.375000 0.750000
vt 0.625000 1.000000
vt 0.375000 1.000000
vt 0.125000 0.750000
vt 0.875000 0.750000
vt 0.375000 0.000000
vt 0.625000 0.000000
vt 0.375000 0.375000
vt 0.625000 0.375000
vt 0.375000 0.875000
vt 0.625000 0.875000
vt 0.250000 0.625000
vt 0.250000 0.750000
vt 0.750000 0.625000
vt 0.750000 0.750000
vt 0.750000 0.500000
vt 0.250000 0.500000
s 0
f 44/1/1 63/2/1 76/2/1 71/1/1
f 39/3/2 35/4/2 4/5/2 11/6/2
f 35/7/3 2/8/3 6/9/3 36/10/3
f 34/11/4 3/12/4 7/13/4 37/14/4
f 34/15/5 38/16/5 12/17/5 3/12/5
f 61/18/6 39/3/6 11/6/6 57/19/6
f 2/20/7 9/21/7 45/21/7 62/20/7
f 62/20/8 45/21/8 72/21/8 75/20/8
f 21/22/9 24/22/9 32/22/9 29/22/9
f 19/13/10 18/23/10 26/24/10 27/13/10
f 22/22/9 19/22/9 27/22/9 30/22/9
f 32/22/9 30/22/9 33/22/9
f 26/24/11 25/25/11 33/24/11
f 28/26/12 29/27/12 33/26/12
f 23/28/13 20/29/13 28/26/13 31/30/13
f 20/29/14 21/27/14 29/27/14 28/26/14
f 18/23/15 17/31/15 25/25/15 26/24/15
f 24/22/9 22/22/9 30/22/9 32/22/9
f 59/32/16 23/28/16 31/30/16 60/33/16
f 25/25/17 60/33/17 31/30/17 33/25/17
f 30/22/9 27/22/9 33/22/9
f 27/13/18 26/24/18 33/13/18
f 29/22/9 32/22/9 33/22/9
f 31/30/19 28/26/19 33/30/19
f 9/21/20 39/3/20 51/3/20 48/21/20
f 1/2/5 10/1/5 38/16/5 34/15/5
f 1/34/4 34/11/4 37/14/4 5/35/4
f 4/5/3 35/7/3 36/10/3 8/27/3
f 9/21/2 2/20/2 35/4/2 39/3/2
f 46/9/21 62/8/21 75/8/21 73/9/21
f 9/21/22 56/36/22 41/36/22 45/21/22
f 6/22/6 15/22/6 43/22/6 46/22/6
f 43/22/6 40/22/6 70/22/6
f 6/9/3 2/8/3 62/8/3 46/9/3
f 16/22/6 5/22/6 47/22/6 42/22/6
f 58/22/6 16/22/6 42/22/6 40/22/6
f 1/34/4 5/35/4 47/35/4 63/34/4
f 48/21/23 51/3/23 55/3/23 52/21/23
f 61/18/24 38/16/24 50/16/24 65/18/24
f 56/36/25 9/21/25 48/21/25 64/36/25
f 38/16/26 10/1/26 49/1/26 50/16/26
f 66/36/6 52/21/6 55/3/6 67/18/6
f 64/36/27 48/21/27 52/21/27 66/36/27
f 65/18/28 50/16/28 54/16/28 67/18/28
f 50/16/29 49/1/29 53/1/29 54/16/29
f 51/3/30 65/18/30 67/18/30 55/3/30
f 49/1/31 64/36/31 66/36/31 53/1/31
f 53/1/6 66/36/6 67/18/6 54/16/6
f 10/1/32 56/36/32 64/36/32 49/1/32
f 39/3/33 61/18/33 65/18/33 51/3/33
f 10/1/34 1/2/34 63/2/34 44/1/34
f 15/22/6 58/22/6 40/22/6 43/22/6
f 56/36/35 10/1/35 44/1/35 41/36/35
f 17/31/16 59/32/16 60/33/16 25/25/16
f 38/16/6 61/18/6 57/19/6 12/17/6
f 41/36/36 44/1/36 71/1/36 68/36/36
f 40/22/6 42/22/6 69/22/6 70/22/6
f 46/22/6 43/22/6 70/22/6 73/22/6
f 63/34/37 47/35/37 74/35/37 76/34/37
f 45/21/38 41/36/38 68/36/38 72/21/38
f 42/22/6 47/22/6 74/22/6 69/22/6
f 68/36/39 70/22/39 73/22/39 75/8/39 72/21/39
f 69/22/40 71/1/40 68/36/40 70/22/40
f 74/35/41 76/34/41 71/1/41 69/22/41
f 90/37/42 85/38/42 59/32/42 17/31/42
f 94/39/43 93/40/43 92/41/43 91/42/43
f 93/40/44 88/43/44 87/44/44 92/41/44
f 89/45/45 18/23/45 19/13/45 80/13/45
f 13/46/46 83/47/46 86/48/46 14/49/46
f 87/44/44 88/43/44 86/48/44 83/47/44
f 95/50/47 81/51/47 83/47/47 13/46/47
f 85/38/42 87/44/42 83/47/42 81/51/42
f 88/43/48 57/19/48 11/6/48 86/48/48
f 89/45/49 90/37/49 17/31/49 18/23/49
f 91/42/50 92/41/50 90/37/50 89/45/50
f 92/41/42 87/44/42 85/38/42 90/37/42
f 8/27/51 79/27/51 14/49/51 4/5/51
f 3/12/52 94/39/52 84/13/52 7/13/52
f 78/22/9 96/22/9 79/22/9
f 94/39/53 91/42/53 82/13/53 84/13/53
f 20/29/54 23/28/54 81/51/54 95/50/54
f 59/32/42 85/38/42 81/51/42 23/28/42
f 77/27/55 21/27/55 20/29/55 95/50/55
f 3/12/56 12/17/56 93/40/56 94/39/56
f 14/49/57 86/48/57 11/6/57 4/5/57
f 12/17/48 57/19/48 88/43/48 93/40/48
f 13/46/58 14/49/58 98/46/58
f 91/42/59 89/45/59 80/13/59 82/13/59
f 14/49/60 79/22/60 96/27/60 98/46/60
f 96/27/61 97/27/61 99/50/61 98/46/61
f 78/22/9 77/22/9 97/22/9 96/22/9
f 77/27/62 95/50/62 99/50/62 97/27/62
f 95/50/63 13/46/63 98/46/63 99/50/63
f 197/52/64 101/53/64 103/54/64 198/55/64
f 198/55/65 103/54/65 105/56/65 199/57/65
f 199/57/66 105/56/66 107/58/66 200/59/66
f 200/59/67 107/58/67 109/60/67 201/61/67
f 201/61/68 109/60/68 111/62/68 202/63/68
f 202/63/69 111/62/69 113/64/69 203/65/69
f 203/65/70 113/64/70 115/66/70 204/67/70
f 204/67/71 115/66/71 117/68/71 205/69/71
f 205/69/72 117/68/72 119/70/72 206/71/72
f 206/71/73 119/70/73 121/72/73 207/73/73
f 105/56/74 103/54/74 136/54/74 138/56/74
f 207/73/75 121/72/75 123/74/75 208/75/75
f 208/75/76 123/74/76 101/76/76 197/77/76
f 110/78/76 112/79/76 227/79/76 226/78/76
f 134/80/77 133/81/77 169/81/77 170/80/77
f 121/72/78 119/70/78 145/70/78 146/72/78
f 119/70/79 117/68/79 144/68/79 145/70/79
f 117/68/80 115/66/80 143/66/80 144/68/80
f 115/66/81 113/64/81 142/64/81 143/66/81
f 113/64/82 111/62/82 141/62/82 142/64/82
f 111/62/83 109/60/83 140/60/83 141/62/83
f 109/60/84 107/58/84 139/58/84 140/60/84
f 101/76/85 123/74/85 147/74/85 137/76/85
f 103/54/86 101/53/86 137/53/86 136/54/86
f 107/58/87 105/56/87 138/56/87 139/58/87
f 123/74/88 121/72/88 146/72/88 147/74/88
f 125/82/89 124/83/89 136/84/89 137/85/89
f 124/83/89 126/86/89 138/87/89 136/84/89
f 126/86/89 127/88/89 139/89/89 138/87/89
f 127/88/89 128/90/89 140/91/89 139/89/89
f 128/90/89 129/92/89 141/93/89 140/91/89
f 129/92/89 130/94/89 142/95/89 141/93/89
f 130/94/89 131/96/89 143/97/89 142/95/89
f 131/96/89 132/98/89 144/99/89 143/97/89
f 132/98/89 133/81/89 145/100/89 144/99/89
f 133/81/89 134/80/89 146/101/89 145/100/89
f 134/80/89 135/102/89 147/103/89 146/101/89
f 135/102/89 125/82/89 137/85/89 147/103/89
f 150/104/90 148/105/90 172/105/90 174/104/90
f 131/96/91 130/94/91 166/94/91 167/96/91
f 128/90/92 127/88/92 163/88/92 164/90/92
f 135/102/93 134/80/93 170/80/93 171/102/93
f 124/83/94 125/82/94 161/82/94 160/83/94
f 132/98/95 131/96/95 167/96/95 168/98/95
f 129/92/96 128/90/96 164/90/96 165/92/96
f 125/82/97 135/102/97 171/102/97 161/82/97
f 126/86/98 124/83/98 160/83/98 162/86/98
f 133/81/99 132/98/99 168/98/99 169/81/99
f 130/94/100 129/92/100 165/92/100 166/94/100
f 127/88/101 126/86/101 162/86/101 163/88/101
f 149/106/89 148/105/89 160/83/89 161/82/89
f 148/105/89 150/104/89 162/86/89 160/83/89
f 150/104/89 151/107/89 163/88/89 162/86/89
f 151/107/89 152/108/89 164/90/89 163/88/89
f 152/108/89 153/109/89 165/92/89 164/90/89
f 153/109/89 154/110/89 166/94/89 165/92/89
f 154/110/89 155/111/89 167/96/89 166/94/89
f 155/111/89 156/112/89 168/98/89 167/96/89
f 156/112/89 157/113/89 169/81/89 168/98/89
f 157/113/89 158/114/89 170/80/89 169/81/89
f 158/114/89 159/115/89 171/102/89 170/80/89
f 159/115/89 149/106/89 161/82/89 171/102/89
f 173/106/102 183/115/102 195/115/102 185/106/102
f 157/113/103 156/112/103 180/112/103 181/113/103
f 154/110/104 153/109/104 177/109/104 178/110/104
f 151/107/105 150/104/105 174/104/105 175/107/105
f 158/114/106 157/113/106 181/113/106 182/114/106
f 155/111/107 154/110/107 178/110/107 179/111/107
f 152/108/108 151/107/108 175/107/108 176/108/108
f 159/115/109 158/114/109 182/114/109 183/115/109
f 148/105/110 149/106/110 173/106/110 172/105/110
f 156/112/111 155/111/111 179/111/111 180/112/111
f 153/109/112 152/108/112 176/108/112 177/109/112
f 149/106/113 159/115/113 183/115/113 173/106/113
f 189/109/114 188/108/114 196/109/114
f 174/104/115 172/105/115 184/105/115 186/104/115
f 181/113/116 180/112/116 192/112/116 193/113/116
f 178/110/117 177/109/117 189/109/117 190/110/117
f 175/107/118 174/104/118 186/104/118 187/107/118
f 182/114/119 181/113/119 193/113/119 194/114/119
f 179/111/120 178/110/120 190/110/120 191/111/120
f 176/108/121 175/107/121 187/107/121 188/108/121
f 183/115/122 182/114/122 194/114/122 195/115/122
f 172/105/123 173/106/123 185/106/123 184/105/123
f 180/112/124 179/111/124 191/111/124 192/112/124
f 177/109/125 176/108/125 188/108/125 189/109/125
f 185/106/126 195/115/126 196/106/126
f 186/104/127 184/105/127 196/104/127
f 193/113/128 192/112/128 196/113/128
f 190/110/129 189/109/129 196/110/129
f 187/107/130 186/104/130 196/107/130
f 194/114/131 193/113/131 196/114/131
f 191/111/132 190/110/132 196/111/132
f 188/108/133 187/107/133 196/108/133
f 195/115/134 194/114/134 196/115/134
f 184/105/135 185/106/135 196/105/135
f 192/112/136 191/111/136 196/112/136
f 102/116/137 100/117/137 197/118/137 198/119/137
f 104/120/137 102/116/137 198/119/137 199/121/137
f 106/122/137 104/120/137 199/121/137 200/123/137
f 108/124/137 106/122/137 200/123/137 201/125/137
f 110/78/137 108/124/137 201/125/137 202/126/137
f 112/79/137 110/78/137 202/126/137 203/127/137
f 114/128/137 112/79/137 203/127/137 204/129/137
f 116/130/137 114/128/137 204/129/137 205/131/137
f 118/132/137 116/130/137 205/131/137 206/133/137
f 120/134/137 118/132/137 206/133/137 207/135/137
f 122/136/137 120/134/137 207/135/137 208/137/137
f 100/117/137 122/136/137 208/137/137 197/118/137
f 211/138/138 212/139/138 236/139/138 235/138/138
f 104/120/72 106/122/72 224/122/72 223/120/72
f 118/132/67 120/134/67 231/134/67 230/132/67
f 112/79/64 114/128/64 228/128/64 227/79/64
f 106/122/73 108/124/73 225/124/73 224/122/73
f 120/134/68 122/136/68 232/136/68 231/134/68
f 100/117/70 102/116/70 222/116/70 221/117/70
f 114/128/65 116/130/65 229/130/65 228/128/65
f 108/124/75 110/78/75 226/78/75 225/124/75
f 122/136/69 100/117/69 221/117/69 232/136/69
f 102/116/71 104/120/71 223/120/71 222/116/71
f 116/130/66 118/132/66 230/132/66 229/130/66
f 210/140/137 209/141/137 221/117/137 222/116/137
f 211/138/137 210/140/137 222/116/137 223/120/137
f 212/139/137 211/138/137 223/120/137 224/122/137
f 213/142/137 212/139/137 224/122/137 225/124/137
f 214/143/137 213/142/137 225/124/137 226/78/137
f 215/144/137 214/143/137 226/78/137 227/79/137
f 216/145/137 215/144/137 227/79/137 228/128/137
f 217/146/137 216/145/137 228/128/137 229/130/137
f 218/147/137 217/146/137 229/130/137 230/132/137
f 219/148/137 218/147/137 230/132/137 231/134/137
f 220/149/137 219/148/137 231/134/137 232/136/137
f 209/141/137 220/149/137 232/136/137 221/117/137
f 235/138/139 236/139/139 248/139/139 247/138/139
f 218/147/140 219/148/140 243/148/140 242/147/140
f 215/144/141 216/145/141 240/145/141 239/144/141
f 212/139/142 213/142/142 237/142/142 236/139/142
f 219/148/143 220/149/143 244/149/143 243/148/143
f 209/141/144 210/140/144 234/140/144 233/141/144
f 216/145/145 217/146/145 241/146/145 240/145/145
f 213/142/146 214/143/146 238/143/146 237/142/146
f 220/149/147 209/141/147 233/141/147 244/149/147
f 210/140/148 211/138/148 235/138/148 234/140/148
f 217/146/149 218/147/149 242/147/149 241/146/149
f 214/143/150 215/144/150 239/144/150 238/143/150
f 250/143/151 251/144/151 275/144/151 274/143/151
f 242/147/152 243/148/152 255/148/152 254/147/152
f 239/144/153 240/145/153 252/145/153 251/144/153
f 236/139/154 237/142/154 249/142/154 248/139/154
f 243/148/155 244/149/155 256/149/155 255/148/155
f 233/141/156 234/140/156 246/140/156 245/141/156
f 240/145/157 241/146/157 253/146/157 252/145/157
f 237/142/158 238/143/158 250/143/158 249/142/158
f 244/149/159 233/141/159 245/141/159 256/149/159
f 234/140/160 235/138/160 247/138/160 246/140/160
f 241/146/161 242/147/161 254/147/161 253/146/161
f 238/143/162 239/144/162 251/144/162 250/143/162
f 267/150/163 268/151/163 292/151/163 291/150/163
f 247/138/164 248/139/164 272/139/164 271/138/164
f 254/147/165 255/148/165 279/148/165 278/147/165
f 251/144/166 252/145/166 276/145/166 275/144/166
f 248/139/167 249/142/167 273/142/167 272/139/167
f 255/148/168 256/149/168 280/149/168 279/148/168
f 245/141/169 246/140/169 270/140/169 269/141/169
f 252/145/170 253/146/170 277/146/170 276/145/170
f 249/142/171 250/143/171 274/143/171 273/142/171
f 256/149/172 245/141/172 269/141/172 280/149/172
f 246/140/173 247/138/173 271/138/173 270/140/173
f 253/146/174 254/147/174 278/147/174 277/146/174
f 258/152/175 257/153/175 269/141/175 270/140/175
f 259/154/137 258/152/137 270/140/137 271/138/137
f 260/155/137 259/154/137 271/138/137 272/139/137
f 261/156/137 260/155/137 272/139/137 273/142/137
f 262/157/137 261/156/137 273/142/137 274/143/137
f 263/158/137 262/157/137 274/143/137 275/144/137
f 264/159/137 263/158/137 275/144/137 276/145/137
f 265/160/137 264/159/137 276/145/137 277/146/137
f 266/161/137 265/160/137 277/146/137 278/147/137
f 267/150/137 266/161/137 278/147/137 279/148/137
f 268/151/137 267/150/137 279/148/137 280/149/137
f 257/153/137 268/151/137 280/149/137 269/141/137
f 284/155/176 285/156/176 297/156/176 296/155/176
f 257/153/177 258/152/177 282/152/177 281/153/177
f 264/159/178 265/160/178 289/160/178 288/159/178
f 261/156/179 262/157/179 286/157/179 285/156/179
f 268/151/180 257/153/180 281/153/180 292/151/180
f 258/152/181 259/154/181 283/154/181 282/152/181
f 265/160/182 266/161/182 290/161/182 289/160/182
f 262/157/183 263/158/183 287/158/183 286/157/183
f 259/154/184 260/155/184 284/155/184 283/154/184
f 266/161/185 267/150/185 291/150/185 290/161/185
f 263/158/186 264/159/186 288/159/186 287/158/186
f 260/155/187 261/156/187 285/156/187 284/155/187
f 296/155/188 297/156/188 309/156/188 308/155/188
f 291/150/189 292/151/189 304/151/189 303/150/189
f 281/153/190 282/152/190 294/152/190 293/153/190
f 288/159/191 289/160/191 301/160/191 300/159/191
f 285/156/192 286/157/192 298/157/192 297/156/192
f 292/151/193 281/153/193 293/153/193 304/151/193
f 282/152/194 283/154/194 295/154/194 294/152/194
f 289/160/195 290/161/195 302/161/195 301/160/195
f 286/157/196 287/158/196 299/158/196 298/157/196
f 283/154/197 284/155/197 296/155/197 295/154/197
f 290/161/198 291/150/198 303/150/198 302/161/198
f 287/158/199 288/159/199 300/159/199 299/158/199
f 311/158/200 312/159/200 324/159/200 323/158/200
f 303/150/201 304/151/201 316/151/201 315/150/201
f 293/153/202 294/152/202 306/152/202 305/153/202
f 300/159/203 301/160/203 313/160/203 312/159/203
f 297/156/204 298/157/204 310/157/204 309/156/204
f 304/151/205 293/153/205 305/153/205 316/151/205
f 294/152/206 295/154/206 307/154/206 306/152/206
f 301/160/207 302/161/207 314/161/207 313/160/207
f 298/157/208 299/158/208 311/158/208 310/157/208
f 295/154/209 296/155/209 308/155/209 307/154/209
f 302/161/210 303/150/210 315/150/210 314/161/210
f 299/158/211 300/159/211 312/159/211 311/158/211
f 317/153/137 318/152/137 319/154/137 320/155/137 321/156/137 322/157/137 323/158/137 324/159/137 325/160/137 326/161/137 327/150/137 328/151/137
f 308/155/212 309/156/212 321/156/212 320/155/212
f 315/150/213 316/151/213 328/151/213 327/150/213
f 305/153/214 306/152/214 318/152/214 317/153/214
f 312/159/215 313/160/215 325/160/215 324/159/215
f 309/156/216 310/157/216 322/157/216 321/156/216
f 316/151/217 305/153/217 317/153/217 328/151/217
f 306/152/218 307/154/218 319/154/218 318/152/218
f 313/160/219 314/161/219 326/161/219 325/160/219
f 310/157/220 311/158/220 323/158/220 322/157/220
f 307/154/221 308/155/221 320/155/221 319/154/221
f 314/161/222 315/150/222 327/150/222 326/161/222
f 337/162/223 338/163/223 332/20/223 331/2/223
f 331/2/224 332/20/224 336/5/224 335/12/224
f 339/13/225 340/27/225 334/164/225 333/165/225
f 333/165/226 334/164/226 330/166/226 329/167/226
f 337/35/227 339/13/227 333/165/227 329/168/227
f 340/27/228 338/9/228 330/169/228 334/164/228
f 336/5/229 332/8/229 338/9/229 340/27/229
f 331/34/227 335/12/227 339/13/227 337/35/227
f 335/12/230 336/5/230 340/27/230 339/13/230
f 329/170/231 330/171/231 338/163/231 337/162/231
f 349/162/232 350/163/232 344/20/232 343/2/232
f 343/2/233 344/20/233 348/5/233 347/12/233
f 351/13/234 352/27/234 346/164/234 345/165/234
f 345/165/235 346/164/235 342/166/235 341/167/235
f 349/35/236 351/13/236 345/165/236 341/168/236
f 352/27/237 350/9/237 342/169/237 346/164/237
f 348/5/238 344/8/238 350/9/238 352/27/238
f 343/34/236 347/12/236 351/13/236 349/35/236
f 347/12/239 348/5/239 352/27/239 351/13/239
f 341/170/240 342/171/240 350/163/240 349/162/240
f 361/162/241 362/163/241 356/20/241 355/2/241
f 365/172/242 366/173/242 360/5/242 359/12/242
f 363/13/243 364/27/243 358/164/243 357/165/243
f 367/174/244 368/175/244 354/166/244 353/167/244
f 370/176/245 363/13/245 357/165/245 367/177/245
f 369/178/246 362/9/246 354/169/246 368/179/246
f 366/180/247 356/8/247 362/9/247 369/178/247
f 365/181/248 359/12/248 363/13/248 370/176/248
f 359/12/249 360/5/249 364/27/249 363/13/249
f 353/170/250 354/171/250 362/163/250 361/162/250
f 355/34/251 365/181/251 370/176/251 361/35/251
f 360/5/252 366/180/252 369/178/252 364/27/252
f 364/27/253 369/178/253 368/179/253 358/164/253
f 361/35/254 370/176/254 367/177/254 353/168/254
f 357/165/244 358/164/244 368/175/244 367/174/244
f 355/2/242 356/20/242 366/173/242 365/172/242
f 382/162/255 383/163/255 377/20/255 376/2/255
f 376/2/6 377/20/6 381/5/6 380/12/6
f 384/13/256 385/27/256 379/164/256 378/165/256
f 378/165/9 379/164/9 375/166/9 374/167/9
f 382/35/29 384/13/29 378/165/29 374/168/29
f 385/27/257 383/9/257 375/169/257 379/164/257
f 381/5/258 377/8/258 383/9/258 385/27/258
f 376/34/29 380/12/29 384/13/29 382/35/29
f 380/12/259 381/5/259 385/27/259 384/13/259
f 374/170/260 375/171/260 383/163/260 382/162/260
f 409/1/261 431/1/261 434/2/261 425/2/261
f 407/3/262 392/6/262 389/5/262 405/4/262
f 405/7/263 36/10/263 6/9/263 387/8/263
f 404/11/264 37/14/264 7/13/264 388/12/264
f 404/15/265 388/12/265 393/17/265 406/16/265
f 423/18/9 420/19/9 392/6/9 407/3/9
f 387/20/266 424/20/266 410/21/266 390/21/266
f 424/20/267 433/20/267 432/21/267 410/21/267
f 19/13/268 27/13/268 401/24/268 397/23/268
f 401/24/269 33/24/269 400/25/269
f 402/26/270 33/26/270 29/27/270
f 399/28/271 403/30/271 402/26/271 398/29/271
f 398/29/272 402/26/272 29/27/272 21/27/272
f 397/23/273 401/24/273 400/25/273 396/31/273
f 421/32/274 422/33/274 403/30/274 399/28/274
f 400/25/275 33/25/275 403/30/275 422/33/275
f 27/13/276 33/13/276 401/24/276
f 403/30/277 33/30/277 402/26/277
f 390/21/278 411/21/278 414/3/278 407/3/278
f 386/2/265 404/15/265 406/16/265 391/1/265
f 386/34/264 5/35/264 37/14/264 404/11/264
f 389/5/263 8/27/263 36/10/263 405/7/263
f 390/21/262 407/3/262 405/4/262 387/20/262
f 46/9/279 73/9/279 433/8/279 424/8/279
f 390/21/280 410/21/280 408/36/280 419/36/280
f 6/9/263 46/9/263 424/8/263 387/8/263
f 386/34/264 425/34/264 47/35/264 5/35/264
f 411/21/23 415/21/23 418/3/23 414/3/23
f 423/18/281 427/18/281 413/16/281 406/16/281
f 419/36/282 426/36/282 411/21/282 390/21/282
f 406/16/283 413/16/283 412/1/283 391/1/283
f 428/36/9 429/18/9 418/3/9 415/21/9
f 426/36/284 428/36/284 415/21/284 411/21/284
f 427/18/285 429/18/285 417/16/285 413/16/285
f 413/16/29 417/16/29 416/1/29 412/1/29
f 414/3/286 418/3/286 429/18/286 427/18/286
f 412/1/287 416/1/287 428/36/287 426/36/287
f 416/1/9 417/16/9 429/18/9 428/36/9
f 391/1/288 412/1/288 426/36/288 419/36/288
f 407/3/289 414/3/289 427/18/289 423/18/289
f 391/1/290 409/1/290 425/2/290 386/2/290
f 419/36/291 408/36/291 409/1/291 391/1/291
f 396/31/274 400/25/274 422/33/274 421/32/274
f 406/16/9 393/17/9 420/19/9 423/18/9
f 408/36/292 430/36/292 431/1/292 409/1/292
f 425/34/293 434/34/293 74/35/293 47/35/293
f 410/21/294 432/21/294 430/36/294 408/36/294
f 430/36/295 432/21/295 433/8/295 73/22/295 70/22/295
f 69/22/296 70/22/296 430/36/296 431/1/296
f 74/35/297 69/22/297 431/1/297 434/34/297
f 442/37/298 396/31/298 421/32/298 437/38/298
f 446/39/299 443/42/299 444/41/299 445/40/299
f 445/40/300 444/41/300 439/44/300 440/43/300
f 441/45/301 80/13/301 19/13/301 397/23/301
f 394/46/302 395/49/302 438/48/302 436/47/302
f 439/44/300 436/47/300 438/48/300 440/43/300
f 447/50/303 394/46/303 436/47/303 435/51/303
f 437/38/298 435/51/298 436/47/298 439/44/298
f 440/43/304 438/48/304 392/6/304 420/19/304
f 441/45/305 397/23/305 396/31/305 442/37/305
f 443/42/306 441/45/306 442/37/306 444/41/306
f 444/41/298 442/37/298 437/38/298 439/44/298
f 8/27/307 389/5/307 395/49/307 79/27/307
f 388/12/308 7/13/308 84/13/308 446/39/308
f 446/39/309 84/13/309 82/13/309 443/42/309
f 398/29/310 447/50/310 435/51/310 399/28/310
f 421/32/298 399/28/298 435/51/298 437/38/298
f 77/27/311 447/50/311 398/29/311 21/27/311
f 388/12/312 446/39/312 445/40/312 393/17/312
f 395/49/313 389/5/313 392/6/313 438/48/313
f 393/17/304 445/40/304 440/43/304 420/19/304
f 394/46/314 448/46/314 395/49/314
f 443/42/315 82/13/315 80/13/315 441/45/315
f 395/49/316 448/46/316 96/27/316 79/22/316
f 96/27/317 448/46/317 449/50/317 97/27/317
f 77/27/318 97/27/318 449/50/318 447/50/318
f 447/50/319 449/50/319 448/46/319 394/46/319
f 547/52/69 548/55/69 453/54/69 451/53/69
f 548/55/68 549/57/68 455/56/68 453/54/68
f 549/57/67 550/59/67 457/58/67 455/56/67
f 550/59/66 551/61/66 459/60/66 457/58/66
f 551/61/65 552/63/65 461/62/65 459/60/65
f 552/63/64 553/65/64 463/64/64 461/62/64
f 553/65/76 554/67/76 465/66/76 463/64/76
f 554/67/75 555/69/75 467/68/75 465/66/75
f 555/69/73 556/71/73 469/70/73 467/68/73
f 556/71/72 557/73/72 471/72/72 469/70/72
f 455/56/83 488/56/83 486/54/83 453/54/83
f 557/73/71 558/75/71 473/74/71 471/72/71
f 558/75/70 547/77/70 451/76/70 473/74/70
f 460/78/70 576/78/70 577/79/70 462/79/70
f 484/80/99 520/80/99 519/81/99 483/81/99
f 471/72/79 496/72/79 495/70/79 469/70/79
f 469/70/78 495/70/78 494/68/78 467/68/78
f 467/68/88 494/68/88 493/66/88 465/66/88
f 465/66/85 493/66/85 492/64/85 463/64/85
f 463/64/86 492/64/86 491/62/86 461/62/86
f 461/62/74 491/62/74 490/60/74 459/60/74
f 459/60/87 490/60/87 489/58/87 457/58/87
f 451/76/81 487/76/81 497/74/81 473/74/81
f 453/54/82 486/54/82 487/53/82 451/53/82
f 457/58/84 489/58/84 488/56/84 455/56/84
f 473/74/80 497/74/80 496/72/80 471/72/80
f 475/82/89 487/85/89 486/84/89 474/83/89
f 474/83/89 486/84/89 488/87/89 476/86/89
f 476/86/89 488/87/89 489/89/89 477/88/89
f 477/88/89 489/89/89 490/91/89 478/90/89
f 478/90/89 490/91/89 491/93/89 479/92/89
f 479/92/89 491/93/89 492/95/89 480/94/89
f 480/94/89 492/95/89 493/97/89 481/96/89
f 481/96/89 493/97/89 494/99/89 482/98/89
f 482/98/89 494/99/89 495/100/89 483/81/89
f 483/81/89 495/100/89 496/101/89 484/80/89
f 484/80/89 496/101/89 497/103/89 485/102/89
f 485/102/89 497/103/89 487/85/89 475/82/89
f 500/104/112 524/104/112 522/105/112 498/105/112
f 481/96/97 517/96/97 516/94/97 480/94/97
f 478/90/101 514/90/101 513/88/101 477/88/101
f 485/102/95 521/102/95 520/80/95 484/80/95
f 474/83/100 510/83/100 511/82/100 475/82/100
f 482/98/93 518/98/93 517/96/93 481/96/93
f 479/92/98 515/92/98 514/90/98 478/90/98
f 475/82/91 511/82/91 521/102/91 485/102/91
f 476/86/96 512/86/96 510/83/96 474/83/96
f 483/81/77 519/81/77 518/98/77 482/98/77
f 480/94/94 516/94/94 515/92/94 479/92/94
f 477/88/92 513/88/92 512/86/92 476/86/92
f 499/106/89 511/82/89 510/83/89 498/105/89
f 498/105/89 510/83/89 512/86/89 500/104/89
f 500/104/89 512/86/89 513/88/89 501/107/89
f 501/107/89 513/88/89 514/90/89 502/108/89
f 502/108/89 514/90/89 515/92/89 503/109/89
f 503/109/89 515/92/89 516/94/89 504/110/89
f 504/110/89 516/94/89 517/96/89 505/111/89
f 505/111/89 517/96/89 518/98/89 506/112/89
f 506/112/89 518/98/89 519/81/89 507/113/89
f 507/113/89 519/81/89 520/80/89 508/114/89
f 508/114/89 520/80/89 521/102/89 509/115/89
f 509/115/89 521/102/89 511/82/89 499/106/89
f 523/106/120 535/106/120 545/115/120 533/115/120
f 507/113/106 531/113/106 530/112/106 506/112/106
f 504/110/110 528/110/110 527/109/110 503/109/110
f 501/107/108 525/107/108 524/104/108 500/104/108
f 508/114/103 532/114/103 531/113/103 507/113/103
f 505/111/113 529/111/113 528/110/113 504/110/113
f 502/108/105 526/108/105 525/107/105 501/107/105
f 509/115/111 533/115/111 532/114/111 508/114/111
f 498/105/104 522/105/104 523/106/104 499/106/104
f 506/112/109 530/112/109 529/111/109 505/111/109
f 503/109/90 527/109/90 526/108/90 502/108/90
f 499/106/107 523/106/107 533/115/107 509/115/107
f 539/109/127 546/109/127 538/108/127
f 524/104/125 536/104/125 534/105/125 522/105/125
f 531/113/119 543/113/119 542/112/119 530/112/119
f 528/110/123 540/110/123 539/109/123 527/109/123
f 525/107/121 537/107/121 536/104/121 524/104/121
f 532/114/116 544/114/116 543/113/116 531/113/116
f 529/111/102 541/111/102 540/110/102 528/110/102
f 526/108/118 538/108/118 537/107/118 525/107/118
f 533/115/124 545/115/124 544/114/124 532/114/124
f 522/105/117 534/105/117 535/106/117 523/106/117
f 530/112/122 542/112/122 541/111/122 529/111/122
f 527/109/115 539/109/115 538/108/115 526/108/115
f 535/106/132 546/106/132 545/115/132
f 536/104/114 546/104/114 534/105/114
f 543/113/131 546/113/131 542/112/131
f 540/110/135 546/110/135 539/109/135
f 537/107/133 546/107/133 536/104/133
f 544/114/128 546/114/128 543/113/128
f 541/111/126 546/111/126 540/110/126
f 538/108/130 546/108/130 537/107/130
f 545/115/136 546/115/136 544/114/136
f 534/105/129 546/105/129 535/106/129
f 542/112/134 546/112/134 541/111/134
f 452/116/137 548/119/137 547/118/137 450/117/137
f 454/120/137 549/121/137 548/119/137 452/116/137
f 456/122/137 550/123/137 549/121/137 454/120/137
f 458/124/137 551/125/137 550/123/137 456/122/137
f 460/78/137 552/126/137 551/125/137 458/124/137
f 462/79/137 553/127/137 552/126/137 460/78/137
f 464/128/137 554/129/137 553/127/137 462/79/137
f 466/130/137 555/131/137 554/129/137 464/128/137
f 468/132/137 556/133/137 555/131/137 466/130/137
f 470/134/137 557/135/137 556/133/137 468/132/137
f 472/136/137 558/137/137 557/135/137 470/134/137
f 450/117/137 547/118/137 558/137/137 472/136/137
f 561/138/142 585/138/142 586/139/142 562/139/142
f 454/120/73 573/120/73 574/122/73 456/122/73
f 468/132/66 580/132/66 581/134/66 470/134/66
f 462/79/69 577/79/69 578/128/69 464/128/69
f 456/122/72 574/122/72 575/124/72 458/124/72
f 470/134/65 581/134/65 582/136/65 472/136/65
f 450/117/76 571/117/76 572/116/76 452/116/76
f 464/128/68 578/128/68 579/130/68 466/130/68
f 458/124/71 575/124/71 576/78/71 460/78/71
f 472/136/64 582/136/64 571/117/64 450/117/64
f 452/116/75 572/116/75 573/120/75 454/120/75
f 466/130/67 579/130/67 580/132/67 468/132/67
f 560/140/137 572/116/137 571/117/137 559/141/137
f 561/138/137 573/120/137 572/116/137 560/140/137
f 562/139/137 574/122/137 573/120/137 561/138/137
f 563/142/137 575/124/137 574/122/137 562/139/137
f 564/143/137 576/78/137 575/124/137 563/142/137
f 565/144/137 577/79/137 576/78/137 564/143/137
f 566/145/137 578/128/137 577/79/137 565/144/137
f 567/146/137 579/130/137 578/128/137 566/145/137
f 568/147/137 580/132/137 579/130/137 567/146/137
f 569/148/137 581/134/137 580/132/137 568/147/137
f 570/149/137 582/136/137 581/134/137 569/148/137
f 559/141/137 571/117/137 582/136/137 570/149/137
f 585/138/154 597/138/154 598/139/154 586/139/154
f 568/147/149 592/147/149 593/148/149 569/148/149
f 565/144/147 589/144/147 590/145/147 566/145/147
f 562/139/138 586/139/138 587/142/138 563/142/138
f 569/148/145 593/148/145 594/149/145 570/149/145
f 559/141/150 583/141/150 584/140/150 560/140/150
f 566/145/143 590/145/143 591/146/143 567/146/143
f 563/142/148 587/142/148 588/143/148 564/143/148
f 570/149/141 594/149/141 583/141/141 559/141/141
f 560/140/146 584/140/146 585/138/146 561/138/146
f 567/146/140 591/146/140 592/147/140 568/147/140
f 564/143/144 588/143/144 589/144/144 565/144/144
f 600/143/169 624/143/169 625/144/169 601/144/169
f 592/147/161 604/147/161 605/148/161 593/148/161
f 589/144/159 601/144/159 602/145/159 590/145/159
f 586/139/139 598/139/139 599/142/139 587/142/139
f 593/148/157 605/148/157 606/149/157 594/149/157
f 583/141/162 595/141/162 596/140/162 584/140/162
f 590/145/155 602/145/155 603/146/155 591/146/155
f 587/142/160 599/142/160 600/143/160 588/143/160
f 594/149/153 606/149/153 595/141/153 583/141/153
f 584/140/158 596/140/158 597/138/158 585/138/158
f 591/146/152 603/146/152 604/147/152 592/147/152
f 588/143/156 600/143/156 601/144/156 589/144/156
f 617/150/178 641/150/178 642/151/178 618/151/178
f 597/138/167 621/138/167 622/139/167 598/139/167
f 604/147/174 628/147/174 629/148/174 605/148/174
f 601/144/172 625/144/172 626/145/172 602/145/172
f 598/139/164 622/139/164 623/142/164 599/142/164
f 605/148/170 629/148/170 630/149/170 606/149/170
f 595/141/151 619/141/151 620/140/151 596/140/151
f 602/145/168 626/145/168 627/146/168 603/146/168
f 599/142/173 623/142/173 624/143/173 600/143/173
f 606/149/166 630/149/166 619/141/166 595/141/166
f 596/140/171 620/140/171 621/138/171 597/138/171
f 603/146/165 627/146/165 628/147/165 604/147/165
f 608/152/137 620/140/137 619/141/137 607/153/137
f 609/154/137 621/138/137 620/140/137 608/152/137
f 610/155/137 622/139/137 621/138/137 609/154/137
f 611/156/137 623/142/137 622/139/137 610/155/137
f 612/157/137 624/143/137 623/142/137 611/156/137
f 613/158/137 625/144/137 624/143/137 612/157/137
f 614/159/137 626/145/137 625/144/137 613/158/137
f 615/160/137 627/146/137 626/145/137 614/159/137
f 616/161/137 628/147/137 627/146/137 615/160/137
f 617/150/137 629/148/137 628/147/137 616/161/137
f 618/151/137 630/149/137 629/148/137 617/150/137
f 607/153/137 619/141/137 630/149/137 618/151/137
f 634/155/197 646/155/197 647/156/197 635/156/197
f 607/153/183 631/153/183 632/152/183 608/152/183
f 614/159/163 638/159/163 639/160/163 615/160/163
f 611/156/181 635/156/181 636/157/181 612/157/181
f 618/151/186 642/151/186 631/153/186 607/153/186
f 608/152/179 632/152/179 633/154/179 609/154/179
f 615/160/185 639/160/185 640/161/185 616/161/185
f 612/157/177 636/157/177 637/158/177 613/158/177
f 609/154/187 633/154/187 634/155/187 610/155/187
f 616/161/182 640/161/182 641/150/182 617/150/182
f 613/158/180 637/158/180 638/159/180 614/159/180
f 610/155/184 634/155/184 635/156/184 611/156/184
f 646/155/209 658/155/209 659/156/209 647/156/209
f 641/150/191 653/150/191 654/151/191 642/151/191
f 631/153/196 643/153/196 644/152/196 632/152/196
f 638/159/189 650/159/189 651/160/189 639/160/189
f 635/156/194 647/156/194 648/157/194 636/157/194
f 642/151/199 654/151/199 643/153/199 631/153/199
f 632/152/192 644/152/192 645/154/192 633/154/192
f 639/160/198 651/160/198 652/161/198 640/161/198
f 636/157/190 648/157/190 649/158/190 637/158/190
f 633/154/176 645/154/176 646/155/176 634/155/176
f 640/161/195 652/161/195 653/150/195 641/150/195
f 637/158/193 649/158/193 650/159/193 638/159/193
f 661/158/217 673/158/217 674/159/217 662/159/217
f 653/150/203 665/150/203 666/151/203 654/151/203
f 643/153/208 655/153/208 656/152/208 644/152/208
f 650/159/201 662/159/201 663/160/201 651/160/201
f 647/156/206 659/156/206 660/157/206 648/157/206
f 654/151/211 666/151/211 655/153/211 643/153/211
f 644/152/204 656/152/204 657/154/204 645/154/204
f 651/160/210 663/160/210 664/161/210 652/161/210
f 648/157/202 660/157/202 661/158/202 649/158/202
f 645/154/188 657/154/188 658/155/188 646/155/188
f 652/161/207 664/161/207 665/150/207 653/150/207
f 649/158/205 661/158/205 662/159/205 650/159/205
f 667/153/137 678/151/137 677/150/137 676/161/137 675/160/137 674/159/137 673/158/137 672/157/137 671/156/137 670/155/137 669/154/137 668/152/137
f 658/155/221 670/155/221 671/156/221 659/156/221
f 665/150/215 677/150/215 678/151/215 666/151/215
f 655/153/220 667/153/220 668/152/220 656/152/220
f 662/159/213 674/159/213 675/160/213 663/160/213
f 659/156/218 671/156/218 672/157/218 660/157/218
f 666/151/200 678/151/200 667/153/200 655/153/200
f 656/152/216 668/152/216 669/154/216 657/154/216
f 663/160/222 675/160/222 676/161/222 664/161/222
f 660/157/214 672/157/214 673/158/214 661/158/214
f 657/154/212 669/154/212 670/155/212 658/155/212
f 664/161/219 676/161/219 677/150/219 665/150/219
f 687/162/320 681/2/320 682/20/320 688/163/320
f 681/2/233 685/12/233 686/5/233 682/20/233
f 689/13/321 683/165/321 684/164/321 690/27/321
f 683/165/235 679/167/235 680/166/235 684/164/235
f 687/35/322 679/168/322 683/165/322 689/13/322
f 690/27/323 684/164/323 680/169/323 688/9/323
f 686/5/324 690/27/324 688/9/324 682/8/324
f 681/34/322 687/35/322 689/13/322 685/12/322
f 685/12/325 689/13/325 690/27/325 686/5/325
f 679/170/326 687/162/326 688/163/326 680/171/326
f 699/162/327 693/2/327 694/20/327 700/163/327
f 693/2/224 697/12/224 698/5/224 694/20/224
f 701/13/328 695/165/328 696/164/328 702/27/328
f 695/165/226 691/167/226 692/166/226 696/164/226
f 699/35/329 691/168/329 695/165/329 701/13/329
f 702/27/330 696/164/330 692/169/330 700/9/330
f 698/5/331 702/27/331 700/9/331 694/8/331
f 693/34/329 699/35/329 701/13/329 697/12/329
f 697/12/332 701/13/332 702/27/332 698/5/332
f 691/170/333 699/162/333 700/163/333 692/171/333
f 711/162/334 705/2/334 706/20/334 712/163/334
f 715/172/335 709/12/335 710/5/335 716/173/335
f 713/13/336 707/165/336 708/164/336 714/27/336
f 717/174/337 703/167/337 704/166/337 718/175/337
f 720/176/338 717/177/338 707/165/338 713/13/338
f 719/178/339 718/179/339 704/169/339 712/9/339
f 716/180/340 719/178/340 712/9/340 706/8/340
f 715/181/341 720/176/341 713/13/341 709/12/341
f 709/12/342 713/13/342 714/27/342 710/5/342
f 703/170/343 711/162/343 712/163/343 704/171/343
f 705/34/344 711/35/344 720/176/344 715/181/344
f 710/5/345 714/27/345 719/178/345 716/180/345
f 714/27/346 708/164/346 718/179/346 719/178/346
f 711/35/347 703/168/347 717/177/347 720/176/347
f 707/165/337 717/174/337 718/175/337 708/164/337
f 705/2/335 715/172/335 716/173/335 706/20/335
f 382/162/260 726/2/260 727/20/260 383/163/260
f 726/2/9 730/12/9 731/5/9 727/20/9
f 384/13/259 728/165/259 729/164/259 385/27/259
f 728/165/6 724/167/6 725/166/6 729/164/6
f 382/35/29 724/168/29 728/165/29 384/13/29
f 385/27/258 729/164/258 725/169/258 383/9/258
f 731/5/257 385/27/257 383/9/257 727/8/257
f 726/34/29 382/35/29 384/13/29 730/12/29
f 730/12/256 384/13/256 385/27/256 731/5/256
f 724/170/255 382/162/255 383/163/255 725/171/255
l 373 371
l 372 373
l 723 721
l 722 723
