# Blender 5.1.2
# www.blender.org
mtllib smooth2-CG-Model.mtl
o Plane
v -9.530300 -0.491377 -0.761596
v -9.530300 0.491377 -0.761596
v 11.157622 -0.491377 -0.761596
v 11.157622 0.491377 -0.761596
v -9.530300 -0.738711 0.000000
v -9.530300 0.738711 0.000000
v 11.157622 -0.738711 0.000000
v 11.157622 0.738711 0.000000
v -9.530300 0.246237 -1.000000
v -9.530300 -0.246237 -1.000000
v 11.157622 0.246237 -1.000000
v 11.157622 -0.246237 -1.000000
v 12.609282 0.344511 -0.621489
v 11.927015 0.505866 -0.670911
v -9.530300 0.246237 0.000000
v -9.530300 -0.246237 0.000000
v 13.327595 -0.075889 -0.476755
v 13.327595 -0.197646 -0.398857
v 13.327595 -0.274398 0.000000
v 13.327595 0.197646 -0.398857
v 13.327595 0.274398 0.000000
v 13.327595 -0.091466 0.000000
v 13.327595 0.075889 -0.476755
v 13.327595 0.091466 0.000000
v 13.803816 -0.021082 -0.051713
v 13.803816 -0.061828 -0.036294
v 13.803816 -0.065451 0.000000
v 13.803816 0.061828 -0.036294
v 13.803816 0.065451 0.000000
v 13.803816 -0.021817 0.000000
v 13.803816 0.021082 -0.051713
v 13.803816 0.021817 0.000000
v 13.875731 0.008819 0.000000
v 0.160913 -0.491377 -0.761596
v 0.160913 0.491377 -0.761596
v 0.160913 0.738711 0.000000
v 0.160913 -0.738711 0.000000
v 0.160913 -0.246237 -1.000000
v 0.160913 0.246237 -1.000000
v -9.977055 0.000000 0.000000
v -9.977055 0.000000 -1.000000
v -9.977055 -0.246237 0.000000
v -9.977055 0.246237 0.000000
v -9.977055 -0.246237 -0.953018
v -9.977055 0.246237 -0.953018
v -9.977055 0.738711 0.000000
v -9.977055 -0.738711 0.000000
v -9.155571 0.093866 -1.234221
v -9.155571 -0.093866 -1.234221
v -0.177377 -0.093866 -1.234221
v -0.177377 0.093866 -1.234221
v -8.304668 0.093866 -6.151714
v -8.304668 -0.093866 -6.151714
v -5.169948 -0.093866 -6.151714
v -5.169948 0.093866 -6.151714
v -9.876535 0.000000 -1.000000
v 11.157622 0.000000 -1.000000
v -9.530300 0.000000 0.000000
v 13.327595 -0.000000 -0.476755
v 13.803816 -0.000000 -0.051713
v 6.892735 0.000000 -1.000000
v -9.977055 0.491377 -0.761596
v -9.977055 -0.491377 -0.761596
v -9.365295 0.000000 -1.234221
v 0.882724 0.000000 -1.966635
v -8.514393 0.000000 -6.151714
v -4.722203 0.000000 -6.151714
v -11.610521 0.222370 -0.352956
v -12.213844 0.295373 0.000000
v -12.191547 0.418729 0.000000
v -11.490205 0.049639 -0.339638
v -11.538972 0.318566 -0.351956
v -11.982010 0.541667 0.000000
v -11.992484 0.110729 0.000000
v -11.849524 0.454080 -0.228501
v -11.101708 -0.206907 -0.425624
v 12.968439 0.390476 0.000000
v 12.609282 0.506554 0.000000
v 11.927015 0.710554 0.000000
v 12.968439 -0.390476 0.000000
v 12.968439 0.118476 -0.607566
v 12.609282 -0.506554 0.000000
v 12.609282 0.161063 -0.738377
v 12.102657 -0.622633 0.000000
v 12.968439 -0.000000 -0.607566
v 12.102657 0.203650 -0.869189
v 12.609282 -0.000000 -0.738377
v 12.102657 -0.000000 -0.869189
v 12.968439 -0.271079 -0.489541
v 12.968439 -0.118476 -0.607566
v 12.609282 -0.344511 -0.580226
v 12.609282 -0.161063 -0.738377
v 12.102657 -0.203650 -0.869189
v 12.102657 -0.417944 -0.670911
v 12.968439 0.271079 -0.489541
v 12.565870 0.647469 0.000000
v 12.871503 0.531391 0.000000
v 12.565870 0.485426 -0.569563
v 12.871503 0.411994 -0.478878
v -8.760000 0.000000 -7.217230
v -4.240000 -0.000000 -7.300000
v -8.760000 -0.258615 -7.147934
v -4.240000 -0.300000 -7.219615
v -8.760000 -0.447934 -6.958615
v -4.240000 -0.519615 -7.000000
v -8.760000 -0.517230 -6.700000
v -4.240000 -0.600000 -6.700000
v -8.760000 -0.447934 -6.441385
v -4.240000 -0.519615 -6.400000
v -8.760000 -0.258615 -6.252066
v -4.240000 -0.300000 -6.180385
v -8.760000 0.000000 -6.182770
v -4.240000 -0.000000 -6.100000
v -8.760000 0.258615 -6.252066
v -4.240000 0.300000 -6.180385
v -8.760000 0.447934 -6.441385
v -4.240000 0.519615 -6.400000
v -8.760000 0.517230 -6.700000
v -4.240000 0.600000 -6.700000
v -8.760000 0.447934 -6.958615
v -4.240000 0.519615 -7.000000
v -8.760000 0.258615 -7.147934
v -4.240000 0.300000 -7.219615
v -3.490523 -0.212615 -7.068260
v -3.490523 -0.000000 -7.125229
v -3.490523 -0.368260 -6.912615
v -3.490523 -0.425230 -6.700000
v -3.490523 -0.368260 -6.487385
v -3.490523 -0.212615 -6.331740
v -3.490523 -0.000000 -6.274770
v -3.490523 0.212615 -6.331740
v -3.490523 0.368260 -6.487385
v -3.490523 0.425230 -6.700000
v -3.490523 0.368260 -6.912615
v -3.490523 0.212615 -7.068260
v -3.490523 -0.238552 -7.113183
v -3.490523 -0.000000 -7.177104
v -3.490523 -0.413184 -6.938551
v -3.490523 -0.477104 -6.700000
v -3.490523 -0.413184 -6.461448
v -3.490523 -0.238552 -6.286816
v -3.490523 -0.000000 -6.222897
v -3.490523 0.238552 -6.286816
v -3.490523 0.413184 -6.461448
v -3.490523 0.477103 -6.700000
v -3.490523 0.413184 -6.938551
v -3.490523 0.238552 -7.113183
v -4.226222 -0.229367 -7.097274
v -4.226222 -0.000000 -7.158733
v -4.226222 -0.397275 -6.929367
v -4.226222 -0.458733 -6.700000
v -4.226222 -0.397275 -6.470634
v -4.226222 -0.229367 -6.302725
v -4.226222 -0.000000 -6.241267
v -4.226222 0.229366 -6.302725
v -4.226222 0.397274 -6.470633
v -4.226222 0.458733 -6.700000
v -4.226222 0.397274 -6.929366
v -4.226222 0.229366 -7.097274
v -4.226222 -0.273370 -7.173491
v -4.226222 -0.000000 -7.246740
v -4.226222 -0.473491 -6.973370
v -4.226222 -0.546740 -6.700000
v -4.226222 -0.473491 -6.426630
v -4.226222 -0.273370 -6.226509
v -4.226222 -0.000000 -6.153260
v -4.226222 0.273370 -6.226509
v -4.226222 0.473491 -6.426630
v -4.226222 0.546740 -6.700000
v -4.226222 0.473491 -6.973370
v -4.226222 0.273370 -7.173491
v -3.901342 -0.213004 -7.068933
v -3.901342 -0.000000 -7.126007
v -3.901342 -0.368933 -6.913003
v -3.901342 -0.426007 -6.700000
v -3.901342 -0.368933 -6.486996
v -3.901342 -0.213004 -6.331067
v -3.901342 -0.000000 -6.273993
v -3.901342 0.213003 -6.331067
v -3.901342 0.368933 -6.486996
v -3.901342 0.426007 -6.700000
v -3.901342 0.368933 -6.913003
v -3.901342 0.213003 -7.068933
v -3.273282 -0.147781 -6.955963
v -3.273282 -0.000000 -6.995561
v -3.273282 -0.255964 -6.847780
v -3.273282 -0.295561 -6.700000
v -3.273282 -0.255964 -6.552219
v -3.273282 -0.147781 -6.444036
v -3.273282 -0.000000 -6.404438
v -3.273282 0.147780 -6.444036
v -3.273282 0.255963 -6.552219
v -3.273282 0.295561 -6.700000
v -3.273282 0.255963 -6.847780
v -3.273282 0.147780 -6.955963
v -2.521488 -0.000000 -6.700000
v -8.760000 0.000000 -7.300000
v -8.760000 -0.300000 -7.219615
v -8.760000 -0.519615 -7.000000
v -8.760000 -0.600000 -6.700000
v -8.760000 -0.519615 -6.400000
v -8.760000 -0.300000 -6.180385
v -8.760000 0.000000 -6.100000
v -8.760000 0.300000 -6.180385
v -8.760000 0.519615 -6.400000
v -8.760000 0.600000 -6.700000
v -8.760000 0.519615 -7.000000
v -8.760000 0.300000 -7.219615
v -8.326891 0.000000 -6.923534
v -8.326891 -0.111767 -6.893586
v -8.326891 -0.193586 -6.811767
v -8.326891 -0.223534 -6.700000
v -8.326891 -0.193586 -6.588233
v -8.326891 -0.111767 -6.506413
v -8.326891 0.000000 -6.476466
v -8.326891 0.111767 -6.506413
v -8.326891 0.193586 -6.588233
v -8.326891 0.223534 -6.700000
v -8.326891 0.193586 -6.811767
v -8.326891 0.111767 -6.893586
v -8.326891 0.000000 -7.217230
v -8.326891 -0.258615 -7.147934
v -8.326891 -0.447934 -6.958615
v -8.326891 -0.517230 -6.700000
v -8.326891 -0.447934 -6.441385
v -8.326891 -0.258615 -6.252066
v -8.326891 0.000000 -6.182770
v -8.326891 0.258615 -6.252066
v -8.326891 0.447934 -6.441385
v -8.326891 0.517230 -6.700000
v -8.326891 0.447934 -6.958615
v -8.326891 0.258615 -7.147934
v -8.588819 0.000000 -7.062640
v -8.588819 -0.181320 -7.014055
v -8.588819 -0.314055 -6.881320
v -8.588819 -0.362640 -6.700000
v -8.588819 -0.314055 -6.518680
v -8.588819 -0.181320 -6.385944
v -8.588819 0.000000 -6.337359
v -8.588819 0.181320 -6.385944
v -8.588819 0.314056 -6.518680
v -8.588819 0.362640 -6.700000
v -8.588819 0.314056 -6.881320
v -8.588819 0.181320 -7.014055
v -8.913871 0.000000 -7.163504
v -8.913871 -0.231752 -7.101406
v -8.913871 -0.401406 -6.931752
v -8.913871 -0.463504 -6.700000
v -8.913871 -0.401406 -6.468248
v -8.913871 -0.231752 -6.298594
v -8.913871 0.000000 -6.236495
v -8.913871 0.231752 -6.298594
v -8.913871 0.401406 -6.468248
v -8.913871 0.463504 -6.700000
v -8.913871 0.401406 -6.931752
v -8.913871 0.231752 -7.101406
v -9.337793 0.000000 -7.200966
v -9.337793 -0.250483 -7.133849
v -9.337793 -0.433850 -6.950483
v -9.337793 -0.500966 -6.700000
v -9.337793 -0.433850 -6.449516
v -9.337793 -0.250483 -6.266150
v -9.337793 0.000000 -6.199033
v -9.337793 0.250483 -6.266150
v -9.337793 0.433850 -6.449516
v -9.337793 0.500967 -6.700000
v -9.337793 0.433850 -6.950483
v -9.337793 0.250483 -7.133849
v -9.337793 0.000000 -7.234599
v -9.337793 -0.267300 -7.162976
v -9.337793 -0.462977 -6.967299
v -9.337793 -0.534599 -6.700000
v -9.337793 -0.462976 -6.432700
v -9.337793 -0.267300 -6.237023
v -9.337793 0.000000 -6.165401
v -9.337793 0.267300 -6.237023
v -9.337793 0.462977 -6.432700
v -9.337793 0.534599 -6.700000
v -9.337793 0.462977 -6.967299
v -9.337793 0.267300 -7.162976
v -8.915062 -0.000000 -7.133400
v -8.915062 -0.216700 -7.075336
v -8.915062 -0.375336 -6.916700
v -8.915062 -0.433401 -6.700000
v -8.915062 -0.375336 -6.483299
v -8.915062 -0.216700 -6.324664
v -8.915062 -0.000000 -6.266599
v -8.915062 0.216700 -6.324664
v -8.915062 0.375336 -6.483299
v -8.915062 0.433401 -6.700000
v -8.915062 0.375336 -6.916700
v -8.915062 0.216700 -7.075336
v -8.590295 -0.000000 -7.035210
v -8.590295 -0.167605 -6.990300
v -8.590295 -0.290301 -6.867605
v -8.590295 -0.335211 -6.700000
v -8.590295 -0.290301 -6.532394
v -8.590295 -0.167605 -6.409699
v -8.590295 -0.000000 -6.364789
v -8.590295 0.167605 -6.409699
v -8.590295 0.290300 -6.532394
v -8.590295 0.335210 -6.700000
v -8.590295 0.290300 -6.867605
v -8.590295 0.167605 -6.990300
v -8.326773 -0.000000 -6.898658
v -8.326773 -0.099330 -6.872043
v -8.326773 -0.172044 -6.799329
v -8.326773 -0.198659 -6.700000
v -8.326773 -0.172044 -6.600670
v -8.326773 -0.099330 -6.527956
v -8.326773 -0.000000 -6.501341
v -8.326773 0.099329 -6.527956
v -8.326773 0.172043 -6.600670
v -8.326773 0.198658 -6.700000
v -8.326773 0.172043 -6.799329
v -8.326773 0.099329 -6.872043
v -8.098018 -0.000000 -6.726828
v -8.098018 -0.013414 -6.723234
v -8.098018 -0.023234 -6.713414
v -8.098018 -0.026829 -6.700000
v -8.098018 -0.023234 -6.686586
v -8.098018 -0.013414 -6.676766
v -8.098018 -0.000000 -6.673172
v -8.098018 0.013414 -6.676766
v -8.098018 0.023234 -6.686586
v -8.098018 0.026828 -6.700000
v -8.098018 0.023234 -6.713414
v -8.098018 0.013414 -6.723234
v -8.285122 0.455987 -6.362306
v -7.936966 1.367143 -5.836250
v -8.285122 0.520445 -6.473951
v -7.936966 1.431601 -5.947895
v -6.285121 0.455987 -6.362306
v -7.719411 1.367143 -5.836250
v -6.285121 0.520445 -6.473951
v -7.719411 1.431601 -5.947895
v -8.399473 0.488216 -6.418128
v -7.987065 1.463232 -5.855202
v -6.030373 0.488216 -6.418128
v -7.602993 1.463232 -5.855202
v -8.285122 -0.520445 -6.473951
v -7.936966 -1.431601 -5.947894
v -8.285122 -0.455986 -6.362306
v -7.936966 -1.367143 -5.836250
v -6.285121 -0.520445 -6.473951
v -7.719411 -1.431601 -5.947894
v -6.285121 -0.455986 -6.362306
v -7.719411 -1.367143 -5.836250
v -8.399473 -0.488216 -6.418128
v -7.987065 -1.463232 -5.855202
v -6.030373 -0.488216 -6.418128
v -7.602993 -1.463232 -5.855202
v -11.524984 0.190057 -0.218267
v -11.167939 -0.180696 -0.950453
v -11.524984 0.050458 -0.157464
v -11.167939 -0.320295 -0.889650
v -9.265800 0.079549 -0.436505
v -11.386364 -0.632489 -1.842682
v -9.265800 -0.060050 -0.375702
v -11.386364 -0.772088 -1.781879
v -11.762841 0.120258 -0.187865
v -11.439615 -0.259330 -0.937499
v -8.956917 0.009750 -0.406103
v -11.325557 -0.766283 -1.938660
v -10.478303 0.043058 -0.172079
v -11.631338 -0.779499 -1.796515
v -10.478303 0.182657 -0.232882
v -11.631338 -0.639900 -1.857318
v -11.921218 -0.766543 -1.939175
v -10.393187 0.112857 -0.202480
v -11.524984 0.190057 -0.218267
v -11.524984 0.050458 -0.157464
v -11.762841 0.120258 -0.187865
v -11.646520 0.537021 0.064458
v -11.433998 1.545218 0.064458
v -11.646520 0.537021 -0.064458
v -11.433998 1.545218 -0.064458
v -7.108664 0.537021 0.064458
v -10.970195 1.545218 0.064458
v -7.108664 0.537021 -0.064458
v -10.970195 1.545218 -0.064458
v -11.760871 0.537021 0.000000
v -11.540804 1.744552 0.000000
v -6.688002 0.537021 0.000000
v -10.844810 1.744552 0.000000
v -9.530300 -0.491377 0.761596
v -9.530300 0.491377 0.761596
v 11.157622 -0.491377 0.761596
v 11.157622 0.491377 0.761596
v -9.530300 0.246237 1.000000
v -9.530300 -0.246237 1.000000
v 11.157622 0.246237 1.000000
v 11.157622 -0.246237 1.000000
v 12.609282 0.344511 0.621489
v 11.927015 0.505866 0.670911
v 13.327595 -0.075889 0.476755
v 13.327595 -0.197646 0.398857
v 13.327595 0.197646 0.398857
v 13.327595 0.075889 0.476755
v 13.803816 -0.021082 0.051713
v 13.803816 -0.061828 0.036294
v 13.803816 0.061828 0.036294
v 13.803816 0.021082 0.051713
v 0.160913 -0.491377 0.761596
v 0.160913 0.491377 0.761596
v 0.160913 -0.246237 1.000000
v 0.160913 0.246237 1.000000
v -9.977055 0.000000 1.000000
v -9.977055 -0.246237 0.953018
v -9.977055 0.246237 0.953018
v -9.155571 0.093866 1.234221
v -9.155571 -0.093866 1.234221
v -0.177377 -0.093866 1.234221
v -0.177377 0.093866 1.234221
v -8.304668 0.093866 6.151714
v -8.304668 -0.093866 6.151714
v -5.169948 -0.093866 6.151714
v -5.169948 0.093866 6.151714
v -9.876535 0.000000 1.000000
v 11.157622 0.000000 1.000000
v 13.327595 -0.000000 0.476755
v 13.803816 -0.000000 0.051713
v 6.892735 0.000000 1.000000
v -9.977055 0.491377 0.761596
v -9.977055 -0.491377 0.761596
v -9.365295 0.000000 1.234221
v 0.882724 0.000000 1.966635
v -8.514393 0.000000 6.151714
v -4.722203 0.000000 6.151714
v -11.610521 0.222370 0.352956
v -11.490205 0.049639 0.339638
v -11.538972 0.318566 0.351956
v -11.849524 0.454080 0.228501
v -11.101708 -0.206907 0.425624
v 12.968439 0.118476 0.607566
v 12.609282 0.161063 0.738377
v 12.968439 -0.000000 0.607566
v 12.102657 0.203650 0.869189
v 12.609282 -0.000000 0.738377
v 12.102657 -0.000000 0.869189
v 12.968439 -0.271079 0.489541
v 12.968439 -0.118476 0.607566
v 12.609282 -0.344511 0.580226
v 12.609282 -0.161063 0.738377
v 12.102657 -0.203650 0.869189
v 12.102657 -0.417944 0.670911
v 12.968439 0.271079 0.489541
v 12.565870 0.485426 0.569563
v 12.871503 0.411994 0.478878
v -8.760000 0.000000 7.217230
v -4.240000 -0.000000 7.300000
v -8.760000 -0.258615 7.147934
v -4.240000 -0.300000 7.219615
v -8.760000 -0.447934 6.958615
v -4.240000 -0.519615 7.000000
v -8.760000 -0.517230 6.700000
v -4.240000 -0.600000 6.700000
v -8.760000 -0.447934 6.441385
v -4.240000 -0.519615 6.400000
v -8.760000 -0.258615 6.252066
v -4.240000 -0.300000 6.180385
v -8.760000 0.000000 6.182770
v -4.240000 -0.000000 6.100000
v -8.760000 0.258615 6.252066
v -4.240000 0.300000 6.180385
v -8.760000 0.447934 6.441385
v -4.240000 0.519615 6.400000
v -8.760000 0.517230 6.700000
v -4.240000 0.600000 6.700000
v -8.760000 0.447934 6.958615
v -4.240000 0.519615 7.000000
v -8.760000 0.258615 7.147934
v -4.240000 0.300000 7.219615
v -3.490523 -0.212615 7.068260
v -3.490523 -0.000000 7.125229
v -3.490523 -0.368260 6.912615
v -3.490523 -0.425230 6.700000
v -3.490523 -0.368260 6.487385
v -3.490523 -0.212615 6.331740
v -3.490523 -0.000000 6.274770
v -3.490523 0.212615 6.331740
v -3.490523 0.368260 6.487385
v -3.490523 0.425230 6.700000
v -3.490523 0.368260 6.912615
v -3.490523 0.212615 7.068260
v -3.490523 -0.238552 7.113183
v -3.490523 -0.000000 7.177104
v -3.490523 -0.413184 6.938551
v -3.490523 -0.477104 6.700000
v -3.490523 -0.413184 6.461448
v -3.490523 -0.238552 6.286816
v -3.490523 -0.000000 6.222897
v -3.490523 0.238552 6.286816
v -3.490523 0.413184 6.461448
v -3.490523 0.477103 6.700000
v -3.490523 0.413184 6.938551
v -3.490523 0.238552 7.113183
v -4.226222 -0.229367 7.097274
v -4.226222 -0.000000 7.158733
v -4.226222 -0.397275 6.929367
v -4.226222 -0.458733 6.700000
v -4.226222 -0.397275 6.470634
v -4.226222 -0.229367 6.302725
v -4.226222 -0.000000 6.241267
v -4.226222 0.229366 6.302725
v -4.226222 0.397274 6.470633
v -4.226222 0.458733 6.700000
v -4.226222 0.397274 6.929366
v -4.226222 0.229366 7.097274
v -4.226222 -0.273370 7.173491
v -4.226222 -0.000000 7.246740
v -4.226222 -0.473491 6.973370
v -4.226222 -0.546740 6.700000
v -4.226222 -0.473491 6.426630
v -4.226222 -0.273370 6.226509
v -4.226222 -0.000000 6.153260
v -4.226222 0.273370 6.226509
v -4.226222 0.473491 6.426630
v -4.226222 0.546740 6.700000
v -4.226222 0.473491 6.973370
v -4.226222 0.273370 7.173491
v -3.901342 -0.213004 7.068933
v -3.901342 -0.000000 7.126007
v -3.901342 -0.368933 6.913003
v -3.901342 -0.426007 6.700000
v -3.901342 -0.368933 6.486996
v -3.901342 -0.213004 6.331067
v -3.901342 -0.000000 6.273993
v -3.901342 0.213003 6.331067
v -3.901342 0.368933 6.486996
v -3.901342 0.426007 6.700000
v -3.901342 0.368933 6.913003
v -3.901342 0.213003 7.068933
v -3.273282 -0.147781 6.955963
v -3.273282 -0.000000 6.995561
v -3.273282 -0.255964 6.847780
v -3.273282 -0.295561 6.700000
v -3.273282 -0.255964 6.552219
v -3.273282 -0.147781 6.444036
v -3.273282 -0.000000 6.404438
v -3.273282 0.147780 6.444036
v -3.273282 0.255963 6.552219
v -3.273282 0.295561 6.700000
v -3.273282 0.255963 6.847780
v -3.273282 0.147780 6.955963
v -2.521488 -0.000000 6.700000
v -8.760000 0.000000 7.300000
v -8.760000 -0.300000 7.219615
v -8.760000 -0.519615 7.000000
v -8.760000 -0.600000 6.700000
v -8.760000 -0.519615 6.400000
v -8.760000 -0.300000 6.180385
v -8.760000 0.000000 6.100000
v -8.760000 0.300000 6.180385
v -8.760000 0.519615 6.400000
v -8.760000 0.600000 6.700000
v -8.760000 0.519615 7.000000
v -8.760000 0.300000 7.219615
v -8.326891 0.000000 6.923534
v -8.326891 -0.111767 6.893586
v -8.326891 -0.193586 6.811767
v -8.326891 -0.223534 6.700000
v -8.326891 -0.193586 6.588233
v -8.326891 -0.111767 6.506413
v -8.326891 0.000000 6.476466
v -8.326891 0.111767 6.506413
v -8.326891 0.193586 6.588233
v -8.326891 0.223534 6.700000
v -8.326891 0.193586 6.811767
v -8.326891 0.111767 6.893586
v -8.326891 0.000000 7.217230
v -8.326891 -0.258615 7.147934
v -8.326891 -0.447934 6.958615
v -8.326891 -0.517230 6.700000
v -8.326891 -0.447934 6.441385
v -8.326891 -0.258615 6.252066
v -8.326891 0.000000 6.182770
v -8.326891 0.258615 6.252066
v -8.326891 0.447934 6.441385
v -8.326891 0.517230 6.700000
v -8.326891 0.447934 6.958615
v -8.326891 0.258615 7.147934
v -8.588819 0.000000 7.062640
v -8.588819 -0.181320 7.014055
v -8.588819 -0.314055 6.881320
v -8.588819 -0.362640 6.700000
v -8.588819 -0.314055 6.518680
v -8.588819 -0.181320 6.385944
v -8.588819 0.000000 6.337359
v -8.588819 0.181320 6.385944
v -8.588819 0.314056 6.518680
v -8.588819 0.362640 6.700000
v -8.588819 0.314056 6.881320
v -8.588819 0.181320 7.014055
v -8.913871 0.000000 7.163504
v -8.913871 -0.231752 7.101406
v -8.913871 -0.401406 6.931752
v -8.913871 -0.463504 6.700000
v -8.913871 -0.401406 6.468248
v -8.913871 -0.231752 6.298594
v -8.913871 0.000000 6.236495
v -8.913871 0.231752 6.298594
v -8.913871 0.401406 6.468248
v -8.913871 0.463504 6.700000
v -8.913871 0.401406 6.931752
v -8.913871 0.231752 7.101406
v -9.337793 0.000000 7.200966
v -9.337793 -0.250483 7.133849
v -9.337793 -0.433850 6.950483
v -9.337793 -0.500966 6.700000
v -9.337793 -0.433850 6.449516
v -9.337793 -0.250483 6.266150
v -9.337793 0.000000 6.199033
v -9.337793 0.250483 6.266150
v -9.337793 0.433850 6.449516
v -9.337793 0.500967 6.700000
v -9.337793 0.433850 6.950483
v -9.337793 0.250483 7.133849
v -9.337793 0.000000 7.234599
v -9.337793 -0.267300 7.162976
v -9.337793 -0.462977 6.967299
v -9.337793 -0.534599 6.700000
v -9.337793 -0.462976 6.432700
v -9.337793 -0.267300 6.237023
v -9.337793 0.000000 6.165401
v -9.337793 0.267300 6.237023
v -9.337793 0.462977 6.432700
v -9.337793 0.534599 6.700000
v -9.337793 0.462977 6.967299
v -9.337793 0.267300 7.162976
v -8.915062 -0.000000 7.133400
v -8.915062 -0.216700 7.075336
v -8.915062 -0.375336 6.916700
v -8.915062 -0.433401 6.700000
v -8.915062 -0.375336 6.483299
v -8.915062 -0.216700 6.324664
v -8.915062 -0.000000 6.266599
v -8.915062 0.216700 6.324664
v -8.915062 0.375336 6.483299
v -8.915062 0.433401 6.700000
v -8.915062 0.375336 6.916700
v -8.915062 0.216700 7.075336
v -8.590295 -0.000000 7.035210
v -8.590295 -0.167605 6.990300
v -8.590295 -0.290301 6.867605
v -8.590295 -0.335211 6.700000
v -8.590295 -0.290301 6.532394
v -8.590295 -0.167605 6.409699
v -8.590295 -0.000000 6.364789
v -8.590295 0.167605 6.409699
v -8.590295 0.290300 6.532394
v -8.590295 0.335210 6.700000
v -8.590295 0.290300 6.867605
v -8.590295 0.167605 6.990300
v -8.326773 -0.000000 6.898658
v -8.326773 -0.099330 6.872043
v -8.326773 -0.172044 6.799329
v -8.326773 -0.198659 6.700000
v -8.326773 -0.172044 6.600670
v -8.326773 -0.099330 6.527956
v -8.326773 -0.000000 6.501341
v -8.326773 0.099329 6.527956
v -8.326773 0.172043 6.600670
v -8.326773 0.198658 6.700000
v -8.326773 0.172043 6.799329
v -8.326773 0.099329 6.872043
v -8.098018 -0.000000 6.726828
v -8.098018 -0.013414 6.723234
v -8.098018 -0.023234 6.713414
v -8.098018 -0.026829 6.700000
v -8.098018 -0.023234 6.686586
v -8.098018 -0.013414 6.676766
v -8.098018 -0.000000 6.673172
v -8.098018 0.013414 6.676766
v -8.098018 0.023234 6.686586
v -8.098018 0.026828 6.700000
v -8.098018 0.023234 6.713414
v -8.098018 0.013414 6.723234
v -8.285122 0.455987 6.362306
v -7.936966 1.367143 5.836250
v -8.285122 0.520445 6.473951
v -7.936966 1.431601 5.947895
v -6.285121 0.455987 6.362306
v -7.719411 1.367143 5.836250
v -6.285121 0.520445 6.473951
v -7.719411 1.431601 5.947895
v -8.399473 0.488216 6.418128
v -7.987065 1.463232 5.855202
v -6.030373 0.488216 6.418128
v -7.602993 1.463232 5.855202
v -8.285122 -0.520445 6.473951
v -7.936966 -1.431601 5.947894
v -8.285122 -0.455986 6.362306
v -7.936966 -1.367143 5.836250
v -6.285121 -0.520445 6.473951
v -7.719411 -1.431601 5.947894
v -6.285121 -0.455986 6.362306
v -7.719411 -1.367143 5.836250
v -8.399473 -0.488216 6.418128
v -7.987065 -1.463232 5.855202
v -6.030373 -0.488216 6.418128
v -7.602993 -1.463232 5.855202
v -11.524984 0.190057 0.218267
v -11.167939 -0.180696 0.950453
v -11.524984 0.050458 0.157464
v -11.167939 -0.320295 0.889650
v -9.265800 0.079549 0.436505
v -11.386364 -0.632489 1.842682
v -9.265800 -0.060050 0.375702
v -11.386364 -0.772088 1.781879
v -11.762841 0.120258 0.187865
v -11.439615 -0.259330 0.937499
v -8.956917 0.009750 0.406103
v -11.325557 -0.766283 1.938660
v -10.478303 0.043058 0.172079
v -11.631338 -0.779499 1.796515
v -10.478303 0.182657 0.232882
v -11.631338 -0.639900 1.857318
v -11.921218 -0.766543 1.939175
v -10.393187 0.112857 0.202480
v -11.524984 0.190057 0.218267
v -11.524984 0.050458 0.157464
v -11.762841 0.120258 0.187865
v -11.646520 0.537021 -0.064458
v -11.433998 1.545218 -0.064458
v -11.646520 0.537021 0.064458
v -11.433998 1.545218 0.064458
v -7.108664 0.537021 -0.064458
v -10.970195 1.545218 -0.064458
v -7.108664 0.537021 0.064458
v -10.970195 1.545218 0.064458
vn -0.0102 -0.8421 -0.5392
vn -0.0102 0.8421 -0.5392
vn 0.0604 -0.8454 -0.5307
vn 0.0363 0.8351 -0.5489
vn -0.0000 -0.9671 -0.2542
vn -0.0000 0.9671 -0.2542
vn 0.0568 -0.9984 -0.0000
vn 0.0137 0.9999 -0.0000
vn -0.1254 0.6138 -0.7795
vn -0.1254 -0.6138 -0.7795
vn 0.0649 0.3585 -0.9313
vn 0.0699 -0.3717 -0.9257
vn 0.2924 0.4780 -0.8283
vn 0.1049 0.8200 -0.5627
vn -0.0000 -0.0000 -1.0000
vn 0.5018 -0.2420 -0.8304
vn 0.4414 -0.7320 -0.5190
vn 0.3309 -0.9252 0.1857
vn 0.4414 0.7320 -0.5190
vn 0.3309 0.9252 0.1857
vn -0.0000 -0.0000 1.0000
vn 0.5018 0.2420 -0.8304
vn 0.6424 -0.1813 -0.7446
vn 0.6166 -0.6741 -0.4066
vn 0.5130 -0.7518 0.4143
vn 0.5866 0.6886 -0.4264
vn 0.4605 0.7788 0.4260
vn 0.6311 0.1761 -0.7554
vn 0.8690 0.0551 0.4918
vn -0.0000 -0.8490 -0.5284
vn -0.0000 0.8490 -0.5284
vn -0.0000 1.0000 -0.0000
vn -0.0000 -1.0000 -0.0000
vn 0.0083 -0.8463 -0.5326
vn 0.0083 0.8463 -0.5326
vn -0.2309 -0.0195 -0.9728
vn -0.2290 -0.4005 -0.8872
vn -0.1886 0.3805 -0.9053
vn -0.0475 0.8870 -0.4593
vn -0.1608 -0.8874 -0.4320
vn -0.1655 0.9162 -0.3649
vn -0.1655 -0.9162 -0.3649
vn 0.0271 -0.9552 -0.2948
vn 0.0271 0.9552 -0.2948
vn -0.1379 0.7250 -0.6748
vn -0.1379 -0.7250 -0.6748
vn 0.0145 -0.7239 -0.6898
vn 0.0145 0.7239 -0.6898
vn -0.1459 -0.0000 -0.9893
vn 0.0687 -0.0000 -0.9976
vn 0.5133 -0.0000 -0.8582
vn 0.6257 -0.0000 -0.7801
vn 0.0011 -0.0000 -1.0000
vn -0.1143 0.7851 -0.6087
vn -0.2040 -0.7994 -0.5651
vn -0.5553 -0.0000 -0.8317
vn 0.2159 -0.0000 -0.9764
vn -0.7920 -0.0000 -0.6106
vn 0.4103 -0.0000 -0.9120
vn -0.2718 0.5076 -0.8176
vn 0.6810 0.3951 -0.6166
vn 0.1998 0.4086 -0.8906
vn 0.5927 0.8006 0.0879
vn -0.3492 0.3324 -0.8761
vn -0.4576 0.6530 -0.6034
vn 0.5432 0.5137 -0.6641
vn -0.3460 0.6346 -0.6910
vn -0.3896 -0.7591 -0.5215
vn 0.6057 0.7884 0.1075
vn 0.0577 0.9978 0.0321
vn 0.2825 -0.9593 -0.0000
vn 0.3595 0.2820 -0.8895
vn 0.2453 -0.9695 -0.0000
vn 0.3051 0.2944 -0.9057
vn 0.1604 -0.9870 -0.0000
vn 0.3422 -0.0000 -0.9396
vn 0.1951 0.3204 -0.9270
vn 0.2965 -0.0000 -0.9550
vn 0.1939 -0.0000 -0.9810
vn 0.3162 -0.7960 -0.5161
vn 0.3498 -0.3030 -0.8864
vn 0.2674 -0.8124 -0.5181
vn 0.3014 -0.3325 -0.8936
vn 0.1973 -0.3572 -0.9130
vn 0.1722 -0.8331 -0.5256
vn 0.4653 0.6633 -0.5861
vn 0.1856 0.8787 0.4397
vn 0.5321 0.7407 0.4102
vn 0.2379 0.7337 -0.6365
vn 0.5494 0.6656 -0.5052
vn -0.7703 -0.0000 0.6377
vn 0.0801 -0.0000 -0.9968
vn -0.7703 0.3189 0.5523
vn 0.0801 -0.4984 -0.8632
vn -0.7703 0.5523 0.3189
vn 0.0801 -0.8632 -0.4984
vn -0.7703 0.6377 -0.0000
vn 0.0801 -0.9968 -0.0000
vn -0.7703 0.5523 -0.3189
vn 0.0801 -0.8632 0.4984
vn -0.7703 0.3189 -0.5523
vn 0.0801 -0.4984 0.8632
vn -0.7703 -0.0000 -0.6377
vn 0.0801 -0.0000 0.9968
vn -0.7703 -0.3189 -0.5523
vn 0.0801 0.4984 0.8632
vn -0.7703 -0.5523 -0.3189
vn 0.0801 0.8632 0.4984
vn -0.7703 -0.6377 -0.0000
vn 0.0801 0.9968 -0.0000
vn -0.7703 -0.5523 0.3189
vn 0.0801 0.8632 -0.4984
vn -0.7703 -0.3189 0.5523
vn 0.0801 0.4984 -0.8632
vn 0.7161 0.3490 0.6045
vn 0.7161 -0.0000 0.6980
vn 0.7161 0.6045 0.3490
vn 0.7161 0.6980 -0.0000
vn 0.7161 0.6045 -0.3490
vn 0.7161 0.3490 -0.6045
vn 0.7161 -0.0000 -0.6980
vn 0.7161 -0.3490 -0.6045
vn 0.7161 -0.6045 -0.3490
vn 0.7161 -0.6980 -0.0000
vn 0.7161 -0.6045 0.3490
vn 0.7161 -0.3490 0.6045
vn 0.7123 -0.3510 -0.6079
vn 0.7123 -0.0000 -0.7019
vn 0.7123 -0.6079 -0.3510
vn 0.7123 -0.7019 -0.0000
vn 0.7123 -0.6079 0.3510
vn 0.7123 -0.3510 0.6079
vn 0.7123 -0.0000 0.7019
vn 0.7123 0.3510 0.6079
vn 0.7123 0.6079 0.3510
vn 0.7123 0.7019 -0.0000
vn 0.7123 0.6079 -0.3510
vn 0.7123 0.3510 -0.6079
vn 0.8003 -0.2998 -0.5193
vn 0.8003 -0.0000 -0.5996
vn 0.8003 -0.5193 -0.2998
vn 0.8003 -0.5996 -0.0000
vn 0.8003 -0.5193 0.2998
vn 0.8003 -0.2998 0.5193
vn 0.8003 -0.0000 0.5996
vn 0.8003 0.2998 0.5193
vn 0.8003 0.5193 0.2998
vn 0.8003 0.5996 -0.0000
vn 0.8003 0.5193 -0.2998
vn 0.8003 0.2998 -0.5193
vn 0.5910 0.4034 0.6986
vn 0.5910 -0.0000 0.8067
vn 0.5910 0.6986 0.4034
vn 0.5910 0.8067 -0.0000
vn 0.5910 0.6986 -0.4034
vn 0.5910 0.4034 -0.6986
vn 0.5910 -0.0000 -0.8067
vn 0.5910 -0.4034 -0.6986
vn 0.5910 -0.6986 -0.4034
vn 0.5910 -0.8067 -0.0000
vn 0.5910 -0.6986 0.4034
vn 0.5910 -0.4034 0.6986
vn 0.1507 -0.4943 -0.8561
vn 0.1507 -0.0000 -0.9886
vn 0.1507 -0.8561 -0.4943
vn 0.1507 -0.9886 -0.0000
vn 0.1507 -0.8561 0.4943
vn 0.1507 -0.4943 0.8561
vn 0.1507 -0.0000 0.9886
vn 0.1507 0.4943 0.8561
vn 0.1507 0.8561 0.4943
vn 0.1507 0.9886 -0.0000
vn 0.1507 0.8561 -0.4943
vn 0.1507 0.4943 -0.8561
vn 0.2819 -0.4797 -0.8309
vn 0.2819 -0.0000 -0.9594
vn 0.2819 -0.8309 -0.4797
vn 0.2819 -0.9594 -0.0000
vn 0.2819 -0.8309 0.4797
vn 0.2819 -0.4797 0.8309
vn 0.2819 -0.0000 0.9594
vn 0.2819 0.4797 0.8309
vn 0.2819 0.8309 0.4797
vn 0.2819 0.9594 -0.0000
vn 0.2819 0.8309 -0.4797
vn 0.2819 0.4797 -0.8309
vn 1.0000 -0.0000 -0.0000
vn -0.6532 -0.0000 -0.7572
vn -0.6532 -0.3786 -0.6557
vn -0.6532 -0.6557 -0.3786
vn -0.6532 -0.7572 -0.0000
vn -0.6532 -0.6557 0.3786
vn -0.6532 -0.3786 0.6557
vn -0.6532 -0.0000 0.7572
vn -0.6532 0.3786 0.6557
vn -0.6532 0.6557 0.3786
vn -0.6532 0.7572 -0.0000
vn -0.6532 0.6557 -0.3786
vn -0.6532 0.3786 -0.6557
vn -0.5890 -0.0000 -0.8081
vn -0.5890 -0.4041 -0.6999
vn -0.5890 -0.6999 -0.4041
vn -0.5890 -0.8081 -0.0000
vn -0.5890 -0.6999 0.4041
vn -0.5890 -0.4041 0.6999
vn -0.5890 -0.0000 0.8081
vn -0.5890 0.4041 0.6999
vn -0.5890 0.6999 0.4041
vn -0.5890 0.8081 -0.0000
vn -0.5890 0.6999 -0.4041
vn -0.5890 0.4041 -0.6999
vn 0.3790 -0.0000 -0.9254
vn 0.3790 -0.4627 -0.8014
vn 0.3790 -0.8014 -0.4627
vn 0.3790 -0.9254 -0.0000
vn 0.3790 -0.8014 0.4627
vn 0.3790 -0.4627 0.8014
vn 0.3790 -0.0000 0.9254
vn 0.3790 0.4627 0.8014
vn 0.3790 0.8014 0.4627
vn 0.3790 0.9254 -0.0000
vn 0.3790 0.8014 -0.4627
vn 0.3790 0.4627 -0.8014
vn 0.2289 -0.0000 -0.9734
vn 0.2289 -0.4867 -0.8430
vn 0.2289 -0.8430 -0.4867
vn 0.2289 -0.9734 -0.0000
vn 0.2289 -0.8430 0.4867
vn 0.2289 -0.4867 0.8430
vn 0.2289 -0.0000 0.9734
vn 0.2289 0.4867 0.8430
vn 0.2289 0.8430 0.4867
vn 0.2289 0.9734 -0.0000
vn 0.2289 0.8430 -0.4867
vn 0.2289 0.4867 -0.8430
vn -0.8166 -0.0000 0.5772
vn -0.8166 0.2886 0.4999
vn -0.8166 0.4999 0.2886
vn -0.8166 0.5772 -0.0000
vn -0.8166 0.4999 -0.2886
vn -0.8166 0.2886 -0.4999
vn -0.8166 -0.0000 -0.5772
vn -0.8166 -0.2886 -0.4999
vn -0.8166 -0.4999 -0.2886
vn -0.8166 -0.5772 -0.0000
vn -0.8166 -0.4999 0.2886
vn -0.8166 -0.2886 0.4999
vn -0.5900 -0.0000 -0.8074
vn -0.5900 -0.4037 -0.6992
vn -0.5900 -0.6992 -0.4037
vn -0.5900 -0.8074 -0.0000
vn -0.5900 -0.6992 0.4037
vn -0.5900 -0.4037 0.6992
vn -0.5900 -0.0000 0.8074
vn -0.5900 0.4037 0.6992
vn -0.5900 0.6992 0.4037
vn -0.5900 0.8074 -0.0000
vn -0.5900 0.6992 -0.4037
vn -0.5900 0.4037 -0.6992
vn -0.2217 -0.0000 0.9751
vn -0.2217 0.4876 0.8445
vn -0.2217 0.8445 0.4876
vn -0.2217 0.9751 -0.0000
vn -0.2217 0.8445 -0.4876
vn -0.2217 0.4876 -0.8445
vn -0.2217 -0.0000 -0.9751
vn -0.2217 -0.4876 -0.8445
vn -0.2217 -0.8445 -0.4876
vn -0.2217 -0.9751 -0.0000
vn -0.2217 -0.8445 0.4876
vn -0.2217 -0.4876 0.8445
vn -0.3711 -0.0000 0.9286
vn -0.3711 0.4643 0.8042
vn -0.3711 0.8042 0.4643
vn -0.3711 0.9286 -0.0000
vn -0.3711 0.8042 -0.4643
vn -0.3711 0.4643 -0.8042
vn -0.3711 -0.0000 -0.9286
vn -0.3711 -0.4643 -0.8042
vn -0.3711 -0.8042 -0.4643
vn -0.3711 -0.9286 -0.0000
vn -0.3711 -0.8042 0.4643
vn -0.3711 -0.4643 0.8042
vn -0.5261 -0.0000 0.8504
vn -0.5261 0.4252 0.7365
vn -0.5261 0.7365 0.4252
vn -0.5261 0.8504 -0.0000
vn -0.5261 0.7365 -0.4252
vn -0.5261 0.4252 -0.7365
vn -0.5261 -0.0000 -0.8504
vn -0.5261 -0.4252 -0.7365
vn -0.5261 -0.7365 -0.4252
vn -0.5261 -0.8504 -0.0000
vn -0.5261 -0.7365 0.4252
vn -0.5261 -0.4252 0.7365
vn -0.8646 -0.0000 0.5025
vn -0.8646 0.2512 0.4351
vn -0.8646 0.4351 0.2512
vn -0.8646 0.5025 -0.0000
vn -0.8646 0.4351 -0.2512
vn -0.8646 0.2512 -0.4351
vn -0.8646 -0.0000 -0.5025
vn -0.8646 -0.2512 -0.4351
vn -0.8646 -0.4351 -0.2512
vn -0.8646 -0.5025 -0.0000
vn -0.8646 -0.4351 0.2512
vn -0.8646 -0.2512 0.4352
vn -0.2741 -0.9011 0.3360
vn -0.2076 -0.1897 0.9596
vn -0.2741 -0.1596 -0.9484
vn -0.2076 0.7362 -0.6441
vn 0.1704 -0.8970 0.4079
vn 0.0522 -0.1673 0.9845
vn 0.1704 -0.0952 -0.9808
vn 0.0522 0.7690 -0.6371
vn -0.9326 -0.3125 -0.1804
vn -0.5381 0.7299 0.4214
vn 0.9914 -0.1131 -0.0653
vn 0.3913 0.7970 0.4601
vn -0.2741 0.1596 -0.9484
vn -0.2076 -0.7362 -0.6441
vn -0.2741 0.9011 0.3360
vn -0.2076 0.1897 0.9596
vn 0.1704 0.0952 -0.9808
vn 0.0522 -0.7690 -0.6371
vn 0.1704 0.8970 0.4079
vn 0.0522 0.1673 0.9845
vn -0.9326 0.3125 -0.1804
vn -0.5381 -0.7299 0.4214
vn 0.9914 0.1131 -0.0653
vn 0.3913 -0.7970 0.4601
vn -0.1304 0.9526 0.2747
vn -0.1453 0.8822 -0.4479
vn -0.1259 -0.3978 0.9088
vn -0.1454 -0.8828 0.4467
vn 0.2275 0.9725 -0.0493
vn 0.0747 0.7494 -0.6579
vn 0.2209 -0.6559 0.7218
vn 0.0768 -0.9764 0.2019
vn -0.8940 0.2012 0.4003
vn -0.9991 0.0188 0.0381
vn 0.9855 0.0704 0.1544
vn 0.3117 -0.4211 -0.8518
vn 0.0322 -0.3602 0.9323
vn -0.1122 -0.9560 0.2711
vn 0.0344 0.9486 0.3147
vn -0.1148 0.7937 -0.5974
vn -0.8571 -0.2326 -0.4597
vn 0.1310 0.4034 0.9056
vn -0.1981 -0.6333 0.7482
vn -0.1764 0.1389 0.9745
vn -0.1981 -0.6333 -0.7482
vn -0.1764 0.1389 -0.9745
vn 0.0762 -0.5665 0.8206
vn 0.0196 0.1759 0.9842
vn 0.0762 -0.5665 -0.8206
vn 0.0196 0.1759 -0.9842
vn -0.8479 -0.5301 -0.0000
vn -0.6221 0.7829 -0.0000
vn 0.5867 -0.8098 -0.0000
vn 0.1810 0.9835 -0.0000
vn -0.0102 -0.8421 0.5392
vn -0.0102 0.8421 0.5392
vn 0.0604 -0.8454 0.5307
vn 0.0363 0.8351 0.5489
vn -0.1254 0.6138 0.7795
vn -0.1254 -0.6138 0.7795
vn 0.0649 0.3585 0.9313
vn 0.0699 -0.3717 0.9257
vn 0.2924 0.4780 0.8283
vn 0.1049 0.8200 0.5627
vn 0.5018 -0.2420 0.8304
vn 0.4414 -0.7320 0.5190
vn 0.4414 0.7320 0.5190
vn 0.5018 0.2420 0.8304
vn 0.6424 -0.1813 0.7446
vn 0.6166 -0.6741 0.4066
vn 0.5866 0.6886 0.4264
vn 0.6311 0.1761 0.7554
vn -0.0000 -0.8490 0.5284
vn -0.0000 0.8490 0.5284
vn 0.0083 -0.8463 0.5326
vn 0.0083 0.8463 0.5326
vn -0.2309 -0.0195 0.9728
vn -0.2290 -0.4005 0.8872
vn -0.1886 0.3805 0.9053
vn -0.1655 0.9162 0.3649
vn -0.1655 -0.9162 0.3649
vn 0.0271 -0.9552 0.2948
vn 0.0271 0.9552 0.2948
vn -0.1379 0.7250 0.6748
vn -0.1379 -0.7250 0.6748
vn 0.0145 -0.7239 0.6898
vn 0.0145 0.7239 0.6898
vn -0.1459 -0.0000 0.9893
vn 0.0687 -0.0000 0.9976
vn 0.5133 -0.0000 0.8582
vn 0.6257 -0.0000 0.7801
vn 0.0011 -0.0000 1.0000
vn -0.1143 0.7851 0.6087
vn -0.2040 -0.7994 0.5651
vn -0.5553 -0.0000 0.8317
vn 0.2159 -0.0000 0.9764
vn -0.7920 -0.0000 0.6106
vn 0.4103 -0.0000 0.9120
vn -0.2718 0.5076 0.8176
vn 0.5927 0.8006 -0.0879
vn -0.3492 0.3324 0.8761
vn -0.3460 0.6346 0.6910
vn -0.3896 -0.7591 0.5215
vn 0.3595 0.2820 0.8895
vn 0.3051 0.2944 0.9057
vn 0.3422 -0.0000 0.9396
vn 0.1951 0.3204 0.9270
vn 0.2965 -0.0000 0.9550
vn 0.1939 -0.0000 0.9810
vn 0.3162 -0.7960 0.5161
vn 0.3498 -0.3030 0.8864
vn 0.2674 -0.8124 0.5181
vn 0.3014 -0.3325 0.8936
vn 0.1973 -0.3572 0.9130
vn 0.1722 -0.8331 0.5256
vn 0.4653 0.6633 0.5861
vn 0.2379 0.7337 0.6365
vn 0.5494 0.6656 0.5052
vn -0.8646 -0.2512 0.4351
vn -0.2741 -0.9011 -0.3360
vn -0.2076 -0.1897 -0.9596
vn -0.2741 -0.1596 0.9484
vn -0.2076 0.7362 0.6441
vn 0.1704 -0.8970 -0.4079
vn 0.0522 -0.1673 -0.9845
vn 0.1704 -0.0952 0.9808
vn 0.0522 0.7690 0.6371
vn -0.9326 -0.3125 0.1804
vn -0.5381 0.7299 -0.4214
vn 0.9914 -0.1131 0.0653
vn 0.3913 0.7970 -0.4601
vn -0.2741 0.1596 0.9484
vn -0.2076 -0.7362 0.6441
vn -0.2741 0.9011 -0.3360
vn -0.2076 0.1897 -0.9596
vn 0.1704 0.0952 0.9808
vn 0.0522 -0.7690 0.6371
vn 0.1704 0.8970 -0.4079
vn 0.0522 0.1673 -0.9845
vn -0.9326 0.3125 0.1804
vn -0.5381 -0.7299 -0.4214
vn 0.9914 0.1131 0.0653
vn 0.3913 -0.7970 -0.4601
vn -0.1304 0.9526 -0.2747
vn -0.1453 0.8822 0.4479
vn -0.1259 -0.3978 -0.9088
vn -0.1454 -0.8828 -0.4467
vn 0.2275 0.9725 0.0493
vn 0.0747 0.7494 0.6579
vn 0.2209 -0.6559 -0.7218
vn 0.0768 -0.9764 -0.2019
vn -0.8940 0.2012 -0.4003
vn -0.9991 0.0188 -0.0381
vn 0.9855 0.0704 -0.1544
vn 0.3117 -0.4211 0.8518
vn 0.0322 -0.3602 -0.9323
vn -0.1122 -0.9560 -0.2711
vn 0.0344 0.9486 -0.3147
vn -0.1148 0.7937 0.5974
vn -0.8571 -0.2326 0.4597
vn 0.1310 0.4034 -0.9056
vt 0.458333 0.250000
vt 0.375000 0.250000
vt 0.541667 0.371341
vt 0.625000 0.371341
vt 0.625000 0.500000
vt 0.541667 0.500000
vt 0.753659 0.500000
vt 0.875000 0.500000
vt 0.875000 0.625000
vt 0.753659 0.625000
vt 0.246341 0.500000
vt 0.375000 0.500000
vt 0.375000 0.625000
vt 0.246341 0.625000
vt 0.375000 0.371341
vt 0.458333 0.371341
vt 0.458333 0.500000
vt 0.500000 0.371341
vt 0.500000 0.500000
vt 0.625000 0.250000
vt 0.541667 0.250000
vt 0.000000 0.000000
vt 0.375000 0.562868
vt 0.375000 0.612701
vt 0.359581 0.580910
vt 0.625000 0.612702
vt 0.625000 0.625000
vt 0.541667 0.562868
vt 0.625000 0.562868
vt 0.640419 0.580910
vt 0.458333 0.562868
vt 0.500000 0.562868
vt 0.500000 0.580910
vt 0.125000 0.500000
vt 0.125000 0.625000
vt 0.500000 0.250000
vt 0.458333 0.547151
vt 0.500000 0.547151
vt 0.375000 0.515717
vt 0.458333 0.515717
vt 0.458333 0.531434
vt 0.375000 0.531434
vt 0.500000 0.515717
vt 0.500000 0.531434
vt 0.375000 0.547151
vt 0.625000 0.531434
vt 0.541667 0.531434
vt 0.541667 0.515717
vt 0.625000 0.515717
vt 0.625000 0.547151
vt 0.541667 0.547151
vt 1.000000 0.500000
vt 1.000000 1.000000
vt 0.916667 1.000000
vt 0.916667 0.500000
vt 0.833333 1.000000
vt 0.833333 0.500000
vt 0.750000 1.000000
vt 0.750000 0.500000
vt 0.666667 1.000000
vt 0.666667 0.500000
vt 0.583333 1.000000
vt 0.583333 0.500000
vt 0.500000 1.000000
vt 0.500000 0.500000
vt 0.416667 1.000000
vt 0.416667 0.500000
vt 0.333333 1.000000
vt 0.333333 0.500000
vt 0.250000 1.000000
vt 0.250000 0.500000
vt 0.166667 1.000000
vt 0.166667 0.500000
vt 0.083333 1.000000
vt 0.083333 0.500000
vt 0.000000 1.000000
vt 0.000000 0.500000
vt 0.853446 0.070826
vt 0.750000 0.043108
vt 0.064752 0.356953
vt 0.036094 0.250000
vt 0.250000 0.463906
vt 0.356953 0.435248
vt 0.370000 0.457846
vt 0.250000 0.490000
vt 0.435248 0.356953
vt 0.457846 0.370000
vt 0.463906 0.250000
vt 0.490000 0.250000
vt 0.435248 0.143047
vt 0.457846 0.130000
vt 0.356953 0.064752
vt 0.370000 0.042154
vt 0.250000 0.036094
vt 0.250000 0.010000
vt 0.143047 0.064752
vt 0.130000 0.042154
vt 0.064752 0.143047
vt 0.042154 0.130000
vt 0.010000 0.250000
vt 0.042154 0.370000
vt 0.143047 0.435248
vt 0.130000 0.457846
vt 0.405429 0.339737
vt 0.339737 0.405429
vt 0.250000 0.429474
vt 0.429474 0.250000
vt 0.405429 0.160263
vt 0.339737 0.094571
vt 0.250000 0.070526
vt 0.160263 0.094571
vt 0.094571 0.160263
vt 0.070526 0.250000
vt 0.094571 0.339737
vt 0.160263 0.405429
vt 0.853446 0.429174
vt 0.750000 0.456892
vt 0.750000 0.490000
vt 0.870000 0.457846
vt 0.929174 0.353446
vt 0.957846 0.370000
vt 0.956892 0.250000
vt 0.990000 0.250000
vt 0.929174 0.146554
vt 0.957846 0.130000
vt 0.870000 0.042154
vt 0.750000 0.010000
vt 0.646554 0.070826
vt 0.630000 0.042154
vt 0.570826 0.146554
vt 0.542154 0.130000
vt 0.543108 0.250000
vt 0.510000 0.250000
vt 0.570826 0.353446
vt 0.542154 0.370000
vt 0.646554 0.429174
vt 0.630000 0.457846
vt 0.827435 0.294707
vt 0.839414 0.250000
vt 0.794707 0.327435
vt 0.750000 0.339414
vt 0.827435 0.205293
vt 0.794707 0.172566
vt 0.750000 0.160586
vt 0.705293 0.172566
vt 0.672566 0.205293
vt 0.660586 0.250000
vt 0.672565 0.294707
vt 0.705293 0.327435
vt 0.677437 0.291894
vt 0.708106 0.322563
vt 0.791894 0.322563
vt 0.750000 0.333789
vt 0.822563 0.291894
vt 0.833788 0.250000
vt 0.822563 0.208106
vt 0.791894 0.177437
vt 0.750000 0.166212
vt 0.708106 0.177437
vt 0.677437 0.208106
vt 0.666212 0.250000
vt 0.375000 0.125000
vt 0.625000 0.125000
vt 0.625000 0.750000
vt 0.375000 0.750000
vt 0.625000 1.000000
vt 0.375000 1.000000
vt 0.125000 0.750000
vt 0.875000 0.750000
vt 0.375000 0.000000
vt 0.625000 0.000000
vt 0.375000 0.375000
vt 0.625000 0.375000
vt 0.375000 0.875000
vt 0.625000 0.875000
vt 0.250000 0.625000
vt 0.250000 0.750000
vt 0.750000 0.625000
vt 0.750000 0.750000
vt 0.750000 0.500000
vt 0.250000 0.500000
s 1
f 44/1/37 63/2/55 76/2/68 71/1/63
f 39/3/35 35/4/31 4/5/4 11/6/11
f 35/7/31 2/8/2 6/9/6 36/10/32
f 34/11/30 3/12/3 7/13/7 37/14/33
f 34/15/30 38/16/34 12/17/12 3/12/3
f 61/18/53 39/3/35 11/6/11 57/19/50
f 2/20/2 9/21/9 45/21/38 62/20/54
f 62/20/54 45/21/38 72/21/64 75/20/67
f 21/22/20 24/22/21 32/22/21 29/22/27
f 19/13/18 18/23/17 26/24/24 27/13/25
f 22/22/21 19/22/18 27/22/25 30/22/21
f 32/22/21 30/22/21 33/22/29
f 26/24/24 25/25/23 33/24/29
f 28/26/26 29/27/27 33/26/29
f 23/28/22 20/29/19 28/26/26 31/30/28
f 20/29/19 21/27/20 29/27/27 28/26/26
f 18/23/17 17/31/16 25/25/23 26/24/24
f 24/22/21 22/22/21 30/22/21 32/22/21
f 59/32/51 23/28/22 31/30/28 60/33/52
f 25/25/23 60/33/52 31/30/28 33/25/29
f 30/22/21 27/22/25 33/22/29
f 27/13/25 26/24/24 33/13/29
f 29/22/27 32/22/21 33/22/29
f 31/30/28 28/26/26 33/30/29
f 9/21/9 39/3/35 51/3/44 48/21/41
f 1/2/1 10/1/10 38/16/34 34/15/30
f 1/34/1 34/11/30 37/14/33 5/35/5
f 4/5/4 35/7/31 36/10/32 8/27/8
f 9/21/9 2/20/2 35/4/31 39/3/35
f 46/9/39 62/8/54 75/8/67 73/9/65
f 9/21/9 56/36/49 41/36/36 45/21/38
f 6/22/6 15/22/15 43/22/15 46/22/39
f 43/22/15 40/22/15 70/22/62
f 6/9/6 2/8/2 62/8/54 46/9/39
f 16/22/15 5/22/5 47/22/40 42/22/15
f 58/22/15 16/22/15 42/22/15 40/22/15
f 1/34/1 5/35/5 47/35/40 63/34/55
f 48/21/41 51/3/44 55/3/48 52/21/45
f 61/18/53 38/16/34 50/16/43 65/18/57
f 56/36/49 9/21/9 48/21/41 64/36/56
f 38/16/34 10/1/10 49/1/42 50/16/43
f 66/36/58 52/21/45 55/3/48 67/18/59
f 64/36/56 48/21/41 52/21/45 66/36/58
f 65/18/57 50/16/43 54/16/47 67/18/59
f 50/16/43 49/1/42 53/1/46 54/16/47
f 51/3/44 65/18/57 67/18/59 55/3/48
f 49/1/42 64/36/56 66/36/58 53/1/46
f 53/1/46 66/36/58 67/18/59 54/16/47
f 10/1/10 56/36/49 64/36/56 49/1/42
f 39/3/35 61/18/53 65/18/57 51/3/44
f 10/1/10 1/2/1 63/2/55 44/1/37
f 15/22/15 58/22/15 40/22/15 43/22/15
f 56/36/49 10/1/10 44/1/37 41/36/36
f 17/31/16 59/32/51 60/33/52 25/25/23
f 38/16/34 61/18/53 57/19/50 12/17/12
f 41/36/36 44/1/37 71/1/63 68/36/60
f 40/22/15 42/22/15 69/22/61 70/22/62
f 46/22/39 43/22/15 70/22/62 73/22/65
f 63/34/55 47/35/40 74/35/66 76/34/68
f 45/21/38 41/36/36 68/36/60 72/21/64
f 42/22/15 47/22/40 74/22/66 69/22/61
f 68/36/60 70/22/62 73/22/65 75/8/67 72/21/64
f 69/22/61 71/1/63 68/36/60 70/22/62
f 74/35/66 76/34/68 71/1/63 69/22/61
f 90/37/81 85/38/76 59/32/51 17/31/16
f 94/39/85 93/40/84 92/41/83 91/42/82
f 93/40/84 88/43/79 87/44/78 92/41/83
f 89/45/80 18/23/17 19/13/18 80/13/71
f 13/46/13 83/47/74 86/48/77 14/49/14
f 87/44/78 88/43/79 86/48/77 83/47/74
f 95/50/86 81/51/72 83/47/74 13/46/13
f 85/38/76 87/44/78 83/47/74 81/51/72
f 88/43/79 57/19/50 11/6/11 86/48/77
f 89/45/80 90/37/81 17/31/16 18/23/17
f 91/42/82 92/41/83 90/37/81 89/45/80
f 92/41/83 87/44/78 85/38/76 90/37/81
f 8/27/8 79/27/70 14/49/14 4/5/4
f 3/12/3 94/39/85 84/13/75 7/13/7
f 78/22/21 96/22/87 79/22/70
f 94/39/85 91/42/82 82/13/73 84/13/75
f 20/29/19 23/28/22 81/51/72 95/50/86
f 59/32/51 85/38/76 81/51/72 23/28/22
f 77/27/69 21/27/20 20/29/19 95/50/86
f 3/12/3 12/17/12 93/40/84 94/39/85
f 14/49/14 86/48/77 11/6/11 4/5/4
f 12/17/12 57/19/50 88/43/79 93/40/84
f 13/46/13 14/49/14 98/46/89
f 91/42/82 89/45/80 80/13/71 82/13/73
f 14/49/14 79/22/70 96/27/87 98/46/89
f 96/27/87 97/27/88 99/50/90 98/46/89
f 78/22/21 77/22/69 97/22/88 96/22/87
f 77/27/69 95/50/86 99/50/90 97/27/88
f 95/50/86 13/46/13 98/46/89 99/50/90
f 197/52/188 101/53/92 103/54/94 198/55/189
f 198/55/189 103/54/94 105/56/96 199/57/190
f 199/57/190 105/56/96 107/58/98 200/59/191
f 200/59/191 107/58/98 109/60/100 201/61/192
f 201/61/192 109/60/100 111/62/102 202/63/193
f 202/63/193 111/62/102 113/64/104 203/65/194
f 203/65/194 113/64/104 115/66/106 204/67/195
f 204/67/195 115/66/106 117/68/108 205/69/196
f 205/69/196 117/68/108 119/70/110 206/71/197
f 206/71/197 119/70/110 121/72/112 207/73/198
f 105/56/96 103/54/94 136/54/127 138/56/129
f 207/73/198 121/72/112 123/74/114 208/75/199
f 208/75/199 123/74/114 101/76/92 197/77/188
f 110/78/101 112/79/103 227/79/188 226/78/199
f 134/80/125 133/81/124 169/81/160 170/80/161
f 121/72/112 119/70/110 145/70/136 146/72/137
f 119/70/110 117/68/108 144/68/135 145/70/136
f 117/68/108 115/66/106 143/66/134 144/68/135
f 115/66/106 113/64/104 142/64/133 143/66/134
f 113/64/104 111/62/102 141/62/132 142/64/133
f 111/62/102 109/60/100 140/60/131 141/62/132
f 109/60/100 107/58/98 139/58/130 140/60/131
f 101/76/92 123/74/114 147/74/138 137/76/128
f 103/54/94 101/53/92 137/53/128 136/54/127
f 107/58/98 105/56/96 138/56/129 139/58/130
f 123/74/114 121/72/112 146/72/137 147/74/138
f 125/82/116 124/83/115 136/84/127 137/85/128
f 124/83/115 126/86/117 138/87/129 136/84/127
f 126/86/117 127/88/118 139/89/130 138/87/129
f 127/88/118 128/90/119 140/91/131 139/89/130
f 128/90/119 129/92/120 141/93/132 140/91/131
f 129/92/120 130/94/121 142/95/133 141/93/132
f 130/94/121 131/96/122 143/97/134 142/95/133
f 131/96/122 132/98/123 144/99/135 143/97/134
f 132/98/123 133/81/124 145/100/136 144/99/135
f 133/81/124 134/80/125 146/101/137 145/100/136
f 134/80/125 135/102/126 147/103/138 146/101/137
f 135/102/126 125/82/116 137/85/128 147/103/138
f 150/104/141 148/105/139 172/105/163 174/104/165
f 131/96/122 130/94/121 166/94/157 167/96/158
f 128/90/119 127/88/118 163/88/154 164/90/155
f 135/102/126 134/80/125 170/80/161 171/102/162
f 124/83/115 125/82/116 161/82/152 160/83/151
f 132/98/123 131/96/122 167/96/158 168/98/159
f 129/92/120 128/90/119 164/90/155 165/92/156
f 125/82/116 135/102/126 171/102/162 161/82/152
f 126/86/117 124/83/115 160/83/151 162/86/153
f 133/81/124 132/98/123 168/98/159 169/81/160
f 130/94/121 129/92/120 165/92/156 166/94/157
f 127/88/118 126/86/117 162/86/153 163/88/154
f 149/106/140 148/105/139 160/83/151 161/82/152
f 148/105/139 150/104/141 162/86/153 160/83/151
f 150/104/141 151/107/142 163/88/154 162/86/153
f 151/107/142 152/108/143 164/90/155 163/88/154
f 152/108/143 153/109/144 165/92/156 164/90/155
f 153/109/144 154/110/145 166/94/157 165/92/156
f 154/110/145 155/111/146 167/96/158 166/94/157
f 155/111/146 156/112/147 168/98/159 167/96/158
f 156/112/147 157/113/148 169/81/160 168/98/159
f 157/113/148 158/114/149 170/80/161 169/81/160
f 158/114/149 159/115/150 171/102/162 170/80/161
f 159/115/150 149/106/140 161/82/152 171/102/162
f 173/106/164 183/115/174 195/115/186 185/106/176
f 157/113/148 156/112/147 180/112/171 181/113/172
f 154/110/145 153/109/144 177/109/168 178/110/169
f 151/107/142 150/104/141 174/104/165 175/107/166
f 158/114/149 157/113/148 181/113/172 182/114/173
f 155/111/146 154/110/145 178/110/169 179/111/170
f 152/108/143 151/107/142 175/107/166 176/108/167
f 159/115/150 158/114/149 182/114/173 183/115/174
f 148/105/139 149/106/140 173/106/164 172/105/163
f 156/112/147 155/111/146 179/111/170 180/112/171
f 153/109/144 152/108/143 176/108/167 177/109/168
f 149/106/140 159/115/150 183/115/174 173/106/164
f 189/109/180 188/108/179 196/109/187
f 174/104/165 172/105/163 184/105/175 186/104/177
f 181/113/172 180/112/171 192/112/183 193/113/184
f 178/110/169 177/109/168 189/109/180 190/110/181
f 175/107/166 174/104/165 186/104/177 187/107/178
f 182/114/173 181/113/172 193/113/184 194/114/185
f 179/111/170 178/110/169 190/110/181 191/111/182
f 176/108/167 175/107/166 187/107/178 188/108/179
f 183/115/174 182/114/173 194/114/185 195/115/186
f 172/105/163 173/106/164 185/106/176 184/105/175
f 180/112/171 179/111/170 191/111/182 192/112/183
f 177/109/168 176/108/167 188/108/179 189/109/180
f 185/106/176 195/115/186 196/106/187
f 186/104/177 184/105/175 196/104/187
f 193/113/184 192/112/183 196/113/187
f 190/110/181 189/109/180 196/110/187
f 187/107/178 186/104/177 196/107/187
f 194/114/185 193/113/184 196/114/187
f 191/111/182 190/110/181 196/111/187
f 188/108/179 187/107/178 196/108/187
f 195/115/186 194/114/185 196/115/187
f 184/105/175 185/106/176 196/105/187
f 192/112/183 191/111/182 196/112/187
f 102/116/93 100/117/91 197/118/188 198/119/189
f 104/120/95 102/116/93 198/119/189 199/121/190
f 106/122/97 104/120/95 199/121/190 200/123/191
f 108/124/99 106/122/97 200/123/191 201/125/192
f 110/78/101 108/124/99 201/125/192 202/126/193
f 112/79/103 110/78/101 202/126/193 203/127/194
f 114/128/105 112/79/103 203/127/194 204/129/195
f 116/130/107 114/128/105 204/129/195 205/131/196
f 118/132/109 116/130/107 205/131/196 206/133/197
f 120/134/111 118/132/109 206/133/197 207/135/198
f 122/136/113 120/134/111 207/135/198 208/137/199
f 100/117/91 122/136/113 208/137/199 197/118/188
f 211/138/202 212/139/203 236/139/215 235/138/214
f 104/120/95 106/122/97 224/122/197 223/120/196
f 118/132/109 120/134/111 231/134/192 230/132/191
f 112/79/103 114/128/105 228/128/189 227/79/188
f 106/122/97 108/124/99 225/124/198 224/122/197
f 120/134/111 122/136/113 232/136/193 231/134/192
f 100/117/91 102/116/93 222/116/195 221/117/194
f 114/128/105 116/130/107 229/130/190 228/128/189
f 108/124/99 110/78/101 226/78/199 225/124/198
f 122/136/113 100/117/91 221/117/194 232/136/193
f 102/116/93 104/120/95 223/120/196 222/116/195
f 116/130/107 118/132/109 230/132/191 229/130/190
f 210/140/201 209/141/200 221/117/194 222/116/195
f 211/138/202 210/140/201 222/116/195 223/120/196
f 212/139/203 211/138/202 223/120/196 224/122/197
f 213/142/204 212/139/203 224/122/197 225/124/198
f 214/143/205 213/142/204 225/124/198 226/78/199
f 215/144/206 214/143/205 226/78/199 227/79/188
f 216/145/207 215/144/206 227/79/188 228/128/189
f 217/146/208 216/145/207 228/128/189 229/130/190
f 218/147/209 217/146/208 229/130/190 230/132/191
f 219/148/210 218/147/209 230/132/191 231/134/192
f 220/149/211 219/148/210 231/134/192 232/136/193
f 209/141/200 220/149/211 232/136/193 221/117/194
f 235/138/214 236/139/215 248/139/227 247/138/226
f 218/147/209 219/148/210 243/148/222 242/147/221
f 215/144/206 216/145/207 240/145/219 239/144/218
f 212/139/203 213/142/204 237/142/216 236/139/215
f 219/148/210 220/149/211 244/149/223 243/148/222
f 209/141/200 210/140/201 234/140/213 233/141/212
f 216/145/207 217/146/208 241/146/220 240/145/219
f 213/142/204 214/143/205 238/143/217 237/142/216
f 220/149/211 209/141/200 233/141/212 244/149/223
f 210/140/201 211/138/202 235/138/214 234/140/213
f 217/146/208 218/147/209 242/147/221 241/146/220
f 214/143/205 215/144/206 239/144/218 238/143/217
f 250/143/229 251/144/230 275/144/254 274/143/253
f 242/147/221 243/148/222 255/148/234 254/147/233
f 239/144/218 240/145/219 252/145/231 251/144/230
f 236/139/215 237/142/216 249/142/228 248/139/227
f 243/148/222 244/149/223 256/149/235 255/148/234
f 233/141/212 234/140/213 246/140/225 245/141/224
f 240/145/219 241/146/220 253/146/232 252/145/231
f 237/142/216 238/143/217 250/143/229 249/142/228
f 244/149/223 233/141/212 245/141/224 256/149/235
f 234/140/213 235/138/214 247/138/226 246/140/225
f 241/146/220 242/147/221 254/147/233 253/146/232
f 238/143/217 239/144/218 251/144/230 250/143/229
f 267/150/246 268/151/247 292/151/271 291/150/270
f 247/138/226 248/139/227 272/139/251 271/138/250
f 254/147/233 255/148/234 279/148/258 278/147/257
f 251/144/230 252/145/231 276/145/255 275/144/254
f 248/139/227 249/142/228 273/142/252 272/139/251
f 255/148/234 256/149/235 280/149/259 279/148/258
f 245/141/224 246/140/225 270/140/249 269/141/248
f 252/145/231 253/146/232 277/146/256 276/145/255
f 249/142/228 250/143/229 274/143/253 273/142/252
f 256/149/235 245/141/224 269/141/248 280/149/259
f 246/140/225 247/138/226 271/138/250 270/140/249
f 253/146/232 254/147/233 278/147/257 277/146/256
f 258/152/237 257/153/236 269/141/248 270/140/249
f 259/154/238 258/152/237 270/140/249 271/138/250
f 260/155/239 259/154/238 271/138/250 272/139/251
f 261/156/240 260/155/239 272/139/251 273/142/252
f 262/157/241 261/156/240 273/142/252 274/143/253
f 263/158/242 262/157/241 274/143/253 275/144/254
f 264/159/243 263/158/242 275/144/254 276/145/255
f 265/160/244 264/159/243 276/145/255 277/146/256
f 266/161/245 265/160/244 277/146/256 278/147/257
f 267/150/246 266/161/245 278/147/257 279/148/258
f 268/151/247 267/150/246 279/148/258 280/149/259
f 257/153/236 268/151/247 280/149/259 269/141/248
f 284/155/263 285/156/264 297/156/276 296/155/275
f 257/153/236 258/152/237 282/152/261 281/153/260
f 264/159/243 265/160/244 289/160/268 288/159/267
f 261/156/240 262/157/241 286/157/265 285/156/264
f 268/151/247 257/153/236 281/153/260 292/151/271
f 258/152/237 259/154/238 283/154/262 282/152/261
f 265/160/244 266/161/245 290/161/269 289/160/268
f 262/157/241 263/158/242 287/158/266 286/157/265
f 259/154/238 260/155/239 284/155/263 283/154/262
f 266/161/245 267/150/246 291/150/270 290/161/269
f 263/158/242 264/159/243 288/159/267 287/158/266
f 260/155/239 261/156/240 285/156/264 284/155/263
f 296/155/275 297/156/276 309/156/288 308/155/287
f 291/150/270 292/151/271 304/151/283 303/150/282
f 281/153/260 282/152/261 294/152/273 293/153/272
f 288/159/267 289/160/268 301/160/280 300/159/279
f 285/156/264 286/157/265 298/157/277 297/156/276
f 292/151/271 281/153/260 293/153/272 304/151/283
f 282/152/261 283/154/262 295/154/274 294/152/273
f 289/160/268 290/161/269 302/161/281 301/160/280
f 286/157/265 287/158/266 299/158/278 298/157/277
f 283/154/262 284/155/263 296/155/275 295/154/274
f 290/161/269 291/150/270 303/150/282 302/161/281
f 287/158/266 288/159/267 300/159/279 299/158/278
f 311/158/290 312/159/291 324/159/303 323/158/302
f 303/150/282 304/151/283 316/151/295 315/150/294
f 293/153/272 294/152/273 306/152/285 305/153/284
f 300/159/279 301/160/280 313/160/292 312/159/291
f 297/156/276 298/157/277 310/157/289 309/156/288
f 304/151/283 293/153/272 305/153/284 316/151/295
f 294/152/273 295/154/274 307/154/286 306/152/285
f 301/160/280 302/161/281 314/161/293 313/160/292
f 298/157/277 299/158/278 311/158/290 310/157/289
f 295/154/274 296/155/275 308/155/287 307/154/286
f 302/161/281 303/150/282 315/150/294 314/161/293
f 299/158/278 300/159/279 312/159/291 311/158/290
f 317/153/296 318/152/297 319/154/298 320/155/299 321/156/300 322/157/301 323/158/302 324/159/303 325/160/304 326/161/305 327/150/306 328/151/307
f 308/155/287 309/156/288 321/156/300 320/155/299
f 315/150/294 316/151/295 328/151/307 327/150/306
f 305/153/284 306/152/285 318/152/297 317/153/296
f 312/159/291 313/160/292 325/160/304 324/159/303
f 309/156/288 310/157/289 322/157/301 321/156/300
f 316/151/295 305/153/284 317/153/296 328/151/307
f 306/152/285 307/154/286 319/154/298 318/152/297
f 313/160/292 314/161/293 326/161/305 325/160/304
f 310/157/289 311/158/290 323/158/302 322/157/301
f 307/154/286 308/155/287 320/155/299 319/154/298
f 314/161/293 315/150/294 327/150/306 326/161/305
f 337/162/316 338/163/317 332/20/311 331/2/310
f 331/2/310 332/20/311 336/5/315 335/12/314
f 339/13/318 340/27/319 334/164/313 333/165/312
f 333/165/312 334/164/313 330/166/309 329/167/308
f 337/35/316 339/13/318 333/165/312 329/168/308
f 340/27/319 338/9/317 330/169/309 334/164/313
f 336/5/315 332/8/311 338/9/317 340/27/319
f 331/34/310 335/12/314 339/13/318 337/35/316
f 335/12/314 336/5/315 340/27/319 339/13/318
f 329/170/308 330/171/309 338/163/317 337/162/316
f 349/162/328 350/163/329 344/20/323 343/2/322
f 343/2/322 344/20/323 348/5/327 347/12/326
f 351/13/330 352/27/331 346/164/325 345/165/324
f 345/165/324 346/164/325 342/166/321 341/167/320
f 349/35/328 351/13/330 345/165/324 341/168/320
f 352/27/331 350/9/329 342/169/321 346/164/325
f 348/5/327 344/8/323 350/9/329 352/27/331
f 343/34/322 347/12/326 351/13/330 349/35/328
f 347/12/326 348/5/327 352/27/331 351/13/330
f 341/170/320 342/171/321 350/163/329 349/162/328
f 361/162/340 362/163/341 356/20/335 355/2/334
f 365/172/344 366/173/345 360/5/339 359/12/338
f 363/13/342 364/27/343 358/164/337 357/165/336
f 367/174/346 368/175/347 354/166/333 353/167/332
f 370/176/349 363/13/342 357/165/336 367/177/346
f 369/178/348 362/9/341 354/169/333 368/179/347
f 366/180/345 356/8/335 362/9/341 369/178/348
f 365/181/344 359/12/338 363/13/342 370/176/349
f 359/12/338 360/5/339 364/27/343 363/13/342
f 353/170/332 354/171/333 362/163/341 361/162/340
f 355/34/334 365/181/344 370/176/349 361/35/340
f 360/5/339 366/180/345 369/178/348 364/27/343
f 364/27/343 369/178/348 368/179/347 358/164/337
f 361/35/340 370/176/349 367/177/346 353/168/332
f 357/165/336 358/164/337 368/175/347 367/174/346
f 355/2/334 356/20/335 366/173/345 365/172/344
f 382/162/358 383/163/359 377/20/353 376/2/352
f 376/2/352 377/20/353 381/5/357 380/12/356
f 384/13/360 385/27/361 379/164/355 378/165/354
f 378/165/354 379/164/355 375/166/351 374/167/350
f 382/35/358 384/13/360 378/165/354 374/168/350
f 385/27/361 383/9/359 375/169/351 379/164/355
f 381/5/357 377/8/353 383/9/359 385/27/361
f 376/34/352 380/12/356 384/13/360 382/35/358
f 380/12/356 381/5/357 385/27/361 384/13/360
f 374/170/350 375/171/351 383/163/359 382/162/358
f 409/1/385 431/1/407 434/2/410 425/2/401
f 407/3/383 392/6/368 389/5/365 405/4/381
f 405/7/381 36/10/32 6/9/6 387/8/363
f 404/11/380 37/14/33 7/13/7 388/12/364
f 404/15/380 388/12/364 393/17/369 406/16/382
f 423/18/399 420/19/396 392/6/368 407/3/383
f 387/20/363 424/20/400 410/21/386 390/21/366
f 424/20/400 433/20/409 432/21/408 410/21/386
f 19/13/18 27/13/25 401/24/377 397/23/373
f 401/24/377 33/24/29 400/25/376
f 402/26/378 33/26/29 29/27/27
f 399/28/375 403/30/379 402/26/378 398/29/374
f 398/29/374 402/26/378 29/27/27 21/27/20
f 397/23/373 401/24/377 400/25/376 396/31/372
f 421/32/397 422/33/398 403/30/379 399/28/375
f 400/25/376 33/25/29 403/30/379 422/33/398
f 27/13/25 33/13/29 401/24/377
f 403/30/379 33/30/29 402/26/378
f 390/21/366 411/21/387 414/3/390 407/3/383
f 386/2/362 404/15/380 406/16/382 391/1/367
f 386/34/362 5/35/5 37/14/33 404/11/380
f 389/5/365 8/27/8 36/10/32 405/7/381
f 390/21/366 407/3/383 405/4/381 387/20/363
f 46/9/39 73/9/65 433/8/409 424/8/400
f 390/21/366 410/21/386 408/36/384 419/36/395
f 6/9/6 46/9/39 424/8/400 387/8/363
f 386/34/362 425/34/401 47/35/40 5/35/5
f 411/21/387 415/21/391 418/3/394 414/3/390
f 423/18/399 427/18/403 413/16/389 406/16/382
f 419/36/395 426/36/402 411/21/387 390/21/366
f 406/16/382 413/16/389 412/1/388 391/1/367
f 428/36/404 429/18/405 418/3/394 415/21/391
f 426/36/402 428/36/404 415/21/391 411/21/387
f 427/18/403 429/18/405 417/16/393 413/16/389
f 413/16/389 417/16/393 416/1/392 412/1/388
f 414/3/390 418/3/394 429/18/405 427/18/403
f 412/1/388 416/1/392 428/36/404 426/36/402
f 416/1/392 417/16/393 429/18/405 428/36/404
f 391/1/367 412/1/388 426/36/402 419/36/395
f 407/3/383 414/3/390 427/18/403 423/18/399
f 391/1/367 409/1/385 425/2/401 386/2/362
f 419/36/395 408/36/384 409/1/385 391/1/367
f 396/31/372 400/25/376 422/33/398 421/32/397
f 406/16/382 393/17/369 420/19/396 423/18/399
f 408/36/384 430/36/406 431/1/407 409/1/385
f 425/34/401 434/34/410 74/35/66 47/35/40
f 410/21/386 432/21/408 430/36/406 408/36/384
f 430/36/406 432/21/408 433/8/409 73/22/65 70/22/62
f 69/22/61 70/22/62 430/36/406 431/1/407
f 74/35/66 69/22/61 431/1/407 434/34/410
f 442/37/418 396/31/372 421/32/397 437/38/413
f 446/39/422 443/42/419 444/41/420 445/40/421
f 445/40/421 444/41/420 439/44/415 440/43/416
f 441/45/417 80/13/71 19/13/18 397/23/373
f 394/46/370 395/49/371 438/48/414 436/47/412
f 439/44/415 436/47/412 438/48/414 440/43/416
f 447/50/423 394/46/370 436/47/412 435/51/411
f 437/38/413 435/51/411 436/47/412 439/44/415
f 440/43/416 438/48/414 392/6/368 420/19/396
f 441/45/417 397/23/373 396/31/372 442/37/418
f 443/42/419 441/45/417 442/37/418 444/41/420
f 444/41/420 442/37/418 437/38/413 439/44/415
f 8/27/8 389/5/365 395/49/371 79/27/70
f 388/12/364 7/13/7 84/13/75 446/39/422
f 446/39/422 84/13/75 82/13/73 443/42/419
f 398/29/374 447/50/423 435/51/411 399/28/375
f 421/32/397 399/28/375 435/51/411 437/38/413
f 77/27/69 447/50/423 398/29/374 21/27/20
f 388/12/364 446/39/422 445/40/421 393/17/369
f 395/49/371 389/5/365 392/6/368 438/48/414
f 393/17/369 445/40/421 440/43/416 420/19/396
f 394/46/370 448/46/424 395/49/371
f 443/42/419 82/13/73 80/13/71 441/45/417
f 395/49/371 448/46/424 96/27/87 79/22/70
f 96/27/87 448/46/424 449/50/425 97/27/88
f 77/27/69 97/27/88 449/50/425 447/50/423
f 447/50/423 449/50/425 448/46/424 394/46/370
f 547/52/194 548/55/193 453/54/102 451/53/104
f 548/55/193 549/57/192 455/56/100 453/54/102
f 549/57/192 550/59/191 457/58/98 455/56/100
f 550/59/191 551/61/190 459/60/96 457/58/98
f 551/61/190 552/63/189 461/62/94 459/60/96
f 552/63/189 553/65/188 463/64/92 461/62/94
f 553/65/188 554/67/199 465/66/114 463/64/92
f 554/67/199 555/69/198 467/68/112 465/66/114
f 555/69/198 556/71/197 469/70/110 467/68/112
f 556/71/197 557/73/196 471/72/108 469/70/110
f 455/56/100 488/56/131 486/54/132 453/54/102
f 557/73/196 558/75/195 473/74/106 471/72/108
f 558/75/195 547/77/194 451/76/104 473/74/106
f 460/78/93 576/78/195 577/79/194 462/79/91
f 484/80/123 520/80/159 519/81/160 483/81/124
f 471/72/108 496/72/135 495/70/136 469/70/110
f 469/70/110 495/70/136 494/68/137 467/68/112
f 467/68/112 494/68/137 493/66/138 465/66/114
f 465/66/114 493/66/138 492/64/128 463/64/92
f 463/64/92 492/64/128 491/62/127 461/62/94
f 461/62/94 491/62/127 490/60/129 459/60/96
f 459/60/96 490/60/129 489/58/130 457/58/98
f 451/76/104 487/76/133 497/74/134 473/74/106
f 453/54/102 486/54/132 487/53/133 451/53/104
f 457/58/98 489/58/130 488/56/131 455/56/100
f 473/74/106 497/74/134 496/72/135 471/72/108
f 475/82/121 487/85/133 486/84/132 474/83/120
f 474/83/120 486/84/132 488/87/131 476/86/119
f 476/86/119 488/87/131 489/89/130 477/88/118
f 477/88/118 489/89/130 490/91/129 478/90/117
f 478/90/117 490/91/129 491/93/127 479/92/115
f 479/92/115 491/93/127 492/95/128 480/94/116
f 480/94/116 492/95/128 493/97/138 481/96/126
f 481/96/126 493/97/138 494/99/137 482/98/125
f 482/98/125 494/99/137 495/100/136 483/81/124
f 483/81/124 495/100/136 496/101/135 484/80/123
f 484/80/123 496/101/135 497/103/134 485/102/122
f 485/102/122 497/103/134 487/85/133 475/82/121
f 500/104/143 524/104/167 522/105/168 498/105/144
f 481/96/126 517/96/162 516/94/152 480/94/116
f 478/90/117 514/90/153 513/88/154 477/88/118
f 485/102/122 521/102/158 520/80/159 484/80/123
f 474/83/120 510/83/156 511/82/157 475/82/121
f 482/98/125 518/98/161 517/96/162 481/96/126
f 479/92/115 515/92/151 514/90/153 478/90/117
f 475/82/121 511/82/157 521/102/158 485/102/122
f 476/86/119 512/86/155 510/83/156 474/83/120
f 483/81/124 519/81/160 518/98/161 482/98/125
f 480/94/116 516/94/152 515/92/151 479/92/115
f 477/88/118 513/88/154 512/86/155 476/86/119
f 499/106/145 511/82/157 510/83/156 498/105/144
f 498/105/144 510/83/156 512/86/155 500/104/143
f 500/104/143 512/86/155 513/88/154 501/107/142
f 501/107/142 513/88/154 514/90/153 502/108/141
f 502/108/141 514/90/153 515/92/151 503/109/139
f 503/109/139 515/92/151 516/94/152 504/110/140
f 504/110/140 516/94/152 517/96/162 505/111/150
f 505/111/150 517/96/162 518/98/161 506/112/149
f 506/112/149 518/98/161 519/81/160 507/113/148
f 507/113/148 519/81/160 520/80/159 508/114/147
f 508/114/147 520/80/159 521/102/158 509/115/146
f 509/115/146 521/102/158 511/82/157 499/106/145
f 523/106/169 535/106/181 545/115/182 533/115/170
f 507/113/148 531/113/172 530/112/173 506/112/149
f 504/110/140 528/110/164 527/109/163 503/109/139
f 501/107/142 525/107/166 524/104/167 500/104/143
f 508/114/147 532/114/171 531/113/172 507/113/148
f 505/111/150 529/111/174 528/110/164 504/110/140
f 502/108/141 526/108/165 525/107/166 501/107/142
f 509/115/146 533/115/170 532/114/171 508/114/147
f 498/105/144 522/105/168 523/106/169 499/106/145
f 506/112/149 530/112/173 529/111/174 505/111/150
f 503/109/139 527/109/163 526/108/165 502/108/141
f 499/106/145 523/106/169 533/115/170 509/115/146
f 539/109/175 546/109/187 538/108/177
f 524/104/167 536/104/179 534/105/180 522/105/168
f 531/113/172 543/113/184 542/112/185 530/112/173
f 528/110/164 540/110/176 539/109/175 527/109/163
f 525/107/166 537/107/178 536/104/179 524/104/167
f 532/114/171 544/114/183 543/113/184 531/113/172
f 529/111/174 541/111/186 540/110/176 528/110/164
f 526/108/165 538/108/177 537/107/178 525/107/166
f 533/115/170 545/115/182 544/114/183 532/114/171
f 522/105/168 534/105/180 535/106/181 523/106/169
f 530/112/173 542/112/185 541/111/186 529/111/174
f 527/109/163 539/109/175 538/108/177 526/108/165
f 535/106/181 546/106/187 545/115/182
f 536/104/179 546/104/187 534/105/180
f 543/113/184 546/113/187 542/112/185
f 540/110/176 546/110/187 539/109/175
f 537/107/178 546/107/187 536/104/179
f 544/114/183 546/114/187 543/113/184
f 541/111/186 546/111/187 540/110/176
f 538/108/177 546/108/187 537/107/178
f 545/115/182 546/115/187 544/114/183
f 534/105/180 546/105/187 535/106/181
f 542/112/185 546/112/187 541/111/186
f 452/116/101 548/119/193 547/118/194 450/117/103
f 454/120/99 549/121/192 548/119/193 452/116/101
f 456/122/97 550/123/191 549/121/192 454/120/99
f 458/124/95 551/125/190 550/123/191 456/122/97
f 460/78/93 552/126/189 551/125/190 458/124/95
f 462/79/91 553/127/188 552/126/189 460/78/93
f 464/128/113 554/129/199 553/127/188 462/79/91
f 466/130/111 555/131/198 554/129/199 464/128/113
f 468/132/109 556/133/197 555/131/198 466/130/111
f 470/134/107 557/135/196 556/133/197 468/132/109
f 472/136/105 558/137/195 557/135/196 470/134/107
f 450/117/103 547/118/194 558/137/195 472/136/105
f 561/138/204 585/138/216 586/139/215 562/139/203
f 454/120/99 573/120/198 574/122/197 456/122/97
f 468/132/109 580/132/191 581/134/190 470/134/107
f 462/79/91 577/79/194 578/128/193 464/128/113
f 456/122/97 574/122/197 575/124/196 458/124/95
f 470/134/107 581/134/190 582/136/189 472/136/105
f 450/117/103 571/117/188 572/116/199 452/116/101
f 464/128/113 578/128/193 579/130/192 466/130/111
f 458/124/95 575/124/196 576/78/195 460/78/93
f 472/136/105 582/136/189 571/117/188 450/117/103
f 452/116/101 572/116/199 573/120/198 454/120/99
f 466/130/111 579/130/192 580/132/191 468/132/109
f 560/140/205 572/116/199 571/117/188 559/141/206
f 561/138/204 573/120/198 572/116/199 560/140/205
f 562/139/203 574/122/197 573/120/198 561/138/204
f 563/142/202 575/124/196 574/122/197 562/139/203
f 564/143/201 576/78/195 575/124/196 563/142/202
f 565/144/200 577/79/194 576/78/195 564/143/201
f 566/145/211 578/128/193 577/79/194 565/144/200
f 567/146/210 579/130/192 578/128/193 566/145/211
f 568/147/209 580/132/191 579/130/192 567/146/210
f 569/148/208 581/134/190 580/132/191 568/147/209
f 570/149/207 582/136/189 581/134/190 569/148/208
f 559/141/206 571/117/188 582/136/189 570/149/207
f 585/138/216 597/138/228 598/139/227 586/139/215
f 568/147/209 592/147/221 593/148/220 569/148/208
f 565/144/200 589/144/212 590/145/223 566/145/211
f 562/139/203 586/139/215 587/142/214 563/142/202
f 569/148/208 593/148/220 594/149/219 570/149/207
f 559/141/206 583/141/218 584/140/217 560/140/205
f 566/145/211 590/145/223 591/146/222 567/146/210
f 563/142/202 587/142/214 588/143/213 564/143/201
f 570/149/207 594/149/219 583/141/218 559/141/206
f 560/140/205 584/140/217 585/138/216 561/138/204
f 567/146/210 591/146/222 592/147/221 568/147/209
f 564/143/201 588/143/213 589/144/212 565/144/200
f 600/143/225 624/143/249 625/144/248 601/144/224
f 592/147/221 604/147/233 605/148/232 593/148/220
f 589/144/212 601/144/224 602/145/235 590/145/223
f 586/139/215 598/139/227 599/142/226 587/142/214
f 593/148/220 605/148/232 606/149/231 594/149/219
f 583/141/218 595/141/230 596/140/229 584/140/217
f 590/145/223 602/145/235 603/146/234 591/146/222
f 587/142/214 599/142/226 600/143/225 588/143/213
f 594/149/219 606/149/231 595/141/230 583/141/218
f 584/140/217 596/140/229 597/138/228 585/138/216
f 591/146/222 603/146/234 604/147/233 592/147/221
f 588/143/213 600/143/225 601/144/224 589/144/212
f 617/150/244 641/150/268 642/151/267 618/151/243
f 597/138/228 621/138/252 622/139/251 598/139/227
f 604/147/233 628/147/257 629/148/256 605/148/232
f 601/144/224 625/144/248 626/145/259 602/145/235
f 598/139/227 622/139/251 623/142/250 599/142/226
f 605/148/232 629/148/256 630/149/255 606/149/231
f 595/141/230 619/141/254 620/140/253 596/140/229
f 602/145/235 626/145/259 627/146/258 603/146/234
f 599/142/226 623/142/250 624/143/249 600/143/225
f 606/149/231 630/149/255 619/141/254 595/141/230
f 596/140/229 620/140/253 621/138/252 597/138/228
f 603/146/234 627/146/258 628/147/257 604/147/233
f 608/152/241 620/140/253 619/141/254 607/153/242
f 609/154/240 621/138/252 620/140/253 608/152/241
f 610/155/239 622/139/251 621/138/252 609/154/240
f 611/156/238 623/142/250 622/139/251 610/155/239
f 612/157/237 624/143/249 623/142/250 611/156/238
f 613/158/236 625/144/248 624/143/249 612/157/237
f 614/159/247 626/145/259 625/144/248 613/158/236
f 615/160/246 627/146/258 626/145/259 614/159/247
f 616/161/245 628/147/257 627/146/258 615/160/246
f 617/150/244 629/148/256 628/147/257 616/161/245
f 618/151/243 630/149/255 629/148/256 617/150/244
f 607/153/242 619/141/254 630/149/255 618/151/243
f 634/155/263 646/155/275 647/156/274 635/156/262
f 607/153/242 631/153/266 632/152/265 608/152/241
f 614/159/247 638/159/271 639/160/270 615/160/246
f 611/156/238 635/156/262 636/157/261 612/157/237
f 618/151/243 642/151/267 631/153/266 607/153/242
f 608/152/241 632/152/265 633/154/264 609/154/240
f 615/160/246 639/160/270 640/161/269 616/161/245
f 612/157/237 636/157/261 637/158/260 613/158/236
f 609/154/240 633/154/264 634/155/263 610/155/239
f 616/161/245 640/161/269 641/150/268 617/150/244
f 613/158/236 637/158/260 638/159/271 614/159/247
f 610/155/239 634/155/263 635/156/262 611/156/238
f 646/155/275 658/155/287 659/156/286 647/156/274
f 641/150/268 653/150/280 654/151/279 642/151/267
f 631/153/266 643/153/278 644/152/277 632/152/265
f 638/159/271 650/159/283 651/160/282 639/160/270
f 635/156/262 647/156/274 648/157/273 636/157/261
f 642/151/267 654/151/279 643/153/278 631/153/266
f 632/152/265 644/152/277 645/154/276 633/154/264
f 639/160/270 651/160/282 652/161/281 640/161/269
f 636/157/261 648/157/273 649/158/272 637/158/260
f 633/154/264 645/154/276 646/155/275 634/155/263
f 640/161/269 652/161/281 653/150/280 641/150/268
f 637/158/260 649/158/272 650/159/283 638/159/271
f 661/158/284 673/158/296 674/159/426 662/159/295
f 653/150/280 665/150/292 666/151/291 654/151/279
f 643/153/278 655/153/290 656/152/289 644/152/277
f 650/159/283 662/159/295 663/160/294 651/160/282
f 647/156/274 659/156/286 660/157/285 648/157/273
f 654/151/279 666/151/291 655/153/290 643/153/278
f 644/152/277 656/152/289 657/154/288 645/154/276
f 651/160/282 663/160/294 664/161/293 652/161/281
f 648/157/273 660/157/285 661/158/284 649/158/272
f 645/154/276 657/154/288 658/155/287 646/155/275
f 652/161/281 664/161/293 665/150/292 653/150/280
f 649/158/272 661/158/284 662/159/295 650/159/283
f 667/153/302 678/151/303 677/150/304 676/161/305 675/160/306 674/159/426 673/158/296 672/157/297 671/156/298 670/155/299 669/154/300 668/152/301
f 658/155/287 670/155/299 671/156/298 659/156/286
f 665/150/292 677/150/304 678/151/303 666/151/291
f 655/153/290 667/153/302 668/152/301 656/152/289
f 662/159/295 674/159/426 675/160/306 663/160/294
f 659/156/286 671/156/298 672/157/297 660/157/285
f 666/151/291 678/151/303 667/153/302 655/153/290
f 656/152/289 668/152/301 669/154/300 657/154/288
f 663/160/294 675/160/306 676/161/305 664/161/293
f 660/157/285 672/157/297 673/158/296 661/158/284
f 657/154/288 669/154/300 670/155/299 658/155/287
f 664/161/293 676/161/305 677/150/304 665/150/292
f 687/162/435 681/2/429 682/20/430 688/163/436
f 681/2/429 685/12/433 686/5/434 682/20/430
f 689/13/437 683/165/431 684/164/432 690/27/438
f 683/165/431 679/167/427 680/166/428 684/164/432
f 687/35/435 679/168/427 683/165/431 689/13/437
f 690/27/438 684/164/432 680/169/428 688/9/436
f 686/5/434 690/27/438 688/9/436 682/8/430
f 681/34/429 687/35/435 689/13/437 685/12/433
f 685/12/433 689/13/437 690/27/438 686/5/434
f 679/170/427 687/162/435 688/163/436 680/171/428
f 699/162/447 693/2/441 694/20/442 700/163/448
f 693/2/441 697/12/445 698/5/446 694/20/442
f 701/13/449 695/165/443 696/164/444 702/27/450
f 695/165/443 691/167/439 692/166/440 696/164/444
f 699/35/447 691/168/439 695/165/443 701/13/449
f 702/27/450 696/164/444 692/169/440 700/9/448
f 698/5/446 702/27/450 700/9/448 694/8/442
f 693/34/441 699/35/447 701/13/449 697/12/445
f 697/12/445 701/13/449 702/27/450 698/5/446
f 691/170/439 699/162/447 700/163/448 692/171/440
f 711/162/459 705/2/453 706/20/454 712/163/460
f 715/172/463 709/12/457 710/5/458 716/173/464
f 713/13/461 707/165/455 708/164/456 714/27/462
f 717/174/465 703/167/451 704/166/452 718/175/466
f 720/176/468 717/177/465 707/165/455 713/13/461
f 719/178/467 718/179/466 704/169/452 712/9/460
f 716/180/464 719/178/467 712/9/460 706/8/454
f 715/181/463 720/176/468 713/13/461 709/12/457
f 709/12/457 713/13/461 714/27/462 710/5/458
f 703/170/451 711/162/459 712/163/460 704/171/452
f 705/34/453 711/35/459 720/176/468 715/181/463
f 710/5/458 714/27/462 719/178/467 716/180/464
f 714/27/462 708/164/456 718/179/466 719/178/467
f 711/35/459 703/168/451 717/177/465 720/176/468
f 707/165/455 717/174/465 718/175/466 708/164/456
f 705/2/453 715/172/463 716/173/464 706/20/454
f 382/162/358 726/2/350 727/20/351 383/163/359
f 726/2/350 730/12/354 731/5/355 727/20/351
f 384/13/360 728/165/356 729/164/357 385/27/361
f 728/165/356 724/167/352 725/166/353 729/164/357
f 382/35/358 724/168/352 728/165/356 384/13/360
f 385/27/361 729/164/357 725/169/353 383/9/359
f 731/5/355 385/27/361 383/9/359 727/8/351
f 726/34/350 382/35/358 384/13/360 730/12/354
f 730/12/354 384/13/360 385/27/361 731/5/355
f 724/170/352 382/162/358 383/163/359 725/171/353
l 373 371
l 372 373
l 723 721
l 722 723
