# Blender 5.1.2
# www.blender.org
mtllib smooth3-CG-Model.mtl
o Plane
v -9.530300 -0.491377 -0.761596
v -9.530300 0.491377 -0.761596
v 11.157622 -0.491377 -0.761596
v 11.157622 0.491377 -0.761596
v -9.530300 -0.738711 0.000000
v -9.530300 0.738711 0.000000
v 11.157622 -0.738711 0.000000
v 11.157622 0.738711 0.000000
v -9.530300 0.246237 -1.000000
v -9.530300 -0.246237 -1.000000
v 11.157622 0.246237 -1.000000
v 11.157622 -0.246237 -1.000000
v 12.609282 0.344511 -0.621489
v 11.927015 0.505866 -0.670911
v -9.530300 0.246237 0.000000
v -9.530300 -0.246237 0.000000
v 13.327595 -0.075889 -0.476755
v 13.327595 -0.197646 -0.398857
v 13.327595 -0.274398 0.000000
v 13.327595 0.197646 -0.398857
v 13.327595 0.274398 0.000000
v 13.327595 -0.091466 0.000000
v 13.327595 0.075889 -0.476755
v 13.327595 0.091466 0.000000
v 13.803816 -0.021082 -0.051713
v 13.803816 -0.061828 -0.036294
v 13.803816 -0.065451 0.000000
v 13.803816 0.061828 -0.036294
v 13.803816 0.065451 0.000000
v 13.803816 -0.021817 0.000000
v 13.803816 0.021082 -0.051713
v 13.803816 0.021817 0.000000
v 13.875731 0.008819 0.000000
v 0.160913 -0.491377 -0.761596
v 0.160913 0.491377 -0.761596
v 0.160913 0.738711 0.000000
v 0.160913 -0.738711 0.000000
v 0.160913 -0.246237 -1.000000
v 0.160913 0.246237 -1.000000
v -9.977055 0.000000 0.000000
v -9.977055 0.000000 -1.000000
v -9.977055 -0.246237 0.000000
v -9.977055 0.246237 0.000000
v -9.977055 -0.246237 -0.953018
v -9.977055 0.246237 -0.953018
v -9.977055 0.738711 0.000000
v -9.977055 -0.738711 0.000000
v -9.155571 0.093866 -1.234221
v -9.155571 -0.093866 -1.234221
v -0.177377 -0.093866 -1.234221
v -0.177377 0.093866 -1.234221
v -8.304668 0.093866 -6.151714
v -8.304668 -0.093866 -6.151714
v -5.169948 -0.093866 -6.151714
v -5.169948 0.093866 -6.151714
v -9.876535 0.000000 -1.000000
v 11.157622 0.000000 -1.000000
v -9.530300 0.000000 0.000000
v 13.327595 -0.000000 -0.476755
v 13.803816 -0.000000 -0.051713
v 6.892735 0.000000 -1.000000
v -9.977055 0.491377 -0.761596
v -9.977055 -0.491377 -0.761596
v -9.365295 0.000000 -1.234221
v 0.882724 0.000000 -1.966635
v -8.514393 0.000000 -6.151714
v -4.722203 0.000000 -6.151714
v -11.610521 0.222370 -0.352956
v -12.213844 0.295373 0.000000
v -12.191547 0.418729 0.000000
v -11.490205 0.049639 -0.339638
v -11.538972 0.318566 -0.351956
v -11.982010 0.541667 0.000000
v -11.992484 0.110729 0.000000
v -11.849524 0.454080 -0.228501
v -11.101708 -0.206907 -0.425624
v 12.968439 0.390476 0.000000
v 12.609282 0.506554 0.000000
v 11.927015 0.710554 0.000000
v 12.968439 -0.390476 0.000000
v 12.968439 0.118476 -0.607566
v 12.609282 -0.506554 0.000000
v 12.609282 0.161063 -0.738377
v 12.102657 -0.622633 0.000000
v 12.968439 -0.000000 -0.607566
v 12.102657 0.203650 -0.869189
v 12.609282 -0.000000 -0.738377
v 12.102657 -0.000000 -0.869189
v 12.968439 -0.271079 -0.489541
v 12.968439 -0.118476 -0.607566
v 12.609282 -0.344511 -0.580226
v 12.609282 -0.161063 -0.738377
v 12.102657 -0.203650 -0.869189
v 12.102657 -0.417944 -0.670911
v 12.968439 0.271079 -0.489541
v 12.565870 0.647469 0.000000
v 12.871503 0.531391 0.000000
v 12.565870 0.485426 -0.569563
v 12.871503 0.411994 -0.478878
v -8.760000 0.000000 -7.217230
v -4.240000 -0.000000 -7.300000
v -8.760000 -0.258615 -7.147934
v -4.240000 -0.300000 -7.219615
v -8.760000 -0.447934 -6.958615
v -4.240000 -0.519615 -7.000000
v -8.760000 -0.517230 -6.700000
v -4.240000 -0.600000 -6.700000
v -8.760000 -0.447934 -6.441385
v -4.240000 -0.519615 -6.400000
v -8.760000 -0.258615 -6.252066
v -4.240000 -0.300000 -6.180385
v -8.760000 0.000000 -6.182770
v -4.240000 -0.000000 -6.100000
v -8.760000 0.258615 -6.252066
v -4.240000 0.300000 -6.180385
v -8.760000 0.447934 -6.441385
v -4.240000 0.519615 -6.400000
v -8.760000 0.517230 -6.700000
v -4.240000 0.600000 -6.700000
v -8.760000 0.447934 -6.958615
v -4.240000 0.519615 -7.000000
v -8.760000 0.258615 -7.147934
v -4.240000 0.300000 -7.219615
v -3.490523 -0.212615 -7.068260
v -3.490523 -0.000000 -7.125229
v -3.490523 -0.368260 -6.912615
v -3.490523 -0.425230 -6.700000
v -3.490523 -0.368260 -6.487385
v -3.490523 -0.212615 -6.331740
v -3.490523 -0.000000 -6.274770
v -3.490523 0.212615 -6.331740
v -3.490523 0.368260 -6.487385
v -3.490523 0.425230 -6.700000
v -3.490523 0.368260 -6.912615
v -3.490523 0.212615 -7.068260
v -3.490523 -0.238552 -7.113183
v -3.490523 -0.000000 -7.177104
v -3.490523 -0.413184 -6.938551
v -3.490523 -0.477104 -6.700000
v -3.490523 -0.413184 -6.461448
v -3.490523 -0.238552 -6.286816
v -3.490523 -0.000000 -6.222897
v -3.490523 0.238552 -6.286816
v -3.490523 0.413184 -6.461448
v -3.490523 0.477103 -6.700000
v -3.490523 0.413184 -6.938551
v -3.490523 0.238552 -7.113183
v -4.226222 -0.229367 -7.097274
v -4.226222 -0.000000 -7.158733
v -4.226222 -0.397275 -6.929367
v -4.226222 -0.458733 -6.700000
v -4.226222 -0.397275 -6.470634
v -4.226222 -0.229367 -6.302725
v -4.226222 -0.000000 -6.241267
v -4.226222 0.229366 -6.302725
v -4.226222 0.397274 -6.470633
v -4.226222 0.458733 -6.700000
v -4.226222 0.397274 -6.929366
v -4.226222 0.229366 -7.097274
v -4.226222 -0.273370 -7.173491
v -4.226222 -0.000000 -7.246740
v -4.226222 -0.473491 -6.973370
v -4.226222 -0.546740 -6.700000
v -4.226222 -0.473491 -6.426630
v -4.226222 -0.273370 -6.226509
v -4.226222 -0.000000 -6.153260
v -4.226222 0.273370 -6.226509
v -4.226222 0.473491 -6.426630
v -4.226222 0.546740 -6.700000
v -4.226222 0.473491 -6.973370
v -4.226222 0.273370 -7.173491
v -3.901342 -0.213004 -7.068933
v -3.901342 -0.000000 -7.126007
v -3.901342 -0.368933 -6.913003
v -3.901342 -0.426007 -6.700000
v -3.901342 -0.368933 -6.486996
v -3.901342 -0.213004 -6.331067
v -3.901342 -0.000000 -6.273993
v -3.901342 0.213003 -6.331067
v -3.901342 0.368933 -6.486996
v -3.901342 0.426007 -6.700000
v -3.901342 0.368933 -6.913003
v -3.901342 0.213003 -7.068933
v -3.273282 -0.147781 -6.955963
v -3.273282 -0.000000 -6.995561
v -3.273282 -0.255964 -6.847780
v -3.273282 -0.295561 -6.700000
v -3.273282 -0.255964 -6.552219
v -3.273282 -0.147781 -6.444036
v -3.273282 -0.000000 -6.404438
v -3.273282 0.147780 -6.444036
v -3.273282 0.255963 -6.552219
v -3.273282 0.295561 -6.700000
v -3.273282 0.255963 -6.847780
v -3.273282 0.147780 -6.955963
v -2.521488 -0.000000 -6.700000
v -8.760000 0.000000 -7.300000
v -8.760000 -0.300000 -7.219615
v -8.760000 -0.519615 -7.000000
v -8.760000 -0.600000 -6.700000
v -8.760000 -0.519615 -6.400000
v -8.760000 -0.300000 -6.180385
v -8.760000 0.000000 -6.100000
v -8.760000 0.300000 -6.180385
v -8.760000 0.519615 -6.400000
v -8.760000 0.600000 -6.700000
v -8.760000 0.519615 -7.000000
v -8.760000 0.300000 -7.219615
v -8.326891 0.000000 -6.923534
v -8.326891 -0.111767 -6.893586
v -8.326891 -0.193586 -6.811767
v -8.326891 -0.223534 -6.700000
v -8.326891 -0.193586 -6.588233
v -8.326891 -0.111767 -6.506413
v -8.326891 0.000000 -6.476466
v -8.326891 0.111767 -6.506413
v -8.326891 0.193586 -6.588233
v -8.326891 0.223534 -6.700000
v -8.326891 0.193586 -6.811767
v -8.326891 0.111767 -6.893586
v -8.326891 0.000000 -7.217230
v -8.326891 -0.258615 -7.147934
v -8.326891 -0.447934 -6.958615
v -8.326891 -0.517230 -6.700000
v -8.326891 -0.447934 -6.441385
v -8.326891 -0.258615 -6.252066
v -8.326891 0.000000 -6.182770
v -8.326891 0.258615 -6.252066
v -8.326891 0.447934 -6.441385
v -8.326891 0.517230 -6.700000
v -8.326891 0.447934 -6.958615
v -8.326891 0.258615 -7.147934
v -8.588819 0.000000 -7.062640
v -8.588819 -0.181320 -7.014055
v -8.588819 -0.314055 -6.881320
v -8.588819 -0.362640 -6.700000
v -8.588819 -0.314055 -6.518680
v -8.588819 -0.181320 -6.385944
v -8.588819 0.000000 -6.337359
v -8.588819 0.181320 -6.385944
v -8.588819 0.314056 -6.518680
v -8.588819 0.362640 -6.700000
v -8.588819 0.314056 -6.881320
v -8.588819 0.181320 -7.014055
v -8.913871 0.000000 -7.163504
v -8.913871 -0.231752 -7.101406
v -8.913871 -0.401406 -6.931752
v -8.913871 -0.463504 -6.700000
v -8.913871 -0.401406 -6.468248
v -8.913871 -0.231752 -6.298594
v -8.913871 0.000000 -6.236495
v -8.913871 0.231752 -6.298594
v -8.913871 0.401406 -6.468248
v -8.913871 0.463504 -6.700000
v -8.913871 0.401406 -6.931752
v -8.913871 0.231752 -7.101406
v -9.337793 0.000000 -7.200966
v -9.337793 -0.250483 -7.133849
v -9.337793 -0.433850 -6.950483
v -9.337793 -0.500966 -6.700000
v -9.337793 -0.433850 -6.449516
v -9.337793 -0.250483 -6.266150
v -9.337793 0.000000 -6.199033
v -9.337793 0.250483 -6.266150
v -9.337793 0.433850 -6.449516
v -9.337793 0.500967 -6.700000
v -9.337793 0.433850 -6.950483
v -9.337793 0.250483 -7.133849
v -9.337793 0.000000 -7.234599
v -9.337793 -0.267300 -7.162976
v -9.337793 -0.462977 -6.967299
v -9.337793 -0.534599 -6.700000
v -9.337793 -0.462976 -6.432700
v -9.337793 -0.267300 -6.237023
v -9.337793 0.000000 -6.165401
v -9.337793 0.267300 -6.237023
v -9.337793 0.462977 -6.432700
v -9.337793 0.534599 -6.700000
v -9.337793 0.462977 -6.967299
v -9.337793 0.267300 -7.162976
v -8.915062 -0.000000 -7.133400
v -8.915062 -0.216700 -7.075336
v -8.915062 -0.375336 -6.916700
v -8.915062 -0.433401 -6.700000
v -8.915062 -0.375336 -6.483299
v -8.915062 -0.216700 -6.324664
v -8.915062 -0.000000 -6.266599
v -8.915062 0.216700 -6.324664
v -8.915062 0.375336 -6.483299
v -8.915062 0.433401 -6.700000
v -8.915062 0.375336 -6.916700
v -8.915062 0.216700 -7.075336
v -8.590295 -0.000000 -7.035210
v -8.590295 -0.167605 -6.990300
v -8.590295 -0.290301 -6.867605
v -8.590295 -0.335211 -6.700000
v -8.590295 -0.290301 -6.532394
v -8.590295 -0.167605 -6.409699
v -8.590295 -0.000000 -6.364789
v -8.590295 0.167605 -6.409699
v -8.590295 0.290300 -6.532394
v -8.590295 0.335210 -6.700000
v -8.590295 0.290300 -6.867605
v -8.590295 0.167605 -6.990300
v -8.326773 -0.000000 -6.898658
v -8.326773 -0.099330 -6.872043
v -8.326773 -0.172044 -6.799329
v -8.326773 -0.198659 -6.700000
v -8.326773 -0.172044 -6.600670
v -8.326773 -0.099330 -6.527956
v -8.326773 -0.000000 -6.501341
v -8.326773 0.099329 -6.527956
v -8.326773 0.172043 -6.600670
v -8.326773 0.198658 -6.700000
v -8.326773 0.172043 -6.799329
v -8.326773 0.099329 -6.872043
v -8.098018 -0.000000 -6.726828
v -8.098018 -0.013414 -6.723234
v -8.098018 -0.023234 -6.713414
v -8.098018 -0.026829 -6.700000
v -8.098018 -0.023234 -6.686586
v -8.098018 -0.013414 -6.676766
v -8.098018 -0.000000 -6.673172
v -8.098018 0.013414 -6.676766
v -8.098018 0.023234 -6.686586
v -8.098018 0.026828 -6.700000
v -8.098018 0.023234 -6.713414
v -8.098018 0.013414 -6.723234
v -8.285122 0.455987 -6.362306
v -7.936966 1.367143 -5.836250
v -8.285122 0.520445 -6.473951
v -7.936966 1.431601 -5.947895
v -6.285121 0.455987 -6.362306
v -7.719411 1.367143 -5.836250
v -6.285121 0.520445 -6.473951
v -7.719411 1.431601 -5.947895
v -8.399473 0.488216 -6.418128
v -7.987065 1.463232 -5.855202
v -6.030373 0.488216 -6.418128
v -7.602993 1.463232 -5.855202
v -8.285122 -0.520445 -6.473951
v -7.936966 -1.431601 -5.947894
v -8.285122 -0.455986 -6.362306
v -7.936966 -1.367143 -5.836250
v -6.285121 -0.520445 -6.473951
v -7.719411 -1.431601 -5.947894
v -6.285121 -0.455986 -6.362306
v -7.719411 -1.367143 -5.836250
v -8.399473 -0.488216 -6.418128
v -7.987065 -1.463232 -5.855202
v -6.030373 -0.488216 -6.418128
v -7.602993 -1.463232 -5.855202
v -11.524984 0.190057 -0.218267
v -11.167939 -0.180696 -0.950453
v -11.524984 0.050458 -0.157464
v -11.167939 -0.320295 -0.889650
v -9.265800 0.079549 -0.436505
v -11.386364 -0.632489 -1.842682
v -9.265800 -0.060050 -0.375702
v -11.386364 -0.772088 -1.781879
v -11.762841 0.120258 -0.187865
v -11.439615 -0.259330 -0.937499
v -8.956917 0.009750 -0.406103
v -11.325557 -0.766283 -1.938660
v -10.478303 0.043058 -0.172079
v -11.631338 -0.779499 -1.796515
v -10.478303 0.182657 -0.232882
v -11.631338 -0.639900 -1.857318
v -11.921218 -0.766543 -1.939175
v -10.393187 0.112857 -0.202480
v -11.524984 0.190057 -0.218267
v -11.524984 0.050458 -0.157464
v -11.762841 0.120258 -0.187865
v -11.646520 0.537021 -0.064458
v -11.433998 1.545218 -0.064458
v -7.108664 0.537021 -0.064458
v -10.970195 1.545218 -0.064458
v -11.760871 0.537021 0.000000
v -11.540804 1.744552 0.000000
v -6.688002 0.537021 0.000000
v -10.844810 1.744552 0.000000
v -9.530300 -0.491377 0.761596
v -9.530300 0.491377 0.761596
v 11.157622 -0.491377 0.761596
v 11.157622 0.491377 0.761596
v -9.530300 0.246237 1.000000
v -9.530300 -0.246237 1.000000
v 11.157622 0.246237 1.000000
v 11.157622 -0.246237 1.000000
v 12.609282 0.344511 0.621489
v 11.927015 0.505866 0.670911
v 13.327595 -0.075889 0.476755
v 13.327595 -0.197646 0.398857
v 13.327595 0.197646 0.398857
v 13.327595 0.075889 0.476755
v 13.803816 -0.021082 0.051713
v 13.803816 -0.061828 0.036294
v 13.803816 0.061828 0.036294
v 13.803816 0.021082 0.051713
v 0.160913 -0.491377 0.761596
v 0.160913 0.491377 0.761596
v 0.160913 -0.246237 1.000000
v 0.160913 0.246237 1.000000
v -9.977055 0.000000 1.000000
v -9.977055 -0.246237 0.953018
v -9.977055 0.246237 0.953018
v -9.155571 0.093866 1.234221
v -9.155571 -0.093866 1.234221
v -0.177377 -0.093866 1.234221
v -0.177377 0.093866 1.234221
v -8.304668 0.093866 6.151714
v -8.304668 -0.093866 6.151714
v -5.169948 -0.093866 6.151714
v -5.169948 0.093866 6.151714
v -9.876535 0.000000 1.000000
v 11.157622 0.000000 1.000000
v 13.327595 -0.000000 0.476755
v 13.803816 -0.000000 0.051713
v 6.892735 0.000000 1.000000
v -9.977055 0.491377 0.761596
v -9.977055 -0.491377 0.761596
v -9.365295 0.000000 1.234221
v 0.882724 0.000000 1.966635
v -8.514393 0.000000 6.151714
v -4.722203 0.000000 6.151714
v -11.610521 0.222370 0.352956
v -11.490205 0.049639 0.339638
v -11.538972 0.318566 0.351956
v -11.849524 0.454080 0.228501
v -11.101708 -0.206907 0.425624
v 12.968439 0.118476 0.607566
v 12.609282 0.161063 0.738377
v 12.968439 -0.000000 0.607566
v 12.102657 0.203650 0.869189
v 12.609282 -0.000000 0.738377
v 12.102657 -0.000000 0.869189
v 12.968439 -0.271079 0.489541
v 12.968439 -0.118476 0.607566
v 12.609282 -0.344511 0.580226
v 12.609282 -0.161063 0.738377
v 12.102657 -0.203650 0.869189
v 12.102657 -0.417944 0.670911
v 12.968439 0.271079 0.489541
v 12.565870 0.485426 0.569563
v 12.871503 0.411994 0.478878
v -8.760000 0.000000 7.217230
v -4.240000 -0.000000 7.300000
v -8.760000 -0.258615 7.147934
v -4.240000 -0.300000 7.219615
v -8.760000 -0.447934 6.958615
v -4.240000 -0.519615 7.000000
v -8.760000 -0.517230 6.700000
v -4.240000 -0.600000 6.700000
v -8.760000 -0.447934 6.441385
v -4.240000 -0.519615 6.400000
v -8.760000 -0.258615 6.252066
v -4.240000 -0.300000 6.180385
v -8.760000 0.000000 6.182770
v -4.240000 -0.000000 6.100000
v -8.760000 0.258615 6.252066
v -4.240000 0.300000 6.180385
v -8.760000 0.447934 6.441385
v -4.240000 0.519615 6.400000
v -8.760000 0.517230 6.700000
v -4.240000 0.600000 6.700000
v -8.760000 0.447934 6.958615
v -4.240000 0.519615 7.000000
v -8.760000 0.258615 7.147934
v -4.240000 0.300000 7.219615
v -3.490523 -0.212615 7.068260
v -3.490523 -0.000000 7.125229
v -3.490523 -0.368260 6.912615
v -3.490523 -0.425230 6.700000
v -3.490523 -0.368260 6.487385
v -3.490523 -0.212615 6.331740
v -3.490523 -0.000000 6.274770
v -3.490523 0.212615 6.331740
v -3.490523 0.368260 6.487385
v -3.490523 0.425230 6.700000
v -3.490523 0.368260 6.912615
v -3.490523 0.212615 7.068260
v -3.490523 -0.238552 7.113183
v -3.490523 -0.000000 7.177104
v -3.490523 -0.413184 6.938551
v -3.490523 -0.477104 6.700000
v -3.490523 -0.413184 6.461448
v -3.490523 -0.238552 6.286816
v -3.490523 -0.000000 6.222897
v -3.490523 0.238552 6.286816
v -3.490523 0.413184 6.461448
v -3.490523 0.477103 6.700000
v -3.490523 0.413184 6.938551
v -3.490523 0.238552 7.113183
v -4.226222 -0.229367 7.097274
v -4.226222 -0.000000 7.158733
v -4.226222 -0.397275 6.929367
v -4.226222 -0.458733 6.700000
v -4.226222 -0.397275 6.470634
v -4.226222 -0.229367 6.302725
v -4.226222 -0.000000 6.241267
v -4.226222 0.229366 6.302725
v -4.226222 0.397274 6.470633
v -4.226222 0.458733 6.700000
v -4.226222 0.397274 6.929366
v -4.226222 0.229366 7.097274
v -4.226222 -0.273370 7.173491
v -4.226222 -0.000000 7.246740
v -4.226222 -0.473491 6.973370
v -4.226222 -0.546740 6.700000
v -4.226222 -0.473491 6.426630
v -4.226222 -0.273370 6.226509
v -4.226222 -0.000000 6.153260
v -4.226222 0.273370 6.226509
v -4.226222 0.473491 6.426630
v -4.226222 0.546740 6.700000
v -4.226222 0.473491 6.973370
v -4.226222 0.273370 7.173491
v -3.901342 -0.213004 7.068933
v -3.901342 -0.000000 7.126007
v -3.901342 -0.368933 6.913003
v -3.901342 -0.426007 6.700000
v -3.901342 -0.368933 6.486996
v -3.901342 -0.213004 6.331067
v -3.901342 -0.000000 6.273993
v -3.901342 0.213003 6.331067
v -3.901342 0.368933 6.486996
v -3.901342 0.426007 6.700000
v -3.901342 0.368933 6.913003
v -3.901342 0.213003 7.068933
v -3.273282 -0.147781 6.955963
v -3.273282 -0.000000 6.995561
v -3.273282 -0.255964 6.847780
v -3.273282 -0.295561 6.700000
v -3.273282 -0.255964 6.552219
v -3.273282 -0.147781 6.444036
v -3.273282 -0.000000 6.404438
v -3.273282 0.147780 6.444036
v -3.273282 0.255963 6.552219
v -3.273282 0.295561 6.700000
v -3.273282 0.255963 6.847780
v -3.273282 0.147780 6.955963
v -2.521488 -0.000000 6.700000
v -8.760000 0.000000 7.300000
v -8.760000 -0.300000 7.219615
v -8.760000 -0.519615 7.000000
v -8.760000 -0.600000 6.700000
v -8.760000 -0.519615 6.400000
v -8.760000 -0.300000 6.180385
v -8.760000 0.000000 6.100000
v -8.760000 0.300000 6.180385
v -8.760000 0.519615 6.400000
v -8.760000 0.600000 6.700000
v -8.760000 0.519615 7.000000
v -8.760000 0.300000 7.219615
v -8.326891 0.000000 6.923534
v -8.326891 -0.111767 6.893586
v -8.326891 -0.193586 6.811767
v -8.326891 -0.223534 6.700000
v -8.326891 -0.193586 6.588233
v -8.326891 -0.111767 6.506413
v -8.326891 0.000000 6.476466
v -8.326891 0.111767 6.506413
v -8.326891 0.193586 6.588233
v -8.326891 0.223534 6.700000
v -8.326891 0.193586 6.811767
v -8.326891 0.111767 6.893586
v -8.326891 0.000000 7.217230
v -8.326891 -0.258615 7.147934
v -8.326891 -0.447934 6.958615
v -8.326891 -0.517230 6.700000
v -8.326891 -0.447934 6.441385
v -8.326891 -0.258615 6.252066
v -8.326891 0.000000 6.182770
v -8.326891 0.258615 6.252066
v -8.326891 0.447934 6.441385
v -8.326891 0.517230 6.700000
v -8.326891 0.447934 6.958615
v -8.326891 0.258615 7.147934
v -8.588819 0.000000 7.062640
v -8.588819 -0.181320 7.014055
v -8.588819 -0.314055 6.881320
v -8.588819 -0.362640 6.700000
v -8.588819 -0.314055 6.518680
v -8.588819 -0.181320 6.385944
v -8.588819 0.000000 6.337359
v -8.588819 0.181320 6.385944
v -8.588819 0.314056 6.518680
v -8.588819 0.362640 6.700000
v -8.588819 0.314056 6.881320
v -8.588819 0.181320 7.014055
v -8.913871 0.000000 7.163504
v -8.913871 -0.231752 7.101406
v -8.913871 -0.401406 6.931752
v -8.913871 -0.463504 6.700000
v -8.913871 -0.401406 6.468248
v -8.913871 -0.231752 6.298594
v -8.913871 0.000000 6.236495
v -8.913871 0.231752 6.298594
v -8.913871 0.401406 6.468248
v -8.913871 0.463504 6.700000
v -8.913871 0.401406 6.931752
v -8.913871 0.231752 7.101406
v -9.337793 0.000000 7.200966
v -9.337793 -0.250483 7.133849
v -9.337793 -0.433850 6.950483
v -9.337793 -0.500966 6.700000
v -9.337793 -0.433850 6.449516
v -9.337793 -0.250483 6.266150
v -9.337793 0.000000 6.199033
v -9.337793 0.250483 6.266150
v -9.337793 0.433850 6.449516
v -9.337793 0.500967 6.700000
v -9.337793 0.433850 6.950483
v -9.337793 0.250483 7.133849
v -9.337793 0.000000 7.234599
v -9.337793 -0.267300 7.162976
v -9.337793 -0.462977 6.967299
v -9.337793 -0.534599 6.700000
v -9.337793 -0.462976 6.432700
v -9.337793 -0.267300 6.237023
v -9.337793 0.000000 6.165401
v -9.337793 0.267300 6.237023
v -9.337793 0.462977 6.432700
v -9.337793 0.534599 6.700000
v -9.337793 0.462977 6.967299
v -9.337793 0.267300 7.162976
v -8.915062 -0.000000 7.133400
v -8.915062 -0.216700 7.075336
v -8.915062 -0.375336 6.916700
v -8.915062 -0.433401 6.700000
v -8.915062 -0.375336 6.483299
v -8.915062 -0.216700 6.324664
v -8.915062 -0.000000 6.266599
v -8.915062 0.216700 6.324664
v -8.915062 0.375336 6.483299
v -8.915062 0.433401 6.700000
v -8.915062 0.375336 6.916700
v -8.915062 0.216700 7.075336
v -8.590295 -0.000000 7.035210
v -8.590295 -0.167605 6.990300
v -8.590295 -0.290301 6.867605
v -8.590295 -0.335211 6.700000
v -8.590295 -0.290301 6.532394
v -8.590295 -0.167605 6.409699
v -8.590295 -0.000000 6.364789
v -8.590295 0.167605 6.409699
v -8.590295 0.290300 6.532394
v -8.590295 0.335210 6.700000
v -8.590295 0.290300 6.867605
v -8.590295 0.167605 6.990300
v -8.326773 -0.000000 6.898658
v -8.326773 -0.099330 6.872043
v -8.326773 -0.172044 6.799329
v -8.326773 -0.198659 6.700000
v -8.326773 -0.172044 6.600670
v -8.326773 -0.099330 6.527956
v -8.326773 -0.000000 6.501341
v -8.326773 0.099329 6.527956
v -8.326773 0.172043 6.600670
v -8.326773 0.198658 6.700000
v -8.326773 0.172043 6.799329
v -8.326773 0.099329 6.872043
v -8.098018 -0.000000 6.726828
v -8.098018 -0.013414 6.723234
v -8.098018 -0.023234 6.713414
v -8.098018 -0.026829 6.700000
v -8.098018 -0.023234 6.686586
v -8.098018 -0.013414 6.676766
v -8.098018 -0.000000 6.673172
v -8.098018 0.013414 6.676766
v -8.098018 0.023234 6.686586
v -8.098018 0.026828 6.700000
v -8.098018 0.023234 6.713414
v -8.098018 0.013414 6.723234
v -8.285122 0.455987 6.362306
v -7.936966 1.367143 5.836250
v -8.285122 0.520445 6.473951
v -7.936966 1.431601 5.947895
v -6.285121 0.455987 6.362306
v -7.719411 1.367143 5.836250
v -6.285121 0.520445 6.473951
v -7.719411 1.431601 5.947895
v -8.399473 0.488216 6.418128
v -7.987065 1.463232 5.855202
v -6.030373 0.488216 6.418128
v -7.602993 1.463232 5.855202
v -8.285122 -0.520445 6.473951
v -7.936966 -1.431601 5.947894
v -8.285122 -0.455986 6.362306
v -7.936966 -1.367143 5.836250
v -6.285121 -0.520445 6.473951
v -7.719411 -1.431601 5.947894
v -6.285121 -0.455986 6.362306
v -7.719411 -1.367143 5.836250
v -8.399473 -0.488216 6.418128
v -7.987065 -1.463232 5.855202
v -6.030373 -0.488216 6.418128
v -7.602993 -1.463232 5.855202
v -11.524984 0.190057 0.218267
v -11.167939 -0.180696 0.950453
v -11.524984 0.050458 0.157464
v -11.167939 -0.320295 0.889650
v -9.265800 0.079549 0.436505
v -11.386364 -0.632489 1.842682
v -9.265800 -0.060050 0.375702
v -11.386364 -0.772088 1.781879
v -11.762841 0.120258 0.187865
v -11.439615 -0.259330 0.937499
v -8.956917 0.009750 0.406103
v -11.325557 -0.766283 1.938660
v -10.478303 0.043058 0.172079
v -11.631338 -0.779499 1.796515
v -10.478303 0.182657 0.232882
v -11.631338 -0.639900 1.857318
v -11.921218 -0.766543 1.939175
v -10.393187 0.112857 0.202480
v -11.524984 0.190057 0.218267
v -11.524984 0.050458 0.157464
v -11.762841 0.120258 0.187865
v -11.646520 0.537021 0.064458
v -11.433998 1.545218 0.064458
v -7.108664 0.537021 0.064458
v -10.970195 1.545218 0.064458
vn -0.0119 -0.8434 -0.5371
vn -0.0119 0.8434 -0.5371
vn 0.0593 -0.8454 -0.5309
vn 0.0239 0.8444 -0.5352
vn -0.0000 -0.9671 -0.2542
vn -0.0000 0.9671 -0.2542
vn 0.0564 -0.9984 -0.0000
vn 0.0137 0.9999 -0.0000
vn -0.1397 0.6204 -0.7717
vn -0.1397 -0.6204 -0.7717
vn 0.0602 0.3669 -0.9283
vn 0.0708 -0.3742 -0.9246
vn 0.2916 0.4729 -0.8315
vn 0.1048 0.8172 -0.5667
vn -0.0000 -0.0000 -1.0000
vn 0.4991 -0.2442 -0.8314
vn 0.4354 -0.7304 -0.5262
vn 0.3445 -0.9203 0.1851
vn 0.4354 0.7304 -0.5262
vn 0.3445 0.9203 0.1851
vn -0.0000 -0.0000 1.0000
vn 0.4991 0.2442 -0.8314
vn 0.6389 -0.1549 -0.7535
vn 0.6310 -0.6580 -0.4109
vn 0.5149 -0.7516 0.4124
vn 0.6005 0.6733 -0.4313
vn 0.4627 0.7785 0.4241
vn 0.6276 0.1498 -0.7640
vn 0.8690 0.0551 0.4918
vn -0.0000 -0.8490 -0.5284
vn -0.0000 0.8490 -0.5284
vn -0.0000 1.0000 -0.0000
vn -0.0000 -1.0000 -0.0000
vn -0.0361 -0.8294 -0.5575
vn -0.0361 0.8294 -0.5575
vn -0.1897 -0.0083 -0.9818
vn -0.2227 -0.4047 -0.8869
vn -0.1859 0.4014 -0.8968
vn -0.0487 0.8875 -0.4583
vn -0.1525 -0.8883 -0.4333
vn -0.1545 0.9190 -0.3628
vn -0.1545 -0.9190 -0.3628
vn -0.0200 -0.9491 -0.3145
vn -0.0200 0.9491 -0.3145
vn -0.1379 0.7250 -0.6748
vn -0.1379 -0.7250 -0.6748
vn 0.0364 -0.7102 -0.7030
vn 0.0364 0.7102 -0.7030
vn -0.1305 -0.0000 -0.9915
vn 0.0687 -0.0000 -0.9976
vn 0.5133 -0.0000 -0.8582
vn 0.6257 -0.0000 -0.7801
vn 0.0019 -0.0000 -1.0000
vn -0.1021 0.8011 -0.5897
vn -0.1749 -0.8023 -0.5707
vn -0.5319 -0.0000 -0.8468
vn 0.1103 -0.0000 -0.9939
vn -0.7920 -0.0000 -0.6106
vn 0.5647 -0.0000 -0.8253
vn -0.0972 0.5335 -0.8402
vn 0.7235 0.1781 -0.6669
vn 0.1721 0.2882 -0.9420
vn 0.6050 0.7908 0.0925
vn -0.2921 0.2447 -0.9246
vn -0.3097 0.8237 -0.4750
vn 0.5265 0.5346 -0.6611
vn -0.3919 0.4960 -0.7748
vn -0.4264 -0.7294 -0.5350
vn 0.6082 0.7865 0.1074
vn 0.0624 0.9975 0.0321
vn 0.2963 -0.9551 -0.0000
vn 0.3662 0.2930 -0.8832
vn 0.2556 -0.9668 -0.0000
vn 0.3075 0.2663 -0.9135
vn 0.1652 -0.9863 -0.0000
vn 0.3422 -0.0000 -0.9396
vn 0.1977 0.3152 -0.9282
vn 0.2965 -0.0000 -0.9550
vn 0.1939 -0.0000 -0.9810
vn 0.3071 -0.7941 -0.5245
vn 0.3522 -0.3079 -0.8839
vn 0.2610 -0.8106 -0.5242
vn 0.3033 -0.3350 -0.8921
vn 0.1985 -0.3584 -0.9122
vn 0.1690 -0.8316 -0.5291
vn 0.4668 0.6676 -0.5799
vn 0.1936 0.8774 0.4389
vn 0.5442 0.7330 0.4082
vn 0.2271 0.7396 -0.6336
vn 0.5525 0.6583 -0.5112
vn -0.7703 -0.0000 0.6377
vn 0.0801 -0.0000 -0.9968
vn -0.7703 0.3189 0.5523
vn 0.0801 -0.4984 -0.8632
vn -0.7703 0.5523 0.3189
vn 0.0801 -0.8632 -0.4984
vn -0.7703 0.6377 -0.0000
vn 0.0801 -0.9968 -0.0000
vn -0.7703 0.5523 -0.3189
vn 0.0801 -0.8632 0.4984
vn -0.7703 0.3189 -0.5523
vn 0.0801 -0.4984 0.8632
vn -0.7703 -0.0000 -0.6377
vn 0.0801 -0.0000 0.9968
vn -0.7703 -0.3189 -0.5523
vn 0.0801 0.4984 0.8632
vn -0.7703 -0.5523 -0.3189
vn 0.0801 0.8632 0.4984
vn -0.7703 -0.6377 -0.0000
vn 0.0801 0.9968 -0.0000
vn -0.7703 -0.5523 0.3189
vn 0.0801 0.8632 -0.4984
vn -0.7703 -0.3189 0.5523
vn 0.0801 0.4984 -0.8632
vn 0.7161 0.3490 0.6045
vn 0.7161 -0.0000 0.6980
vn 0.7161 0.6045 0.3490
vn 0.7161 0.6980 -0.0000
vn 0.7161 0.6045 -0.3490
vn 0.7161 0.3490 -0.6045
vn 0.7161 -0.0000 -0.6980
vn 0.7161 -0.3490 -0.6045
vn 0.7161 -0.6045 -0.3490
vn 0.7161 -0.6980 -0.0000
vn 0.7161 -0.6045 0.3490
vn 0.7161 -0.3490 0.6045
vn 0.7123 -0.3510 -0.6079
vn 0.7123 -0.0000 -0.7019
vn 0.7123 -0.6079 -0.3510
vn 0.7123 -0.7019 -0.0000
vn 0.7123 -0.6079 0.3510
vn 0.7123 -0.3510 0.6079
vn 0.7123 -0.0000 0.7019
vn 0.7123 0.3510 0.6079
vn 0.7123 0.6079 0.3510
vn 0.7123 0.7019 -0.0000
vn 0.7123 0.6079 -0.3510
vn 0.7123 0.3510 -0.6079
vn 0.8003 -0.2998 -0.5193
vn 0.8003 -0.0000 -0.5996
vn 0.8003 -0.5193 -0.2998
vn 0.8003 -0.5996 -0.0000
vn 0.8003 -0.5193 0.2998
vn 0.8003 -0.2998 0.5193
vn 0.8003 -0.0000 0.5996
vn 0.8003 0.2998 0.5193
vn 0.8003 0.5193 0.2998
vn 0.8003 0.5996 -0.0000
vn 0.8003 0.5193 -0.2998
vn 0.8003 0.2998 -0.5193
vn 0.5910 0.4033 0.6986
vn 0.5910 -0.0000 0.8067
vn 0.5910 0.6986 0.4034
vn 0.5910 0.8067 -0.0000
vn 0.5910 0.6986 -0.4034
vn 0.5910 0.4033 -0.6986
vn 0.5910 -0.0000 -0.8067
vn 0.5909 -0.4034 -0.6986
vn 0.5910 -0.6986 -0.4033
vn 0.5910 -0.8067 -0.0000
vn 0.5910 -0.6986 0.4034
vn 0.5910 -0.4033 0.6986
vn 0.1507 -0.4943 -0.8561
vn 0.1507 -0.0000 -0.9886
vn 0.1507 -0.8561 -0.4943
vn 0.1507 -0.9886 -0.0000
vn 0.1507 -0.8561 0.4943
vn 0.1507 -0.4943 0.8561
vn 0.1507 -0.0000 0.9886
vn 0.1507 0.4943 0.8561
vn 0.1507 0.8561 0.4943
vn 0.1507 0.9886 -0.0000
vn 0.1507 0.8561 -0.4943
vn 0.1507 0.4943 -0.8561
vn 0.2819 -0.4797 -0.8309
vn 0.2819 -0.0000 -0.9594
vn 0.2819 -0.8309 -0.4797
vn 0.2819 -0.9594 -0.0000
vn 0.2819 -0.8309 0.4797
vn 0.2819 -0.4797 0.8309
vn 0.2819 -0.0000 0.9594
vn 0.2819 0.4797 0.8309
vn 0.2819 0.8309 0.4797
vn 0.2819 0.9594 -0.0000
vn 0.2819 0.8309 -0.4797
vn 0.2819 0.4797 -0.8309
vn 1.0000 -0.0000 -0.0000
vn -0.6532 -0.0000 -0.7572
vn -0.6532 -0.3786 -0.6557
vn -0.6532 -0.6557 -0.3786
vn -0.6532 -0.7572 -0.0000
vn -0.6532 -0.6557 0.3786
vn -0.6532 -0.3786 0.6557
vn -0.6532 -0.0000 0.7572
vn -0.6532 0.3786 0.6557
vn -0.6532 0.6557 0.3786
vn -0.6532 0.7572 -0.0000
vn -0.6532 0.6557 -0.3786
vn -0.6532 0.3786 -0.6557
vn -0.5890 -0.0000 -0.8081
vn -0.5890 -0.4041 -0.6999
vn -0.5890 -0.6999 -0.4041
vn -0.5890 -0.8081 -0.0000
vn -0.5890 -0.6999 0.4041
vn -0.5890 -0.4041 0.6999
vn -0.5890 -0.0000 0.8081
vn -0.5890 0.4041 0.6999
vn -0.5890 0.6999 0.4041
vn -0.5890 0.8081 -0.0000
vn -0.5890 0.6999 -0.4041
vn -0.5890 0.4041 -0.6999
vn 0.3790 -0.0000 -0.9254
vn 0.3790 -0.4627 -0.8014
vn 0.3790 -0.8014 -0.4627
vn 0.3790 -0.9254 -0.0000
vn 0.3790 -0.8014 0.4627
vn 0.3790 -0.4627 0.8014
vn 0.3790 -0.0000 0.9254
vn 0.3790 0.4627 0.8014
vn 0.3790 0.8014 0.4627
vn 0.3790 0.9254 -0.0000
vn 0.3790 0.8014 -0.4627
vn 0.3790 0.4627 -0.8014
vn 0.2289 -0.0000 -0.9734
vn 0.2289 -0.4867 -0.8430
vn 0.2289 -0.8430 -0.4867
vn 0.2289 -0.9734 -0.0000
vn 0.2289 -0.8430 0.4867
vn 0.2289 -0.4867 0.8430
vn 0.2289 -0.0000 0.9734
vn 0.2289 0.4867 0.8430
vn 0.2289 0.8430 0.4867
vn 0.2289 0.9734 -0.0000
vn 0.2289 0.8430 -0.4867
vn 0.2289 0.4867 -0.8430
vn -0.8166 -0.0000 0.5772
vn -0.8166 0.2886 0.4999
vn -0.8166 0.4999 0.2886
vn -0.8166 0.5773 -0.0000
vn -0.8166 0.4999 -0.2886
vn -0.8166 0.2886 -0.4999
vn -0.8166 -0.0000 -0.5773
vn -0.8166 -0.2886 -0.4999
vn -0.8166 -0.4999 -0.2886
vn -0.8166 -0.5772 -0.0000
vn -0.8166 -0.4999 0.2886
vn -0.8166 -0.2886 0.4999
vn -0.5900 -0.0000 -0.8074
vn -0.5900 -0.4037 -0.6992
vn -0.5900 -0.6992 -0.4037
vn -0.5900 -0.8074 -0.0000
vn -0.5900 -0.6992 0.4037
vn -0.5900 -0.4037 0.6992
vn -0.5900 -0.0000 0.8074
vn -0.5900 0.4037 0.6992
vn -0.5900 0.6992 0.4037
vn -0.5900 0.8074 -0.0000
vn -0.5900 0.6992 -0.4037
vn -0.5900 0.4037 -0.6992
vn -0.2217 -0.0000 0.9751
vn -0.2217 0.4876 0.8445
vn -0.2217 0.8445 0.4876
vn -0.2217 0.9751 -0.0000
vn -0.2217 0.8445 -0.4876
vn -0.2217 0.4876 -0.8445
vn -0.2217 -0.0000 -0.9751
vn -0.2217 -0.4876 -0.8445
vn -0.2217 -0.8445 -0.4876
vn -0.2217 -0.9751 -0.0000
vn -0.2217 -0.8445 0.4876
vn -0.2217 -0.4875 0.8445
vn -0.3711 -0.0000 0.9286
vn -0.3711 0.4643 0.8042
vn -0.3711 0.8042 0.4643
vn -0.3711 0.9286 -0.0000
vn -0.3711 0.8042 -0.4643
vn -0.3711 0.4643 -0.8042
vn -0.3711 -0.0000 -0.9286
vn -0.3711 -0.4643 -0.8042
vn -0.3711 -0.8042 -0.4643
vn -0.3711 -0.9286 -0.0000
vn -0.3711 -0.8042 0.4643
vn -0.3711 -0.4643 0.8042
vn -0.5261 -0.0000 0.8504
vn -0.5261 0.4252 0.7365
vn -0.5261 0.7365 0.4252
vn -0.5261 0.8504 -0.0000
vn -0.5261 0.7365 -0.4252
vn -0.5261 0.4252 -0.7365
vn -0.5261 -0.0000 -0.8504
vn -0.5261 -0.4252 -0.7365
vn -0.5261 -0.7365 -0.4252
vn -0.5261 -0.8504 -0.0000
vn -0.5261 -0.7365 0.4252
vn -0.5261 -0.4252 0.7365
vn -0.8646 -0.0000 0.5025
vn -0.8646 0.2512 0.4351
vn -0.8646 0.4351 0.2512
vn -0.8646 0.5025 -0.0000
vn -0.8646 0.4352 -0.2512
vn -0.8646 0.2512 -0.4351
vn -0.8646 -0.0000 -0.5025
vn -0.8646 -0.2512 -0.4352
vn -0.8646 -0.4351 -0.2513
vn -0.8646 -0.5025 -0.0000
vn -0.8646 -0.4351 0.2512
vn -0.8646 -0.2512 0.4352
vn -0.2368 -0.9094 0.3420
vn -0.2354 -0.1697 0.9570
vn -0.2368 -0.1585 -0.9585
vn -0.2354 0.7439 -0.6254
vn 0.1591 -0.9008 0.4041
vn 0.0562 -0.1622 0.9852
vn 0.1591 -0.1004 -0.9821
vn 0.0562 0.7721 -0.6331
vn -0.8995 -0.3783 -0.2184
vn -0.5705 0.7113 0.4106
vn 0.9778 -0.1813 -0.1047
vn 0.4025 0.7928 0.4577
vn -0.2368 0.1585 -0.9585
vn -0.2354 -0.7439 -0.6254
vn -0.2368 0.9094 0.3420
vn -0.2354 0.1697 0.9570
vn 0.1591 0.1004 -0.9821
vn 0.0562 -0.7721 -0.6331
vn 0.1591 0.9008 0.4041
vn 0.0562 0.1622 0.9852
vn -0.8995 0.3783 -0.2184
vn -0.5705 -0.7113 0.4106
vn 0.9778 0.1813 -0.1047
vn 0.4025 -0.7928 0.4577
vn -0.1412 0.9480 0.2854
vn -0.1000 0.8873 -0.4503
vn -0.1362 -0.3867 0.9121
vn -0.1001 -0.8878 0.4492
vn 0.1920 0.9755 -0.1078
vn 0.0877 0.7509 -0.6546
vn 0.1877 -0.6976 0.6914
vn 0.0906 -0.9744 0.2059
vn -0.9095 0.1867 0.3714
vn -0.9991 0.0189 0.0382
vn 0.9871 0.0721 0.1429
vn 0.3406 -0.4164 -0.8429
vn 0.0378 -0.3435 0.9384
vn -0.1190 -0.9562 0.2673
vn 0.0399 0.9419 0.3335
vn -0.1214 0.7913 -0.5993
vn -0.8620 -0.2280 -0.4527
vn 0.1443 0.3974 0.9062
vn -0.2207 -0.6316 -0.7432
vn -0.1643 0.1344 -0.9772
vn 0.1164 -0.5181 -0.8474
vn 0.0143 0.1596 -0.9871
vn -0.8772 -0.4801 -0.0000
vn -0.6006 0.7995 -0.0000
vn 0.9955 -0.0943 -0.0000
vn 0.1580 0.9874 -0.0000
vn -0.0119 -0.8434 0.5371
vn -0.0119 0.8434 0.5371
vn 0.0593 -0.8454 0.5309
vn 0.0239 0.8444 0.5352
vn -0.1397 0.6204 0.7717
vn -0.1397 -0.6204 0.7717
vn 0.0602 0.3669 0.9283
vn 0.0708 -0.3742 0.9246
vn 0.2916 0.4729 0.8315
vn 0.1048 0.8172 0.5667
vn 0.4991 -0.2442 0.8314
vn 0.4354 -0.7304 0.5262
vn 0.4354 0.7304 0.5262
vn 0.4991 0.2442 0.8314
vn 0.6389 -0.1549 0.7535
vn 0.6310 -0.6580 0.4109
vn 0.6005 0.6733 0.4313
vn 0.6276 0.1498 0.7640
vn -0.0000 -0.8490 0.5284
vn -0.0000 0.8490 0.5284
vn -0.0361 -0.8294 0.5575
vn -0.0361 0.8294 0.5575
vn -0.1897 -0.0083 0.9818
vn -0.2227 -0.4047 0.8869
vn -0.1859 0.4014 0.8968
vn -0.1545 0.9190 0.3628
vn -0.1545 -0.9190 0.3628
vn -0.0200 -0.9491 0.3145
vn -0.0200 0.9491 0.3145
vn -0.1379 0.7250 0.6748
vn -0.1379 -0.7250 0.6748
vn 0.0364 -0.7102 0.7030
vn 0.0364 0.7102 0.7030
vn -0.1305 -0.0000 0.9915
vn 0.0687 -0.0000 0.9976
vn 0.5133 -0.0000 0.8582
vn 0.6257 -0.0000 0.7801
vn 0.0019 -0.0000 1.0000
vn -0.1021 0.8011 0.5897
vn -0.1749 -0.8023 0.5707
vn -0.5319 -0.0000 0.8468
vn 0.1103 -0.0000 0.9939
vn -0.7920 -0.0000 0.6106
vn 0.5647 -0.0000 0.8253
vn -0.0972 0.5335 0.8402
vn 0.6050 0.7908 -0.0925
vn -0.2921 0.2447 0.9246
vn -0.3919 0.4960 0.7748
vn -0.4264 -0.7294 0.5350
vn 0.3662 0.2930 0.8832
vn 0.3075 0.2663 0.9135
vn 0.3422 -0.0000 0.9396
vn 0.1977 0.3152 0.9282
vn 0.2965 -0.0000 0.9550
vn 0.1939 -0.0000 0.9810
vn 0.3071 -0.7941 0.5245
vn 0.3522 -0.3079 0.8839
vn 0.2610 -0.8106 0.5242
vn 0.3033 -0.3350 0.8921
vn 0.1985 -0.3584 0.9122
vn 0.1690 -0.8316 0.5291
vn 0.4668 0.6676 0.5799
vn 0.2271 0.7396 0.6336
vn 0.5525 0.6583 0.5112
vn 0.5909 -0.4034 0.6986
vn 0.5910 -0.6986 0.4033
vn 0.5910 -0.6986 -0.4034
vn 0.5910 -0.4033 -0.6986
vn -0.8166 -0.0000 -0.5772
vn -0.8166 -0.0000 0.5773
vn -0.2217 -0.4876 0.8445
vn -0.2217 -0.4875 -0.8445
vn -0.8646 0.4351 -0.2512
vn -0.8646 0.4352 0.2512
vn -0.8646 -0.4351 0.2513
vn -0.8646 -0.4351 -0.2512
vn -0.2368 -0.9094 -0.3420
vn -0.2354 -0.1697 -0.9570
vn -0.2368 -0.1585 0.9585
vn -0.2354 0.7439 0.6254
vn 0.1591 -0.9008 -0.4041
vn 0.0562 -0.1622 -0.9852
vn 0.1591 -0.1004 0.9821
vn 0.0562 0.7721 0.6331
vn -0.8995 -0.3783 0.2184
vn -0.5705 0.7113 -0.4106
vn 0.9778 -0.1813 0.1047
vn 0.4025 0.7928 -0.4577
vn -0.2368 0.1585 0.9585
vn -0.2354 -0.7439 0.6254
vn -0.2368 0.9094 -0.3420
vn -0.2354 0.1697 -0.9570
vn 0.1591 0.1004 0.9821
vn 0.0562 -0.7721 0.6331
vn 0.1591 0.9008 -0.4041
vn 0.0562 0.1622 -0.9852
vn -0.8995 0.3783 0.2184
vn -0.5705 -0.7113 -0.4106
vn 0.9778 0.1813 0.1047
vn 0.4025 -0.7928 -0.4577
vn -0.1412 0.9480 -0.2854
vn -0.1000 0.8873 0.4503
vn -0.1362 -0.3867 -0.9121
vn -0.1001 -0.8878 -0.4492
vn 0.1920 0.9755 0.1078
vn 0.0877 0.7509 0.6546
vn 0.1877 -0.6976 -0.6914
vn 0.0906 -0.9744 -0.2059
vn -0.9095 0.1867 -0.3714
vn -0.9991 0.0189 -0.0382
vn 0.9871 0.0721 -0.1429
vn 0.3406 -0.4164 0.8429
vn 0.0378 -0.3435 -0.9384
vn -0.1190 -0.9562 -0.2673
vn 0.0399 0.9419 -0.3335
vn -0.1214 0.7913 0.5993
vn -0.8620 -0.2280 0.4527
vn 0.1443 0.3974 -0.9062
vn -0.2207 -0.6316 0.7432
vn -0.1643 0.1344 0.9772
vn 0.1164 -0.5181 0.8474
vn 0.0143 0.1596 0.9871
vt 0.458333 0.250000
vt 0.375000 0.250000
vt 0.625000 0.371341
vt 0.541667 0.500000
vt 0.541667 0.371341
vt 0.875000 0.500000
vt 0.753659 0.625000
vt 0.753659 0.500000
vt 0.375000 0.500000
vt 0.246341 0.625000
vt 0.246341 0.500000
vt 0.458333 0.371341
vt 0.375000 0.371341
vt 0.500000 0.371341
vt 0.500000 0.500000
vt 0.625000 0.250000
vt 0.541667 0.250000
vt 0.000000 0.000000
vt 0.375000 0.625000
vt 0.375000 0.612701
vt 0.359581 0.580910
vt 0.625000 0.612702
vt 0.625000 0.625000
vt 0.625000 0.562868
vt 0.640419 0.580910
vt 0.541667 0.562868
vt 0.375000 0.562868
vt 0.500000 0.562868
vt 0.500000 0.580910
vt 0.125000 0.625000
vt 0.125000 0.500000
vt 0.625000 0.500000
vt 0.875000 0.625000
vt 0.500000 0.250000
vt 0.458333 0.562868
vt 0.458333 0.500000
vt 0.500000 0.547151
vt 0.458333 0.547151
vt 0.375000 0.515717
vt 0.458333 0.531434
vt 0.375000 0.531434
vt 0.500000 0.515717
vt 0.458333 0.515717
vt 0.375000 0.547151
vt 0.625000 0.531434
vt 0.541667 0.515717
vt 0.625000 0.515717
vt 0.541667 0.531434
vt 0.500000 0.531434
vt 0.541667 0.547151
vt 0.625000 0.547151
vt 1.000000 1.000000
vt 0.916667 0.500000
vt 1.000000 0.500000
vt 0.916667 1.000000
vt 0.833333 0.500000
vt 0.833333 1.000000
vt 0.750000 0.500000
vt 0.750000 1.000000
vt 0.666667 0.500000
vt 0.666667 1.000000
vt 0.583333 0.500000
vt 0.583333 1.000000
vt 0.500000 0.500000
vt 0.500000 1.000000
vt 0.416667 0.500000
vt 0.333333 1.000000
vt 0.333333 0.500000
vt 0.250000 0.500000
vt 0.250000 1.000000
vt 0.166667 0.500000
vt 0.166667 1.000000
vt 0.083333 0.500000
vt 0.083333 1.000000
vt 0.000000 0.500000
vt 0.750000 0.043108
vt 0.853446 0.070826
vt 0.064752 0.356953
vt 0.036094 0.250000
vt 0.416667 1.000000
vt 0.000000 1.000000
vt 0.356953 0.435248
vt 0.250000 0.490000
vt 0.250000 0.463906
vt 0.435248 0.356953
vt 0.370000 0.457846
vt 0.463906 0.250000
vt 0.457846 0.370000
vt 0.457846 0.130000
vt 0.490000 0.250000
vt 0.435248 0.143047
vt 0.370000 0.042154
vt 0.250000 0.036094
vt 0.356953 0.064752
vt 0.130000 0.042154
vt 0.250000 0.010000
vt 0.064752 0.143047
vt 0.143047 0.064752
vt 0.042154 0.130000
vt 0.042154 0.370000
vt 0.010000 0.250000
vt 0.130000 0.457846
vt 0.143047 0.435248
vt 0.405429 0.339737
vt 0.339737 0.405429
vt 0.250000 0.429474
vt 0.429474 0.250000
vt 0.405429 0.160263
vt 0.339737 0.094571
vt 0.250000 0.070526
vt 0.094571 0.160263
vt 0.160263 0.094571
vt 0.070526 0.250000
vt 0.094571 0.339737
vt 0.160263 0.405429
vt 0.750000 0.456892
vt 0.870000 0.457846
vt 0.853446 0.429174
vt 0.957846 0.370000
vt 0.929174 0.353446
vt 0.990000 0.250000
vt 0.956892 0.250000
vt 0.929174 0.146554
vt 0.957846 0.130000
vt 0.870000 0.042154
vt 0.750000 0.010000
vt 0.630000 0.042154
vt 0.646554 0.070826
vt 0.542154 0.130000
vt 0.570826 0.146554
vt 0.510000 0.250000
vt 0.543108 0.250000
vt 0.570826 0.353446
vt 0.542154 0.370000
vt 0.646554 0.429174
vt 0.630000 0.457846
vt 0.750000 0.490000
vt 0.839414 0.250000
vt 0.827435 0.294707
vt 0.794707 0.327435
vt 0.827435 0.205293
vt 0.794707 0.172566
vt 0.750000 0.160586
vt 0.705293 0.172566
vt 0.672566 0.205293
vt 0.660586 0.250000
vt 0.672565 0.294707
vt 0.705293 0.327435
vt 0.750000 0.339414
vt 0.708106 0.322563
vt 0.677437 0.291894
vt 0.750000 0.333789
vt 0.791894 0.322563
vt 0.822563 0.291894
vt 0.833788 0.250000
vt 0.822563 0.208106
vt 0.791894 0.177437
vt 0.750000 0.166212
vt 0.708106 0.177437
vt 0.677437 0.208106
vt 0.666212 0.250000
vt 0.375000 0.125000
vt 0.375000 0.750000
vt 0.625000 0.750000
vt 0.375000 1.000000
vt 0.125000 0.750000
vt 0.625000 0.000000
vt 0.375000 0.000000
vt 0.625000 0.125000
vt 0.375000 0.375000
vt 0.375000 0.875000
vt 0.625000 1.000000
vt 0.250000 0.625000
vt 0.250000 0.750000
vt 0.750000 0.750000
vt 0.750000 0.625000
vt 0.750000 0.500000
vt 0.250000 0.500000
vt 0.875000 0.750000
vt 0.625000 0.375000
vt 0.625000 0.875000
s 1
f 44/1/37 76/2/68 71/1/63
f 35/3/31 11/4/11 39/5/35
f 2/6/2 36/7/32 35/8/31
f 3/9/3 37/10/33 34/11/30
f 38/12/34 3/9/3 34/13/30
f 61/14/53 11/4/11 57/15/50
f 2/16/2 45/17/38 62/16/54
f 62/16/54 72/17/64 75/16/67
f 24/18/21 29/18/27 21/18/20
f 19/19/18 26/20/24 27/19/25
f 22/18/21 27/18/25 30/18/21
f 32/18/21 30/18/21 33/18/29
f 26/20/24 25/21/23 33/20/29
f 28/22/26 29/23/27 33/22/29
f 20/24/19 31/25/28 23/26/22
f 21/23/20 28/22/26 20/24/19
f 18/27/17 25/21/23 26/20/24
f 22/18/21 32/18/21 24/18/21
f 59/28/51 31/25/28 60/29/52
f 60/29/52 33/21/29 25/21/23
f 30/18/21 27/18/25 33/18/29
f 27/19/25 26/20/24 33/19/29
f 29/18/27 32/18/21 33/18/29
f 31/25/28 28/22/26 33/25/29
f 39/5/35 48/17/41 9/17/9
f 10/1/10 34/13/30 1/2/1
f 34/11/30 5/30/5 1/31/1
f 35/8/31 8/23/8 4/32/4
f 2/16/2 39/5/35 9/17/9
f 46/33/39 75/6/67 73/33/65
f 56/34/49 45/17/38 9/17/9
f 15/18/15 46/18/39 6/18/6
f 43/18/15 40/18/15 70/18/62
f 2/6/2 46/33/39 6/33/6
f 5/18/5 42/18/15 16/18/15
f 16/18/15 40/18/15 58/18/15
f 5/30/5 63/31/55 1/31/1
f 48/17/41 55/5/48 52/17/45
f 38/12/34 65/14/57 61/14/53
f 9/17/9 64/34/56 56/34/49
f 38/12/34 49/1/42 50/12/43
f 66/34/58 55/5/48 67/14/59
f 48/17/41 66/34/58 64/34/56
f 50/12/43 67/14/59 65/14/57
f 49/1/42 54/12/47 50/12/43
f 51/5/44 67/14/59 55/5/48
f 49/1/42 66/34/58 53/1/46
f 66/34/58 54/12/47 53/1/46
f 10/1/10 64/34/56 49/1/42
f 39/5/35 65/14/57 51/5/44
f 1/2/1 44/1/37 10/1/10
f 58/18/15 43/18/15 15/18/15
f 56/34/49 44/1/37 41/34/36
f 59/28/51 25/21/23 17/35/16
f 61/14/53 12/36/12 38/12/34
f 41/34/36 71/1/63 68/34/60
f 40/18/15 69/18/61 70/18/62
f 43/18/15 73/18/65 46/18/39
f 47/30/40 76/31/68 63/31/55
f 41/34/36 72/17/64 45/17/38
f 42/18/15 74/18/66 69/18/61
f 70/18/62 73/18/65 75/6/67
f 69/18/61 68/34/60 70/18/62
f 74/30/66 71/1/63 69/18/61
f 85/37/76 17/35/16 90/38/81
f 94/39/85 92/40/83 91/41/82
f 88/42/79 92/40/83 93/43/84
f 18/27/17 80/19/71 89/44/80
f 13/45/13 86/46/77 14/47/14
f 88/42/79 83/48/74 87/49/78
f 81/50/72 13/45/13 95/51/86
f 87/49/78 81/50/72 85/37/76
f 57/15/50 86/46/77 88/42/79
f 89/44/80 17/35/16 18/27/17
f 91/41/82 90/38/81 89/44/80
f 87/49/78 90/38/81 92/40/83
f 8/23/8 14/47/14 4/32/4
f 94/39/85 7/19/7 3/9/3
f 78/18/21 96/18/87 79/18/70
f 91/41/82 84/19/75 94/39/85
f 23/26/22 95/51/86 20/24/19
f 85/37/76 23/26/22 59/28/51
f 77/23/69 20/24/19 95/51/86
f 3/9/3 93/43/84 94/39/85
f 14/47/14 11/4/11 4/32/4
f 57/15/50 93/43/84 12/36/12
f 13/45/13 14/47/14 98/45/89
f 89/44/80 82/19/73 91/41/82
f 79/18/70 98/45/89 14/47/14
f 96/23/87 99/51/90 98/45/89
f 78/18/21 97/18/88 96/18/87
f 77/23/69 99/51/90 97/23/88
f 13/45/13 99/51/90 95/51/86
f 101/52/92 198/53/189 197/54/188
f 103/55/94 199/56/190 198/53/189
f 105/57/96 200/58/191 199/56/190
f 107/59/98 201/60/192 200/58/191
f 109/61/100 202/62/193 201/60/192
f 111/63/102 203/64/194 202/62/193
f 113/65/104 204/66/195 203/64/194
f 204/66/195 117/67/108 205/68/196
f 117/67/108 206/69/197 205/68/196
f 119/70/110 207/71/198 206/69/197
f 103/55/94 138/57/129 105/57/96
f 121/72/112 208/73/199 207/71/198
f 123/74/114 197/75/188 208/73/199
f 112/76/103 226/77/199 110/77/101
f 134/78/125 169/79/160 170/78/161
f 121/72/112 145/70/136 146/72/137
f 117/67/108 145/70/136 119/70/110
f 115/80/106 144/67/135 117/67/108
f 115/80/106 142/65/133 143/80/134
f 113/65/104 141/63/132 142/65/133
f 109/61/100 141/63/132 111/63/102
f 109/61/100 139/59/130 140/61/131
f 123/74/114 137/81/128 101/81/92
f 101/52/92 136/55/127 103/55/94
f 105/57/96 139/59/130 107/59/98
f 121/72/112 147/74/138 123/74/114
f 124/82/115 137/83/128 125/84/116
f 126/85/117 136/86/127 124/82/115
f 127/87/118 138/88/129 126/85/117
f 127/87/118 140/89/131 139/90/130
f 128/91/119 141/92/132 140/89/131
f 130/93/121 141/92/132 129/94/120
f 130/93/121 143/95/134 142/96/133
f 132/97/123 143/95/134 131/98/122
f 133/79/124 144/99/135 132/97/123
f 133/79/124 146/100/137 145/101/136
f 134/78/125 147/102/138 146/100/137
f 135/103/126 137/83/128 147/102/138
f 150/104/141 172/105/163 174/104/165
f 131/98/122 166/93/157 167/98/158
f 128/91/119 163/87/154 164/91/155
f 134/78/125 171/103/162 135/103/126
f 125/84/116 160/82/151 124/82/115
f 131/98/122 168/97/159 132/97/123
f 128/91/119 165/94/156 129/94/120
f 135/103/126 161/84/152 125/84/116
f 126/85/117 160/82/151 162/85/153
f 132/97/123 169/79/160 133/79/124
f 130/93/121 165/94/156 166/93/157
f 127/87/118 162/85/153 163/87/154
f 149/106/140 160/82/151 161/84/152
f 150/104/141 160/82/151 148/105/139
f 151/107/142 162/85/153 150/104/141
f 152/108/143 163/87/154 151/107/142
f 153/109/144 164/91/155 152/108/143
f 154/110/145 165/94/156 153/109/144
f 154/110/145 167/98/158 166/93/157
f 156/111/147 167/98/158 155/112/146
f 157/113/148 168/97/159 156/111/147
f 158/114/149 169/79/160 157/113/148
f 159/115/150 170/78/161 158/114/149
f 149/106/140 171/103/162 159/115/150
f 173/106/164 195/115/186 185/106/176
f 157/113/148 180/111/171 181/113/172
f 153/109/144 178/110/169 154/110/145
f 151/107/142 174/104/165 175/107/166
f 157/113/148 182/114/173 158/114/149
f 154/110/145 179/112/170 155/112/146
f 151/107/142 176/108/167 152/108/143
f 158/114/149 183/115/174 159/115/150
f 149/106/140 172/105/163 148/105/139
f 155/112/146 180/111/171 156/111/147
f 152/108/143 177/109/168 153/109/144
f 159/115/150 173/106/164 149/106/140
f 189/109/180 188/108/179 196/109/187
f 174/104/165 184/105/175 186/104/177
f 181/113/172 192/111/183 193/113/184
f 177/109/168 190/110/181 178/110/169
f 174/104/165 187/107/178 175/107/166
f 182/114/173 193/113/184 194/114/185
f 178/110/169 191/112/182 179/112/170
f 175/107/166 188/108/179 176/108/167
f 182/114/173 195/115/186 183/115/174
f 173/106/164 184/105/175 172/105/163
f 179/112/170 192/111/183 180/111/171
f 177/109/168 188/108/179 189/109/180
f 185/106/176 195/115/186 196/106/187
f 186/104/177 184/105/175 196/104/187
f 193/113/184 192/111/183 196/113/187
f 190/110/181 189/109/180 196/110/187
f 187/107/178 186/104/177 196/107/187
f 194/114/185 193/113/184 196/114/187
f 191/112/182 190/110/181 196/112/187
f 188/108/179 187/107/178 196/108/187
f 195/115/186 194/114/185 196/115/187
f 184/105/175 185/106/176 196/105/187
f 192/111/183 191/112/182 196/111/187
f 100/116/91 198/117/189 102/118/93
f 102/118/93 199/119/190 104/120/95
f 104/120/95 200/121/191 106/122/97
f 108/123/99 200/121/191 201/124/192
f 110/77/101 201/124/192 202/125/193
f 112/76/103 202/125/193 203/126/194
f 112/76/103 204/127/195 114/128/105
f 114/128/105 205/129/196 116/130/107
f 116/130/107 206/131/197 118/132/109
f 120/133/111 206/131/197 207/134/198
f 122/135/113 207/134/198 208/136/199
f 100/116/91 208/136/199 197/137/188
f 212/138/203 235/139/214 211/139/202
f 106/122/97 223/120/196 104/120/95
f 120/133/111 230/132/191 118/132/109
f 114/128/105 227/76/188 112/76/103
f 108/123/99 224/122/197 106/122/97
f 122/135/113 231/133/192 120/133/111
f 102/118/93 221/116/194 100/116/91
f 116/130/107 228/128/189 114/128/105
f 110/77/101 225/123/198 108/123/99
f 100/116/91 232/135/193 122/135/113
f 104/120/95 222/118/195 102/118/93
f 118/132/109 229/130/190 116/130/107
f 210/140/201 221/116/194 222/118/195
f 211/139/202 222/118/195 223/120/196
f 211/139/202 224/122/197 212/138/203
f 212/138/203 225/123/198 213/141/204
f 213/141/204 226/77/199 214/142/205
f 214/142/205 227/76/188 215/143/206
f 216/144/207 227/76/188 228/128/189
f 217/145/208 228/128/189 229/130/190
f 217/145/208 230/132/191 218/146/209
f 218/146/209 231/133/192 219/147/210
f 219/147/210 232/135/193 220/148/211
f 220/148/211 221/116/194 209/149/200
f 236/138/215 247/139/226 235/139/214
f 219/147/210 242/146/221 218/146/209
f 216/144/207 239/143/218 215/143/206
f 212/138/203 237/141/216 236/138/215
f 220/148/211 243/147/222 219/147/210
f 210/140/201 233/149/212 209/149/200
f 217/145/208 240/144/219 216/144/207
f 213/141/204 238/142/217 237/141/216
f 220/148/211 233/149/212 244/148/223
f 211/139/202 234/140/213 210/140/201
f 218/146/209 241/145/220 217/145/208
f 215/143/206 238/142/217 214/142/205
f 250/142/229 275/143/254 274/142/253
f 242/146/221 255/147/234 254/146/233
f 239/143/218 252/144/231 251/143/230
f 237/141/216 248/138/227 236/138/215
f 244/148/223 255/147/234 243/147/222
f 234/140/213 245/149/224 233/149/212
f 241/145/220 252/144/231 240/144/219
f 237/141/216 250/142/229 249/141/228
f 244/148/223 245/149/224 256/148/235
f 235/139/214 246/140/225 234/140/213
f 242/146/221 253/145/232 241/145/220
f 238/142/217 251/143/230 250/142/229
f 268/150/247 291/151/270 267/151/246
f 248/138/227 271/139/250 247/139/226
f 255/147/234 278/146/257 254/146/233
f 252/144/231 275/143/254 251/143/230
f 248/138/227 273/141/252 272/138/251
f 255/147/234 280/148/259 279/147/258
f 245/149/224 270/140/249 269/149/248
f 252/144/231 277/145/256 276/144/255
f 250/142/229 273/141/252 249/141/228
f 245/149/224 280/148/259 256/148/235
f 246/140/225 271/139/250 270/140/249
f 253/145/232 278/146/257 277/145/256
f 257/152/236 270/140/249 258/153/237
f 258/153/237 271/139/250 259/154/238
f 259/154/238 272/138/251 260/155/239
f 260/155/239 273/141/252 261/156/240
f 261/156/240 274/142/253 262/157/241
f 263/158/242 274/142/253 275/143/254
f 264/159/243 275/143/254 276/144/255
f 265/160/244 276/144/255 277/145/256
f 266/161/245 277/145/256 278/146/257
f 267/151/246 278/146/257 279/147/258
f 268/150/247 279/147/258 280/148/259
f 257/152/236 280/148/259 269/149/248
f 284/155/263 297/156/276 296/155/275
f 257/152/236 282/153/261 281/152/260
f 264/159/243 289/160/268 288/159/267
f 261/156/240 286/157/265 285/156/264
f 257/152/236 292/150/271 268/150/247
f 259/154/238 282/153/261 258/153/237
f 266/161/245 289/160/268 265/160/244
f 263/158/242 286/157/265 262/157/241
f 259/154/238 284/155/263 283/154/262
f 267/151/246 290/161/269 266/161/245
f 264/159/243 287/158/266 263/158/242
f 261/156/240 284/155/263 260/155/239
f 296/155/275 309/156/288 308/155/287
f 292/150/271 303/151/282 291/151/270
f 281/152/260 294/153/273 293/152/272
f 288/159/267 301/160/280 300/159/279
f 285/156/264 298/157/277 297/156/276
f 281/152/260 304/150/283 292/150/271
f 283/154/262 294/153/273 282/153/261
f 289/160/268 302/161/281 301/160/280
f 286/157/265 299/158/278 298/157/277
f 284/155/263 295/154/274 283/154/262
f 291/151/270 302/161/281 290/161/269
f 288/159/267 299/158/278 287/158/266
f 311/158/290 324/159/303 323/158/302
f 303/151/282 316/150/295 315/151/294
f 294/153/273 305/152/284 293/152/272
f 300/159/279 313/160/292 312/159/291
f 297/156/276 310/157/289 309/156/288
f 304/150/283 305/152/284 316/150/295
f 294/153/273 307/154/286 306/153/285
f 301/160/280 314/161/293 313/160/292
f 298/157/277 311/158/290 310/157/289
f 296/155/275 307/154/286 295/154/274
f 303/151/282 314/161/293 302/161/281
f 300/159/279 311/158/290 299/158/278
f 320/155/299 324/159/303 328/150/307
f 308/155/287 321/156/300 320/155/299
f 315/151/294 328/150/307 327/151/306
f 306/153/285 317/152/296 305/152/284
f 312/159/291 325/160/304 324/159/303
f 309/156/288 322/157/301 321/156/300
f 316/150/295 317/152/296 328/150/307
f 306/153/285 319/154/298 318/153/297
f 313/160/292 326/161/305 325/160/304
f 311/158/290 322/157/301 310/157/289
f 307/154/286 320/155/299 319/154/298
f 315/151/294 326/161/305 314/161/293
f 337/162/316 332/16/311 331/2/310
f 331/2/310 336/32/315 335/9/314
f 340/23/319 333/163/312 339/19/318
f 334/164/313 329/165/308 333/163/312
f 337/30/316 333/163/312 329/166/308
f 338/33/317 334/164/313 340/23/319
f 336/32/315 338/33/317 340/23/319
f 335/9/314 337/30/316 331/31/310
f 335/9/314 340/23/319 339/19/318
f 330/167/309 337/162/316 329/168/308
f 349/162/328 344/16/323 343/2/322
f 343/2/322 348/32/327 347/9/326
f 352/23/331 345/163/324 351/19/330
f 346/164/325 341/165/320 345/163/324
f 349/30/328 345/163/324 341/166/320
f 350/33/329 346/164/325 352/23/331
f 348/32/327 350/33/329 352/23/331
f 347/9/326 349/30/328 343/31/322
f 347/9/326 352/23/331 351/19/330
f 342/167/321 349/162/328 341/168/320
f 362/169/341 355/2/334 361/162/340
f 365/170/344 360/32/339 359/9/338
f 364/23/343 357/163/336 363/19/342
f 367/171/346 354/172/333 353/165/332
f 370/173/349 357/163/336 367/174/346
f 362/33/341 368/175/347 369/176/348
f 366/177/345 362/33/341 369/176/348
f 359/9/338 370/173/349 365/178/344
f 359/9/338 364/23/343 363/19/342
f 353/168/332 362/169/341 361/162/340
f 355/31/334 370/173/349 361/30/340
f 366/177/345 364/23/343 360/32/339
f 364/23/343 368/175/347 358/164/337
f 370/173/349 353/166/332 361/30/340
f 358/164/337 367/171/346 357/163/336
f 356/16/335 365/170/344 355/2/334
f 378/162/354 375/16/351 374/2/350
f 374/2/350 377/32/353 376/9/352
f 377/32/353 379/33/355 381/23/357
f 376/9/352 378/30/354 374/31/350
f 376/9/352 381/23/357 380/19/356
f 44/1/37 63/2/55 76/2/68
f 35/3/31 4/32/4 11/4/11
f 2/6/2 6/33/6 36/7/32
f 3/9/3 7/19/7 37/10/33
f 38/12/34 12/36/12 3/9/3
f 61/14/53 39/5/35 11/4/11
f 2/16/2 9/17/9 45/17/38
f 62/16/54 45/17/38 72/17/64
f 24/18/21 32/18/21 29/18/27
f 19/19/18 18/27/17 26/20/24
f 22/18/21 19/18/18 27/18/25
f 20/24/19 28/22/26 31/25/28
f 21/23/20 29/23/27 28/22/26
f 18/27/17 17/35/16 25/21/23
f 22/18/21 30/18/21 32/18/21
f 59/28/51 23/26/22 31/25/28
f 60/29/52 31/25/28 33/21/29
f 39/5/35 51/5/44 48/17/41
f 10/1/10 38/12/34 34/13/30
f 34/11/30 37/10/33 5/30/5
f 35/8/31 36/7/32 8/23/8
f 2/16/2 35/3/31 39/5/35
f 46/33/39 62/6/54 75/6/67
f 56/34/49 41/34/36 45/17/38
f 15/18/15 43/18/15 46/18/39
f 2/6/2 62/6/54 46/33/39
f 5/18/5 47/18/40 42/18/15
f 16/18/15 42/18/15 40/18/15
f 5/30/5 47/30/40 63/31/55
f 48/17/41 51/5/44 55/5/48
f 38/12/34 50/12/43 65/14/57
f 9/17/9 48/17/41 64/34/56
f 38/12/34 10/1/10 49/1/42
f 66/34/58 52/17/45 55/5/48
f 48/17/41 52/17/45 66/34/58
f 50/12/43 54/12/47 67/14/59
f 49/1/42 53/1/46 54/12/47
f 51/5/44 65/14/57 67/14/59
f 49/1/42 64/34/56 66/34/58
f 66/34/58 67/14/59 54/12/47
f 10/1/10 56/34/49 64/34/56
f 39/5/35 61/14/53 65/14/57
f 1/2/1 63/2/55 44/1/37
f 58/18/15 40/18/15 43/18/15
f 56/34/49 10/1/10 44/1/37
f 59/28/51 60/29/52 25/21/23
f 61/14/53 57/15/50 12/36/12
f 41/34/36 44/1/37 71/1/63
f 40/18/15 42/18/15 69/18/61
f 43/18/15 70/18/62 73/18/65
f 47/30/40 74/30/66 76/31/68
f 41/34/36 68/34/60 72/17/64
f 42/18/15 47/18/40 74/18/66
f 72/17/64 68/34/60 75/6/67
f 68/34/60 70/18/62 75/6/67
f 69/18/61 71/1/63 68/34/60
f 74/30/66 76/31/68 71/1/63
f 85/37/76 59/28/51 17/35/16
f 94/39/85 93/43/84 92/40/83
f 88/42/79 87/49/78 92/40/83
f 18/27/17 19/19/18 80/19/71
f 13/45/13 83/48/74 86/46/77
f 88/42/79 86/46/77 83/48/74
f 81/50/72 83/48/74 13/45/13
f 87/49/78 83/48/74 81/50/72
f 57/15/50 11/4/11 86/46/77
f 89/44/80 90/38/81 17/35/16
f 91/41/82 92/40/83 90/38/81
f 87/49/78 85/37/76 90/38/81
f 8/23/8 79/23/70 14/47/14
f 94/39/85 84/19/75 7/19/7
f 91/41/82 82/19/73 84/19/75
f 23/26/22 81/50/72 95/51/86
f 85/37/76 81/50/72 23/26/22
f 77/23/69 21/23/20 20/24/19
f 3/9/3 12/36/12 93/43/84
f 14/47/14 86/46/77 11/4/11
f 57/15/50 88/42/79 93/43/84
f 89/44/80 80/19/71 82/19/73
f 79/18/70 96/23/87 98/45/89
f 96/23/87 97/23/88 99/51/90
f 78/18/21 77/18/69 97/18/88
f 77/23/69 95/51/86 99/51/90
f 13/45/13 98/45/89 99/51/90
f 101/52/92 103/55/94 198/53/189
f 103/55/94 105/57/96 199/56/190
f 105/57/96 107/59/98 200/58/191
f 107/59/98 109/61/100 201/60/192
f 109/61/100 111/63/102 202/62/193
f 111/63/102 113/65/104 203/64/194
f 113/65/104 115/80/106 204/66/195
f 204/66/195 115/80/106 117/67/108
f 117/67/108 119/70/110 206/69/197
f 119/70/110 121/72/112 207/71/198
f 103/55/94 136/55/127 138/57/129
f 121/72/112 123/74/114 208/73/199
f 123/74/114 101/81/92 197/75/188
f 112/76/103 227/76/188 226/77/199
f 134/78/125 133/79/124 169/79/160
f 121/72/112 119/70/110 145/70/136
f 117/67/108 144/67/135 145/70/136
f 115/80/106 143/80/134 144/67/135
f 115/80/106 113/65/104 142/65/133
f 113/65/104 111/63/102 141/63/132
f 109/61/100 140/61/131 141/63/132
f 109/61/100 107/59/98 139/59/130
f 123/74/114 147/74/138 137/81/128
f 101/52/92 137/52/128 136/55/127
f 105/57/96 138/57/129 139/59/130
f 121/72/112 146/72/137 147/74/138
f 124/82/115 136/86/127 137/83/128
f 126/85/117 138/88/129 136/86/127
f 127/87/118 139/90/130 138/88/129
f 127/87/118 128/91/119 140/89/131
f 128/91/119 129/94/120 141/92/132
f 130/93/121 142/96/133 141/92/132
f 130/93/121 131/98/122 143/95/134
f 132/97/123 144/99/135 143/95/134
f 133/79/124 145/101/136 144/99/135
f 133/79/124 134/78/125 146/100/137
f 134/78/125 135/103/126 147/102/138
f 135/103/126 125/84/116 137/83/128
f 150/104/141 148/105/139 172/105/163
f 131/98/122 130/93/121 166/93/157
f 128/91/119 127/87/118 163/87/154
f 134/78/125 170/78/161 171/103/162
f 125/84/116 161/84/152 160/82/151
f 131/98/122 167/98/158 168/97/159
f 128/91/119 164/91/155 165/94/156
f 135/103/126 171/103/162 161/84/152
f 126/85/117 124/82/115 160/82/151
f 132/97/123 168/97/159 169/79/160
f 130/93/121 129/94/120 165/94/156
f 127/87/118 126/85/117 162/85/153
f 149/106/140 148/105/139 160/82/151
f 150/104/141 162/85/153 160/82/151
f 151/107/142 163/87/154 162/85/153
f 152/108/143 164/91/155 163/87/154
f 153/109/144 165/94/156 164/91/155
f 154/110/145 166/93/157 165/94/156
f 154/110/145 155/112/146 167/98/158
f 156/111/147 168/97/159 167/98/158
f 157/113/148 169/79/160 168/97/159
f 158/114/149 170/78/161 169/79/160
f 159/115/150 171/103/162 170/78/161
f 149/106/140 161/84/152 171/103/162
f 173/106/164 183/115/174 195/115/186
f 157/113/148 156/111/147 180/111/171
f 153/109/144 177/109/168 178/110/169
f 151/107/142 150/104/141 174/104/165
f 157/113/148 181/113/172 182/114/173
f 154/110/145 178/110/169 179/112/170
f 151/107/142 175/107/166 176/108/167
f 158/114/149 182/114/173 183/115/174
f 149/106/140 173/106/164 172/105/163
f 155/112/146 179/112/170 180/111/171
f 152/108/143 176/108/167 177/109/168
f 159/115/150 183/115/174 173/106/164
f 174/104/165 172/105/163 184/105/175
f 181/113/172 180/111/171 192/111/183
f 177/109/168 189/109/180 190/110/181
f 174/104/165 186/104/177 187/107/178
f 182/114/173 181/113/172 193/113/184
f 178/110/169 190/110/181 191/112/182
f 175/107/166 187/107/178 188/108/179
f 182/114/173 194/114/185 195/115/186
f 173/106/164 185/106/176 184/105/175
f 179/112/170 191/112/182 192/111/183
f 177/109/168 176/108/167 188/108/179
f 100/116/91 197/137/188 198/117/189
f 102/118/93 198/117/189 199/119/190
f 104/120/95 199/119/190 200/121/191
f 108/123/99 106/122/97 200/121/191
f 110/77/101 108/123/99 201/124/192
f 112/76/103 110/77/101 202/125/193
f 112/76/103 203/126/194 204/127/195
f 114/128/105 204/127/195 205/129/196
f 116/130/107 205/129/196 206/131/197
f 120/133/111 118/132/109 206/131/197
f 122/135/113 120/133/111 207/134/198
f 100/116/91 122/135/113 208/136/199
f 212/138/203 236/138/215 235/139/214
f 106/122/97 224/122/197 223/120/196
f 120/133/111 231/133/192 230/132/191
f 114/128/105 228/128/189 227/76/188
f 108/123/99 225/123/198 224/122/197
f 122/135/113 232/135/193 231/133/192
f 102/118/93 222/118/195 221/116/194
f 116/130/107 229/130/190 228/128/189
f 110/77/101 226/77/199 225/123/198
f 100/116/91 221/116/194 232/135/193
f 104/120/95 223/120/196 222/118/195
f 118/132/109 230/132/191 229/130/190
f 210/140/201 209/149/200 221/116/194
f 211/139/202 210/140/201 222/118/195
f 211/139/202 223/120/196 224/122/197
f 212/138/203 224/122/197 225/123/198
f 213/141/204 225/123/198 226/77/199
f 214/142/205 226/77/199 227/76/188
f 216/144/207 215/143/206 227/76/188
f 217/145/208 216/144/207 228/128/189
f 217/145/208 229/130/190 230/132/191
f 218/146/209 230/132/191 231/133/192
f 219/147/210 231/133/192 232/135/193
f 220/148/211 232/135/193 221/116/194
f 236/138/215 248/138/227 247/139/226
f 219/147/210 243/147/222 242/146/221
f 216/144/207 240/144/219 239/143/218
f 212/138/203 213/141/204 237/141/216
f 220/148/211 244/148/223 243/147/222
f 210/140/201 234/140/213 233/149/212
f 217/145/208 241/145/220 240/144/219
f 213/141/204 214/142/205 238/142/217
f 220/148/211 209/149/200 233/149/212
f 211/139/202 235/139/214 234/140/213
f 218/146/209 242/146/221 241/145/220
f 215/143/206 239/143/218 238/142/217
f 250/142/229 251/143/230 275/143/254
f 242/146/221 243/147/222 255/147/234
f 239/143/218 240/144/219 252/144/231
f 237/141/216 249/141/228 248/138/227
f 244/148/223 256/148/235 255/147/234
f 234/140/213 246/140/225 245/149/224
f 241/145/220 253/145/232 252/144/231
f 237/141/216 238/142/217 250/142/229
f 244/148/223 233/149/212 245/149/224
f 235/139/214 247/139/226 246/140/225
f 242/146/221 254/146/233 253/145/232
f 238/142/217 239/143/218 251/143/230
f 268/150/247 292/150/271 291/151/270
f 248/138/227 272/138/251 271/139/250
f 255/147/234 279/147/258 278/146/257
f 252/144/231 276/144/255 275/143/254
f 248/138/227 249/141/228 273/141/252
f 255/147/234 256/148/235 280/148/259
f 245/149/224 246/140/225 270/140/249
f 252/144/231 253/145/232 277/145/256
f 250/142/229 274/142/253 273/141/252
f 245/149/224 269/149/248 280/148/259
f 246/140/225 247/139/226 271/139/250
f 253/145/232 254/146/233 278/146/257
f 257/152/236 269/149/248 270/140/249
f 258/153/237 270/140/249 271/139/250
f 259/154/238 271/139/250 272/138/251
f 260/155/239 272/138/251 273/141/252
f 261/156/240 273/141/252 274/142/253
f 263/158/242 262/157/241 274/142/253
f 264/159/243 263/158/242 275/143/254
f 265/160/244 264/159/243 276/144/255
f 266/161/245 265/160/244 277/145/256
f 267/151/246 266/161/245 278/146/257
f 268/150/247 267/151/246 279/147/258
f 257/152/236 268/150/247 280/148/259
f 284/155/263 285/156/264 297/156/276
f 257/152/236 258/153/237 282/153/261
f 264/159/243 265/160/244 289/160/268
f 261/156/240 262/157/241 286/157/265
f 257/152/236 281/152/260 292/150/271
f 259/154/238 283/154/262 282/153/261
f 266/161/245 290/161/269 289/160/268
f 263/158/242 287/158/266 286/157/265
f 259/154/238 260/155/239 284/155/263
f 267/151/246 291/151/270 290/161/269
f 264/159/243 288/159/267 287/158/266
f 261/156/240 285/156/264 284/155/263
f 296/155/275 297/156/276 309/156/288
f 292/150/271 304/150/283 303/151/282
f 281/152/260 282/153/261 294/153/273
f 288/159/267 289/160/268 301/160/280
f 285/156/264 286/157/265 298/157/277
f 281/152/260 293/152/272 304/150/283
f 283/154/262 295/154/274 294/153/273
f 289/160/268 290/161/269 302/161/281
f 286/157/265 287/158/266 299/158/278
f 284/155/263 296/155/275 295/154/274
f 291/151/270 303/151/282 302/161/281
f 288/159/267 300/159/279 299/158/278
f 311/158/290 312/159/291 324/159/303
f 303/151/282 304/150/283 316/150/295
f 294/153/273 306/153/285 305/152/284
f 300/159/279 301/160/280 313/160/292
f 297/156/276 298/157/277 310/157/289
f 304/150/283 293/152/272 305/152/284
f 294/153/273 295/154/274 307/154/286
f 301/160/280 302/161/281 314/161/293
f 298/157/277 299/158/278 311/158/290
f 296/155/275 308/155/287 307/154/286
f 303/151/282 315/151/294 314/161/293
f 300/159/279 312/159/291 311/158/290
f 328/150/307 317/152/296 318/153/297
f 318/153/297 319/154/298 328/150/307
f 319/154/298 320/155/299 328/150/307
f 320/155/299 321/156/300 324/159/303
f 321/156/300 322/157/301 324/159/303
f 322/157/301 323/158/302 324/159/303
f 324/159/303 325/160/304 326/161/305
f 326/161/305 327/151/306 324/159/303
f 327/151/306 328/150/307 324/159/303
f 308/155/287 309/156/288 321/156/300
f 315/151/294 316/150/295 328/150/307
f 306/153/285 318/153/297 317/152/296
f 312/159/291 313/160/292 325/160/304
f 309/156/288 310/157/289 322/157/301
f 316/150/295 305/152/284 317/152/296
f 306/153/285 307/154/286 319/154/298
f 313/160/292 314/161/293 326/161/305
f 311/158/290 323/158/302 322/157/301
f 307/154/286 308/155/287 320/155/299
f 315/151/294 327/151/306 326/161/305
f 337/162/316 338/169/317 332/16/311
f 331/2/310 332/16/311 336/32/315
f 340/23/319 334/164/313 333/163/312
f 334/164/313 330/172/309 329/165/308
f 337/30/316 339/19/318 333/163/312
f 338/33/317 330/179/309 334/164/313
f 336/32/315 332/6/311 338/33/317
f 335/9/314 339/19/318 337/30/316
f 335/9/314 336/32/315 340/23/319
f 330/167/309 338/169/317 337/162/316
f 349/162/328 350/169/329 344/16/323
f 343/2/322 344/16/323 348/32/327
f 352/23/331 346/164/325 345/163/324
f 346/164/325 342/172/321 341/165/320
f 349/30/328 351/19/330 345/163/324
f 350/33/329 342/179/321 346/164/325
f 348/32/327 344/6/323 350/33/329
f 347/9/326 351/19/330 349/30/328
f 347/9/326 348/32/327 352/23/331
f 342/167/321 350/169/329 349/162/328
f 362/169/341 356/16/335 355/2/334
f 365/170/344 366/180/345 360/32/339
f 364/23/343 358/164/337 357/163/336
f 367/171/346 368/181/347 354/172/333
f 370/173/349 363/19/342 357/163/336
f 362/33/341 354/179/333 368/175/347
f 366/177/345 356/6/335 362/33/341
f 359/9/338 363/19/342 370/173/349
f 359/9/338 360/32/339 364/23/343
f 353/168/332 354/167/333 362/169/341
f 355/31/334 365/178/344 370/173/349
f 366/177/345 369/176/348 364/23/343
f 364/23/343 369/176/348 368/175/347
f 370/173/349 367/174/346 353/166/332
f 358/164/337 368/181/347 367/171/346
f 356/16/335 366/180/345 365/170/344
f 378/162/354 379/169/355 375/16/351
f 374/2/350 375/16/351 377/32/353
f 377/32/353 375/6/351 379/33/355
f 376/9/352 380/19/356 378/30/354
f 376/9/352 377/32/353 381/23/357
f 405/1/381 427/1/403 430/2/406
f 401/3/377 403/5/379 388/4/364
f 383/6/359 401/8/377 36/7/32
f 384/9/360 400/11/376 37/10/33
f 402/12/378 400/13/376 384/9/360
f 419/14/395 416/15/392 388/4/364
f 383/16/359 420/16/396 406/17/382
f 420/16/396 429/16/405 428/17/404
f 19/19/18 27/19/25 397/20/373
f 397/20/373 33/20/29 396/21/372
f 398/22/374 33/22/29 29/23/27
f 394/24/370 395/26/371 399/25/375
f 21/23/20 394/24/370 398/22/374
f 393/27/369 397/20/373 396/21/372
f 417/28/393 418/29/394 399/25/375
f 418/29/394 396/21/372 33/21/29
f 27/19/25 33/19/29 397/20/373
f 399/25/375 33/25/29 398/22/374
f 403/5/379 386/17/362 407/17/383
f 387/1/363 382/2/358 400/13/376
f 400/11/376 382/31/358 5/30/5
f 401/8/377 385/32/361 8/23/8
f 383/16/359 386/17/362 403/5/379
f 46/33/39 73/33/65 429/6/405
f 415/34/391 386/17/362 406/17/382
f 383/6/359 6/33/6 46/33/39
f 5/30/5 382/31/358 421/31/397
f 407/17/383 411/17/387 414/5/390
f 402/12/378 419/14/395 423/14/399
f 386/17/362 415/34/391 422/34/398
f 402/12/378 409/12/385 408/1/384
f 424/34/400 425/14/401 414/5/390
f 407/17/383 422/34/398 424/34/400
f 409/12/385 423/14/399 425/14/401
f 408/1/384 409/12/385 413/12/389
f 410/5/386 414/5/390 425/14/401
f 408/1/384 412/1/388 424/34/400
f 424/34/400 412/1/388 413/12/389
f 387/1/363 408/1/384 422/34/398
f 403/5/379 410/5/386 423/14/399
f 382/2/358 387/1/363 405/1/381
f 415/34/391 404/34/380 405/1/381
f 417/28/393 392/35/368 396/21/372
f 419/14/395 402/12/378 389/36/365
f 404/34/380 426/34/402 427/1/403
f 47/30/40 421/31/397 430/31/406
f 404/34/380 406/17/382 428/17/404
f 70/18/62 429/6/405 73/18/65
f 69/18/61 70/18/62 426/34/402
f 74/30/66 69/18/61 427/1/403
f 433/37/409 438/38/414 392/35/368
f 442/39/418 439/41/415 440/40/416
f 436/42/412 441/43/417 440/40/416
f 393/27/369 437/44/413 80/19/71
f 390/45/366 391/47/367 434/46/410
f 436/42/412 435/49/411 432/48/408
f 431/50/407 443/51/419 390/45/366
f 435/49/411 433/37/409 431/50/407
f 416/15/392 436/42/412 434/46/410
f 437/44/413 393/27/369 392/35/368
f 439/41/415 437/44/413 438/38/414
f 435/49/411 440/40/416 438/38/414
f 8/23/8 385/32/361 391/47/367
f 442/39/418 384/9/360 7/19/7
f 439/41/415 442/39/418 84/19/75
f 395/26/371 394/24/370 443/51/419
f 433/37/409 417/28/393 395/26/371
f 77/23/69 443/51/419 394/24/370
f 384/9/360 442/39/418 441/43/417
f 391/47/367 385/32/361 388/4/364
f 416/15/392 389/36/365 441/43/417
f 390/45/366 444/45/420 391/47/367
f 437/44/413 439/41/415 82/19/73
f 79/18/70 391/47/367 444/45/420
f 96/23/87 444/45/420 445/51/421
f 77/23/69 97/23/88 445/51/421
f 390/45/366 443/51/419 445/51/421
f 447/52/104 543/54/194 544/53/193
f 449/55/102 544/53/193 545/56/192
f 451/57/100 545/56/192 546/58/191
f 453/59/98 546/58/191 547/60/190
f 455/61/96 547/60/190 548/62/189
f 457/63/94 548/62/189 549/64/188
f 459/65/92 549/64/188 550/66/199
f 550/66/199 551/68/198 463/67/112
f 463/67/112 551/68/198 552/69/197
f 465/70/110 552/69/197 553/71/196
f 449/55/102 451/57/100 484/57/131
f 467/72/108 553/71/196 554/73/195
f 469/74/106 554/73/195 543/75/194
f 458/76/91 456/77/93 572/77/195
f 480/78/123 516/78/424 515/79/160
f 467/72/108 492/72/135 491/70/136
f 463/67/112 465/70/110 491/70/136
f 461/80/114 463/67/112 490/67/137
f 461/80/114 489/80/138 488/65/128
f 459/65/92 488/65/128 487/63/127
f 455/61/96 457/63/94 487/63/127
f 455/61/96 486/61/129 485/59/130
f 469/74/106 447/81/104 483/81/133
f 447/52/104 449/55/102 482/55/132
f 451/57/100 453/59/98 485/59/130
f 467/72/108 469/74/106 493/74/134
f 470/82/120 471/84/121 483/83/133
f 472/85/119 470/82/120 482/86/132
f 473/87/118 472/85/119 484/88/131
f 473/87/118 485/90/130 486/89/129
f 474/91/117 486/89/129 487/92/127
f 476/93/116 475/94/115 487/92/127
f 476/93/116 488/96/128 489/95/138
f 478/97/125 477/98/126 489/95/138
f 479/79/124 478/97/125 490/99/137
f 479/79/124 491/101/136 492/100/135
f 480/78/123 492/100/135 493/102/134
f 481/103/122 493/102/134 483/83/133
f 496/104/143 520/104/167 518/105/168
f 477/98/126 513/98/422 512/93/152
f 474/91/117 510/91/153 509/87/154
f 480/78/123 481/103/122 517/103/425
f 471/84/121 470/82/120 506/82/156
f 477/98/126 478/97/125 514/97/423
f 474/91/117 475/94/115 511/94/151
f 481/103/122 471/84/121 507/84/157
f 472/85/119 508/85/155 506/82/156
f 478/97/125 479/79/124 515/79/160
f 476/93/116 512/93/152 511/94/151
f 473/87/118 509/87/154 508/85/155
f 495/106/145 507/84/157 506/82/156
f 496/104/143 494/105/144 506/82/156
f 497/107/142 496/104/143 508/85/155
f 498/108/141 497/107/142 509/87/154
f 499/109/139 498/108/141 510/91/153
f 500/110/140 499/109/139 511/94/151
f 500/110/140 512/93/152 513/98/422
f 502/111/149 501/112/150 513/98/422
f 503/113/148 502/111/149 514/97/423
f 504/114/147 503/113/148 515/79/160
f 505/115/146 504/114/147 516/78/424
f 495/106/145 505/115/146 517/103/425
f 519/106/169 531/106/181 541/115/182
f 503/113/148 527/113/172 526/111/173
f 499/109/139 500/110/140 524/110/164
f 497/107/142 521/107/166 520/104/167
f 503/113/148 504/114/147 528/114/171
f 500/110/140 501/112/150 525/112/174
f 497/107/142 498/108/141 522/108/165
f 504/114/147 505/115/146 529/115/170
f 495/106/145 494/105/144 518/105/168
f 501/112/150 502/111/149 526/111/173
f 498/108/141 499/109/139 523/109/163
f 505/115/146 495/106/145 519/106/169
f 535/109/175 542/109/187 534/108/177
f 520/104/167 532/104/179 530/105/180
f 527/113/172 539/113/184 538/111/185
f 523/109/163 524/110/164 536/110/176
f 520/104/167 521/107/166 533/107/178
f 528/114/171 540/114/183 539/113/184
f 524/110/164 525/112/174 537/112/186
f 521/107/166 522/108/165 534/108/177
f 528/114/171 529/115/170 541/115/182
f 519/106/169 518/105/168 530/105/180
f 525/112/174 526/111/173 538/111/185
f 523/109/163 535/109/175 534/108/177
f 531/106/181 542/106/187 541/115/182
f 532/104/179 542/104/187 530/105/180
f 539/113/184 542/113/187 538/111/185
f 536/110/176 542/110/187 535/109/175
f 533/107/178 542/107/187 532/104/179
f 540/114/183 542/114/187 539/113/184
f 537/112/186 542/112/187 536/110/176
f 534/108/177 542/108/187 533/107/178
f 541/115/182 542/115/187 540/114/183
f 530/105/180 542/105/187 531/106/181
f 538/111/185 542/111/187 537/112/186
f 446/116/103 448/118/101 544/117/193
f 448/118/101 450/120/99 545/119/192
f 450/120/99 452/122/97 546/121/191
f 454/123/95 547/124/190 546/121/191
f 456/77/93 548/125/189 547/124/190
f 458/76/91 549/126/188 548/125/189
f 458/76/91 460/128/113 550/127/199
f 460/128/113 462/130/111 551/129/198
f 462/130/111 464/132/109 552/131/197
f 466/133/107 553/134/196 552/131/197
f 468/135/105 554/136/195 553/134/196
f 446/116/103 543/137/194 554/136/195
f 558/138/203 557/139/204 581/139/216
f 452/122/97 450/120/99 569/120/198
f 466/133/107 464/132/109 576/132/191
f 460/128/113 458/76/91 573/76/194
f 454/123/95 452/122/97 570/122/197
f 468/135/105 466/133/107 577/133/190
f 448/118/101 446/116/103 567/116/188
f 462/130/111 460/128/113 574/128/193
f 456/77/93 454/123/95 571/123/196
f 446/116/103 468/135/105 578/135/189
f 450/120/99 448/118/101 568/118/199
f 464/132/109 462/130/111 575/130/192
f 556/140/205 568/118/199 567/116/188
f 557/139/204 569/120/198 568/118/199
f 557/139/204 558/138/203 570/122/197
f 558/138/203 559/141/202 571/123/196
f 559/141/202 560/142/201 572/77/195
f 560/142/201 561/143/200 573/76/194
f 562/144/211 574/128/193 573/76/194
f 563/145/210 575/130/192 574/128/193
f 563/145/210 564/146/209 576/132/191
f 564/146/209 565/147/208 577/133/190
f 565/147/208 566/148/207 578/135/189
f 566/148/207 555/149/206 567/116/188
f 582/138/215 581/139/216 593/139/228
f 565/147/208 564/146/209 588/146/221
f 562/144/211 561/143/200 585/143/212
f 558/138/203 582/138/215 583/141/214
f 566/148/207 565/147/208 589/147/220
f 556/140/205 555/149/206 579/149/218
f 563/145/210 562/144/211 586/144/223
f 559/141/202 583/141/214 584/142/213
f 566/148/207 590/148/219 579/149/218
f 557/139/204 556/140/205 580/140/217
f 564/146/209 563/145/210 587/145/222
f 561/143/200 560/142/201 584/142/213
f 596/142/225 620/142/249 621/143/248
f 588/146/221 600/146/233 601/147/232
f 585/143/212 597/143/224 598/144/235
f 583/141/214 582/138/215 594/138/227
f 590/148/219 589/147/220 601/147/232
f 580/140/217 579/149/218 591/149/230
f 587/145/222 586/144/223 598/144/235
f 583/141/214 595/141/226 596/142/225
f 590/148/219 602/148/231 591/149/230
f 581/139/216 580/140/217 592/140/229
f 588/146/221 587/145/222 599/145/234
f 584/142/213 596/142/225 597/143/224
f 614/150/243 613/151/244 637/151/268
f 594/138/227 593/139/228 617/139/252
f 601/147/232 600/146/233 624/146/257
f 598/144/235 597/143/224 621/143/248
f 594/138/227 618/138/251 619/141/250
f 601/147/232 625/147/256 626/148/255
f 591/149/230 615/149/254 616/140/253
f 598/144/235 622/144/259 623/145/258
f 596/142/225 595/141/226 619/141/250
f 591/149/230 602/148/231 626/148/255
f 592/140/229 616/140/253 617/139/252
f 599/145/234 623/145/258 624/146/257
f 603/152/426 604/153/241 616/140/253
f 604/153/241 605/154/240 617/139/252
f 605/154/240 606/155/239 618/138/251
f 606/155/239 607/156/238 619/141/250
f 607/156/238 608/157/237 620/142/249
f 609/158/427 621/143/248 620/142/249
f 610/159/247 622/144/259 621/143/248
f 611/160/246 623/145/258 622/144/259
f 612/161/245 624/146/257 623/145/258
f 613/151/244 625/147/256 624/146/257
f 614/150/243 626/148/255 625/147/256
f 603/152/426 615/149/254 626/148/255
f 630/155/263 642/155/275 643/156/274
f 603/152/426 627/152/266 628/153/265
f 610/159/247 634/159/428 635/160/270
f 607/156/238 631/156/262 632/157/261
f 603/152/426 614/150/243 638/150/429
f 605/154/240 604/153/241 628/153/265
f 612/161/245 611/160/246 635/160/270
f 609/158/427 608/157/237 632/157/261
f 605/154/240 629/154/264 630/155/263
f 613/151/244 612/161/245 636/161/269
f 610/159/247 609/158/427 633/158/260
f 607/156/238 606/155/239 630/155/263
f 642/155/275 654/155/287 655/156/286
f 638/150/429 637/151/268 649/151/280
f 627/152/266 639/152/278 640/153/277
f 634/159/428 646/159/283 647/160/282
f 631/156/262 643/156/274 644/157/273
f 627/152/266 638/150/429 650/150/279
f 629/154/264 628/153/265 640/153/277
f 635/160/270 647/160/282 648/161/281
f 632/157/261 644/157/273 645/158/272
f 630/155/263 629/154/264 641/154/276
f 637/151/268 636/161/269 648/161/281
f 634/159/428 633/158/260 645/158/272
f 657/158/284 669/158/296 670/159/307
f 649/151/280 661/151/292 662/150/291
f 640/153/277 639/152/278 651/152/290
f 646/159/283 658/159/295 659/160/294
f 643/156/274 655/156/286 656/157/285
f 650/150/279 662/150/291 651/152/290
f 640/153/277 652/153/289 653/154/288
f 647/160/282 659/160/294 660/161/293
f 644/157/273 656/157/285 657/158/284
f 642/155/275 641/154/276 653/154/288
f 649/151/280 648/161/281 660/161/293
f 646/159/283 645/158/272 657/158/284
f 666/155/299 674/150/303 670/159/307
f 654/155/287 666/155/299 667/156/431
f 661/151/292 673/151/433 674/150/303
f 652/153/289 651/152/290 663/152/302
f 658/159/295 670/159/307 671/160/432
f 655/156/286 667/156/431 668/157/297
f 662/150/291 674/150/303 663/152/302
f 652/153/289 664/153/301 665/154/430
f 659/160/294 671/160/432 672/161/305
f 657/158/284 656/157/285 668/157/297
f 653/154/288 665/154/430 666/155/299
f 661/151/292 660/161/293 672/161/305
f 683/162/442 677/2/436 678/16/437
f 677/2/436 681/9/440 682/32/441
f 686/23/445 685/19/444 679/163/438
f 680/164/439 679/163/438 675/165/434
f 683/30/442 675/166/434 679/163/438
f 684/33/443 686/23/445 680/164/439
f 682/32/441 686/23/445 684/33/443
f 681/9/440 677/31/436 683/30/442
f 681/9/440 685/19/444 686/23/445
f 676/167/435 675/168/434 683/162/442
f 695/162/454 689/2/448 690/16/449
f 689/2/448 693/9/452 694/32/453
f 698/23/457 697/19/456 691/163/450
f 692/164/451 691/163/450 687/165/446
f 695/30/454 687/166/446 691/163/450
f 696/33/455 698/23/457 692/164/451
f 694/32/453 698/23/457 696/33/455
f 693/9/452 689/31/448 695/30/454
f 693/9/452 697/19/456 698/23/457
f 688/167/447 687/168/446 695/162/454
f 708/169/467 707/162/466 701/2/460
f 711/170/470 705/9/464 706/32/465
f 710/23/469 709/19/468 703/163/462
f 713/171/472 699/165/458 700/172/459
f 716/173/475 713/174/472 703/163/462
f 708/33/467 715/176/474 714/175/473
f 712/177/471 715/176/474 708/33/467
f 705/9/464 711/178/470 716/173/475
f 705/9/464 709/19/468 710/23/469
f 699/168/458 707/162/466 708/169/467
f 701/31/460 707/30/466 716/173/475
f 712/177/471 706/32/465 710/23/469
f 710/23/469 704/164/463 714/175/473
f 716/173/475 707/30/466 699/166/458
f 704/164/463 703/163/462 713/171/472
f 702/16/461 701/2/460 711/170/470
f 378/162/354 720/2/476 721/16/477
f 720/2/476 722/9/478 723/32/479
f 723/32/479 381/23/357 379/33/355
f 722/9/478 720/31/476 378/30/354
f 722/9/478 380/19/356 381/23/357
f 405/1/381 430/2/406 421/2/397
f 401/3/377 388/4/364 385/32/361
f 383/6/359 36/7/32 6/33/6
f 384/9/360 37/10/33 7/19/7
f 402/12/378 384/9/360 389/36/365
f 419/14/395 388/4/364 403/5/379
f 383/16/359 406/17/382 386/17/362
f 420/16/396 428/17/404 406/17/382
f 19/19/18 397/20/373 393/27/369
f 394/24/370 399/25/375 398/22/374
f 21/23/20 398/22/374 29/23/27
f 393/27/369 396/21/372 392/35/368
f 417/28/393 399/25/375 395/26/371
f 418/29/394 33/21/29 399/25/375
f 403/5/379 407/17/383 410/5/386
f 387/1/363 400/13/376 402/12/378
f 400/11/376 5/30/5 37/10/33
f 401/8/377 8/23/8 36/7/32
f 383/16/359 403/5/379 401/3/377
f 46/33/39 429/6/405 420/6/396
f 415/34/391 406/17/382 404/34/380
f 383/6/359 46/33/39 420/6/396
f 5/30/5 421/31/397 47/30/40
f 407/17/383 414/5/390 410/5/386
f 402/12/378 423/14/399 409/12/385
f 386/17/362 422/34/398 407/17/383
f 402/12/378 408/1/384 387/1/363
f 424/34/400 414/5/390 411/17/387
f 407/17/383 424/34/400 411/17/387
f 409/12/385 425/14/401 413/12/389
f 408/1/384 413/12/389 412/1/388
f 410/5/386 425/14/401 423/14/399
f 408/1/384 424/34/400 422/34/398
f 424/34/400 413/12/389 425/14/401
f 387/1/363 422/34/398 415/34/391
f 403/5/379 423/14/399 419/14/395
f 382/2/358 405/1/381 421/2/397
f 415/34/391 405/1/381 387/1/363
f 417/28/393 396/21/372 418/29/394
f 419/14/395 389/36/365 416/15/392
f 404/34/380 427/1/403 405/1/381
f 47/30/40 430/31/406 74/30/66
f 404/34/380 428/17/404 426/34/402
f 428/17/404 429/6/405 426/34/402
f 426/34/402 429/6/405 70/18/62
f 69/18/61 426/34/402 427/1/403
f 74/30/66 427/1/403 430/31/406
f 433/37/409 392/35/368 417/28/393
f 442/39/418 440/40/416 441/43/417
f 436/42/412 440/40/416 435/49/411
f 393/27/369 80/19/71 19/19/18
f 390/45/366 434/46/410 432/48/408
f 436/42/412 432/48/408 434/46/410
f 431/50/407 390/45/366 432/48/408
f 435/49/411 431/50/407 432/48/408
f 416/15/392 434/46/410 388/4/364
f 437/44/413 392/35/368 438/38/414
f 439/41/415 438/38/414 440/40/416
f 435/49/411 438/38/414 433/37/409
f 8/23/8 391/47/367 79/23/70
f 442/39/418 7/19/7 84/19/75
f 439/41/415 84/19/75 82/19/73
f 395/26/371 443/51/419 431/50/407
f 433/37/409 395/26/371 431/50/407
f 77/23/69 394/24/370 21/23/20
f 384/9/360 441/43/417 389/36/365
f 391/47/367 388/4/364 434/46/410
f 416/15/392 441/43/417 436/42/412
f 437/44/413 82/19/73 80/19/71
f 79/18/70 444/45/420 96/23/87
f 96/23/87 445/51/421 97/23/88
f 77/23/69 445/51/421 443/51/419
f 390/45/366 445/51/421 444/45/420
f 447/52/104 544/53/193 449/55/102
f 449/55/102 545/56/192 451/57/100
f 451/57/100 546/58/191 453/59/98
f 453/59/98 547/60/190 455/61/96
f 455/61/96 548/62/189 457/63/94
f 457/63/94 549/64/188 459/65/92
f 459/65/92 550/66/199 461/80/114
f 550/66/199 463/67/112 461/80/114
f 463/67/112 552/69/197 465/70/110
f 465/70/110 553/71/196 467/72/108
f 449/55/102 484/57/131 482/55/132
f 467/72/108 554/73/195 469/74/106
f 469/74/106 543/75/194 447/81/104
f 458/76/91 572/77/195 573/76/194
f 480/78/123 515/79/160 479/79/124
f 467/72/108 491/70/136 465/70/110
f 463/67/112 491/70/136 490/67/137
f 461/80/114 490/67/137 489/80/138
f 461/80/114 488/65/128 459/65/92
f 459/65/92 487/63/127 457/63/94
f 455/61/96 487/63/127 486/61/129
f 455/61/96 485/59/130 453/59/98
f 469/74/106 483/81/133 493/74/134
f 447/52/104 482/55/132 483/52/133
f 451/57/100 485/59/130 484/57/131
f 467/72/108 493/74/134 492/72/135
f 470/82/120 483/83/133 482/86/132
f 472/85/119 482/86/132 484/88/131
f 473/87/118 484/88/131 485/90/130
f 473/87/118 486/89/129 474/91/117
f 474/91/117 487/92/127 475/94/115
f 476/93/116 487/92/127 488/96/128
f 476/93/116 489/95/138 477/98/126
f 478/97/125 489/95/138 490/99/137
f 479/79/124 490/99/137 491/101/136
f 479/79/124 492/100/135 480/78/123
f 480/78/123 493/102/134 481/103/122
f 481/103/122 483/83/133 471/84/121
f 496/104/143 518/105/168 494/105/144
f 477/98/126 512/93/152 476/93/116
f 474/91/117 509/87/154 473/87/118
f 480/78/123 517/103/425 516/78/424
f 471/84/121 506/82/156 507/84/157
f 477/98/126 514/97/423 513/98/422
f 474/91/117 511/94/151 510/91/153
f 481/103/122 507/84/157 517/103/425
f 472/85/119 506/82/156 470/82/120
f 478/97/125 515/79/160 514/97/423
f 476/93/116 511/94/151 475/94/115
f 473/87/118 508/85/155 472/85/119
f 495/106/145 506/82/156 494/105/144
f 496/104/143 506/82/156 508/85/155
f 497/107/142 508/85/155 509/87/154
f 498/108/141 509/87/154 510/91/153
f 499/109/139 510/91/153 511/94/151
f 500/110/140 511/94/151 512/93/152
f 500/110/140 513/98/422 501/112/150
f 502/111/149 513/98/422 514/97/423
f 503/113/148 514/97/423 515/79/160
f 504/114/147 515/79/160 516/78/424
f 505/115/146 516/78/424 517/103/425
f 495/106/145 517/103/425 507/84/157
f 519/106/169 541/115/182 529/115/170
f 503/113/148 526/111/173 502/111/149
f 499/109/139 524/110/164 523/109/163
f 497/107/142 520/104/167 496/104/143
f 503/113/148 528/114/171 527/113/172
f 500/110/140 525/112/174 524/110/164
f 497/107/142 522/108/165 521/107/166
f 504/114/147 529/115/170 528/114/171
f 495/106/145 518/105/168 519/106/169
f 501/112/150 526/111/173 525/112/174
f 498/108/141 523/109/163 522/108/165
f 505/115/146 519/106/169 529/115/170
f 520/104/167 530/105/180 518/105/168
f 527/113/172 538/111/185 526/111/173
f 523/109/163 536/110/176 535/109/175
f 520/104/167 533/107/178 532/104/179
f 528/114/171 539/113/184 527/113/172
f 524/110/164 537/112/186 536/110/176
f 521/107/166 534/108/177 533/107/178
f 528/114/171 541/115/182 540/114/183
f 519/106/169 530/105/180 531/106/181
f 525/112/174 538/111/185 537/112/186
f 523/109/163 534/108/177 522/108/165
f 446/116/103 544/117/193 543/137/194
f 448/118/101 545/119/192 544/117/193
f 450/120/99 546/121/191 545/119/192
f 454/123/95 546/121/191 452/122/97
f 456/77/93 547/124/190 454/123/95
f 458/76/91 548/125/189 456/77/93
f 458/76/91 550/127/199 549/126/188
f 460/128/113 551/129/198 550/127/199
f 462/130/111 552/131/197 551/129/198
f 466/133/107 552/131/197 464/132/109
f 468/135/105 553/134/196 466/133/107
f 446/116/103 554/136/195 468/135/105
f 558/138/203 581/139/216 582/138/215
f 452/122/97 569/120/198 570/122/197
f 466/133/107 576/132/191 577/133/190
f 460/128/113 573/76/194 574/128/193
f 454/123/95 570/122/197 571/123/196
f 468/135/105 577/133/190 578/135/189
f 448/118/101 567/116/188 568/118/199
f 462/130/111 574/128/193 575/130/192
f 456/77/93 571/123/196 572/77/195
f 446/116/103 578/135/189 567/116/188
f 450/120/99 568/118/199 569/120/198
f 464/132/109 575/130/192 576/132/191
f 556/140/205 567/116/188 555/149/206
f 557/139/204 568/118/199 556/140/205
f 557/139/204 570/122/197 569/120/198
f 558/138/203 571/123/196 570/122/197
f 559/141/202 572/77/195 571/123/196
f 560/142/201 573/76/194 572/77/195
f 562/144/211 573/76/194 561/143/200
f 563/145/210 574/128/193 562/144/211
f 563/145/210 576/132/191 575/130/192
f 564/146/209 577/133/190 576/132/191
f 565/147/208 578/135/189 577/133/190
f 566/148/207 567/116/188 578/135/189
f 582/138/215 593/139/228 594/138/227
f 565/147/208 588/146/221 589/147/220
f 562/144/211 585/143/212 586/144/223
f 558/138/203 583/141/214 559/141/202
f 566/148/207 589/147/220 590/148/219
f 556/140/205 579/149/218 580/140/217
f 563/145/210 586/144/223 587/145/222
f 559/141/202 584/142/213 560/142/201
f 566/148/207 579/149/218 555/149/206
f 557/139/204 580/140/217 581/139/216
f 564/146/209 587/145/222 588/146/221
f 561/143/200 584/142/213 585/143/212
f 596/142/225 621/143/248 597/143/224
f 588/146/221 601/147/232 589/147/220
f 585/143/212 598/144/235 586/144/223
f 583/141/214 594/138/227 595/141/226
f 590/148/219 601/147/232 602/148/231
f 580/140/217 591/149/230 592/140/229
f 587/145/222 598/144/235 599/145/234
f 583/141/214 596/142/225 584/142/213
f 590/148/219 591/149/230 579/149/218
f 581/139/216 592/140/229 593/139/228
f 588/146/221 599/145/234 600/146/233
f 584/142/213 597/143/224 585/143/212
f 614/150/243 637/151/268 638/150/429
f 594/138/227 617/139/252 618/138/251
f 601/147/232 624/146/257 625/147/256
f 598/144/235 621/143/248 622/144/259
f 594/138/227 619/141/250 595/141/226
f 601/147/232 626/148/255 602/148/231
f 591/149/230 616/140/253 592/140/229
f 598/144/235 623/145/258 599/145/234
f 596/142/225 619/141/250 620/142/249
f 591/149/230 626/148/255 615/149/254
f 592/140/229 617/139/252 593/139/228
f 599/145/234 624/146/257 600/146/233
f 603/152/426 616/140/253 615/149/254
f 604/153/241 617/139/252 616/140/253
f 605/154/240 618/138/251 617/139/252
f 606/155/239 619/141/250 618/138/251
f 607/156/238 620/142/249 619/141/250
f 609/158/427 620/142/249 608/157/237
f 610/159/247 621/143/248 609/158/427
f 611/160/246 622/144/259 610/159/247
f 612/161/245 623/145/258 611/160/246
f 613/151/244 624/146/257 612/161/245
f 614/150/243 625/147/256 613/151/244
f 603/152/426 626/148/255 614/150/243
f 630/155/263 643/156/274 631/156/262
f 603/152/426 628/153/265 604/153/241
f 610/159/247 635/160/270 611/160/246
f 607/156/238 632/157/261 608/157/237
f 603/152/426 638/150/429 627/152/266
f 605/154/240 628/153/265 629/154/264
f 612/161/245 635/160/270 636/161/269
f 609/158/427 632/157/261 633/158/260
f 605/154/240 630/155/263 606/155/239
f 613/151/244 636/161/269 637/151/268
f 610/159/247 633/158/260 634/159/428
f 607/156/238 630/155/263 631/156/262
f 642/155/275 655/156/286 643/156/274
f 638/150/429 649/151/280 650/150/279
f 627/152/266 640/153/277 628/153/265
f 634/159/428 647/160/282 635/160/270
f 631/156/262 644/157/273 632/157/261
f 627/152/266 650/150/279 639/152/278
f 629/154/264 640/153/277 641/154/276
f 635/160/270 648/161/281 636/161/269
f 632/157/261 645/158/272 633/158/260
f 630/155/263 641/154/276 642/155/275
f 637/151/268 648/161/281 649/151/280
f 634/159/428 645/158/272 646/159/283
f 657/158/284 670/159/307 658/159/295
f 649/151/280 662/150/291 650/150/279
f 640/153/277 651/152/290 652/153/289
f 646/159/283 659/160/294 647/160/282
f 643/156/274 656/157/285 644/157/273
f 650/150/279 651/152/290 639/152/278
f 640/153/277 653/154/288 641/154/276
f 647/160/282 660/161/293 648/161/281
f 644/157/273 657/158/284 645/158/272
f 642/155/275 653/154/288 654/155/287
f 649/151/280 660/161/293 661/151/292
f 646/159/283 657/158/284 658/159/295
f 674/150/303 664/153/301 663/152/302
f 664/153/301 674/150/303 665/154/430
f 665/154/430 674/150/303 666/155/299
f 666/155/299 670/159/307 667/156/431
f 667/156/431 670/159/307 668/157/297
f 668/157/297 670/159/307 669/158/296
f 670/159/307 672/161/305 671/160/432
f 672/161/305 670/159/307 673/151/433
f 673/151/433 670/159/307 674/150/303
f 654/155/287 667/156/431 655/156/286
f 661/151/292 674/150/303 662/150/291
f 652/153/289 663/152/302 664/153/301
f 658/159/295 671/160/432 659/160/294
f 655/156/286 668/157/297 656/157/285
f 662/150/291 663/152/302 651/152/290
f 652/153/289 665/154/430 653/154/288
f 659/160/294 672/161/305 660/161/293
f 657/158/284 668/157/297 669/158/296
f 653/154/288 666/155/299 654/155/287
f 661/151/292 672/161/305 673/151/433
f 683/162/442 678/16/437 684/169/443
f 677/2/436 682/32/441 678/16/437
f 686/23/445 679/163/438 680/164/439
f 680/164/439 675/165/434 676/172/435
f 683/30/442 679/163/438 685/19/444
f 684/33/443 680/164/439 676/179/435
f 682/32/441 684/33/443 678/6/437
f 681/9/440 683/30/442 685/19/444
f 681/9/440 686/23/445 682/32/441
f 676/167/435 683/162/442 684/169/443
f 695/162/454 690/16/449 696/169/455
f 689/2/448 694/32/453 690/16/449
f 698/23/457 691/163/450 692/164/451
f 692/164/451 687/165/446 688/172/447
f 695/30/454 691/163/450 697/19/456
f 696/33/455 692/164/451 688/179/447
f 694/32/453 696/33/455 690/6/449
f 693/9/452 695/30/454 697/19/456
f 693/9/452 698/23/457 694/32/453
f 688/167/447 695/162/454 696/169/455
f 708/169/467 701/2/460 702/16/461
f 711/170/470 706/32/465 712/180/471
f 710/23/469 703/163/462 704/164/463
f 713/171/472 700/172/459 714/181/473
f 716/173/475 703/163/462 709/19/468
f 708/33/467 714/175/473 700/179/459
f 712/177/471 708/33/467 702/6/461
f 705/9/464 716/173/475 709/19/468
f 705/9/464 710/23/469 706/32/465
f 699/168/458 708/169/467 700/167/459
f 701/31/460 716/173/475 711/178/470
f 712/177/471 710/23/469 715/176/474
f 710/23/469 714/175/473 715/176/474
f 716/173/475 699/166/458 713/174/472
f 704/164/463 713/171/472 714/181/473
f 702/16/461 711/170/470 712/180/471
f 378/162/354 721/16/477 379/169/355
f 720/2/476 723/32/479 721/16/477
f 723/32/479 379/33/355 721/6/477
f 722/9/478 378/30/354 380/19/356
f 722/9/478 381/23/357 723/32/479
l 373 371
l 372 373
l 719 717
l 718 719
