# Blender 5.1.2
# www.blender.org
mtllib smooth-CG-Model.mtl
o Plane
v -9.530300 -0.491377 -0.761596
v -9.530300 0.491377 -0.761596
v 11.157622 -0.491377 -0.761596
v 11.157622 0.491377 -0.761596
v -9.530300 -0.738711 0.000000
v -9.530300 0.738711 0.000000
v 11.157622 -0.738711 0.000000
v 11.157622 0.738711 0.000000
v -9.530300 0.246237 -1.000000
v -9.530300 -0.246237 -1.000000
v 11.157622 0.246237 -1.000000
v 11.157622 -0.246237 -1.000000
v 12.609282 0.344511 -0.621489
v 11.927015 0.505866 -0.670911
v -9.530300 0.246237 0.000000
v -9.530300 -0.246237 0.000000
v 13.327595 -0.075889 -0.476755
v 13.327595 -0.197646 -0.398857
v 13.327595 -0.274398 0.000000
v 13.327595 0.197646 -0.398857
v 13.327595 0.274398 0.000000
v 13.327595 -0.091466 0.000000
v 13.327595 0.075889 -0.476755
v 13.327595 0.091466 0.000000
v 13.803816 -0.021082 -0.051713
v 13.803816 -0.061828 -0.036294
v 13.803816 -0.065451 0.000000
v 13.803816 0.061828 -0.036294
v 13.803816 0.065451 0.000000
v 13.803816 -0.021817 0.000000
v 13.803816 0.021082 -0.051713
v 13.803816 0.021817 0.000000
v 13.875731 0.008819 0.000000
v 0.160913 -0.491377 -0.761596
v 0.160913 0.491377 -0.761596
v 0.160913 0.738711 0.000000
v 0.160913 -0.738711 0.000000
v 0.160913 -0.246237 -1.000000
v 0.160913 0.246237 -1.000000
v -9.977055 0.000000 0.000000
v -9.977055 0.000000 -1.000000
v -9.977055 -0.246237 0.000000
v -9.977055 0.246237 0.000000
v -9.977055 -0.246237 -0.953018
v -9.977055 0.246237 -0.953018
v -9.977055 0.738711 0.000000
v -9.977055 -0.738711 0.000000
v -9.155571 0.093866 -1.234221
v -9.155571 -0.093866 -1.234221
v -0.177377 -0.093866 -1.234221
v -0.177377 0.093866 -1.234221
v -8.304668 0.093866 -6.151714
v -8.304668 -0.093866 -6.151714
v -5.169948 -0.093866 -6.151714
v -5.169948 0.093866 -6.151714
v -9.876535 0.000000 -1.000000
v 11.157622 0.000000 -1.000000
v -9.530300 0.000000 0.000000
v 13.327595 -0.000000 -0.476755
v 13.803816 -0.000000 -0.051713
v 6.892735 0.000000 -1.000000
v -9.977055 0.491377 -0.761596
v -9.977055 -0.491377 -0.761596
v -9.365295 0.000000 -1.234221
v 0.882724 0.000000 -1.966635
v -8.514393 0.000000 -6.151714
v -4.722203 0.000000 -6.151714
v -11.610521 0.222370 -0.352956
v -12.213844 0.295373 0.000000
v -12.191547 0.418729 0.000000
v -11.490205 0.049639 -0.339638
v -11.538972 0.318566 -0.351956
v -11.982010 0.541667 0.000000
v -11.992484 0.110729 0.000000
v -11.849524 0.454080 -0.228501
v -11.101708 -0.206907 -0.425624
v 12.968439 0.390476 0.000000
v 12.609282 0.506554 0.000000
v 11.927015 0.710554 0.000000
v 12.968439 -0.390476 0.000000
v 12.968439 0.118476 -0.607566
v 12.609282 -0.506554 0.000000
v 12.609282 0.161063 -0.738377
v 12.102657 -0.622633 0.000000
v 12.968439 -0.000000 -0.607566
v 12.102657 0.203650 -0.869189
v 12.609282 -0.000000 -0.738377
v 12.102657 -0.000000 -0.869189
v 12.968439 -0.271079 -0.489541
v 12.968439 -0.118476 -0.607566
v 12.609282 -0.344511 -0.580226
v 12.609282 -0.161063 -0.738377
v 12.102657 -0.203650 -0.869189
v 12.102657 -0.417944 -0.670911
v 12.968439 0.271079 -0.489541
v 12.565870 0.647469 0.000000
v 12.871503 0.531391 0.000000
v 12.565870 0.485426 -0.569563
v 12.871503 0.411994 -0.478878
v -8.760000 0.000000 -7.217230
v -4.240000 -0.000000 -7.300000
v -8.760000 -0.258615 -7.147934
v -4.240000 -0.300000 -7.219615
v -8.760000 -0.447934 -6.958615
v -4.240000 -0.519615 -7.000000
v -8.760000 -0.517230 -6.700000
v -4.240000 -0.600000 -6.700000
v -8.760000 -0.447934 -6.441385
v -4.240000 -0.519615 -6.400000
v -8.760000 -0.258615 -6.252066
v -4.240000 -0.300000 -6.180385
v -8.760000 0.000000 -6.182770
v -4.240000 -0.000000 -6.100000
v -8.760000 0.258615 -6.252066
v -4.240000 0.300000 -6.180385
v -8.760000 0.447934 -6.441385
v -4.240000 0.519615 -6.400000
v -8.760000 0.517230 -6.700000
v -4.240000 0.600000 -6.700000
v -8.760000 0.447934 -6.958615
v -4.240000 0.519615 -7.000000
v -8.760000 0.258615 -7.147934
v -4.240000 0.300000 -7.219615
v -3.490523 -0.212615 -7.068260
v -3.490523 -0.000000 -7.125229
v -3.490523 -0.368260 -6.912615
v -3.490523 -0.425230 -6.700000
v -3.490523 -0.368260 -6.487385
v -3.490523 -0.212615 -6.331740
v -3.490523 -0.000000 -6.274770
v -3.490523 0.212615 -6.331740
v -3.490523 0.368260 -6.487385
v -3.490523 0.425230 -6.700000
v -3.490523 0.368260 -6.912615
v -3.490523 0.212615 -7.068260
v -3.490523 -0.238552 -7.113183
v -3.490523 -0.000000 -7.177104
v -3.490523 -0.413184 -6.938551
v -3.490523 -0.477104 -6.700000
v -3.490523 -0.413184 -6.461448
v -3.490523 -0.238552 -6.286816
v -3.490523 -0.000000 -6.222897
v -3.490523 0.238552 -6.286816
v -3.490523 0.413184 -6.461448
v -3.490523 0.477103 -6.700000
v -3.490523 0.413184 -6.938551
v -3.490523 0.238552 -7.113183
v -4.226222 -0.229367 -7.097274
v -4.226222 -0.000000 -7.158733
v -4.226222 -0.397275 -6.929367
v -4.226222 -0.458733 -6.700000
v -4.226222 -0.397275 -6.470634
v -4.226222 -0.229367 -6.302725
v -4.226222 -0.000000 -6.241267
v -4.226222 0.229366 -6.302725
v -4.226222 0.397274 -6.470633
v -4.226222 0.458733 -6.700000
v -4.226222 0.397274 -6.929366
v -4.226222 0.229366 -7.097274
v -4.226222 -0.273370 -7.173491
v -4.226222 -0.000000 -7.246740
v -4.226222 -0.473491 -6.973370
v -4.226222 -0.546740 -6.700000
v -4.226222 -0.473491 -6.426630
v -4.226222 -0.273370 -6.226509
v -4.226222 -0.000000 -6.153260
v -4.226222 0.273370 -6.226509
v -4.226222 0.473491 -6.426630
v -4.226222 0.546740 -6.700000
v -4.226222 0.473491 -6.973370
v -4.226222 0.273370 -7.173491
v -3.901342 -0.213004 -7.068933
v -3.901342 -0.000000 -7.126007
v -3.901342 -0.368933 -6.913003
v -3.901342 -0.426007 -6.700000
v -3.901342 -0.368933 -6.486996
v -3.901342 -0.213004 -6.331067
v -3.901342 -0.000000 -6.273993
v -3.901342 0.213003 -6.331067
v -3.901342 0.368933 -6.486996
v -3.901342 0.426007 -6.700000
v -3.901342 0.368933 -6.913003
v -3.901342 0.213003 -7.068933
v -3.273282 -0.147781 -6.955963
v -3.273282 -0.000000 -6.995561
v -3.273282 -0.255964 -6.847780
v -3.273282 -0.295561 -6.700000
v -3.273282 -0.255964 -6.552219
v -3.273282 -0.147781 -6.444036
v -3.273282 -0.000000 -6.404438
v -3.273282 0.147780 -6.444036
v -3.273282 0.255963 -6.552219
v -3.273282 0.295561 -6.700000
v -3.273282 0.255963 -6.847780
v -3.273282 0.147780 -6.955963
v -2.521488 -0.000000 -6.700000
v -8.760000 0.000000 -7.300000
v -8.760000 -0.300000 -7.219615
v -8.760000 -0.519615 -7.000000
v -8.760000 -0.600000 -6.700000
v -8.760000 -0.519615 -6.400000
v -8.760000 -0.300000 -6.180385
v -8.760000 0.000000 -6.100000
v -8.760000 0.300000 -6.180385
v -8.760000 0.519615 -6.400000
v -8.760000 0.600000 -6.700000
v -8.760000 0.519615 -7.000000
v -8.760000 0.300000 -7.219615
v -8.326891 0.000000 -6.923534
v -8.326891 -0.111767 -6.893586
v -8.326891 -0.193586 -6.811767
v -8.326891 -0.223534 -6.700000
v -8.326891 -0.193586 -6.588233
v -8.326891 -0.111767 -6.506413
v -8.326891 0.000000 -6.476466
v -8.326891 0.111767 -6.506413
v -8.326891 0.193586 -6.588233
v -8.326891 0.223534 -6.700000
v -8.326891 0.193586 -6.811767
v -8.326891 0.111767 -6.893586
v -8.326891 0.000000 -7.217230
v -8.326891 -0.258615 -7.147934
v -8.326891 -0.447934 -6.958615
v -8.326891 -0.517230 -6.700000
v -8.326891 -0.447934 -6.441385
v -8.326891 -0.258615 -6.252066
v -8.326891 0.000000 -6.182770
v -8.326891 0.258615 -6.252066
v -8.326891 0.447934 -6.441385
v -8.326891 0.517230 -6.700000
v -8.326891 0.447934 -6.958615
v -8.326891 0.258615 -7.147934
v -8.588819 0.000000 -7.062640
v -8.588819 -0.181320 -7.014055
v -8.588819 -0.314055 -6.881320
v -8.588819 -0.362640 -6.700000
v -8.588819 -0.314055 -6.518680
v -8.588819 -0.181320 -6.385944
v -8.588819 0.000000 -6.337359
v -8.588819 0.181320 -6.385944
v -8.588819 0.314056 -6.518680
v -8.588819 0.362640 -6.700000
v -8.588819 0.314056 -6.881320
v -8.588819 0.181320 -7.014055
v -8.913871 0.000000 -7.163504
v -8.913871 -0.231752 -7.101406
v -8.913871 -0.401406 -6.931752
v -8.913871 -0.463504 -6.700000
v -8.913871 -0.401406 -6.468248
v -8.913871 -0.231752 -6.298594
v -8.913871 0.000000 -6.236495
v -8.913871 0.231752 -6.298594
v -8.913871 0.401406 -6.468248
v -8.913871 0.463504 -6.700000
v -8.913871 0.401406 -6.931752
v -8.913871 0.231752 -7.101406
v -9.337793 0.000000 -7.200966
v -9.337793 -0.250483 -7.133849
v -9.337793 -0.433850 -6.950483
v -9.337793 -0.500966 -6.700000
v -9.337793 -0.433850 -6.449516
v -9.337793 -0.250483 -6.266150
v -9.337793 0.000000 -6.199033
v -9.337793 0.250483 -6.266150
v -9.337793 0.433850 -6.449516
v -9.337793 0.500967 -6.700000
v -9.337793 0.433850 -6.950483
v -9.337793 0.250483 -7.133849
v -9.337793 0.000000 -7.234599
v -9.337793 -0.267300 -7.162976
v -9.337793 -0.462977 -6.967299
v -9.337793 -0.534599 -6.700000
v -9.337793 -0.462976 -6.432700
v -9.337793 -0.267300 -6.237023
v -9.337793 0.000000 -6.165401
v -9.337793 0.267300 -6.237023
v -9.337793 0.462977 -6.432700
v -9.337793 0.534599 -6.700000
v -9.337793 0.462977 -6.967299
v -9.337793 0.267300 -7.162976
v -8.915062 -0.000000 -7.133400
v -8.915062 -0.216700 -7.075336
v -8.915062 -0.375336 -6.916700
v -8.915062 -0.433401 -6.700000
v -8.915062 -0.375336 -6.483299
v -8.915062 -0.216700 -6.324664
v -8.915062 -0.000000 -6.266599
v -8.915062 0.216700 -6.324664
v -8.915062 0.375336 -6.483299
v -8.915062 0.433401 -6.700000
v -8.915062 0.375336 -6.916700
v -8.915062 0.216700 -7.075336
v -8.590295 -0.000000 -7.035210
v -8.590295 -0.167605 -6.990300
v -8.590295 -0.290301 -6.867605
v -8.590295 -0.335211 -6.700000
v -8.590295 -0.290301 -6.532394
v -8.590295 -0.167605 -6.409699
v -8.590295 -0.000000 -6.364789
v -8.590295 0.167605 -6.409699
v -8.590295 0.290300 -6.532394
v -8.590295 0.335210 -6.700000
v -8.590295 0.290300 -6.867605
v -8.590295 0.167605 -6.990300
v -8.326773 -0.000000 -6.898658
v -8.326773 -0.099330 -6.872043
v -8.326773 -0.172044 -6.799329
v -8.326773 -0.198659 -6.700000
v -8.326773 -0.172044 -6.600670
v -8.326773 -0.099330 -6.527956
v -8.326773 -0.000000 -6.501341
v -8.326773 0.099329 -6.527956
v -8.326773 0.172043 -6.600670
v -8.326773 0.198658 -6.700000
v -8.326773 0.172043 -6.799329
v -8.326773 0.099329 -6.872043
v -8.098018 -0.000000 -6.726828
v -8.098018 -0.013414 -6.723234
v -8.098018 -0.023234 -6.713414
v -8.098018 -0.026829 -6.700000
v -8.098018 -0.023234 -6.686586
v -8.098018 -0.013414 -6.676766
v -8.098018 -0.000000 -6.673172
v -8.098018 0.013414 -6.676766
v -8.098018 0.023234 -6.686586
v -8.098018 0.026828 -6.700000
v -8.098018 0.023234 -6.713414
v -8.098018 0.013414 -6.723234
v -8.285122 0.455987 -6.362306
v -7.936966 1.367143 -5.836250
v -8.285122 0.520445 -6.473951
v -7.936966 1.431601 -5.947895
v -6.285121 0.455987 -6.362306
v -7.719411 1.367143 -5.836250
v -6.285121 0.520445 -6.473951
v -7.719411 1.431601 -5.947895
v -8.399473 0.488216 -6.418128
v -7.987065 1.463232 -5.855202
v -6.030373 0.488216 -6.418128
v -7.602993 1.463232 -5.855202
v -8.285122 -0.520445 -6.473951
v -7.936966 -1.431601 -5.947894
v -8.285122 -0.455986 -6.362306
v -7.936966 -1.367143 -5.836250
v -6.285121 -0.520445 -6.473951
v -7.719411 -1.431601 -5.947894
v -6.285121 -0.455986 -6.362306
v -7.719411 -1.367143 -5.836250
v -8.399473 -0.488216 -6.418128
v -7.987065 -1.463232 -5.855202
v -6.030373 -0.488216 -6.418128
v -7.602993 -1.463232 -5.855202
v -11.524984 0.190057 -0.218267
v -11.167939 -0.180696 -0.950453
v -11.524984 0.050458 -0.157464
v -11.167939 -0.320295 -0.889650
v -9.265800 0.079549 -0.436505
v -11.386364 -0.632489 -1.842682
v -9.265800 -0.060050 -0.375702
v -11.386364 -0.772088 -1.781879
v -11.762841 0.120258 -0.187865
v -11.439615 -0.259330 -0.937499
v -8.956917 0.009750 -0.406103
v -11.325557 -0.766283 -1.938660
v -10.478303 0.043058 -0.172079
v -11.631338 -0.779499 -1.796515
v -10.478303 0.182657 -0.232882
v -11.631338 -0.639900 -1.857318
v -11.921218 -0.766543 -1.939175
v -10.393187 0.112857 -0.202480
v -11.524984 0.190057 -0.218267
v -11.524984 0.050458 -0.157464
v -11.762841 0.120258 -0.187865
v -11.646520 0.537021 0.064458
v -11.433998 1.545218 0.064458
v -11.646520 0.537021 -0.064458
v -11.433998 1.545218 -0.064458
v -7.108664 0.537021 0.064458
v -10.970195 1.545218 0.064458
v -7.108664 0.537021 -0.064458
v -10.970195 1.545218 -0.064458
v -11.760871 0.537021 0.000000
v -11.540804 1.744552 0.000000
v -6.688002 0.537021 0.000000
v -10.844810 1.744552 0.000000
v -9.530300 -0.491377 0.761596
v -9.530300 0.491377 0.761596
v 11.157622 -0.491377 0.761596
v 11.157622 0.491377 0.761596
v -9.530300 0.246237 1.000000
v -9.530300 -0.246237 1.000000
v 11.157622 0.246237 1.000000
v 11.157622 -0.246237 1.000000
v 12.609282 0.344511 0.621489
v 11.927015 0.505866 0.670911
v 13.327595 -0.075889 0.476755
v 13.327595 -0.197646 0.398857
v 13.327595 0.197646 0.398857
v 13.327595 0.075889 0.476755
v 13.803816 -0.021082 0.051713
v 13.803816 -0.061828 0.036294
v 13.803816 0.061828 0.036294
v 13.803816 0.021082 0.051713
v 0.160913 -0.491377 0.761596
v 0.160913 0.491377 0.761596
v 0.160913 -0.246237 1.000000
v 0.160913 0.246237 1.000000
v -9.977055 0.000000 1.000000
v -9.977055 -0.246237 0.953018
v -9.977055 0.246237 0.953018
v -9.155571 0.093866 1.234221
v -9.155571 -0.093866 1.234221
v -0.177377 -0.093866 1.234221
v -0.177377 0.093866 1.234221
v -8.304668 0.093866 6.151714
v -8.304668 -0.093866 6.151714
v -5.169948 -0.093866 6.151714
v -5.169948 0.093866 6.151714
v -9.876535 0.000000 1.000000
v 11.157622 0.000000 1.000000
v 13.327595 -0.000000 0.476755
v 13.803816 -0.000000 0.051713
v 6.892735 0.000000 1.000000
v -9.977055 0.491377 0.761596
v -9.977055 -0.491377 0.761596
v -9.365295 0.000000 1.234221
v 0.882724 0.000000 1.966635
v -8.514393 0.000000 6.151714
v -4.722203 0.000000 6.151714
v -11.610521 0.222370 0.352956
v -11.490205 0.049639 0.339638
v -11.538972 0.318566 0.351956
v -11.849524 0.454080 0.228501
v -11.101708 -0.206907 0.425624
v 12.968439 0.118476 0.607566
v 12.609282 0.161063 0.738377
v 12.968439 -0.000000 0.607566
v 12.102657 0.203650 0.869189
v 12.609282 -0.000000 0.738377
v 12.102657 -0.000000 0.869189
v 12.968439 -0.271079 0.489541
v 12.968439 -0.118476 0.607566
v 12.609282 -0.344511 0.580226
v 12.609282 -0.161063 0.738377
v 12.102657 -0.203650 0.869189
v 12.102657 -0.417944 0.670911
v 12.968439 0.271079 0.489541
v 12.565870 0.485426 0.569563
v 12.871503 0.411994 0.478878
v -8.760000 0.000000 7.217230
v -4.240000 -0.000000 7.300000
v -8.760000 -0.258615 7.147934
v -4.240000 -0.300000 7.219615
v -8.760000 -0.447934 6.958615
v -4.240000 -0.519615 7.000000
v -8.760000 -0.517230 6.700000
v -4.240000 -0.600000 6.700000
v -8.760000 -0.447934 6.441385
v -4.240000 -0.519615 6.400000
v -8.760000 -0.258615 6.252066
v -4.240000 -0.300000 6.180385
v -8.760000 0.000000 6.182770
v -4.240000 -0.000000 6.100000
v -8.760000 0.258615 6.252066
v -4.240000 0.300000 6.180385
v -8.760000 0.447934 6.441385
v -4.240000 0.519615 6.400000
v -8.760000 0.517230 6.700000
v -4.240000 0.600000 6.700000
v -8.760000 0.447934 6.958615
v -4.240000 0.519615 7.000000
v -8.760000 0.258615 7.147934
v -4.240000 0.300000 7.219615
v -3.490523 -0.212615 7.068260
v -3.490523 -0.000000 7.125229
v -3.490523 -0.368260 6.912615
v -3.490523 -0.425230 6.700000
v -3.490523 -0.368260 6.487385
v -3.490523 -0.212615 6.331740
v -3.490523 -0.000000 6.274770
v -3.490523 0.212615 6.331740
v -3.490523 0.368260 6.487385
v -3.490523 0.425230 6.700000
v -3.490523 0.368260 6.912615
v -3.490523 0.212615 7.068260
v -3.490523 -0.238552 7.113183
v -3.490523 -0.000000 7.177104
v -3.490523 -0.413184 6.938551
v -3.490523 -0.477104 6.700000
v -3.490523 -0.413184 6.461448
v -3.490523 -0.238552 6.286816
v -3.490523 -0.000000 6.222897
v -3.490523 0.238552 6.286816
v -3.490523 0.413184 6.461448
v -3.490523 0.477103 6.700000
v -3.490523 0.413184 6.938551
v -3.490523 0.238552 7.113183
v -4.226222 -0.229367 7.097274
v -4.226222 -0.000000 7.158733
v -4.226222 -0.397275 6.929367
v -4.226222 -0.458733 6.700000
v -4.226222 -0.397275 6.470634
v -4.226222 -0.229367 6.302725
v -4.226222 -0.000000 6.241267
v -4.226222 0.229366 6.302725
v -4.226222 0.397274 6.470633
v -4.226222 0.458733 6.700000
v -4.226222 0.397274 6.929366
v -4.226222 0.229366 7.097274
v -4.226222 -0.273370 7.173491
v -4.226222 -0.000000 7.246740
v -4.226222 -0.473491 6.973370
v -4.226222 -0.546740 6.700000
v -4.226222 -0.473491 6.426630
v -4.226222 -0.273370 6.226509
v -4.226222 -0.000000 6.153260
v -4.226222 0.273370 6.226509
v -4.226222 0.473491 6.426630
v -4.226222 0.546740 6.700000
v -4.226222 0.473491 6.973370
v -4.226222 0.273370 7.173491
v -3.901342 -0.213004 7.068933
v -3.901342 -0.000000 7.126007
v -3.901342 -0.368933 6.913003
v -3.901342 -0.426007 6.700000
v -3.901342 -0.368933 6.486996
v -3.901342 -0.213004 6.331067
v -3.901342 -0.000000 6.273993
v -3.901342 0.213003 6.331067
v -3.901342 0.368933 6.486996
v -3.901342 0.426007 6.700000
v -3.901342 0.368933 6.913003
v -3.901342 0.213003 7.068933
v -3.273282 -0.147781 6.955963
v -3.273282 -0.000000 6.995561
v -3.273282 -0.255964 6.847780
v -3.273282 -0.295561 6.700000
v -3.273282 -0.255964 6.552219
v -3.273282 -0.147781 6.444036
v -3.273282 -0.000000 6.404438
v -3.273282 0.147780 6.444036
v -3.273282 0.255963 6.552219
v -3.273282 0.295561 6.700000
v -3.273282 0.255963 6.847780
v -3.273282 0.147780 6.955963
v -2.521488 -0.000000 6.700000
v -8.760000 0.000000 7.300000
v -8.760000 -0.300000 7.219615
v -8.760000 -0.519615 7.000000
v -8.760000 -0.600000 6.700000
v -8.760000 -0.519615 6.400000
v -8.760000 -0.300000 6.180385
v -8.760000 0.000000 6.100000
v -8.760000 0.300000 6.180385
v -8.760000 0.519615 6.400000
v -8.760000 0.600000 6.700000
v -8.760000 0.519615 7.000000
v -8.760000 0.300000 7.219615
v -8.326891 0.000000 6.923534
v -8.326891 -0.111767 6.893586
v -8.326891 -0.193586 6.811767
v -8.326891 -0.223534 6.700000
v -8.326891 -0.193586 6.588233
v -8.326891 -0.111767 6.506413
v -8.326891 0.000000 6.476466
v -8.326891 0.111767 6.506413
v -8.326891 0.193586 6.588233
v -8.326891 0.223534 6.700000
v -8.326891 0.193586 6.811767
v -8.326891 0.111767 6.893586
v -8.326891 0.000000 7.217230
v -8.326891 -0.258615 7.147934
v -8.326891 -0.447934 6.958615
v -8.326891 -0.517230 6.700000
v -8.326891 -0.447934 6.441385
v -8.326891 -0.258615 6.252066
v -8.326891 0.000000 6.182770
v -8.326891 0.258615 6.252066
v -8.326891 0.447934 6.441385
v -8.326891 0.517230 6.700000
v -8.326891 0.447934 6.958615
v -8.326891 0.258615 7.147934
v -8.588819 0.000000 7.062640
v -8.588819 -0.181320 7.014055
v -8.588819 -0.314055 6.881320
v -8.588819 -0.362640 6.700000
v -8.588819 -0.314055 6.518680
v -8.588819 -0.181320 6.385944
v -8.588819 0.000000 6.337359
v -8.588819 0.181320 6.385944
v -8.588819 0.314056 6.518680
v -8.588819 0.362640 6.700000
v -8.588819 0.314056 6.881320
v -8.588819 0.181320 7.014055
v -8.913871 0.000000 7.163504
v -8.913871 -0.231752 7.101406
v -8.913871 -0.401406 6.931752
v -8.913871 -0.463504 6.700000
v -8.913871 -0.401406 6.468248
v -8.913871 -0.231752 6.298594
v -8.913871 0.000000 6.236495
v -8.913871 0.231752 6.298594
v -8.913871 0.401406 6.468248
v -8.913871 0.463504 6.700000
v -8.913871 0.401406 6.931752
v -8.913871 0.231752 7.101406
v -9.337793 0.000000 7.200966
v -9.337793 -0.250483 7.133849
v -9.337793 -0.433850 6.950483
v -9.337793 -0.500966 6.700000
v -9.337793 -0.433850 6.449516
v -9.337793 -0.250483 6.266150
v -9.337793 0.000000 6.199033
v -9.337793 0.250483 6.266150
v -9.337793 0.433850 6.449516
v -9.337793 0.500967 6.700000
v -9.337793 0.433850 6.950483
v -9.337793 0.250483 7.133849
v -9.337793 0.000000 7.234599
v -9.337793 -0.267300 7.162976
v -9.337793 -0.462977 6.967299
v -9.337793 -0.534599 6.700000
v -9.337793 -0.462976 6.432700
v -9.337793 -0.267300 6.237023
v -9.337793 0.000000 6.165401
v -9.337793 0.267300 6.237023
v -9.337793 0.462977 6.432700
v -9.337793 0.534599 6.700000
v -9.337793 0.462977 6.967299
v -9.337793 0.267300 7.162976
v -8.915062 -0.000000 7.133400
v -8.915062 -0.216700 7.075336
v -8.915062 -0.375336 6.916700
v -8.915062 -0.433401 6.700000
v -8.915062 -0.375336 6.483299
v -8.915062 -0.216700 6.324664
v -8.915062 -0.000000 6.266599
v -8.915062 0.216700 6.324664
v -8.915062 0.375336 6.483299
v -8.915062 0.433401 6.700000
v -8.915062 0.375336 6.916700
v -8.915062 0.216700 7.075336
v -8.590295 -0.000000 7.035210
v -8.590295 -0.167605 6.990300
v -8.590295 -0.290301 6.867605
v -8.590295 -0.335211 6.700000
v -8.590295 -0.290301 6.532394
v -8.590295 -0.167605 6.409699
v -8.590295 -0.000000 6.364789
v -8.590295 0.167605 6.409699
v -8.590295 0.290300 6.532394
v -8.590295 0.335210 6.700000
v -8.590295 0.290300 6.867605
v -8.590295 0.167605 6.990300
v -8.326773 -0.000000 6.898658
v -8.326773 -0.099330 6.872043
v -8.326773 -0.172044 6.799329
v -8.326773 -0.198659 6.700000
v -8.326773 -0.172044 6.600670
v -8.326773 -0.099330 6.527956
v -8.326773 -0.000000 6.501341
v -8.326773 0.099329 6.527956
v -8.326773 0.172043 6.600670
v -8.326773 0.198658 6.700000
v -8.326773 0.172043 6.799329
v -8.326773 0.099329 6.872043
v -8.098018 -0.000000 6.726828
v -8.098018 -0.013414 6.723234
v -8.098018 -0.023234 6.713414
v -8.098018 -0.026829 6.700000
v -8.098018 -0.023234 6.686586
v -8.098018 -0.013414 6.676766
v -8.098018 -0.000000 6.673172
v -8.098018 0.013414 6.676766
v -8.098018 0.023234 6.686586
v -8.098018 0.026828 6.700000
v -8.098018 0.023234 6.713414
v -8.098018 0.013414 6.723234
v -8.285122 0.455987 6.362306
v -7.936966 1.367143 5.836250
v -8.285122 0.520445 6.473951
v -7.936966 1.431601 5.947895
v -6.285121 0.455987 6.362306
v -7.719411 1.367143 5.836250
v -6.285121 0.520445 6.473951
v -7.719411 1.431601 5.947895
v -8.399473 0.488216 6.418128
v -7.987065 1.463232 5.855202
v -6.030373 0.488216 6.418128
v -7.602993 1.463232 5.855202
v -8.285122 -0.520445 6.473951
v -7.936966 -1.431601 5.947894
v -8.285122 -0.455986 6.362306
v -7.936966 -1.367143 5.836250
v -6.285121 -0.520445 6.473951
v -7.719411 -1.431601 5.947894
v -6.285121 -0.455986 6.362306
v -7.719411 -1.367143 5.836250
v -8.399473 -0.488216 6.418128
v -7.987065 -1.463232 5.855202
v -6.030373 -0.488216 6.418128
v -7.602993 -1.463232 5.855202
v -11.524984 0.190057 0.218267
v -11.167939 -0.180696 0.950453
v -11.524984 0.050458 0.157464
v -11.167939 -0.320295 0.889650
v -9.265800 0.079549 0.436505
v -11.386364 -0.632489 1.842682
v -9.265800 -0.060050 0.375702
v -11.386364 -0.772088 1.781879
v -11.762841 0.120258 0.187865
v -11.439615 -0.259330 0.937499
v -8.956917 0.009750 0.406103
v -11.325557 -0.766283 1.938660
v -10.478303 0.043058 0.172079
v -11.631338 -0.779499 1.796515
v -10.478303 0.182657 0.232882
v -11.631338 -0.639900 1.857318
v -11.921218 -0.766543 1.939175
v -10.393187 0.112857 0.202480
v -11.524984 0.190057 0.218267
v -11.524984 0.050458 0.157464
v -11.762841 0.120258 0.187865
v -11.646520 0.537021 -0.064458
v -11.433998 1.545218 -0.064458
v -11.646520 0.537021 0.064458
v -11.433998 1.545218 0.064458
v -7.108664 0.537021 -0.064458
v -10.970195 1.545218 -0.064458
v -7.108664 0.537021 0.064458
v -10.970195 1.545218 0.064458
vn -0.0119 -0.8434 -0.5371
vn -0.0119 0.8434 -0.5371
vn 0.0593 -0.8454 -0.5309
vn 0.0239 0.8444 -0.5352
vn -0.0000 -0.9671 -0.2542
vn -0.0000 0.9671 -0.2542
vn 0.0564 -0.9984 -0.0000
vn 0.0137 0.9999 -0.0000
vn -0.1397 0.6204 -0.7717
vn -0.1397 -0.6204 -0.7717
vn 0.0602 0.3669 -0.9283
vn 0.0708 -0.3742 -0.9246
vn 0.2916 0.4729 -0.8315
vn 0.1048 0.8172 -0.5667
vn -0.0000 -0.0000 -1.0000
vn 0.4991 -0.2442 -0.8314
vn 0.4354 -0.7304 -0.5262
vn 0.3445 -0.9203 0.1851
vn 0.4354 0.7304 -0.5262
vn 0.3445 0.9203 0.1851
vn -0.0000 -0.0000 1.0000
vn 0.4991 0.2442 -0.8314
vn 0.6389 -0.1549 -0.7535
vn 0.6310 -0.6580 -0.4109
vn 0.5149 -0.7516 0.4124
vn 0.6005 0.6733 -0.4313
vn 0.4627 0.7785 0.4241
vn 0.6276 0.1498 -0.7640
vn 0.8690 0.0551 0.4918
vn -0.0000 -0.8490 -0.5284
vn -0.0000 0.8490 -0.5284
vn -0.0000 1.0000 -0.0000
vn -0.0000 -1.0000 -0.0000
vn -0.0361 -0.8294 -0.5575
vn -0.0361 0.8294 -0.5575
vn -0.1897 -0.0083 -0.9818
vn -0.2227 -0.4047 -0.8869
vn -0.1859 0.4014 -0.8968
vn -0.0487 0.8875 -0.4583
vn -0.1525 -0.8883 -0.4333
vn -0.1545 0.9190 -0.3628
vn -0.1545 -0.9190 -0.3628
vn -0.0200 -0.9491 -0.3145
vn -0.0200 0.9491 -0.3145
vn -0.1379 0.7250 -0.6748
vn -0.1379 -0.7250 -0.6748
vn 0.0364 -0.7102 -0.7030
vn 0.0364 0.7102 -0.7030
vn -0.1305 -0.0000 -0.9915
vn 0.0687 -0.0000 -0.9976
vn 0.5133 -0.0000 -0.8582
vn 0.6257 -0.0000 -0.7801
vn 0.0019 -0.0000 -1.0000
vn -0.1021 0.8011 -0.5897
vn -0.1749 -0.8023 -0.5707
vn -0.5319 -0.0000 -0.8468
vn 0.1103 -0.0000 -0.9939
vn -0.7920 -0.0000 -0.6106
vn 0.5647 -0.0000 -0.8253
vn -0.1497 0.6591 -0.7370
vn 0.7235 0.1781 -0.6669
vn 0.1893 0.2852 -0.9396
vn 0.6050 0.7908 0.0925
vn -0.3289 0.2387 -0.9137
vn -0.3097 0.8237 -0.4750
vn 0.5265 0.5346 -0.6611
vn -0.4202 0.3702 -0.8285
vn -0.4264 -0.7294 -0.5350
vn 0.6082 0.7865 0.1074
vn 0.0624 0.9975 0.0321
vn 0.2963 -0.9551 -0.0000
vn 0.3662 0.2930 -0.8832
vn 0.2556 -0.9668 -0.0000
vn 0.3075 0.2663 -0.9135
vn 0.1652 -0.9863 -0.0000
vn 0.3422 -0.0000 -0.9396
vn 0.1977 0.3152 -0.9282
vn 0.2965 -0.0000 -0.9550
vn 0.1939 -0.0000 -0.9810
vn 0.3071 -0.7941 -0.5245
vn 0.3522 -0.3079 -0.8839
vn 0.2610 -0.8106 -0.5242
vn 0.3033 -0.3350 -0.8921
vn 0.1985 -0.3584 -0.9122
vn 0.1690 -0.8316 -0.5291
vn 0.4668 0.6676 -0.5799
vn 0.1936 0.8774 0.4389
vn 0.5442 0.7330 0.4082
vn 0.2271 0.7396 -0.6336
vn 0.5525 0.6583 -0.5112
vn -0.7703 -0.0000 0.6377
vn 0.0801 -0.0000 -0.9968
vn -0.7703 0.3189 0.5523
vn 0.0801 -0.4984 -0.8632
vn -0.7703 0.5523 0.3189
vn 0.0801 -0.8632 -0.4984
vn -0.7703 0.6377 -0.0000
vn 0.0801 -0.9968 -0.0000
vn -0.7703 0.5523 -0.3189
vn 0.0801 -0.8632 0.4984
vn -0.7703 0.3189 -0.5523
vn 0.0801 -0.4984 0.8632
vn -0.7703 -0.0000 -0.6377
vn 0.0801 -0.0000 0.9968
vn -0.7703 -0.3189 -0.5523
vn 0.0801 0.4984 0.8632
vn -0.7703 -0.5523 -0.3189
vn 0.0801 0.8632 0.4984
vn -0.7703 -0.6377 -0.0000
vn 0.0801 0.9968 -0.0000
vn -0.7703 -0.5523 0.3189
vn 0.0801 0.8632 -0.4984
vn -0.7703 -0.3189 0.5523
vn 0.0801 0.4984 -0.8632
vn 0.7161 0.3490 0.6045
vn 0.7161 -0.0000 0.6980
vn 0.7161 0.6045 0.3490
vn 0.7161 0.6980 -0.0000
vn 0.7161 0.6045 -0.3490
vn 0.7161 0.3490 -0.6045
vn 0.7161 -0.0000 -0.6980
vn 0.7161 -0.3490 -0.6045
vn 0.7161 -0.6045 -0.3490
vn 0.7161 -0.6980 -0.0000
vn 0.7161 -0.6045 0.3490
vn 0.7161 -0.3490 0.6045
vn 0.7123 -0.3510 -0.6079
vn 0.7123 -0.0000 -0.7019
vn 0.7123 -0.6079 -0.3510
vn 0.7123 -0.7019 -0.0000
vn 0.7123 -0.6079 0.3510
vn 0.7123 -0.3510 0.6079
vn 0.7123 -0.0000 0.7019
vn 0.7123 0.3510 0.6079
vn 0.7123 0.6079 0.3510
vn 0.7123 0.7019 -0.0000
vn 0.7123 0.6079 -0.3510
vn 0.7123 0.3510 -0.6079
vn 0.8003 -0.2998 -0.5193
vn 0.8003 -0.0000 -0.5996
vn 0.8003 -0.5193 -0.2998
vn 0.8003 -0.5996 -0.0000
vn 0.8003 -0.5193 0.2998
vn 0.8003 -0.2998 0.5193
vn 0.8003 -0.0000 0.5996
vn 0.8003 0.2998 0.5193
vn 0.8003 0.5193 0.2998
vn 0.8003 0.5996 -0.0000
vn 0.8003 0.5193 -0.2998
vn 0.8003 0.2998 -0.5193
vn 0.5910 0.4033 0.6986
vn 0.5910 -0.0000 0.8067
vn 0.5910 0.6986 0.4034
vn 0.5910 0.8067 -0.0000
vn 0.5910 0.6986 -0.4034
vn 0.5910 0.4033 -0.6986
vn 0.5910 -0.0000 -0.8067
vn 0.5909 -0.4034 -0.6986
vn 0.5910 -0.6986 -0.4033
vn 0.5910 -0.8067 -0.0000
vn 0.5910 -0.6986 0.4034
vn 0.5910 -0.4033 0.6986
vn 0.1507 -0.4943 -0.8561
vn 0.1507 -0.0000 -0.9886
vn 0.1507 -0.8561 -0.4943
vn 0.1507 -0.9886 -0.0000
vn 0.1507 -0.8561 0.4943
vn 0.1507 -0.4943 0.8561
vn 0.1507 -0.0000 0.9886
vn 0.1507 0.4943 0.8561
vn 0.1507 0.8561 0.4943
vn 0.1507 0.9886 -0.0000
vn 0.1507 0.8561 -0.4943
vn 0.1507 0.4943 -0.8561
vn 0.2819 -0.4797 -0.8309
vn 0.2819 -0.0000 -0.9594
vn 0.2819 -0.8309 -0.4797
vn 0.2819 -0.9594 -0.0000
vn 0.2819 -0.8309 0.4797
vn 0.2819 -0.4797 0.8309
vn 0.2819 -0.0000 0.9594
vn 0.2819 0.4797 0.8309
vn 0.2819 0.8309 0.4797
vn 0.2819 0.9594 -0.0000
vn 0.2819 0.8309 -0.4797
vn 0.2819 0.4797 -0.8309
vn 1.0000 -0.0000 -0.0000
vn -0.6532 -0.0000 -0.7572
vn -0.6532 -0.3786 -0.6557
vn -0.6532 -0.6557 -0.3786
vn -0.6532 -0.7572 -0.0000
vn -0.6532 -0.6557 0.3786
vn -0.6532 -0.3786 0.6557
vn -0.6532 -0.0000 0.7572
vn -0.6532 0.3786 0.6557
vn -0.6532 0.6557 0.3786
vn -0.6532 0.7572 -0.0000
vn -0.6532 0.6557 -0.3786
vn -0.6532 0.3786 -0.6557
vn -0.5890 -0.0000 -0.8081
vn -0.5890 -0.4041 -0.6999
vn -0.5890 -0.6999 -0.4041
vn -0.5890 -0.8081 -0.0000
vn -0.5890 -0.6999 0.4041
vn -0.5890 -0.4041 0.6999
vn -0.5890 -0.0000 0.8081
vn -0.5890 0.4041 0.6999
vn -0.5890 0.6999 0.4041
vn -0.5890 0.8081 -0.0000
vn -0.5890 0.6999 -0.4041
vn -0.5890 0.4041 -0.6999
vn 0.3790 -0.0000 -0.9254
vn 0.3790 -0.4627 -0.8014
vn 0.3790 -0.8014 -0.4627
vn 0.3790 -0.9254 -0.0000
vn 0.3790 -0.8014 0.4627
vn 0.3790 -0.4627 0.8014
vn 0.3790 -0.0000 0.9254
vn 0.3790 0.4627 0.8014
vn 0.3790 0.8014 0.4627
vn 0.3790 0.9254 -0.0000
vn 0.3790 0.8014 -0.4627
vn 0.3790 0.4627 -0.8014
vn 0.2289 -0.0000 -0.9734
vn 0.2289 -0.4867 -0.8430
vn 0.2289 -0.8430 -0.4867
vn 0.2289 -0.9734 -0.0000
vn 0.2289 -0.8430 0.4867
vn 0.2289 -0.4867 0.8430
vn 0.2289 -0.0000 0.9734
vn 0.2289 0.4867 0.8430
vn 0.2289 0.8430 0.4867
vn 0.2289 0.9734 -0.0000
vn 0.2289 0.8430 -0.4867
vn 0.2289 0.4867 -0.8430
vn -0.8166 -0.0000 0.5772
vn -0.8166 0.2886 0.4999
vn -0.8166 0.4999 0.2886
vn -0.8166 0.5773 -0.0000
vn -0.8166 0.4999 -0.2886
vn -0.8166 0.2886 -0.4999
vn -0.8166 -0.0000 -0.5773
vn -0.8166 -0.2886 -0.4999
vn -0.8166 -0.4999 -0.2886
vn -0.8166 -0.5772 -0.0000
vn -0.8166 -0.4999 0.2886
vn -0.8166 -0.2886 0.4999
vn -0.5900 -0.0000 -0.8074
vn -0.5900 -0.4037 -0.6992
vn -0.5900 -0.6992 -0.4037
vn -0.5900 -0.8074 -0.0000
vn -0.5900 -0.6992 0.4037
vn -0.5900 -0.4037 0.6992
vn -0.5900 -0.0000 0.8074
vn -0.5900 0.4037 0.6992
vn -0.5900 0.6992 0.4037
vn -0.5900 0.8074 -0.0000
vn -0.5900 0.6992 -0.4037
vn -0.5900 0.4037 -0.6992
vn -0.2217 -0.0000 0.9751
vn -0.2217 0.4876 0.8445
vn -0.2217 0.8445 0.4876
vn -0.2217 0.9751 -0.0000
vn -0.2217 0.8445 -0.4876
vn -0.2217 0.4876 -0.8445
vn -0.2217 -0.0000 -0.9751
vn -0.2217 -0.4876 -0.8445
vn -0.2217 -0.8445 -0.4876
vn -0.2217 -0.9751 -0.0000
vn -0.2217 -0.8445 0.4876
vn -0.2217 -0.4875 0.8445
vn -0.3711 -0.0000 0.9286
vn -0.3711 0.4643 0.8042
vn -0.3711 0.8042 0.4643
vn -0.3711 0.9286 -0.0000
vn -0.3711 0.8042 -0.4643
vn -0.3711 0.4643 -0.8042
vn -0.3711 -0.0000 -0.9286
vn -0.3711 -0.4643 -0.8042
vn -0.3711 -0.8042 -0.4643
vn -0.3711 -0.9286 -0.0000
vn -0.3711 -0.8042 0.4643
vn -0.3711 -0.4643 0.8042
vn -0.5261 -0.0000 0.8504
vn -0.5261 0.4252 0.7365
vn -0.5261 0.7365 0.4252
vn -0.5261 0.8504 -0.0000
vn -0.5261 0.7365 -0.4252
vn -0.5261 0.4252 -0.7365
vn -0.5261 -0.0000 -0.8504
vn -0.5261 -0.4252 -0.7365
vn -0.5261 -0.7365 -0.4252
vn -0.5261 -0.8504 -0.0000
vn -0.5261 -0.7365 0.4252
vn -0.5261 -0.4252 0.7365
vn -0.8646 -0.0000 0.5025
vn -0.8646 0.2512 0.4351
vn -0.8646 0.4351 0.2513
vn -0.8646 0.5025 -0.0000
vn -0.8646 0.4351 -0.2513
vn -0.8646 0.2512 -0.4351
vn -0.8646 -0.0000 -0.5025
vn -0.8646 -0.2512 -0.4352
vn -0.8646 -0.4351 -0.2513
vn -0.8646 -0.5025 -0.0000
vn -0.8646 -0.4351 0.2513
vn -0.8646 -0.2512 0.4352
vn -0.2368 -0.9094 0.3420
vn -0.2354 -0.1697 0.9570
vn -0.2368 -0.1585 -0.9585
vn -0.2354 0.7439 -0.6254
vn 0.1591 -0.9008 0.4041
vn 0.0562 -0.1622 0.9852
vn 0.1591 -0.1004 -0.9821
vn 0.0562 0.7721 -0.6331
vn -0.8995 -0.3783 -0.2184
vn -0.5705 0.7113 0.4106
vn 0.9778 -0.1813 -0.1047
vn 0.4025 0.7928 0.4577
vn -0.2368 0.1585 -0.9585
vn -0.2354 -0.7439 -0.6254
vn -0.2368 0.9094 0.3420
vn -0.2354 0.1697 0.9570
vn 0.1591 0.1004 -0.9821
vn 0.0562 -0.7721 -0.6331
vn 0.1591 0.9008 0.4041
vn 0.0562 0.1622 0.9852
vn -0.8995 0.3783 -0.2184
vn -0.5705 -0.7113 0.4106
vn 0.9778 0.1813 -0.1047
vn 0.4025 -0.7928 0.4577
vn -0.1412 0.9480 0.2854
vn -0.1000 0.8873 -0.4503
vn -0.1362 -0.3867 0.9121
vn -0.1001 -0.8878 0.4492
vn 0.1920 0.9755 -0.1078
vn 0.0877 0.7509 -0.6546
vn 0.1877 -0.6976 0.6914
vn 0.0906 -0.9744 0.2059
vn -0.9095 0.1867 0.3714
vn -0.9991 0.0189 0.0382
vn 0.9871 0.0721 0.1429
vn 0.3406 -0.4164 -0.8429
vn 0.0378 -0.3435 0.9384
vn -0.1190 -0.9562 0.2673
vn 0.0399 0.9419 0.3335
vn -0.1214 0.7913 -0.5993
vn -0.8620 -0.2280 -0.4527
vn 0.1443 0.3974 0.9062
vn -0.2207 -0.6316 0.7432
vn -0.1643 0.1344 0.9772
vn -0.2207 -0.6316 -0.7432
vn -0.1643 0.1344 -0.9772
vn 0.1164 -0.5181 0.8474
vn 0.0143 0.1596 0.9871
vn 0.1164 -0.5181 -0.8474
vn 0.0143 0.1596 -0.9871
vn -0.8772 -0.4801 -0.0000
vn -0.6006 0.7995 -0.0000
vn 0.9955 -0.0943 -0.0000
vn 0.1580 0.9874 -0.0000
vn -0.0119 -0.8434 0.5371
vn -0.0119 0.8434 0.5371
vn 0.0593 -0.8454 0.5309
vn 0.0239 0.8444 0.5352
vn -0.1397 0.6204 0.7717
vn -0.1397 -0.6204 0.7717
vn 0.0602 0.3669 0.9283
vn 0.0708 -0.3742 0.9246
vn 0.2916 0.4729 0.8315
vn 0.1048 0.8172 0.5667
vn 0.4991 -0.2442 0.8314
vn 0.4354 -0.7304 0.5262
vn 0.4354 0.7304 0.5262
vn 0.4991 0.2442 0.8314
vn 0.6389 -0.1549 0.7535
vn 0.6310 -0.6580 0.4109
vn 0.6005 0.6733 0.4313
vn 0.6276 0.1498 0.7640
vn -0.0000 -0.8490 0.5284
vn -0.0000 0.8490 0.5284
vn -0.0361 -0.8294 0.5575
vn -0.0361 0.8294 0.5575
vn -0.1897 -0.0083 0.9818
vn -0.2227 -0.4047 0.8869
vn -0.1859 0.4014 0.8968
vn -0.1545 0.9190 0.3628
vn -0.1545 -0.9190 0.3628
vn -0.0200 -0.9491 0.3145
vn -0.0200 0.9491 0.3145
vn -0.1379 0.7250 0.6748
vn -0.1379 -0.7250 0.6748
vn 0.0364 -0.7102 0.7030
vn 0.0364 0.7102 0.7030
vn -0.1305 -0.0000 0.9915
vn 0.0687 -0.0000 0.9976
vn 0.5133 -0.0000 0.8582
vn 0.6257 -0.0000 0.7801
vn 0.0019 -0.0000 1.0000
vn -0.1021 0.8011 0.5897
vn -0.1749 -0.8023 0.5707
vn -0.5319 -0.0000 0.8468
vn 0.1103 -0.0000 0.9939
vn -0.7920 -0.0000 0.6106
vn 0.5647 -0.0000 0.8253
vn -0.1497 0.6591 0.7370
vn 0.6050 0.7908 -0.0925
vn -0.3289 0.2387 0.9137
vn -0.4202 0.3702 0.8285
vn -0.4264 -0.7294 0.5350
vn 0.3662 0.2930 0.8832
vn 0.3075 0.2663 0.9135
vn 0.3422 -0.0000 0.9396
vn 0.1977 0.3152 0.9282
vn 0.2965 -0.0000 0.9550
vn 0.1939 -0.0000 0.9810
vn 0.3071 -0.7941 0.5245
vn 0.3522 -0.3079 0.8839
vn 0.2610 -0.8106 0.5242
vn 0.3033 -0.3350 0.8921
vn 0.1985 -0.3584 0.9122
vn 0.1690 -0.8316 0.5291
vn 0.4668 0.6676 0.5799
vn 0.2271 0.7396 0.6336
vn 0.5525 0.6583 0.5112
vn 0.5910 -0.4034 0.6986
vn 0.5910 -0.6986 0.4033
vn 0.5909 -0.6986 -0.4034
vn 0.5910 -0.4033 -0.6986
vn -0.8166 -0.0000 -0.5772
vn -0.8166 -0.0000 0.5773
vn -0.2217 -0.4876 0.8445
vn -0.2217 -0.4875 -0.8445
vn -0.8646 0.2512 -0.4352
vn -0.8646 0.2512 0.4352
vn -0.2368 -0.9094 -0.3420
vn -0.2354 -0.1697 -0.9570
vn -0.2368 -0.1585 0.9585
vn -0.2354 0.7439 0.6254
vn 0.1591 -0.9008 -0.4041
vn 0.0562 -0.1622 -0.9852
vn 0.1591 -0.1004 0.9821
vn 0.0562 0.7721 0.6331
vn -0.8995 -0.3783 0.2184
vn -0.5705 0.7113 -0.4106
vn 0.9778 -0.1813 0.1047
vn 0.4025 0.7928 -0.4577
vn -0.2368 0.1585 0.9585
vn -0.2354 -0.7439 0.6254
vn -0.2368 0.9094 -0.3420
vn -0.2354 0.1697 -0.9570
vn 0.1591 0.1004 0.9821
vn 0.0562 -0.7721 0.6331
vn 0.1591 0.9008 -0.4041
vn 0.0562 0.1622 -0.9852
vn -0.8995 0.3783 0.2184
vn -0.5705 -0.7113 -0.4106
vn 0.9778 0.1813 0.1047
vn 0.4025 -0.7928 -0.4577
vn -0.1412 0.9480 -0.2854
vn -0.1000 0.8873 0.4503
vn -0.1362 -0.3867 -0.9121
vn -0.1001 -0.8878 -0.4492
vn 0.1920 0.9755 0.1078
vn 0.0877 0.7509 0.6546
vn 0.1877 -0.6976 -0.6914
vn 0.0906 -0.9744 -0.2059
vn -0.9095 0.1867 -0.3714
vn -0.9991 0.0189 -0.0382
vn 0.9871 0.0721 -0.1429
vn 0.3406 -0.4164 0.8429
vn 0.0378 -0.3435 -0.9384
vn -0.1190 -0.9562 -0.2673
vn 0.0399 0.9419 -0.3335
vn -0.1214 0.7913 0.5993
vn -0.8620 -0.2280 0.4527
vn 0.1443 0.3974 -0.9062
vt 0.458333 0.250000
vt 0.375000 0.250000
vt 0.625000 0.371341
vt 0.541667 0.500000
vt 0.541667 0.371341
vt 0.875000 0.500000
vt 0.753659 0.625000
vt 0.753659 0.500000
vt 0.375000 0.500000
vt 0.246341 0.625000
vt 0.246341 0.500000
vt 0.458333 0.371341
vt 0.375000 0.371341
vt 0.500000 0.371341
vt 0.500000 0.500000
vt 0.625000 0.250000
vt 0.541667 0.250000
vt 0.000000 0.000000
vt 0.375000 0.625000
vt 0.375000 0.612701
vt 0.359581 0.580910
vt 0.625000 0.612702
vt 0.625000 0.625000
vt 0.625000 0.562868
vt 0.640419 0.580910
vt 0.541667 0.562868
vt 0.375000 0.562868
vt 0.500000 0.562868
vt 0.500000 0.580910
vt 0.125000 0.625000
vt 0.125000 0.500000
vt 0.625000 0.500000
vt 0.875000 0.625000
vt 0.500000 0.250000
vt 0.458333 0.562868
vt 0.458333 0.500000
vt 0.500000 0.547151
vt 0.458333 0.547151
vt 0.375000 0.515717
vt 0.458333 0.531434
vt 0.375000 0.531434
vt 0.500000 0.515717
vt 0.458333 0.515717
vt 0.375000 0.547151
vt 0.625000 0.531434
vt 0.541667 0.515717
vt 0.625000 0.515717
vt 0.541667 0.531434
vt 0.500000 0.531434
vt 0.541667 0.547151
vt 0.625000 0.547151
vt 1.000000 1.000000
vt 0.916667 0.500000
vt 1.000000 0.500000
vt 0.916667 1.000000
vt 0.833333 0.500000
vt 0.833333 1.000000
vt 0.750000 0.500000
vt 0.750000 1.000000
vt 0.666667 0.500000
vt 0.666667 1.000000
vt 0.583333 0.500000
vt 0.583333 1.000000
vt 0.500000 0.500000
vt 0.500000 1.000000
vt 0.416667 0.500000
vt 0.333333 1.000000
vt 0.333333 0.500000
vt 0.250000 0.500000
vt 0.250000 1.000000
vt 0.166667 0.500000
vt 0.166667 1.000000
vt 0.083333 0.500000
vt 0.083333 1.000000
vt 0.000000 0.500000
vt 0.750000 0.043108
vt 0.853446 0.070826
vt 0.064752 0.356953
vt 0.036094 0.250000
vt 0.416667 1.000000
vt 0.000000 1.000000
vt 0.356953 0.435248
vt 0.250000 0.490000
vt 0.250000 0.463906
vt 0.435248 0.356953
vt 0.370000 0.457846
vt 0.463906 0.250000
vt 0.457846 0.370000
vt 0.457846 0.130000
vt 0.490000 0.250000
vt 0.435248 0.143047
vt 0.370000 0.042154
vt 0.250000 0.036094
vt 0.356953 0.064752
vt 0.130000 0.042154
vt 0.250000 0.010000
vt 0.064752 0.143047
vt 0.143047 0.064752
vt 0.042154 0.130000
vt 0.042154 0.370000
vt 0.010000 0.250000
vt 0.130000 0.457846
vt 0.143047 0.435248
vt 0.405429 0.339737
vt 0.339737 0.405429
vt 0.250000 0.429474
vt 0.429474 0.250000
vt 0.405429 0.160263
vt 0.339737 0.094571
vt 0.250000 0.070526
vt 0.094571 0.160263
vt 0.160263 0.094571
vt 0.070526 0.250000
vt 0.094571 0.339737
vt 0.160263 0.405429
vt 0.750000 0.456892
vt 0.870000 0.457846
vt 0.853446 0.429174
vt 0.957846 0.370000
vt 0.929174 0.353446
vt 0.990000 0.250000
vt 0.956892 0.250000
vt 0.929174 0.146554
vt 0.957846 0.130000
vt 0.870000 0.042154
vt 0.750000 0.010000
vt 0.630000 0.042154
vt 0.646554 0.070826
vt 0.542154 0.130000
vt 0.570826 0.146554
vt 0.510000 0.250000
vt 0.543108 0.250000
vt 0.570826 0.353446
vt 0.542154 0.370000
vt 0.646554 0.429174
vt 0.630000 0.457846
vt 0.750000 0.490000
vt 0.839414 0.250000
vt 0.827435 0.294707
vt 0.794707 0.327435
vt 0.827435 0.205293
vt 0.794707 0.172566
vt 0.750000 0.160586
vt 0.705293 0.172566
vt 0.672566 0.205293
vt 0.660586 0.250000
vt 0.672565 0.294707
vt 0.705293 0.327435
vt 0.750000 0.339414
vt 0.708106 0.322563
vt 0.677437 0.291894
vt 0.750000 0.333789
vt 0.791894 0.322563
vt 0.822563 0.291894
vt 0.833788 0.250000
vt 0.822563 0.208106
vt 0.791894 0.177437
vt 0.750000 0.166212
vt 0.708106 0.177437
vt 0.677437 0.208106
vt 0.666212 0.250000
vt 0.375000 0.125000
vt 0.375000 0.750000
vt 0.625000 0.750000
vt 0.375000 1.000000
vt 0.125000 0.750000
vt 0.625000 0.000000
vt 0.375000 0.000000
vt 0.625000 0.125000
vt 0.375000 0.375000
vt 0.375000 0.875000
vt 0.625000 1.000000
vt 0.250000 0.625000
vt 0.250000 0.750000
vt 0.750000 0.750000
vt 0.750000 0.625000
vt 0.750000 0.500000
vt 0.250000 0.500000
vt 0.625000 0.375000
vt 0.625000 0.875000
vt 0.875000 0.750000
s 1
f 44/1/37 76/2/68 71/1/63
f 35/3/31 11/4/11 39/5/35
f 2/6/2 36/7/32 35/8/31
f 3/9/3 37/10/33 34/11/30
f 38/12/34 3/9/3 34/13/30
f 61/14/53 11/4/11 57/15/50
f 2/16/2 45/17/38 62/16/54
f 62/16/54 72/17/64 75/16/67
f 24/18/21 29/18/27 21/18/20
f 19/19/18 26/20/24 27/19/25
f 22/18/21 27/18/25 30/18/21
f 32/18/21 30/18/21 33/18/29
f 26/20/24 25/21/23 33/20/29
f 28/22/26 29/23/27 33/22/29
f 20/24/19 31/25/28 23/26/22
f 21/23/20 28/22/26 20/24/19
f 18/27/17 25/21/23 26/20/24
f 22/18/21 32/18/21 24/18/21
f 59/28/51 31/25/28 60/29/52
f 60/29/52 33/21/29 25/21/23
f 30/18/21 27/18/25 33/18/29
f 27/19/25 26/20/24 33/19/29
f 29/18/27 32/18/21 33/18/29
f 31/25/28 28/22/26 33/25/29
f 39/5/35 48/17/41 9/17/9
f 10/1/10 34/13/30 1/2/1
f 34/11/30 5/30/5 1/31/1
f 35/8/31 8/23/8 4/32/4
f 2/16/2 39/5/35 9/17/9
f 46/33/39 75/6/67 73/33/65
f 56/34/49 45/17/38 9/17/9
f 15/18/15 46/18/39 6/18/6
f 43/18/15 40/18/15 70/18/62
f 2/6/2 46/33/39 6/33/6
f 5/18/5 42/18/15 16/18/15
f 16/18/15 40/18/15 58/18/15
f 5/30/5 63/31/55 1/31/1
f 48/17/41 55/5/48 52/17/45
f 38/12/34 65/14/57 61/14/53
f 9/17/9 64/34/56 56/34/49
f 38/12/34 49/1/42 50/12/43
f 66/34/58 55/5/48 67/14/59
f 48/17/41 66/34/58 64/34/56
f 50/12/43 67/14/59 65/14/57
f 49/1/42 54/12/47 50/12/43
f 51/5/44 67/14/59 55/5/48
f 49/1/42 66/34/58 53/1/46
f 66/34/58 54/12/47 53/1/46
f 10/1/10 64/34/56 49/1/42
f 39/5/35 65/14/57 51/5/44
f 1/2/1 44/1/37 10/1/10
f 58/18/15 43/18/15 15/18/15
f 56/34/49 44/1/37 41/34/36
f 59/28/51 25/21/23 17/35/16
f 61/14/53 12/36/12 38/12/34
f 41/34/36 71/1/63 68/34/60
f 40/18/15 69/18/61 70/18/62
f 43/18/15 73/18/65 46/18/39
f 47/30/40 76/31/68 63/31/55
f 41/34/36 72/17/64 45/17/38
f 42/18/15 74/18/66 69/18/61
f 70/18/62 75/6/67 72/17/64
f 69/18/61 68/34/60 70/18/62
f 74/30/66 71/1/63 69/18/61
f 85/37/76 17/35/16 90/38/81
f 94/39/85 92/40/83 91/41/82
f 88/42/79 92/40/83 93/43/84
f 18/27/17 80/19/71 89/44/80
f 13/45/13 86/46/77 14/47/14
f 88/42/79 83/48/74 87/49/78
f 81/50/72 13/45/13 95/51/86
f 87/49/78 81/50/72 85/37/76
f 57/15/50 86/46/77 88/42/79
f 89/44/80 17/35/16 18/27/17
f 91/41/82 90/38/81 89/44/80
f 87/49/78 90/38/81 92/40/83
f 8/23/8 14/47/14 4/32/4
f 94/39/85 7/19/7 3/9/3
f 78/18/21 96/18/87 79/18/70
f 91/41/82 84/19/75 94/39/85
f 23/26/22 95/51/86 20/24/19
f 85/37/76 23/26/22 59/28/51
f 77/23/69 20/24/19 95/51/86
f 3/9/3 93/43/84 94/39/85
f 14/47/14 11/4/11 4/32/4
f 57/15/50 93/43/84 12/36/12
f 13/45/13 14/47/14 98/45/89
f 89/44/80 82/19/73 91/41/82
f 79/18/70 98/45/89 14/47/14
f 96/23/87 99/51/90 98/45/89
f 78/18/21 97/18/88 96/18/87
f 77/23/69 99/51/90 97/23/88
f 13/45/13 99/51/90 95/51/86
f 101/52/92 198/53/189 197/54/188
f 103/55/94 199/56/190 198/53/189
f 105/57/96 200/58/191 199/56/190
f 107/59/98 201/60/192 200/58/191
f 109/61/100 202/62/193 201/60/192
f 111/63/102 203/64/194 202/62/193
f 113/65/104 204/66/195 203/64/194
f 204/66/195 117/67/108 205/68/196
f 117/67/108 206/69/197 205/68/196
f 119/70/110 207/71/198 206/69/197
f 103/55/94 138/57/129 105/57/96
f 121/72/112 208/73/199 207/71/198
f 123/74/114 197/75/188 208/73/199
f 112/76/103 226/77/199 110/77/101
f 134/78/125 169/79/160 170/78/161
f 121/72/112 145/70/136 146/72/137
f 117/67/108 145/70/136 119/70/110
f 115/80/106 144/67/135 117/67/108
f 115/80/106 142/65/133 143/80/134
f 113/65/104 141/63/132 142/65/133
f 109/61/100 141/63/132 111/63/102
f 109/61/100 139/59/130 140/61/131
f 123/74/114 137/81/128 101/81/92
f 101/52/92 136/55/127 103/55/94
f 105/57/96 139/59/130 107/59/98
f 121/72/112 147/74/138 123/74/114
f 124/82/115 137/83/128 125/84/116
f 126/85/117 136/86/127 124/82/115
f 127/87/118 138/88/129 126/85/117
f 127/87/118 140/89/131 139/90/130
f 128/91/119 141/92/132 140/89/131
f 130/93/121 141/92/132 129/94/120
f 130/93/121 143/95/134 142/96/133
f 132/97/123 143/95/134 131/98/122
f 133/79/124 144/99/135 132/97/123
f 133/79/124 146/100/137 145/101/136
f 134/78/125 147/102/138 146/100/137
f 135/103/126 137/83/128 147/102/138
f 150/104/141 172/105/163 174/104/165
f 131/98/122 166/93/157 167/98/158
f 128/91/119 163/87/154 164/91/155
f 134/78/125 171/103/162 135/103/126
f 125/84/116 160/82/151 124/82/115
f 131/98/122 168/97/159 132/97/123
f 128/91/119 165/94/156 129/94/120
f 135/103/126 161/84/152 125/84/116
f 126/85/117 160/82/151 162/85/153
f 132/97/123 169/79/160 133/79/124
f 130/93/121 165/94/156 166/93/157
f 127/87/118 162/85/153 163/87/154
f 149/106/140 160/82/151 161/84/152
f 150/104/141 160/82/151 148/105/139
f 151/107/142 162/85/153 150/104/141
f 152/108/143 163/87/154 151/107/142
f 153/109/144 164/91/155 152/108/143
f 154/110/145 165/94/156 153/109/144
f 154/110/145 167/98/158 166/93/157
f 156/111/147 167/98/158 155/112/146
f 157/113/148 168/97/159 156/111/147
f 158/114/149 169/79/160 157/113/148
f 159/115/150 170/78/161 158/114/149
f 149/106/140 171/103/162 159/115/150
f 173/106/164 195/115/186 185/106/176
f 157/113/148 180/111/171 181/113/172
f 153/109/144 178/110/169 154/110/145
f 151/107/142 174/104/165 175/107/166
f 157/113/148 182/114/173 158/114/149
f 154/110/145 179/112/170 155/112/146
f 151/107/142 176/108/167 152/108/143
f 158/114/149 183/115/174 159/115/150
f 149/106/140 172/105/163 148/105/139
f 155/112/146 180/111/171 156/111/147
f 152/108/143 177/109/168 153/109/144
f 159/115/150 173/106/164 149/106/140
f 189/109/180 188/108/179 196/109/187
f 174/104/165 184/105/175 186/104/177
f 181/113/172 192/111/183 193/113/184
f 177/109/168 190/110/181 178/110/169
f 174/104/165 187/107/178 175/107/166
f 182/114/173 193/113/184 194/114/185
f 178/110/169 191/112/182 179/112/170
f 175/107/166 188/108/179 176/108/167
f 182/114/173 195/115/186 183/115/174
f 173/106/164 184/105/175 172/105/163
f 179/112/170 192/111/183 180/111/171
f 177/109/168 188/108/179 189/109/180
f 185/106/176 195/115/186 196/106/187
f 186/104/177 184/105/175 196/104/187
f 193/113/184 192/111/183 196/113/187
f 190/110/181 189/109/180 196/110/187
f 187/107/178 186/104/177 196/107/187
f 194/114/185 193/113/184 196/114/187
f 191/112/182 190/110/181 196/112/187
f 188/108/179 187/107/178 196/108/187
f 195/115/186 194/114/185 196/115/187
f 184/105/175 185/106/176 196/105/187
f 192/111/183 191/112/182 196/111/187
f 100/116/91 198/117/189 102/118/93
f 102/118/93 199/119/190 104/120/95
f 104/120/95 200/121/191 106/122/97
f 108/123/99 200/121/191 201/124/192
f 110/77/101 201/124/192 202/125/193
f 112/76/103 202/125/193 203/126/194
f 112/76/103 204/127/195 114/128/105
f 114/128/105 205/129/196 116/130/107
f 116/130/107 206/131/197 118/132/109
f 120/133/111 206/131/197 207/134/198
f 122/135/113 207/134/198 208/136/199
f 100/116/91 208/136/199 197/137/188
f 212/138/203 235/139/214 211/139/202
f 106/122/97 223/120/196 104/120/95
f 120/133/111 230/132/191 118/132/109
f 114/128/105 227/76/188 112/76/103
f 108/123/99 224/122/197 106/122/97
f 122/135/113 231/133/192 120/133/111
f 102/118/93 221/116/194 100/116/91
f 116/130/107 228/128/189 114/128/105
f 110/77/101 225/123/198 108/123/99
f 100/116/91 232/135/193 122/135/113
f 104/120/95 222/118/195 102/118/93
f 118/132/109 229/130/190 116/130/107
f 210/140/201 221/116/194 222/118/195
f 211/139/202 222/118/195 223/120/196
f 211/139/202 224/122/197 212/138/203
f 212/138/203 225/123/198 213/141/204
f 213/141/204 226/77/199 214/142/205
f 214/142/205 227/76/188 215/143/206
f 216/144/207 227/76/188 228/128/189
f 217/145/208 228/128/189 229/130/190
f 217/145/208 230/132/191 218/146/209
f 218/146/209 231/133/192 219/147/210
f 219/147/210 232/135/193 220/148/211
f 220/148/211 221/116/194 209/149/200
f 236/138/215 247/139/226 235/139/214
f 219/147/210 242/146/221 218/146/209
f 216/144/207 239/143/218 215/143/206
f 212/138/203 237/141/216 236/138/215
f 220/148/211 243/147/222 219/147/210
f 210/140/201 233/149/212 209/149/200
f 217/145/208 240/144/219 216/144/207
f 213/141/204 238/142/217 237/141/216
f 220/148/211 233/149/212 244/148/223
f 211/139/202 234/140/213 210/140/201
f 218/146/209 241/145/220 217/145/208
f 215/143/206 238/142/217 214/142/205
f 250/142/229 275/143/254 274/142/253
f 242/146/221 255/147/234 254/146/233
f 239/143/218 252/144/231 251/143/230
f 237/141/216 248/138/227 236/138/215
f 244/148/223 255/147/234 243/147/222
f 234/140/213 245/149/224 233/149/212
f 241/145/220 252/144/231 240/144/219
f 237/141/216 250/142/229 249/141/228
f 244/148/223 245/149/224 256/148/235
f 235/139/214 246/140/225 234/140/213
f 242/146/221 253/145/232 241/145/220
f 238/142/217 251/143/230 250/142/229
f 268/150/247 291/151/270 267/151/246
f 248/138/227 271/139/250 247/139/226
f 255/147/234 278/146/257 254/146/233
f 252/144/231 275/143/254 251/143/230
f 248/138/227 273/141/252 272/138/251
f 255/147/234 280/148/259 279/147/258
f 245/149/224 270/140/249 269/149/248
f 252/144/231 277/145/256 276/144/255
f 250/142/229 273/141/252 249/141/228
f 245/149/224 280/148/259 256/148/235
f 246/140/225 271/139/250 270/140/249
f 253/145/232 278/146/257 277/145/256
f 257/152/236 270/140/249 258/153/237
f 258/153/237 271/139/250 259/154/238
f 259/154/238 272/138/251 260/155/239
f 260/155/239 273/141/252 261/156/240
f 261/156/240 274/142/253 262/157/241
f 263/158/242 274/142/253 275/143/254
f 264/159/243 275/143/254 276/144/255
f 265/160/244 276/144/255 277/145/256
f 266/161/245 277/145/256 278/146/257
f 267/151/246 278/146/257 279/147/258
f 268/150/247 279/147/258 280/148/259
f 257/152/236 280/148/259 269/149/248
f 284/155/263 297/156/276 296/155/275
f 257/152/236 282/153/261 281/152/260
f 264/159/243 289/160/268 288/159/267
f 261/156/240 286/157/265 285/156/264
f 257/152/236 292/150/271 268/150/247
f 259/154/238 282/153/261 258/153/237
f 266/161/245 289/160/268 265/160/244
f 263/158/242 286/157/265 262/157/241
f 259/154/238 284/155/263 283/154/262
f 267/151/246 290/161/269 266/161/245
f 264/159/243 287/158/266 263/158/242
f 261/156/240 284/155/263 260/155/239
f 296/155/275 309/156/288 308/155/287
f 292/150/271 303/151/282 291/151/270
f 281/152/260 294/153/273 293/152/272
f 288/159/267 301/160/280 300/159/279
f 285/156/264 298/157/277 297/156/276
f 281/152/260 304/150/283 292/150/271
f 283/154/262 294/153/273 282/153/261
f 289/160/268 302/161/281 301/160/280
f 286/157/265 299/158/278 298/157/277
f 284/155/263 295/154/274 283/154/262
f 291/151/270 302/161/281 290/161/269
f 288/159/267 299/158/278 287/158/266
f 311/158/290 324/159/303 323/158/302
f 303/151/282 316/150/295 315/151/294
f 294/153/273 305/152/284 293/152/272
f 300/159/279 313/160/292 312/159/291
f 297/156/276 310/157/289 309/156/288
f 304/150/283 305/152/284 316/150/295
f 294/153/273 307/154/286 306/153/285
f 301/160/280 314/161/293 313/160/292
f 298/157/277 311/158/290 310/157/289
f 296/155/275 307/154/286 295/154/274
f 303/151/282 314/161/293 302/161/281
f 300/159/279 311/158/290 299/158/278
f 320/155/299 324/159/303 328/150/307
f 308/155/287 321/156/300 320/155/299
f 315/151/294 328/150/307 327/151/306
f 306/153/285 317/152/296 305/152/284
f 312/159/291 325/160/304 324/159/303
f 309/156/288 322/157/301 321/156/300
f 316/150/295 317/152/296 328/150/307
f 306/153/285 319/154/298 318/153/297
f 313/160/292 326/161/305 325/160/304
f 311/158/290 322/157/301 310/157/289
f 307/154/286 320/155/299 319/154/298
f 315/151/294 326/161/305 314/161/293
f 337/162/316 332/16/311 331/2/310
f 331/2/310 336/32/315 335/9/314
f 340/23/319 333/163/312 339/19/318
f 334/164/313 329/165/308 333/163/312
f 337/30/316 333/163/312 329/166/308
f 338/33/317 334/164/313 340/23/319
f 336/32/315 338/33/317 340/23/319
f 335/9/314 337/30/316 331/31/310
f 335/9/314 340/23/319 339/19/318
f 330/167/309 337/162/316 329/168/308
f 349/162/328 344/16/323 343/2/322
f 343/2/322 348/32/327 347/9/326
f 352/23/331 345/163/324 351/19/330
f 346/164/325 341/165/320 345/163/324
f 349/30/328 345/163/324 341/166/320
f 350/33/329 346/164/325 352/23/331
f 348/32/327 350/33/329 352/23/331
f 347/9/326 349/30/328 343/31/322
f 347/9/326 352/23/331 351/19/330
f 342/167/321 349/162/328 341/168/320
f 362/169/341 355/2/334 361/162/340
f 365/170/344 360/32/339 359/9/338
f 364/23/343 357/163/336 363/19/342
f 367/171/346 354/172/333 353/165/332
f 370/173/349 357/163/336 367/174/346
f 362/33/341 368/175/347 369/176/348
f 366/177/345 362/33/341 369/176/348
f 359/9/338 370/173/349 365/178/344
f 359/9/338 364/23/343 363/19/342
f 353/168/332 362/169/341 361/162/340
f 355/31/334 370/173/349 361/30/340
f 366/177/345 364/23/343 360/32/339
f 364/23/343 368/175/347 358/164/337
f 370/173/349 353/166/332 361/30/340
f 358/164/337 367/171/346 357/163/336
f 356/16/335 365/170/344 355/2/334
f 382/162/358 377/16/353 376/2/352
f 376/2/352 381/32/357 380/9/356
f 385/23/361 378/163/354 384/19/360
f 379/164/355 374/165/350 378/163/354
f 382/30/358 378/163/354 374/166/350
f 383/33/359 379/164/355 385/23/361
f 381/32/357 383/33/359 385/23/361
f 380/9/356 382/30/358 376/31/352
f 380/9/356 385/23/361 384/19/360
f 375/167/351 382/162/358 374/168/350
f 409/1/385 434/2/410 425/2/401
f 392/4/368 405/3/381 407/5/383
f 36/7/32 387/6/363 405/8/381
f 37/10/33 388/9/364 404/11/380
f 388/9/364 406/12/382 404/13/380
f 423/14/399 392/4/368 407/5/383
f 387/16/363 410/17/386 390/17/366
f 424/16/400 432/17/408 410/17/386
f 19/19/18 401/20/377 397/27/373
f 401/20/377 33/20/29 400/21/376
f 402/22/378 33/22/29 29/23/27
f 403/25/379 398/24/374 399/26/375
f 402/22/378 21/23/20 398/24/374
f 397/27/373 400/21/376 396/35/372
f 421/28/397 403/25/379 399/26/375
f 33/21/29 422/29/398 400/21/376
f 27/19/25 33/19/29 401/20/377
f 403/25/379 33/25/29 402/22/378
f 411/17/387 407/5/383 390/17/366
f 404/13/380 391/1/367 386/2/362
f 5/30/5 404/11/380 386/31/362
f 8/23/8 405/8/381 389/32/365
f 407/5/383 387/16/363 390/17/366
f 46/33/39 433/6/409 424/6/400
f 410/17/386 419/34/395 390/17/366
f 46/33/39 387/6/363 6/33/6
f 425/31/401 5/30/5 386/31/362
f 411/17/387 418/5/394 414/5/390
f 427/14/403 406/12/382 423/14/399
f 426/34/402 390/17/366 419/34/395
f 406/12/382 412/1/388 391/1/367
f 428/34/404 418/5/394 415/17/391
f 428/34/404 411/17/387 426/34/402
f 429/14/405 413/12/389 427/14/403
f 417/12/393 412/1/388 413/12/389
f 414/5/390 429/14/405 427/14/403
f 412/1/388 428/34/404 426/34/402
f 417/12/393 428/34/404 416/1/392
f 391/1/367 426/34/402 419/34/395
f 407/5/383 427/14/403 423/14/399
f 409/1/385 386/2/362 391/1/367
f 419/34/395 409/1/385 391/1/367
f 400/21/376 421/28/397 396/35/372
f 393/36/369 423/14/399 406/12/382
f 408/34/384 431/1/407 409/1/385
f 434/31/410 47/30/40 425/31/401
f 432/17/408 408/34/384 410/17/386
f 432/17/408 433/6/409 70/18/62
f 69/18/61 430/34/406 431/1/407
f 74/30/66 431/1/407 434/31/410
f 396/35/372 437/37/413 442/38/418
f 446/39/422 444/40/420 445/43/421
f 444/40/420 440/42/416 445/43/421
f 80/19/71 397/27/373 441/44/417
f 394/45/370 438/46/414 436/48/412
f 436/48/412 440/42/416 439/49/415
f 394/45/370 435/50/411 447/51/423
f 435/50/411 439/49/415 437/37/413
f 438/46/414 420/15/396 440/42/416
f 441/44/417 396/35/372 442/38/418
f 443/41/419 442/38/418 444/40/420
f 442/38/418 439/49/415 444/40/420
f 8/23/8 395/47/371 79/23/70
f 7/19/7 446/39/422 388/9/364
f 84/19/75 443/41/419 446/39/422
f 447/51/423 399/26/375 398/24/374
f 399/26/375 437/37/413 421/28/397
f 77/23/69 398/24/374 21/23/20
f 388/9/364 445/43/421 393/36/369
f 395/47/371 392/4/368 438/46/414
f 445/43/421 420/15/396 393/36/369
f 394/45/370 448/45/424 395/47/371
f 82/19/73 441/44/417 443/41/419
f 448/45/424 79/18/70 395/47/371
f 96/23/87 449/51/425 97/23/88
f 77/23/69 449/51/425 447/51/423
f 449/51/425 394/45/370 447/51/423
f 548/53/193 451/52/104 547/54/194
f 549/56/192 453/55/102 548/53/193
f 550/58/191 455/57/100 549/56/192
f 551/60/190 457/59/98 550/58/191
f 552/62/189 459/61/96 551/60/190
f 553/64/188 461/63/94 552/62/189
f 554/66/199 463/65/92 553/64/188
f 554/66/199 467/67/112 465/80/114
f 556/69/197 467/67/112 555/68/198
f 557/71/196 469/70/110 556/69/197
f 455/57/100 486/55/132 453/55/102
f 558/73/195 471/72/108 557/71/196
f 547/75/194 473/74/106 558/73/195
f 576/77/195 462/76/91 460/77/93
f 484/78/123 519/79/160 483/79/124
f 471/72/108 495/70/136 469/70/110
f 495/70/136 467/67/112 469/70/110
f 494/67/137 465/80/114 467/67/112
f 493/80/138 463/65/92 465/80/114
f 463/65/92 491/63/127 461/63/94
f 491/63/127 459/61/96 461/63/94
f 459/61/96 489/59/130 457/59/98
f 487/81/133 473/74/106 451/81/104
f 486/55/132 451/52/104 453/55/102
f 489/59/130 455/57/100 457/59/98
f 497/74/134 471/72/108 473/74/106
f 487/83/133 474/82/120 475/84/121
f 486/86/132 476/85/119 474/82/120
f 488/88/131 477/87/118 476/85/119
f 477/87/118 490/89/129 478/91/117
f 478/91/117 491/92/127 479/94/115
f 491/92/127 480/93/116 479/94/115
f 480/93/116 493/95/138 481/98/126
f 493/95/138 482/97/125 481/98/126
f 494/99/137 483/79/124 482/97/125
f 483/79/124 496/100/135 484/78/123
f 484/78/123 497/102/134 485/103/122
f 485/103/122 487/83/133 475/84/121
f 500/104/143 522/105/168 498/105/144
f 517/98/426 480/93/116 481/98/126
f 478/91/117 513/87/154 477/87/118
f 521/103/429 484/78/123 485/103/122
f 510/82/156 475/84/121 474/82/120
f 518/97/427 481/98/126 482/97/125
f 515/94/151 478/91/117 479/94/115
f 475/84/121 521/103/429 485/103/122
f 476/85/119 510/82/156 474/82/120
f 519/79/160 482/97/125 483/79/124
f 480/93/116 515/94/151 479/94/115
f 513/87/154 476/85/119 477/87/118
f 499/106/145 510/82/156 498/105/144
f 510/82/156 500/104/143 498/105/144
f 512/85/155 501/107/142 500/104/143
f 513/87/154 502/108/141 501/107/142
f 514/91/153 503/109/139 502/108/141
f 515/94/151 504/110/140 503/109/139
f 504/110/140 517/98/426 505/112/150
f 517/98/426 506/111/149 505/112/150
f 518/97/427 507/113/148 506/111/149
f 519/79/160 508/114/147 507/113/148
f 520/78/428 509/115/146 508/114/147
f 521/103/429 499/106/145 509/115/146
f 523/106/169 545/115/182 533/115/170
f 507/113/148 530/111/173 506/111/149
f 528/110/164 503/109/139 504/110/140
f 501/107/142 524/104/167 500/104/143
f 532/114/171 507/113/148 508/114/147
f 529/112/174 504/110/140 505/112/150
f 502/108/141 525/107/166 501/107/142
f 533/115/170 508/114/147 509/115/146
f 522/105/168 499/106/145 498/105/144
f 506/111/149 529/112/174 505/112/150
f 503/109/139 526/108/165 502/108/141
f 523/106/169 509/115/146 499/106/145
f 539/109/175 546/109/187 538/108/177
f 524/104/167 534/105/180 522/105/168
f 531/113/172 542/111/185 530/111/173
f 540/110/176 527/109/163 528/110/164
f 537/107/178 524/104/167 525/107/166
f 532/114/171 543/113/184 531/113/172
f 529/112/174 540/110/176 528/110/164
f 538/108/177 525/107/166 526/108/165
f 545/115/182 532/114/171 533/115/170
f 534/105/180 523/106/169 522/105/168
f 542/111/185 529/112/174 530/111/173
f 527/109/163 538/108/177 526/108/165
f 535/106/181 546/106/187 545/115/182
f 536/104/179 546/104/187 534/105/180
f 543/113/184 546/113/187 542/111/185
f 540/110/176 546/110/187 539/109/175
f 537/107/178 546/107/187 536/104/179
f 544/114/183 546/114/187 543/113/184
f 541/112/186 546/112/187 540/110/176
f 538/108/177 546/108/187 537/107/178
f 545/115/182 546/115/187 544/114/183
f 534/105/180 546/105/187 535/106/181
f 542/111/185 546/111/187 541/112/186
f 548/117/193 450/116/103 452/118/101
f 549/119/192 452/118/101 454/120/99
f 550/121/191 454/120/99 456/122/97
f 458/123/95 550/121/191 456/122/97
f 460/77/93 551/124/190 458/123/95
f 462/76/91 552/125/189 460/77/93
f 554/127/199 462/76/91 464/128/113
f 555/129/198 464/128/113 466/130/111
f 556/131/197 466/130/111 468/132/109
f 470/133/107 556/131/197 468/132/109
f 472/135/105 557/134/196 470/133/107
f 450/116/103 558/136/195 472/135/105
f 585/139/216 562/138/203 561/139/204
f 573/120/198 456/122/97 454/120/99
f 580/132/191 470/133/107 468/132/109
f 577/76/194 464/128/113 462/76/91
f 574/122/197 458/123/95 456/122/97
f 581/133/190 472/135/105 470/133/107
f 571/116/188 452/118/101 450/116/103
f 578/128/193 466/130/111 464/128/113
f 575/123/196 460/77/93 458/123/95
f 582/135/189 450/116/103 472/135/105
f 572/118/199 454/120/99 452/118/101
f 579/130/192 468/132/109 466/130/111
f 560/140/205 571/116/188 559/149/206
f 561/139/204 572/118/199 560/140/205
f 562/138/203 573/120/198 561/139/204
f 575/123/196 562/138/203 563/141/202
f 576/77/195 563/141/202 564/142/201
f 577/76/194 564/142/201 565/143/200
f 566/144/211 577/76/194 565/143/200
f 567/145/210 578/128/193 566/144/211
f 580/132/191 567/145/210 568/146/209
f 581/133/190 568/146/209 569/147/208
f 582/135/189 569/147/208 570/148/207
f 571/116/188 570/148/207 559/149/206
f 597/139/228 586/138/215 585/139/216
f 592/146/221 569/147/208 568/146/209
f 589/143/212 566/144/211 565/143/200
f 562/138/203 587/141/214 563/141/202
f 593/147/220 570/148/207 569/147/208
f 583/149/218 560/140/205 559/149/206
f 590/144/223 567/145/210 566/144/211
f 563/141/202 588/142/213 564/142/201
f 570/148/207 583/149/218 559/149/206
f 560/140/205 585/139/216 561/139/204
f 567/145/210 592/146/221 568/146/209
f 588/142/213 565/143/200 564/142/201
f 600/142/225 625/143/248 601/143/224
f 592/146/221 605/147/232 593/147/220
f 589/143/212 602/144/235 590/144/223
f 598/138/227 587/141/214 586/138/215
f 605/147/232 594/148/219 593/147/220
f 595/149/230 584/140/217 583/149/218
f 602/144/235 591/145/222 590/144/223
f 587/141/214 600/142/225 588/142/213
f 606/148/231 583/149/218 594/148/219
f 596/140/229 585/139/216 584/140/217
f 603/145/234 592/146/221 591/145/222
f 588/142/213 601/143/224 589/143/212
f 641/151/268 618/150/243 617/151/244
f 621/139/252 598/138/227 597/139/228
f 628/146/257 605/147/232 604/146/233
f 601/143/224 626/144/259 602/144/235
f 598/138/227 623/141/250 599/141/226
f 629/147/256 606/148/231 605/147/232
f 595/149/230 620/140/253 596/140/229
f 626/144/259 603/145/234 602/144/235
f 623/141/250 600/142/225 599/141/226
f 630/148/255 595/149/230 606/148/231
f 620/140/253 597/139/228 596/140/229
f 603/145/234 628/146/257 604/146/233
f 620/140/253 607/152/430 608/153/241
f 621/139/252 608/153/241 609/154/240
f 622/138/251 609/154/240 610/155/239
f 623/141/250 610/155/239 611/156/238
f 624/142/249 611/156/238 612/157/237
f 613/158/431 624/142/249 612/157/237
f 614/159/247 625/143/248 613/158/431
f 615/160/246 626/144/259 614/159/247
f 616/161/245 627/145/258 615/160/246
f 617/151/244 628/146/257 616/161/245
f 618/150/243 629/147/256 617/151/244
f 607/152/430 630/148/255 618/150/243
f 646/155/275 635/156/262 634/155/263
f 607/152/430 632/153/265 608/153/241
f 614/159/247 639/160/270 615/160/246
f 611/156/238 636/157/261 612/157/237
f 642/150/433 607/152/430 618/150/243
f 632/153/265 609/154/240 608/153/241
f 639/160/270 616/161/245 615/160/246
f 636/157/261 613/158/431 612/157/237
f 609/154/240 634/155/263 610/155/239
f 640/161/269 617/151/244 616/161/245
f 637/158/260 614/159/247 613/158/431
f 634/155/263 611/156/238 610/155/239
f 646/155/275 659/156/286 647/156/274
f 653/151/280 642/150/433 641/151/268
f 643/152/278 632/153/265 631/152/266
f 638/159/432 651/160/282 639/160/270
f 647/156/274 636/157/261 635/156/262
f 654/150/279 631/152/266 642/150/433
f 644/153/277 633/154/264 632/153/265
f 639/160/270 652/161/281 640/161/269
f 636/157/261 649/158/272 637/158/260
f 645/154/276 634/155/263 633/154/264
f 652/161/281 641/151/268 640/161/269
f 649/158/272 638/159/432 637/158/260
f 673/158/296 662/159/295 661/158/284
f 653/151/280 666/150/291 654/150/279
f 655/152/290 644/153/277 643/152/278
f 650/159/283 663/160/294 651/160/282
f 647/156/274 660/157/285 648/157/273
f 654/150/279 655/152/290 643/152/278
f 644/153/277 657/154/288 645/154/276
f 651/160/282 664/161/293 652/161/281
f 660/157/285 649/158/272 648/157/273
f 657/154/288 646/155/275 645/154/276
f 664/161/293 653/151/280 652/161/281
f 661/158/284 650/159/283 649/158/272
f 676/161/305 672/157/435 668/153/434
f 658/155/287 671/156/298 659/156/286
f 665/151/292 678/150/303 666/150/291
f 667/152/302 656/153/289 655/152/290
f 662/159/295 675/160/306 663/160/294
f 671/156/298 660/157/285 659/156/286
f 678/150/303 655/152/290 666/150/291
f 656/153/289 669/154/300 657/154/288
f 675/160/306 664/161/293 663/160/294
f 672/157/435 661/158/284 660/157/285
f 669/154/300 658/155/287 657/154/288
f 664/161/293 677/151/304 665/151/292
f 687/162/444 682/16/439 688/169/445
f 681/2/438 686/32/443 682/16/439
f 683/163/440 690/23/447 689/19/446
f 679/165/436 684/164/441 683/163/440
f 687/30/444 683/163/440 689/19/446
f 684/164/441 688/33/445 690/23/447
f 686/32/443 688/33/445 682/6/439
f 687/30/444 685/9/442 681/31/438
f 685/9/442 690/23/447 686/32/443
f 687/162/444 680/167/437 679/168/436
f 699/162/456 694/16/451 700/169/457
f 693/2/450 698/32/455 694/16/451
f 695/163/452 702/23/459 701/19/458
f 691/165/448 696/164/453 695/163/452
f 699/30/456 695/163/452 701/19/458
f 696/164/453 700/33/457 702/23/459
f 698/32/455 700/33/457 694/6/451
f 699/30/456 697/9/454 693/31/450
f 697/9/454 702/23/459 698/32/455
f 699/162/456 692/167/449 691/168/448
f 705/2/462 712/169/469 711/162/468
f 715/170/472 710/32/467 716/179/473
f 707/163/464 714/23/471 713/19/470
f 717/171/474 704/172/461 718/180/475
f 720/173/477 707/163/464 713/19/470
f 718/175/475 712/33/469 719/176/476
f 716/177/473 712/33/469 706/6/463
f 720/173/477 709/9/466 715/178/472
f 709/9/466 714/23/471 710/32/467
f 703/168/460 712/169/469 704/167/461
f 705/31/462 720/173/477 715/178/472
f 714/23/471 716/177/473 710/32/467
f 714/23/471 718/175/475 719/176/476
f 703/166/460 720/173/477 711/30/468
f 717/171/474 708/164/465 707/163/464
f 715/170/472 706/16/463 705/2/462
f 382/162/358 727/16/351 383/169/359
f 726/2/350 731/32/355 727/16/351
f 728/163/356 385/23/361 384/19/360
f 724/165/352 729/164/357 728/163/356
f 382/30/358 728/163/356 384/19/360
f 729/164/357 383/33/359 385/23/361
f 731/32/355 383/33/359 727/6/351
f 382/30/358 730/9/354 726/31/350
f 730/9/354 385/23/361 731/32/355
f 382/162/358 725/167/353 724/168/352
f 44/1/37 63/2/55 76/2/68
f 35/3/31 4/32/4 11/4/11
f 2/6/2 6/33/6 36/7/32
f 3/9/3 7/19/7 37/10/33
f 38/12/34 12/36/12 3/9/3
f 61/14/53 39/5/35 11/4/11
f 2/16/2 9/17/9 45/17/38
f 62/16/54 45/17/38 72/17/64
f 24/18/21 32/18/21 29/18/27
f 19/19/18 18/27/17 26/20/24
f 22/18/21 19/18/18 27/18/25
f 20/24/19 28/22/26 31/25/28
f 21/23/20 29/23/27 28/22/26
f 18/27/17 17/35/16 25/21/23
f 22/18/21 30/18/21 32/18/21
f 59/28/51 23/26/22 31/25/28
f 60/29/52 31/25/28 33/21/29
f 39/5/35 51/5/44 48/17/41
f 10/1/10 38/12/34 34/13/30
f 34/11/30 37/10/33 5/30/5
f 35/8/31 36/7/32 8/23/8
f 2/16/2 35/3/31 39/5/35
f 46/33/39 62/6/54 75/6/67
f 56/34/49 41/34/36 45/17/38
f 15/18/15 43/18/15 46/18/39
f 2/6/2 62/6/54 46/33/39
f 5/18/5 47/18/40 42/18/15
f 16/18/15 42/18/15 40/18/15
f 5/30/5 47/30/40 63/31/55
f 48/17/41 51/5/44 55/5/48
f 38/12/34 50/12/43 65/14/57
f 9/17/9 48/17/41 64/34/56
f 38/12/34 10/1/10 49/1/42
f 66/34/58 52/17/45 55/5/48
f 48/17/41 52/17/45 66/34/58
f 50/12/43 54/12/47 67/14/59
f 49/1/42 53/1/46 54/12/47
f 51/5/44 65/14/57 67/14/59
f 49/1/42 64/34/56 66/34/58
f 66/34/58 67/14/59 54/12/47
f 10/1/10 56/34/49 64/34/56
f 39/5/35 61/14/53 65/14/57
f 1/2/1 63/2/55 44/1/37
f 58/18/15 40/18/15 43/18/15
f 56/34/49 10/1/10 44/1/37
f 59/28/51 60/29/52 25/21/23
f 61/14/53 57/15/50 12/36/12
f 41/34/36 44/1/37 71/1/63
f 40/18/15 42/18/15 69/18/61
f 43/18/15 70/18/62 73/18/65
f 47/30/40 74/30/66 76/31/68
f 41/34/36 68/34/60 72/17/64
f 42/18/15 47/18/40 74/18/66
f 72/17/64 68/34/60 70/18/62
f 70/18/62 73/18/65 75/6/67
f 69/18/61 71/1/63 68/34/60
f 74/30/66 76/31/68 71/1/63
f 85/37/76 59/28/51 17/35/16
f 94/39/85 93/43/84 92/40/83
f 88/42/79 87/49/78 92/40/83
f 18/27/17 19/19/18 80/19/71
f 13/45/13 83/48/74 86/46/77
f 88/42/79 86/46/77 83/48/74
f 81/50/72 83/48/74 13/45/13
f 87/49/78 83/48/74 81/50/72
f 57/15/50 11/4/11 86/46/77
f 89/44/80 90/38/81 17/35/16
f 91/41/82 92/40/83 90/38/81
f 87/49/78 85/37/76 90/38/81
f 8/23/8 79/23/70 14/47/14
f 94/39/85 84/19/75 7/19/7
f 91/41/82 82/19/73 84/19/75
f 23/26/22 81/50/72 95/51/86
f 85/37/76 81/50/72 23/26/22
f 77/23/69 21/23/20 20/24/19
f 3/9/3 12/36/12 93/43/84
f 14/47/14 86/46/77 11/4/11
f 57/15/50 88/42/79 93/43/84
f 89/44/80 80/19/71 82/19/73
f 79/18/70 96/23/87 98/45/89
f 96/23/87 97/23/88 99/51/90
f 78/18/21 77/18/69 97/18/88
f 77/23/69 95/51/86 99/51/90
f 13/45/13 98/45/89 99/51/90
f 101/52/92 103/55/94 198/53/189
f 103/55/94 105/57/96 199/56/190
f 105/57/96 107/59/98 200/58/191
f 107/59/98 109/61/100 201/60/192
f 109/61/100 111/63/102 202/62/193
f 111/63/102 113/65/104 203/64/194
f 113/65/104 115/80/106 204/66/195
f 204/66/195 115/80/106 117/67/108
f 117/67/108 119/70/110 206/69/197
f 119/70/110 121/72/112 207/71/198
f 103/55/94 136/55/127 138/57/129
f 121/72/112 123/74/114 208/73/199
f 123/74/114 101/81/92 197/75/188
f 112/76/103 227/76/188 226/77/199
f 134/78/125 133/79/124 169/79/160
f 121/72/112 119/70/110 145/70/136
f 117/67/108 144/67/135 145/70/136
f 115/80/106 143/80/134 144/67/135
f 115/80/106 113/65/104 142/65/133
f 113/65/104 111/63/102 141/63/132
f 109/61/100 140/61/131 141/63/132
f 109/61/100 107/59/98 139/59/130
f 123/74/114 147/74/138 137/81/128
f 101/52/92 137/52/128 136/55/127
f 105/57/96 138/57/129 139/59/130
f 121/72/112 146/72/137 147/74/138
f 124/82/115 136/86/127 137/83/128
f 126/85/117 138/88/129 136/86/127
f 127/87/118 139/90/130 138/88/129
f 127/87/118 128/91/119 140/89/131
f 128/91/119 129/94/120 141/92/132
f 130/93/121 142/96/133 141/92/132
f 130/93/121 131/98/122 143/95/134
f 132/97/123 144/99/135 143/95/134
f 133/79/124 145/101/136 144/99/135
f 133/79/124 134/78/125 146/100/137
f 134/78/125 135/103/126 147/102/138
f 135/103/126 125/84/116 137/83/128
f 150/104/141 148/105/139 172/105/163
f 131/98/122 130/93/121 166/93/157
f 128/91/119 127/87/118 163/87/154
f 134/78/125 170/78/161 171/103/162
f 125/84/116 161/84/152 160/82/151
f 131/98/122 167/98/158 168/97/159
f 128/91/119 164/91/155 165/94/156
f 135/103/126 171/103/162 161/84/152
f 126/85/117 124/82/115 160/82/151
f 132/97/123 168/97/159 169/79/160
f 130/93/121 129/94/120 165/94/156
f 127/87/118 126/85/117 162/85/153
f 149/106/140 148/105/139 160/82/151
f 150/104/141 162/85/153 160/82/151
f 151/107/142 163/87/154 162/85/153
f 152/108/143 164/91/155 163/87/154
f 153/109/144 165/94/156 164/91/155
f 154/110/145 166/93/157 165/94/156
f 154/110/145 155/112/146 167/98/158
f 156/111/147 168/97/159 167/98/158
f 157/113/148 169/79/160 168/97/159
f 158/114/149 170/78/161 169/79/160
f 159/115/150 171/103/162 170/78/161
f 149/106/140 161/84/152 171/103/162
f 173/106/164 183/115/174 195/115/186
f 157/113/148 156/111/147 180/111/171
f 153/109/144 177/109/168 178/110/169
f 151/107/142 150/104/141 174/104/165
f 157/113/148 181/113/172 182/114/173
f 154/110/145 178/110/169 179/112/170
f 151/107/142 175/107/166 176/108/167
f 158/114/149 182/114/173 183/115/174
f 149/106/140 173/106/164 172/105/163
f 155/112/146 179/112/170 180/111/171
f 152/108/143 176/108/167 177/109/168
f 159/115/150 183/115/174 173/106/164
f 174/104/165 172/105/163 184/105/175
f 181/113/172 180/111/171 192/111/183
f 177/109/168 189/109/180 190/110/181
f 174/104/165 186/104/177 187/107/178
f 182/114/173 181/113/172 193/113/184
f 178/110/169 190/110/181 191/112/182
f 175/107/166 187/107/178 188/108/179
f 182/114/173 194/114/185 195/115/186
f 173/106/164 185/106/176 184/105/175
f 179/112/170 191/112/182 192/111/183
f 177/109/168 176/108/167 188/108/179
f 100/116/91 197/137/188 198/117/189
f 102/118/93 198/117/189 199/119/190
f 104/120/95 199/119/190 200/121/191
f 108/123/99 106/122/97 200/121/191
f 110/77/101 108/123/99 201/124/192
f 112/76/103 110/77/101 202/125/193
f 112/76/103 203/126/194 204/127/195
f 114/128/105 204/127/195 205/129/196
f 116/130/107 205/129/196 206/131/197
f 120/133/111 118/132/109 206/131/197
f 122/135/113 120/133/111 207/134/198
f 100/116/91 122/135/113 208/136/199
f 212/138/203 236/138/215 235/139/214
f 106/122/97 224/122/197 223/120/196
f 120/133/111 231/133/192 230/132/191
f 114/128/105 228/128/189 227/76/188
f 108/123/99 225/123/198 224/122/197
f 122/135/113 232/135/193 231/133/192
f 102/118/93 222/118/195 221/116/194
f 116/130/107 229/130/190 228/128/189
f 110/77/101 226/77/199 225/123/198
f 100/116/91 221/116/194 232/135/193
f 104/120/95 223/120/196 222/118/195
f 118/132/109 230/132/191 229/130/190
f 210/140/201 209/149/200 221/116/194
f 211/139/202 210/140/201 222/118/195
f 211/139/202 223/120/196 224/122/197
f 212/138/203 224/122/197 225/123/198
f 213/141/204 225/123/198 226/77/199
f 214/142/205 226/77/199 227/76/188
f 216/144/207 215/143/206 227/76/188
f 217/145/208 216/144/207 228/128/189
f 217/145/208 229/130/190 230/132/191
f 218/146/209 230/132/191 231/133/192
f 219/147/210 231/133/192 232/135/193
f 220/148/211 232/135/193 221/116/194
f 236/138/215 248/138/227 247/139/226
f 219/147/210 243/147/222 242/146/221
f 216/144/207 240/144/219 239/143/218
f 212/138/203 213/141/204 237/141/216
f 220/148/211 244/148/223 243/147/222
f 210/140/201 234/140/213 233/149/212
f 217/145/208 241/145/220 240/144/219
f 213/141/204 214/142/205 238/142/217
f 220/148/211 209/149/200 233/149/212
f 211/139/202 235/139/214 234/140/213
f 218/146/209 242/146/221 241/145/220
f 215/143/206 239/143/218 238/142/217
f 250/142/229 251/143/230 275/143/254
f 242/146/221 243/147/222 255/147/234
f 239/143/218 240/144/219 252/144/231
f 237/141/216 249/141/228 248/138/227
f 244/148/223 256/148/235 255/147/234
f 234/140/213 246/140/225 245/149/224
f 241/145/220 253/145/232 252/144/231
f 237/141/216 238/142/217 250/142/229
f 244/148/223 233/149/212 245/149/224
f 235/139/214 247/139/226 246/140/225
f 242/146/221 254/146/233 253/145/232
f 238/142/217 239/143/218 251/143/230
f 268/150/247 292/150/271 291/151/270
f 248/138/227 272/138/251 271/139/250
f 255/147/234 279/147/258 278/146/257
f 252/144/231 276/144/255 275/143/254
f 248/138/227 249/141/228 273/141/252
f 255/147/234 256/148/235 280/148/259
f 245/149/224 246/140/225 270/140/249
f 252/144/231 253/145/232 277/145/256
f 250/142/229 274/142/253 273/141/252
f 245/149/224 269/149/248 280/148/259
f 246/140/225 247/139/226 271/139/250
f 253/145/232 254/146/233 278/146/257
f 257/152/236 269/149/248 270/140/249
f 258/153/237 270/140/249 271/139/250
f 259/154/238 271/139/250 272/138/251
f 260/155/239 272/138/251 273/141/252
f 261/156/240 273/141/252 274/142/253
f 263/158/242 262/157/241 274/142/253
f 264/159/243 263/158/242 275/143/254
f 265/160/244 264/159/243 276/144/255
f 266/161/245 265/160/244 277/145/256
f 267/151/246 266/161/245 278/146/257
f 268/150/247 267/151/246 279/147/258
f 257/152/236 268/150/247 280/148/259
f 284/155/263 285/156/264 297/156/276
f 257/152/236 258/153/237 282/153/261
f 264/159/243 265/160/244 289/160/268
f 261/156/240 262/157/241 286/157/265
f 257/152/236 281/152/260 292/150/271
f 259/154/238 283/154/262 282/153/261
f 266/161/245 290/161/269 289/160/268
f 263/158/242 287/158/266 286/157/265
f 259/154/238 260/155/239 284/155/263
f 267/151/246 291/151/270 290/161/269
f 264/159/243 288/159/267 287/158/266
f 261/156/240 285/156/264 284/155/263
f 296/155/275 297/156/276 309/156/288
f 292/150/271 304/150/283 303/151/282
f 281/152/260 282/153/261 294/153/273
f 288/159/267 289/160/268 301/160/280
f 285/156/264 286/157/265 298/157/277
f 281/152/260 293/152/272 304/150/283
f 283/154/262 295/154/274 294/153/273
f 289/160/268 290/161/269 302/161/281
f 286/157/265 287/158/266 299/158/278
f 284/155/263 296/155/275 295/154/274
f 291/151/270 303/151/282 302/161/281
f 288/159/267 300/159/279 299/158/278
f 311/158/290 312/159/291 324/159/303
f 303/151/282 304/150/283 316/150/295
f 294/153/273 306/153/285 305/152/284
f 300/159/279 301/160/280 313/160/292
f 297/156/276 298/157/277 310/157/289
f 304/150/283 293/152/272 305/152/284
f 294/153/273 295/154/274 307/154/286
f 301/160/280 302/161/281 314/161/293
f 298/157/277 299/158/278 311/158/290
f 296/155/275 308/155/287 307/154/286
f 303/151/282 315/151/294 314/161/293
f 300/159/279 312/159/291 311/158/290
f 328/150/307 317/152/296 318/153/297
f 318/153/297 319/154/298 320/155/299
f 320/155/299 321/156/300 322/157/301
f 322/157/301 323/158/302 324/159/303
f 324/159/303 325/160/304 326/161/305
f 326/161/305 327/151/306 328/150/307
f 328/150/307 318/153/297 320/155/299
f 320/155/299 322/157/301 324/159/303
f 324/159/303 326/161/305 328/150/307
f 308/155/287 309/156/288 321/156/300
f 315/151/294 316/150/295 328/150/307
f 306/153/285 318/153/297 317/152/296
f 312/159/291 313/160/292 325/160/304
f 309/156/288 310/157/289 322/157/301
f 316/150/295 305/152/284 317/152/296
f 306/153/285 307/154/286 319/154/298
f 313/160/292 314/161/293 326/161/305
f 311/158/290 323/158/302 322/157/301
f 307/154/286 308/155/287 320/155/299
f 315/151/294 327/151/306 326/161/305
f 337/162/316 338/169/317 332/16/311
f 331/2/310 332/16/311 336/32/315
f 340/23/319 334/164/313 333/163/312
f 334/164/313 330/172/309 329/165/308
f 337/30/316 339/19/318 333/163/312
f 338/33/317 330/181/309 334/164/313
f 336/32/315 332/6/311 338/33/317
f 335/9/314 339/19/318 337/30/316
f 335/9/314 336/32/315 340/23/319
f 330/167/309 338/169/317 337/162/316
f 349/162/328 350/169/329 344/16/323
f 343/2/322 344/16/323 348/32/327
f 352/23/331 346/164/325 345/163/324
f 346/164/325 342/172/321 341/165/320
f 349/30/328 351/19/330 345/163/324
f 350/33/329 342/181/321 346/164/325
f 348/32/327 344/6/323 350/33/329
f 347/9/326 351/19/330 349/30/328
f 347/9/326 348/32/327 352/23/331
f 342/167/321 350/169/329 349/162/328
f 362/169/341 356/16/335 355/2/334
f 365/170/344 366/179/345 360/32/339
f 364/23/343 358/164/337 357/163/336
f 367/171/346 368/180/347 354/172/333
f 370/173/349 363/19/342 357/163/336
f 362/33/341 354/181/333 368/175/347
f 366/177/345 356/6/335 362/33/341
f 359/9/338 363/19/342 370/173/349
f 359/9/338 360/32/339 364/23/343
f 353/168/332 354/167/333 362/169/341
f 355/31/334 365/178/344 370/173/349
f 366/177/345 369/176/348 364/23/343
f 364/23/343 369/176/348 368/175/347
f 370/173/349 367/174/346 353/166/332
f 358/164/337 368/180/347 367/171/346
f 356/16/335 366/179/345 365/170/344
f 382/162/358 383/169/359 377/16/353
f 376/2/352 377/16/353 381/32/357
f 385/23/361 379/164/355 378/163/354
f 379/164/355 375/172/351 374/165/350
f 382/30/358 384/19/360 378/163/354
f 383/33/359 375/181/351 379/164/355
f 381/32/357 377/6/353 383/33/359
f 380/9/356 384/19/360 382/30/358
f 380/9/356 381/32/357 385/23/361
f 375/167/351 383/169/359 382/162/358
f 409/1/385 431/1/407 434/2/410
f 392/4/368 389/32/365 405/3/381
f 36/7/32 6/33/6 387/6/363
f 37/10/33 7/19/7 388/9/364
f 388/9/364 393/36/369 406/12/382
f 423/14/399 420/15/396 392/4/368
f 387/16/363 424/16/400 410/17/386
f 424/16/400 433/16/409 432/17/408
f 19/19/18 27/19/25 401/20/377
f 403/25/379 402/22/378 398/24/374
f 402/22/378 29/23/27 21/23/20
f 397/27/373 401/20/377 400/21/376
f 421/28/397 422/29/398 403/25/379
f 33/21/29 403/25/379 422/29/398
f 411/17/387 414/5/390 407/5/383
f 404/13/380 406/12/382 391/1/367
f 5/30/5 37/10/33 404/11/380
f 8/23/8 36/7/32 405/8/381
f 407/5/383 405/3/381 387/16/363
f 46/33/39 73/33/65 433/6/409
f 410/17/386 408/34/384 419/34/395
f 46/33/39 424/6/400 387/6/363
f 425/31/401 47/30/40 5/30/5
f 411/17/387 415/17/391 418/5/394
f 427/14/403 413/12/389 406/12/382
f 426/34/402 411/17/387 390/17/366
f 406/12/382 413/12/389 412/1/388
f 428/34/404 429/14/405 418/5/394
f 428/34/404 415/17/391 411/17/387
f 429/14/405 417/12/393 413/12/389
f 417/12/393 416/1/392 412/1/388
f 414/5/390 418/5/394 429/14/405
f 412/1/388 416/1/392 428/34/404
f 417/12/393 429/14/405 428/34/404
f 391/1/367 412/1/388 426/34/402
f 407/5/383 414/5/390 427/14/403
f 409/1/385 425/2/401 386/2/362
f 419/34/395 408/34/384 409/1/385
f 400/21/376 422/29/398 421/28/397
f 393/36/369 420/15/396 423/14/399
f 408/34/384 430/34/406 431/1/407
f 434/31/410 74/30/66 47/30/40
f 432/17/408 430/34/406 408/34/384
f 70/18/62 430/34/406 432/17/408
f 433/6/409 73/18/65 70/18/62
f 69/18/61 70/18/62 430/34/406
f 74/30/66 69/18/61 431/1/407
f 396/35/372 421/28/397 437/37/413
f 446/39/422 443/41/419 444/40/420
f 444/40/420 439/49/415 440/42/416
f 80/19/71 19/19/18 397/27/373
f 394/45/370 395/47/371 438/46/414
f 436/48/412 438/46/414 440/42/416
f 394/45/370 436/48/412 435/50/411
f 435/50/411 436/48/412 439/49/415
f 438/46/414 392/4/368 420/15/396
f 441/44/417 397/27/373 396/35/372
f 443/41/419 441/44/417 442/38/418
f 442/38/418 437/37/413 439/49/415
f 8/23/8 389/32/365 395/47/371
f 7/19/7 84/19/75 446/39/422
f 84/19/75 82/19/73 443/41/419
f 447/51/423 435/50/411 399/26/375
f 399/26/375 435/50/411 437/37/413
f 77/23/69 447/51/423 398/24/374
f 388/9/364 446/39/422 445/43/421
f 395/47/371 389/32/365 392/4/368
f 445/43/421 440/42/416 420/15/396
f 82/19/73 80/19/71 441/44/417
f 448/45/424 96/23/87 79/18/70
f 96/23/87 448/45/424 449/51/425
f 77/23/69 97/23/88 449/51/425
f 449/51/425 448/45/424 394/45/370
f 548/53/193 453/55/102 451/52/104
f 549/56/192 455/57/100 453/55/102
f 550/58/191 457/59/98 455/57/100
f 551/60/190 459/61/96 457/59/98
f 552/62/189 461/63/94 459/61/96
f 553/64/188 463/65/92 461/63/94
f 554/66/199 465/80/114 463/65/92
f 554/66/199 555/68/198 467/67/112
f 556/69/197 469/70/110 467/67/112
f 557/71/196 471/72/108 469/70/110
f 455/57/100 488/57/131 486/55/132
f 558/73/195 473/74/106 471/72/108
f 547/75/194 451/81/104 473/74/106
f 576/77/195 577/76/194 462/76/91
f 484/78/123 520/78/428 519/79/160
f 471/72/108 496/72/135 495/70/136
f 495/70/136 494/67/137 467/67/112
f 494/67/137 493/80/138 465/80/114
f 493/80/138 492/65/128 463/65/92
f 463/65/92 492/65/128 491/63/127
f 491/63/127 490/61/129 459/61/96
f 459/61/96 490/61/129 489/59/130
f 487/81/133 497/74/134 473/74/106
f 486/55/132 487/52/133 451/52/104
f 489/59/130 488/57/131 455/57/100
f 497/74/134 496/72/135 471/72/108
f 487/83/133 486/86/132 474/82/120
f 486/86/132 488/88/131 476/85/119
f 488/88/131 489/90/130 477/87/118
f 477/87/118 489/90/130 490/89/129
f 478/91/117 490/89/129 491/92/127
f 491/92/127 492/96/128 480/93/116
f 480/93/116 492/96/128 493/95/138
f 493/95/138 494/99/137 482/97/125
f 494/99/137 495/101/136 483/79/124
f 483/79/124 495/101/136 496/100/135
f 484/78/123 496/100/135 497/102/134
f 485/103/122 497/102/134 487/83/133
f 500/104/143 524/104/167 522/105/168
f 517/98/426 516/93/152 480/93/116
f 478/91/117 514/91/153 513/87/154
f 521/103/429 520/78/428 484/78/123
f 510/82/156 511/84/157 475/84/121
f 518/97/427 517/98/426 481/98/126
f 515/94/151 514/91/153 478/91/117
f 475/84/121 511/84/157 521/103/429
f 476/85/119 512/85/155 510/82/156
f 519/79/160 518/97/427 482/97/125
f 480/93/116 516/93/152 515/94/151
f 513/87/154 512/85/155 476/85/119
f 499/106/145 511/84/157 510/82/156
f 510/82/156 512/85/155 500/104/143
f 512/85/155 513/87/154 501/107/142
f 513/87/154 514/91/153 502/108/141
f 514/91/153 515/94/151 503/109/139
f 515/94/151 516/93/152 504/110/140
f 504/110/140 516/93/152 517/98/426
f 517/98/426 518/97/427 506/111/149
f 518/97/427 519/79/160 507/113/148
f 519/79/160 520/78/428 508/114/147
f 520/78/428 521/103/429 509/115/146
f 521/103/429 511/84/157 499/106/145
f 523/106/169 535/106/181 545/115/182
f 507/113/148 531/113/172 530/111/173
f 528/110/164 527/109/163 503/109/139
f 501/107/142 525/107/166 524/104/167
f 532/114/171 531/113/172 507/113/148
f 529/112/174 528/110/164 504/110/140
f 502/108/141 526/108/165 525/107/166
f 533/115/170 532/114/171 508/114/147
f 522/105/168 523/106/169 499/106/145
f 506/111/149 530/111/173 529/112/174
f 503/109/139 527/109/163 526/108/165
f 523/106/169 533/115/170 509/115/146
f 524/104/167 536/104/179 534/105/180
f 531/113/172 543/113/184 542/111/185
f 540/110/176 539/109/175 527/109/163
f 537/107/178 536/104/179 524/104/167
f 532/114/171 544/114/183 543/113/184
f 529/112/174 541/112/186 540/110/176
f 538/108/177 537/107/178 525/107/166
f 545/115/182 544/114/183 532/114/171
f 534/105/180 535/106/181 523/106/169
f 542/111/185 541/112/186 529/112/174
f 527/109/163 539/109/175 538/108/177
f 548/117/193 547/137/194 450/116/103
f 549/119/192 548/117/193 452/118/101
f 550/121/191 549/119/192 454/120/99
f 458/123/95 551/124/190 550/121/191
f 460/77/93 552/125/189 551/124/190
f 462/76/91 553/126/188 552/125/189
f 554/127/199 553/126/188 462/76/91
f 555/129/198 554/127/199 464/128/113
f 556/131/197 555/129/198 466/130/111
f 470/133/107 557/134/196 556/131/197
f 472/135/105 558/136/195 557/134/196
f 450/116/103 547/137/194 558/136/195
f 585/139/216 586/138/215 562/138/203
f 573/120/198 574/122/197 456/122/97
f 580/132/191 581/133/190 470/133/107
f 577/76/194 578/128/193 464/128/113
f 574/122/197 575/123/196 458/123/95
f 581/133/190 582/135/189 472/135/105
f 571/116/188 572/118/199 452/118/101
f 578/128/193 579/130/192 466/130/111
f 575/123/196 576/77/195 460/77/93
f 582/135/189 571/116/188 450/116/103
f 572/118/199 573/120/198 454/120/99
f 579/130/192 580/132/191 468/132/109
f 560/140/205 572/118/199 571/116/188
f 561/139/204 573/120/198 572/118/199
f 562/138/203 574/122/197 573/120/198
f 575/123/196 574/122/197 562/138/203
f 576/77/195 575/123/196 563/141/202
f 577/76/194 576/77/195 564/142/201
f 566/144/211 578/128/193 577/76/194
f 567/145/210 579/130/192 578/128/193
f 580/132/191 579/130/192 567/145/210
f 581/133/190 580/132/191 568/146/209
f 582/135/189 581/133/190 569/147/208
f 571/116/188 582/135/189 570/148/207
f 597/139/228 598/138/227 586/138/215
f 592/146/221 593/147/220 569/147/208
f 589/143/212 590/144/223 566/144/211
f 562/138/203 586/138/215 587/141/214
f 593/147/220 594/148/219 570/148/207
f 583/149/218 584/140/217 560/140/205
f 590/144/223 591/145/222 567/145/210
f 563/141/202 587/141/214 588/142/213
f 570/148/207 594/148/219 583/149/218
f 560/140/205 584/140/217 585/139/216
f 567/145/210 591/145/222 592/146/221
f 588/142/213 589/143/212 565/143/200
f 600/142/225 624/142/249 625/143/248
f 592/146/221 604/146/233 605/147/232
f 589/143/212 601/143/224 602/144/235
f 598/138/227 599/141/226 587/141/214
f 605/147/232 606/148/231 594/148/219
f 595/149/230 596/140/229 584/140/217
f 602/144/235 603/145/234 591/145/222
f 587/141/214 599/141/226 600/142/225
f 606/148/231 595/149/230 583/149/218
f 596/140/229 597/139/228 585/139/216
f 603/145/234 604/146/233 592/146/221
f 588/142/213 600/142/225 601/143/224
f 641/151/268 642/150/433 618/150/243
f 621/139/252 622/138/251 598/138/227
f 628/146/257 629/147/256 605/147/232
f 601/143/224 625/143/248 626/144/259
f 598/138/227 622/138/251 623/141/250
f 629/147/256 630/148/255 606/148/231
f 595/149/230 619/149/254 620/140/253
f 626/144/259 627/145/258 603/145/234
f 623/141/250 624/142/249 600/142/225
f 630/148/255 619/149/254 595/149/230
f 620/140/253 621/139/252 597/139/228
f 603/145/234 627/145/258 628/146/257
f 620/140/253 619/149/254 607/152/430
f 621/139/252 620/140/253 608/153/241
f 622/138/251 621/139/252 609/154/240
f 623/141/250 622/138/251 610/155/239
f 624/142/249 623/141/250 611/156/238
f 613/158/431 625/143/248 624/142/249
f 614/159/247 626/144/259 625/143/248
f 615/160/246 627/145/258 626/144/259
f 616/161/245 628/146/257 627/145/258
f 617/151/244 629/147/256 628/146/257
f 618/150/243 630/148/255 629/147/256
f 607/152/430 619/149/254 630/148/255
f 646/155/275 647/156/274 635/156/262
f 607/152/430 631/152/266 632/153/265
f 614/159/247 638/159/432 639/160/270
f 611/156/238 635/156/262 636/157/261
f 642/150/433 631/152/266 607/152/430
f 632/153/265 633/154/264 609/154/240
f 639/160/270 640/161/269 616/161/245
f 636/157/261 637/158/260 613/158/431
f 609/154/240 633/154/264 634/155/263
f 640/161/269 641/151/268 617/151/244
f 637/158/260 638/159/432 614/159/247
f 634/155/263 635/156/262 611/156/238
f 646/155/275 658/155/287 659/156/286
f 653/151/280 654/150/279 642/150/433
f 643/152/278 644/153/277 632/153/265
f 638/159/432 650/159/283 651/160/282
f 647/156/274 648/157/273 636/157/261
f 654/150/279 643/152/278 631/152/266
f 644/153/277 645/154/276 633/154/264
f 639/160/270 651/160/282 652/161/281
f 636/157/261 648/157/273 649/158/272
f 645/154/276 646/155/275 634/155/263
f 652/161/281 653/151/280 641/151/268
f 649/158/272 650/159/283 638/159/432
f 673/158/296 674/159/307 662/159/295
f 653/151/280 665/151/292 666/150/291
f 655/152/290 656/153/289 644/153/277
f 650/159/283 662/159/295 663/160/294
f 647/156/274 659/156/286 660/157/285
f 654/150/279 666/150/291 655/152/290
f 644/153/277 656/153/289 657/154/288
f 651/160/282 663/160/294 664/161/293
f 660/157/285 661/158/284 649/158/272
f 657/154/288 658/155/287 646/155/275
f 664/161/293 665/151/292 653/151/280
f 661/158/284 662/159/295 650/159/283
f 668/153/434 667/152/302 678/150/303
f 678/150/303 677/151/304 676/161/305
f 676/161/305 675/160/306 674/159/307
f 674/159/307 673/158/296 672/157/435
f 672/157/435 671/156/298 670/155/299
f 670/155/299 669/154/300 668/153/434
f 668/153/434 678/150/303 676/161/305
f 676/161/305 674/159/307 672/157/435
f 672/157/435 670/155/299 668/153/434
f 658/155/287 670/155/299 671/156/298
f 665/151/292 677/151/304 678/150/303
f 667/152/302 668/153/434 656/153/289
f 662/159/295 674/159/307 675/160/306
f 671/156/298 672/157/435 660/157/285
f 678/150/303 667/152/302 655/152/290
f 656/153/289 668/153/434 669/154/300
f 675/160/306 676/161/305 664/161/293
f 672/157/435 673/158/296 661/158/284
f 669/154/300 670/155/299 658/155/287
f 664/161/293 676/161/305 677/151/304
f 687/162/444 681/2/438 682/16/439
f 681/2/438 685/9/442 686/32/443
f 683/163/440 684/164/441 690/23/447
f 679/165/436 680/172/437 684/164/441
f 687/30/444 679/166/436 683/163/440
f 684/164/441 680/181/437 688/33/445
f 686/32/443 690/23/447 688/33/445
f 687/30/444 689/19/446 685/9/442
f 685/9/442 689/19/446 690/23/447
f 687/162/444 688/169/445 680/167/437
f 699/162/456 693/2/450 694/16/451
f 693/2/450 697/9/454 698/32/455
f 695/163/452 696/164/453 702/23/459
f 691/165/448 692/172/449 696/164/453
f 699/30/456 691/166/448 695/163/452
f 696/164/453 692/181/449 700/33/457
f 698/32/455 702/23/459 700/33/457
f 699/30/456 701/19/458 697/9/454
f 697/9/454 701/19/458 702/23/459
f 699/162/456 700/169/457 692/167/449
f 705/2/462 706/16/463 712/169/469
f 715/170/472 709/9/466 710/32/467
f 707/163/464 708/164/465 714/23/471
f 717/171/474 703/165/460 704/172/461
f 720/173/477 717/174/474 707/163/464
f 718/175/475 704/181/461 712/33/469
f 716/177/473 719/176/476 712/33/469
f 720/173/477 713/19/470 709/9/466
f 709/9/466 713/19/470 714/23/471
f 703/168/460 711/162/468 712/169/469
f 705/31/462 711/30/468 720/173/477
f 714/23/471 719/176/476 716/177/473
f 714/23/471 708/164/465 718/175/475
f 703/166/460 717/174/474 720/173/477
f 717/171/474 718/180/475 708/164/465
f 715/170/472 716/179/473 706/16/463
f 382/162/358 726/2/350 727/16/351
f 726/2/350 730/9/354 731/32/355
f 728/163/356 729/164/357 385/23/361
f 724/165/352 725/172/353 729/164/357
f 382/30/358 724/166/352 728/163/356
f 729/164/357 725/181/353 383/33/359
f 731/32/355 385/23/361 383/33/359
f 382/30/358 384/19/360 730/9/354
f 730/9/354 384/19/360 385/23/361
f 382/162/358 383/169/359 725/167/353
l 373 371
l 372 373
l 723 721
l 722 723
