# Blender 5.1.2
# www.blender.org
mtllib triangulated-CG-Model.mtl
o Plane
v -9.530300 -0.491377 -0.761596
v -9.530300 0.491377 -0.761596
v 11.157622 -0.491377 -0.761596
v 11.157622 0.491377 -0.761596
v -9.530300 -0.738711 0.000000
v -9.530300 0.738711 0.000000
v 11.157622 -0.738711 0.000000
v 11.157622 0.738711 0.000000
v -9.530300 0.246237 -1.000000
v -9.530300 -0.246237 -1.000000
v 11.157622 0.246237 -1.000000
v 11.157622 -0.246237 -1.000000
v 12.609282 0.344511 -0.621489
v 11.927015 0.505866 -0.670911
v -9.530300 0.246237 0.000000
v -9.530300 -0.246237 0.000000
v 13.327595 -0.075889 -0.476755
v 13.327595 -0.197646 -0.398857
v 13.327595 -0.274398 0.000000
v 13.327595 0.197646 -0.398857
v 13.327595 0.274398 0.000000
v 13.327595 -0.091466 0.000000
v 13.327595 0.075889 -0.476755
v 13.327595 0.091466 0.000000
v 13.803816 -0.021082 -0.051713
v 13.803816 -0.061828 -0.036294
v 13.803816 -0.065451 0.000000
v 13.803816 0.061828 -0.036294
v 13.803816 0.065451 0.000000
v 13.803816 -0.021817 0.000000
v 13.803816 0.021082 -0.051713
v 13.803816 0.021817 0.000000
v 13.875731 0.008819 0.000000
v 0.160913 -0.491377 -0.761596
v 0.160913 0.491377 -0.761596
v 0.160913 0.738711 0.000000
v 0.160913 -0.738711 0.000000
v 0.160913 -0.246237 -1.000000
v 0.160913 0.246237 -1.000000
v -9.977055 0.000000 0.000000
v -9.977055 0.000000 -1.000000
v -9.977055 -0.246237 0.000000
v -9.977055 0.246237 0.000000
v -9.977055 -0.246237 -0.953018
v -9.977055 0.246237 -0.953018
v -9.977055 0.738711 0.000000
v -9.977055 -0.738711 0.000000
v -9.155571 0.093866 -1.234221
v -9.155571 -0.093866 -1.234221
v -0.177377 -0.093866 -1.234221
v -0.177377 0.093866 -1.234221
v -8.304668 0.093866 -6.151714
v -8.304668 -0.093866 -6.151714
v -5.169948 -0.093866 -6.151714
v -5.169948 0.093866 -6.151714
v -9.876535 0.000000 -1.000000
v 11.157622 0.000000 -1.000000
v -9.530300 0.000000 0.000000
v 13.327595 -0.000000 -0.476755
v 13.803816 -0.000000 -0.051713
v 6.892735 0.000000 -1.000000
v -9.977055 0.491377 -0.761596
v -9.977055 -0.491377 -0.761596
v -9.365295 0.000000 -1.234221
v 0.882724 0.000000 -1.966635
v -8.514393 0.000000 -6.151714
v -4.722203 0.000000 -6.151714
v -11.610521 0.222370 -0.352956
v -12.213844 0.295373 0.000000
v -12.191547 0.418729 0.000000
v -11.490205 0.049639 -0.339638
v -11.538972 0.318566 -0.351956
v -11.982010 0.541667 0.000000
v -11.992484 0.110729 0.000000
v -11.849524 0.454080 -0.228501
v -11.101708 -0.206907 -0.425624
v 12.968439 0.390476 0.000000
v 12.609282 0.506554 0.000000
v 11.927015 0.710554 0.000000
v 12.968439 -0.390476 0.000000
v 12.968439 0.118476 -0.607566
v 12.609282 -0.506554 0.000000
v 12.609282 0.161063 -0.738377
v 12.102657 -0.622633 0.000000
v 12.968439 -0.000000 -0.607566
v 12.102657 0.203650 -0.869189
v 12.609282 -0.000000 -0.738377
v 12.102657 -0.000000 -0.869189
v 12.968439 -0.271079 -0.489541
v 12.968439 -0.118476 -0.607566
v 12.609282 -0.344511 -0.580226
v 12.609282 -0.161063 -0.738377
v 12.102657 -0.203650 -0.869189
v 12.102657 -0.417944 -0.670911
v 12.968439 0.271079 -0.489541
v 12.565870 0.647469 0.000000
v 12.871503 0.531391 0.000000
v 12.565870 0.485426 -0.569563
v 12.871503 0.411994 -0.478878
v -8.760000 0.000000 -7.217230
v -4.240000 -0.000000 -7.300000
v -8.760000 -0.258615 -7.147934
v -4.240000 -0.300000 -7.219615
v -8.760000 -0.447934 -6.958615
v -4.240000 -0.519615 -7.000000
v -8.760000 -0.517230 -6.700000
v -4.240000 -0.600000 -6.700000
v -8.760000 -0.447934 -6.441385
v -4.240000 -0.519615 -6.400000
v -8.760000 -0.258615 -6.252066
v -4.240000 -0.300000 -6.180385
v -8.760000 0.000000 -6.182770
v -4.240000 -0.000000 -6.100000
v -8.760000 0.258615 -6.252066
v -4.240000 0.300000 -6.180385
v -8.760000 0.447934 -6.441385
v -4.240000 0.519615 -6.400000
v -8.760000 0.517230 -6.700000
v -4.240000 0.600000 -6.700000
v -8.760000 0.447934 -6.958615
v -4.240000 0.519615 -7.000000
v -8.760000 0.258615 -7.147934
v -4.240000 0.300000 -7.219615
v -3.490523 -0.212615 -7.068260
v -3.490523 -0.000000 -7.125229
v -3.490523 -0.368260 -6.912615
v -3.490523 -0.425230 -6.700000
v -3.490523 -0.368260 -6.487385
v -3.490523 -0.212615 -6.331740
v -3.490523 -0.000000 -6.274770
v -3.490523 0.212615 -6.331740
v -3.490523 0.368260 -6.487385
v -3.490523 0.425230 -6.700000
v -3.490523 0.368260 -6.912615
v -3.490523 0.212615 -7.068260
v -3.490523 -0.238552 -7.113183
v -3.490523 -0.000000 -7.177104
v -3.490523 -0.413184 -6.938551
v -3.490523 -0.477104 -6.700000
v -3.490523 -0.413184 -6.461448
v -3.490523 -0.238552 -6.286816
v -3.490523 -0.000000 -6.222897
v -3.490523 0.238552 -6.286816
v -3.490523 0.413184 -6.461448
v -3.490523 0.477103 -6.700000
v -3.490523 0.413184 -6.938551
v -3.490523 0.238552 -7.113183
v -4.226222 -0.229367 -7.097274
v -4.226222 -0.000000 -7.158733
v -4.226222 -0.397275 -6.929367
v -4.226222 -0.458733 -6.700000
v -4.226222 -0.397275 -6.470634
v -4.226222 -0.229367 -6.302725
v -4.226222 -0.000000 -6.241267
v -4.226222 0.229366 -6.302725
v -4.226222 0.397274 -6.470633
v -4.226222 0.458733 -6.700000
v -4.226222 0.397274 -6.929366
v -4.226222 0.229366 -7.097274
v -4.226222 -0.273370 -7.173491
v -4.226222 -0.000000 -7.246740
v -4.226222 -0.473491 -6.973370
v -4.226222 -0.546740 -6.700000
v -4.226222 -0.473491 -6.426630
v -4.226222 -0.273370 -6.226509
v -4.226222 -0.000000 -6.153260
v -4.226222 0.273370 -6.226509
v -4.226222 0.473491 -6.426630
v -4.226222 0.546740 -6.700000
v -4.226222 0.473491 -6.973370
v -4.226222 0.273370 -7.173491
v -3.901342 -0.213004 -7.068933
v -3.901342 -0.000000 -7.126007
v -3.901342 -0.368933 -6.913003
v -3.901342 -0.426007 -6.700000
v -3.901342 -0.368933 -6.486996
v -3.901342 -0.213004 -6.331067
v -3.901342 -0.000000 -6.273993
v -3.901342 0.213003 -6.331067
v -3.901342 0.368933 -6.486996
v -3.901342 0.426007 -6.700000
v -3.901342 0.368933 -6.913003
v -3.901342 0.213003 -7.068933
v -3.273282 -0.147781 -6.955963
v -3.273282 -0.000000 -6.995561
v -3.273282 -0.255964 -6.847780
v -3.273282 -0.295561 -6.700000
v -3.273282 -0.255964 -6.552219
v -3.273282 -0.147781 -6.444036
v -3.273282 -0.000000 -6.404438
v -3.273282 0.147780 -6.444036
v -3.273282 0.255963 -6.552219
v -3.273282 0.295561 -6.700000
v -3.273282 0.255963 -6.847780
v -3.273282 0.147780 -6.955963
v -2.521488 -0.000000 -6.700000
v -8.760000 0.000000 -7.300000
v -8.760000 -0.300000 -7.219615
v -8.760000 -0.519615 -7.000000
v -8.760000 -0.600000 -6.700000
v -8.760000 -0.519615 -6.400000
v -8.760000 -0.300000 -6.180385
v -8.760000 0.000000 -6.100000
v -8.760000 0.300000 -6.180385
v -8.760000 0.519615 -6.400000
v -8.760000 0.600000 -6.700000
v -8.760000 0.519615 -7.000000
v -8.760000 0.300000 -7.219615
v -8.326891 0.000000 -6.923534
v -8.326891 -0.111767 -6.893586
v -8.326891 -0.193586 -6.811767
v -8.326891 -0.223534 -6.700000
v -8.326891 -0.193586 -6.588233
v -8.326891 -0.111767 -6.506413
v -8.326891 0.000000 -6.476466
v -8.326891 0.111767 -6.506413
v -8.326891 0.193586 -6.588233
v -8.326891 0.223534 -6.700000
v -8.326891 0.193586 -6.811767
v -8.326891 0.111767 -6.893586
v -8.326891 0.000000 -7.217230
v -8.326891 -0.258615 -7.147934
v -8.326891 -0.447934 -6.958615
v -8.326891 -0.517230 -6.700000
v -8.326891 -0.447934 -6.441385
v -8.326891 -0.258615 -6.252066
v -8.326891 0.000000 -6.182770
v -8.326891 0.258615 -6.252066
v -8.326891 0.447934 -6.441385
v -8.326891 0.517230 -6.700000
v -8.326891 0.447934 -6.958615
v -8.326891 0.258615 -7.147934
v -8.588819 0.000000 -7.062640
v -8.588819 -0.181320 -7.014055
v -8.588819 -0.314055 -6.881320
v -8.588819 -0.362640 -6.700000
v -8.588819 -0.314055 -6.518680
v -8.588819 -0.181320 -6.385944
v -8.588819 0.000000 -6.337359
v -8.588819 0.181320 -6.385944
v -8.588819 0.314056 -6.518680
v -8.588819 0.362640 -6.700000
v -8.588819 0.314056 -6.881320
v -8.588819 0.181320 -7.014055
v -8.913871 0.000000 -7.163504
v -8.913871 -0.231752 -7.101406
v -8.913871 -0.401406 -6.931752
v -8.913871 -0.463504 -6.700000
v -8.913871 -0.401406 -6.468248
v -8.913871 -0.231752 -6.298594
v -8.913871 0.000000 -6.236495
v -8.913871 0.231752 -6.298594
v -8.913871 0.401406 -6.468248
v -8.913871 0.463504 -6.700000
v -8.913871 0.401406 -6.931752
v -8.913871 0.231752 -7.101406
v -9.337793 0.000000 -7.200966
v -9.337793 -0.250483 -7.133849
v -9.337793 -0.433850 -6.950483
v -9.337793 -0.500966 -6.700000
v -9.337793 -0.433850 -6.449516
v -9.337793 -0.250483 -6.266150
v -9.337793 0.000000 -6.199033
v -9.337793 0.250483 -6.266150
v -9.337793 0.433850 -6.449516
v -9.337793 0.500967 -6.700000
v -9.337793 0.433850 -6.950483
v -9.337793 0.250483 -7.133849
v -9.337793 0.000000 -7.234599
v -9.337793 -0.267300 -7.162976
v -9.337793 -0.462977 -6.967299
v -9.337793 -0.534599 -6.700000
v -9.337793 -0.462976 -6.432700
v -9.337793 -0.267300 -6.237023
v -9.337793 0.000000 -6.165401
v -9.337793 0.267300 -6.237023
v -9.337793 0.462977 -6.432700
v -9.337793 0.534599 -6.700000
v -9.337793 0.462977 -6.967299
v -9.337793 0.267300 -7.162976
v -8.915062 -0.000000 -7.133400
v -8.915062 -0.216700 -7.075336
v -8.915062 -0.375336 -6.916700
v -8.915062 -0.433401 -6.700000
v -8.915062 -0.375336 -6.483299
v -8.915062 -0.216700 -6.324664
v -8.915062 -0.000000 -6.266599
v -8.915062 0.216700 -6.324664
v -8.915062 0.375336 -6.483299
v -8.915062 0.433401 -6.700000
v -8.915062 0.375336 -6.916700
v -8.915062 0.216700 -7.075336
v -8.590295 -0.000000 -7.035210
v -8.590295 -0.167605 -6.990300
v -8.590295 -0.290301 -6.867605
v -8.590295 -0.335211 -6.700000
v -8.590295 -0.290301 -6.532394
v -8.590295 -0.167605 -6.409699
v -8.590295 -0.000000 -6.364789
v -8.590295 0.167605 -6.409699
v -8.590295 0.290300 -6.532394
v -8.590295 0.335210 -6.700000
v -8.590295 0.290300 -6.867605
v -8.590295 0.167605 -6.990300
v -8.326773 -0.000000 -6.898658
v -8.326773 -0.099330 -6.872043
v -8.326773 -0.172044 -6.799329
v -8.326773 -0.198659 -6.700000
v -8.326773 -0.172044 -6.600670
v -8.326773 -0.099330 -6.527956
v -8.326773 -0.000000 -6.501341
v -8.326773 0.099329 -6.527956
v -8.326773 0.172043 -6.600670
v -8.326773 0.198658 -6.700000
v -8.326773 0.172043 -6.799329
v -8.326773 0.099329 -6.872043
v -8.098018 -0.000000 -6.726828
v -8.098018 -0.013414 -6.723234
v -8.098018 -0.023234 -6.713414
v -8.098018 -0.026829 -6.700000
v -8.098018 -0.023234 -6.686586
v -8.098018 -0.013414 -6.676766
v -8.098018 -0.000000 -6.673172
v -8.098018 0.013414 -6.676766
v -8.098018 0.023234 -6.686586
v -8.098018 0.026828 -6.700000
v -8.098018 0.023234 -6.713414
v -8.098018 0.013414 -6.723234
v -8.285122 0.455987 -6.362306
v -7.936966 1.367143 -5.836250
v -8.285122 0.520445 -6.473951
v -7.936966 1.431601 -5.947895
v -6.285121 0.455987 -6.362306
v -7.719411 1.367143 -5.836250
v -6.285121 0.520445 -6.473951
v -7.719411 1.431601 -5.947895
v -8.399473 0.488216 -6.418128
v -7.987065 1.463232 -5.855202
v -6.030373 0.488216 -6.418128
v -7.602993 1.463232 -5.855202
v -8.285122 -0.520445 -6.473951
v -7.936966 -1.431601 -5.947894
v -8.285122 -0.455986 -6.362306
v -7.936966 -1.367143 -5.836250
v -6.285121 -0.520445 -6.473951
v -7.719411 -1.431601 -5.947894
v -6.285121 -0.455986 -6.362306
v -7.719411 -1.367143 -5.836250
v -8.399473 -0.488216 -6.418128
v -7.987065 -1.463232 -5.855202
v -6.030373 -0.488216 -6.418128
v -7.602993 -1.463232 -5.855202
v -11.524984 0.190057 -0.218267
v -11.167939 -0.180696 -0.950453
v -11.524984 0.050458 -0.157464
v -11.167939 -0.320295 -0.889650
v -9.265800 0.079549 -0.436505
v -11.386364 -0.632489 -1.842682
v -9.265800 -0.060050 -0.375702
v -11.386364 -0.772088 -1.781879
v -11.762841 0.120258 -0.187865
v -11.439615 -0.259330 -0.937499
v -8.956917 0.009750 -0.406103
v -11.325557 -0.766283 -1.938660
v -10.478303 0.043058 -0.172079
v -11.631338 -0.779499 -1.796515
v -10.478303 0.182657 -0.232882
v -11.631338 -0.639900 -1.857318
v -11.921218 -0.766543 -1.939175
v -10.393187 0.112857 -0.202480
v -11.524984 0.190057 -0.218267
v -11.524984 0.050458 -0.157464
v -11.762841 0.120258 -0.187865
v -11.646520 0.537021 0.064458
v -11.433998 1.545218 0.064458
v -11.646520 0.537021 -0.064458
v -11.433998 1.545218 -0.064458
v -7.108664 0.537021 0.064458
v -10.970195 1.545218 0.064458
v -7.108664 0.537021 -0.064458
v -10.970195 1.545218 -0.064458
v -11.760871 0.537021 0.000000
v -11.540804 1.744552 0.000000
v -6.688002 0.537021 0.000000
v -10.844810 1.744552 0.000000
v -9.530300 -0.491377 0.761596
v -9.530300 0.491377 0.761596
v 11.157622 -0.491377 0.761596
v 11.157622 0.491377 0.761596
v -9.530300 0.246237 1.000000
v -9.530300 -0.246237 1.000000
v 11.157622 0.246237 1.000000
v 11.157622 -0.246237 1.000000
v 12.609282 0.344511 0.621489
v 11.927015 0.505866 0.670911
v 13.327595 -0.075889 0.476755
v 13.327595 -0.197646 0.398857
v 13.327595 0.197646 0.398857
v 13.327595 0.075889 0.476755
v 13.803816 -0.021082 0.051713
v 13.803816 -0.061828 0.036294
v 13.803816 0.061828 0.036294
v 13.803816 0.021082 0.051713
v 0.160913 -0.491377 0.761596
v 0.160913 0.491377 0.761596
v 0.160913 -0.246237 1.000000
v 0.160913 0.246237 1.000000
v -9.977055 0.000000 1.000000
v -9.977055 -0.246237 0.953018
v -9.977055 0.246237 0.953018
v -9.155571 0.093866 1.234221
v -9.155571 -0.093866 1.234221
v -0.177377 -0.093866 1.234221
v -0.177377 0.093866 1.234221
v -8.304668 0.093866 6.151714
v -8.304668 -0.093866 6.151714
v -5.169948 -0.093866 6.151714
v -5.169948 0.093866 6.151714
v -9.876535 0.000000 1.000000
v 11.157622 0.000000 1.000000
v 13.327595 -0.000000 0.476755
v 13.803816 -0.000000 0.051713
v 6.892735 0.000000 1.000000
v -9.977055 0.491377 0.761596
v -9.977055 -0.491377 0.761596
v -9.365295 0.000000 1.234221
v 0.882724 0.000000 1.966635
v -8.514393 0.000000 6.151714
v -4.722203 0.000000 6.151714
v -11.610521 0.222370 0.352956
v -11.490205 0.049639 0.339638
v -11.538972 0.318566 0.351956
v -11.849524 0.454080 0.228501
v -11.101708 -0.206907 0.425624
v 12.968439 0.118476 0.607566
v 12.609282 0.161063 0.738377
v 12.968439 -0.000000 0.607566
v 12.102657 0.203650 0.869189
v 12.609282 -0.000000 0.738377
v 12.102657 -0.000000 0.869189
v 12.968439 -0.271079 0.489541
v 12.968439 -0.118476 0.607566
v 12.609282 -0.344511 0.580226
v 12.609282 -0.161063 0.738377
v 12.102657 -0.203650 0.869189
v 12.102657 -0.417944 0.670911
v 12.968439 0.271079 0.489541
v 12.565870 0.485426 0.569563
v 12.871503 0.411994 0.478878
v -8.760000 0.000000 7.217230
v -4.240000 -0.000000 7.300000
v -8.760000 -0.258615 7.147934
v -4.240000 -0.300000 7.219615
v -8.760000 -0.447934 6.958615
v -4.240000 -0.519615 7.000000
v -8.760000 -0.517230 6.700000
v -4.240000 -0.600000 6.700000
v -8.760000 -0.447934 6.441385
v -4.240000 -0.519615 6.400000
v -8.760000 -0.258615 6.252066
v -4.240000 -0.300000 6.180385
v -8.760000 0.000000 6.182770
v -4.240000 -0.000000 6.100000
v -8.760000 0.258615 6.252066
v -4.240000 0.300000 6.180385
v -8.760000 0.447934 6.441385
v -4.240000 0.519615 6.400000
v -8.760000 0.517230 6.700000
v -4.240000 0.600000 6.700000
v -8.760000 0.447934 6.958615
v -4.240000 0.519615 7.000000
v -8.760000 0.258615 7.147934
v -4.240000 0.300000 7.219615
v -3.490523 -0.212615 7.068260
v -3.490523 -0.000000 7.125229
v -3.490523 -0.368260 6.912615
v -3.490523 -0.425230 6.700000
v -3.490523 -0.368260 6.487385
v -3.490523 -0.212615 6.331740
v -3.490523 -0.000000 6.274770
v -3.490523 0.212615 6.331740
v -3.490523 0.368260 6.487385
v -3.490523 0.425230 6.700000
v -3.490523 0.368260 6.912615
v -3.490523 0.212615 7.068260
v -3.490523 -0.238552 7.113183
v -3.490523 -0.000000 7.177104
v -3.490523 -0.413184 6.938551
v -3.490523 -0.477104 6.700000
v -3.490523 -0.413184 6.461448
v -3.490523 -0.238552 6.286816
v -3.490523 -0.000000 6.222897
v -3.490523 0.238552 6.286816
v -3.490523 0.413184 6.461448
v -3.490523 0.477103 6.700000
v -3.490523 0.413184 6.938551
v -3.490523 0.238552 7.113183
v -4.226222 -0.229367 7.097274
v -4.226222 -0.000000 7.158733
v -4.226222 -0.397275 6.929367
v -4.226222 -0.458733 6.700000
v -4.226222 -0.397275 6.470634
v -4.226222 -0.229367 6.302725
v -4.226222 -0.000000 6.241267
v -4.226222 0.229366 6.302725
v -4.226222 0.397274 6.470633
v -4.226222 0.458733 6.700000
v -4.226222 0.397274 6.929366
v -4.226222 0.229366 7.097274
v -4.226222 -0.273370 7.173491
v -4.226222 -0.000000 7.246740
v -4.226222 -0.473491 6.973370
v -4.226222 -0.546740 6.700000
v -4.226222 -0.473491 6.426630
v -4.226222 -0.273370 6.226509
v -4.226222 -0.000000 6.153260
v -4.226222 0.273370 6.226509
v -4.226222 0.473491 6.426630
v -4.226222 0.546740 6.700000
v -4.226222 0.473491 6.973370
v -4.226222 0.273370 7.173491
v -3.901342 -0.213004 7.068933
v -3.901342 -0.000000 7.126007
v -3.901342 -0.368933 6.913003
v -3.901342 -0.426007 6.700000
v -3.901342 -0.368933 6.486996
v -3.901342 -0.213004 6.331067
v -3.901342 -0.000000 6.273993
v -3.901342 0.213003 6.331067
v -3.901342 0.368933 6.486996
v -3.901342 0.426007 6.700000
v -3.901342 0.368933 6.913003
v -3.901342 0.213003 7.068933
v -3.273282 -0.147781 6.955963
v -3.273282 -0.000000 6.995561
v -3.273282 -0.255964 6.847780
v -3.273282 -0.295561 6.700000
v -3.273282 -0.255964 6.552219
v -3.273282 -0.147781 6.444036
v -3.273282 -0.000000 6.404438
v -3.273282 0.147780 6.444036
v -3.273282 0.255963 6.552219
v -3.273282 0.295561 6.700000
v -3.273282 0.255963 6.847780
v -3.273282 0.147780 6.955963
v -2.521488 -0.000000 6.700000
v -8.760000 0.000000 7.300000
v -8.760000 -0.300000 7.219615
v -8.760000 -0.519615 7.000000
v -8.760000 -0.600000 6.700000
v -8.760000 -0.519615 6.400000
v -8.760000 -0.300000 6.180385
v -8.760000 0.000000 6.100000
v -8.760000 0.300000 6.180385
v -8.760000 0.519615 6.400000
v -8.760000 0.600000 6.700000
v -8.760000 0.519615 7.000000
v -8.760000 0.300000 7.219615
v -8.326891 0.000000 6.923534
v -8.326891 -0.111767 6.893586
v -8.326891 -0.193586 6.811767
v -8.326891 -0.223534 6.700000
v -8.326891 -0.193586 6.588233
v -8.326891 -0.111767 6.506413
v -8.326891 0.000000 6.476466
v -8.326891 0.111767 6.506413
v -8.326891 0.193586 6.588233
v -8.326891 0.223534 6.700000
v -8.326891 0.193586 6.811767
v -8.326891 0.111767 6.893586
v -8.326891 0.000000 7.217230
v -8.326891 -0.258615 7.147934
v -8.326891 -0.447934 6.958615
v -8.326891 -0.517230 6.700000
v -8.326891 -0.447934 6.441385
v -8.326891 -0.258615 6.252066
v -8.326891 0.000000 6.182770
v -8.326891 0.258615 6.252066
v -8.326891 0.447934 6.441385
v -8.326891 0.517230 6.700000
v -8.326891 0.447934 6.958615
v -8.326891 0.258615 7.147934
v -8.588819 0.000000 7.062640
v -8.588819 -0.181320 7.014055
v -8.588819 -0.314055 6.881320
v -8.588819 -0.362640 6.700000
v -8.588819 -0.314055 6.518680
v -8.588819 -0.181320 6.385944
v -8.588819 0.000000 6.337359
v -8.588819 0.181320 6.385944
v -8.588819 0.314056 6.518680
v -8.588819 0.362640 6.700000
v -8.588819 0.314056 6.881320
v -8.588819 0.181320 7.014055
v -8.913871 0.000000 7.163504
v -8.913871 -0.231752 7.101406
v -8.913871 -0.401406 6.931752
v -8.913871 -0.463504 6.700000
v -8.913871 -0.401406 6.468248
v -8.913871 -0.231752 6.298594
v -8.913871 0.000000 6.236495
v -8.913871 0.231752 6.298594
v -8.913871 0.401406 6.468248
v -8.913871 0.463504 6.700000
v -8.913871 0.401406 6.931752
v -8.913871 0.231752 7.101406
v -9.337793 0.000000 7.200966
v -9.337793 -0.250483 7.133849
v -9.337793 -0.433850 6.950483
v -9.337793 -0.500966 6.700000
v -9.337793 -0.433850 6.449516
v -9.337793 -0.250483 6.266150
v -9.337793 0.000000 6.199033
v -9.337793 0.250483 6.266150
v -9.337793 0.433850 6.449516
v -9.337793 0.500967 6.700000
v -9.337793 0.433850 6.950483
v -9.337793 0.250483 7.133849
v -9.337793 0.000000 7.234599
v -9.337793 -0.267300 7.162976
v -9.337793 -0.462977 6.967299
v -9.337793 -0.534599 6.700000
v -9.337793 -0.462976 6.432700
v -9.337793 -0.267300 6.237023
v -9.337793 0.000000 6.165401
v -9.337793 0.267300 6.237023
v -9.337793 0.462977 6.432700
v -9.337793 0.534599 6.700000
v -9.337793 0.462977 6.967299
v -9.337793 0.267300 7.162976
v -8.915062 -0.000000 7.133400
v -8.915062 -0.216700 7.075336
v -8.915062 -0.375336 6.916700
v -8.915062 -0.433401 6.700000
v -8.915062 -0.375336 6.483299
v -8.915062 -0.216700 6.324664
v -8.915062 -0.000000 6.266599
v -8.915062 0.216700 6.324664
v -8.915062 0.375336 6.483299
v -8.915062 0.433401 6.700000
v -8.915062 0.375336 6.916700
v -8.915062 0.216700 7.075336
v -8.590295 -0.000000 7.035210
v -8.590295 -0.167605 6.990300
v -8.590295 -0.290301 6.867605
v -8.590295 -0.335211 6.700000
v -8.590295 -0.290301 6.532394
v -8.590295 -0.167605 6.409699
v -8.590295 -0.000000 6.364789
v -8.590295 0.167605 6.409699
v -8.590295 0.290300 6.532394
v -8.590295 0.335210 6.700000
v -8.590295 0.290300 6.867605
v -8.590295 0.167605 6.990300
v -8.326773 -0.000000 6.898658
v -8.326773 -0.099330 6.872043
v -8.326773 -0.172044 6.799329
v -8.326773 -0.198659 6.700000
v -8.326773 -0.172044 6.600670
v -8.326773 -0.099330 6.527956
v -8.326773 -0.000000 6.501341
v -8.326773 0.099329 6.527956
v -8.326773 0.172043 6.600670
v -8.326773 0.198658 6.700000
v -8.326773 0.172043 6.799329
v -8.326773 0.099329 6.872043
v -8.098018 -0.000000 6.726828
v -8.098018 -0.013414 6.723234
v -8.098018 -0.023234 6.713414
v -8.098018 -0.026829 6.700000
v -8.098018 -0.023234 6.686586
v -8.098018 -0.013414 6.676766
v -8.098018 -0.000000 6.673172
v -8.098018 0.013414 6.676766
v -8.098018 0.023234 6.686586
v -8.098018 0.026828 6.700000
v -8.098018 0.023234 6.713414
v -8.098018 0.013414 6.723234
v -8.285122 0.455987 6.362306
v -7.936966 1.367143 5.836250
v -8.285122 0.520445 6.473951
v -7.936966 1.431601 5.947895
v -6.285121 0.455987 6.362306
v -7.719411 1.367143 5.836250
v -6.285121 0.520445 6.473951
v -7.719411 1.431601 5.947895
v -8.399473 0.488216 6.418128
v -7.987065 1.463232 5.855202
v -6.030373 0.488216 6.418128
v -7.602993 1.463232 5.855202
v -8.285122 -0.520445 6.473951
v -7.936966 -1.431601 5.947894
v -8.285122 -0.455986 6.362306
v -7.936966 -1.367143 5.836250
v -6.285121 -0.520445 6.473951
v -7.719411 -1.431601 5.947894
v -6.285121 -0.455986 6.362306
v -7.719411 -1.367143 5.836250
v -8.399473 -0.488216 6.418128
v -7.987065 -1.463232 5.855202
v -6.030373 -0.488216 6.418128
v -7.602993 -1.463232 5.855202
v -11.524984 0.190057 0.218267
v -11.167939 -0.180696 0.950453
v -11.524984 0.050458 0.157464
v -11.167939 -0.320295 0.889650
v -9.265800 0.079549 0.436505
v -11.386364 -0.632489 1.842682
v -9.265800 -0.060050 0.375702
v -11.386364 -0.772088 1.781879
v -11.762841 0.120258 0.187865
v -11.439615 -0.259330 0.937499
v -8.956917 0.009750 0.406103
v -11.325557 -0.766283 1.938660
v -10.478303 0.043058 0.172079
v -11.631338 -0.779499 1.796515
v -10.478303 0.182657 0.232882
v -11.631338 -0.639900 1.857318
v -11.921218 -0.766543 1.939175
v -10.393187 0.112857 0.202480
v -11.524984 0.190057 0.218267
v -11.524984 0.050458 0.157464
v -11.762841 0.120258 0.187865
v -11.646520 0.537021 -0.064458
v -11.433998 1.545218 -0.064458
v -11.646520 0.537021 0.064458
v -11.433998 1.545218 0.064458
v -7.108664 0.537021 -0.064458
v -10.970195 1.545218 -0.064458
v -7.108664 0.537021 0.064458
v -10.970195 1.545218 0.064458
vn -0.4095 -0.3358 -0.8482
vn -0.0000 0.6972 -0.7169
vn -0.0000 0.9511 -0.3089
vn -0.0000 -0.9511 -0.3089
vn -0.0000 -0.6972 -0.7169
vn -0.0000 -0.0000 -1.0000
vn -0.0000 0.6155 -0.7882
vn -0.2707 0.2311 -0.9345
vn -0.0000 -0.0000 1.0000
vn 0.4001 -0.9119 -0.0910
vn 0.6339 -0.2737 -0.7233
vn 0.6168 0.7832 -0.0782
vn 0.6312 0.4180 -0.6533
vn 0.3903 0.9041 -0.1740
vn 0.6308 -0.2746 -0.7257
vn 0.6659 -0.0000 -0.7461
vn 0.5838 -0.0000 -0.8119
vn 0.7167 -0.6940 -0.0693
vn 0.5911 0.2855 -0.7544
vn -0.0000 0.8382 -0.5453
vn -0.0896 0.9115 -0.4013
vn -0.1035 0.1455 -0.9839
vn -0.0000 1.0000 -0.0000
vn 0.0356 -0.9745 -0.2216
vn -0.3594 0.5054 -0.7845
vn -0.0000 -0.8382 -0.5453
vn -0.4075 0.9105 -0.0705
vn 0.0459 -0.9971 -0.0614
vn -0.0000 -1.0000 -0.0000
vn 0.2009 0.9582 -0.2039
vn -0.4075 -0.9105 -0.0705
vn -0.2555 -0.5709 -0.7802
vn -0.1660 0.9188 -0.3580
vn -0.0752 -0.6952 -0.7149
vn -0.0000 -0.1874 -0.9823
vn -0.3861 -0.3352 -0.8594
vn -0.3158 -0.9024 -0.2931
vn -0.3465 0.1758 -0.9214
vn -0.4825 -0.3925 -0.7830
vn 0.4948 -0.0894 0.8644
vn 0.4979 0.5970 0.6290
vn 0.3422 -0.0000 -0.9396
vn 0.2243 -0.6363 -0.7381
vn 0.2500 -0.0000 -0.9682
vn 0.2502 -0.9406 -0.2294
vn 0.2009 0.6163 -0.7614
vn 0.3838 0.5649 -0.7304
vn 0.1371 -0.0000 -0.9906
vn 0.3073 -0.5129 -0.8016
vn 0.3089 -0.5819 -0.7523
vn 0.0185 0.9509 -0.3088
vn 0.1030 -0.9460 -0.3072
vn 0.1875 -0.9395 -0.2866
vn 0.3073 0.5129 -0.8016
vn 0.2502 0.9406 -0.2294
vn 0.1223 -0.6740 -0.7285
vn 0.0712 0.6954 -0.7151
vn 0.1567 0.3836 -0.9101
vn 0.2560 -0.9310 -0.2600
vn 0.0767 0.9537 -0.2910
vn 0.2981 0.9181 -0.2612
vn 0.8158 0.5612 -0.1399
vn 0.3842 0.3296 -0.8624
vn -0.0000 -0.2588 -0.9659
vn -0.0000 -0.7071 -0.7071
vn -0.0000 -0.9659 -0.2588
vn -0.0000 -0.9659 0.2588
vn -0.0000 -0.7071 0.7071
vn -0.0000 -0.2588 0.9659
vn -0.0000 0.2588 0.9659
vn -0.0000 0.7071 0.7071
vn -0.0000 0.9659 0.2588
vn -0.0000 0.9659 -0.2588
vn 0.1564 -0.6984 -0.6984
vn -0.0000 0.7071 -0.7071
vn -0.0000 0.2588 -0.9659
vn -0.1575 -0.9539 0.2556
vn 0.1564 0.9540 -0.2556
vn 0.1564 0.9540 0.2556
vn 0.1564 0.6984 0.6984
vn 0.1564 0.2556 0.9540
vn 0.1564 -0.2556 0.9540
vn 0.1564 -0.6984 0.6984
vn 0.1564 -0.9540 0.2556
vn 0.1564 0.2556 -0.9540
vn 0.1564 -0.2556 -0.9540
vn 0.1564 -0.9540 -0.2556
vn 0.1564 0.6984 -0.6984
vn 1.0000 -0.0000 -0.0000
vn 0.0968 -0.7038 -0.7038
vn -0.1575 -0.2556 -0.9539
vn -0.1575 0.9539 -0.2556
vn -0.1575 -0.6983 0.6983
vn -0.1575 0.2556 0.9539
vn -0.1575 -0.6983 -0.6983
vn -0.1575 0.6983 -0.6983
vn -0.1575 -0.2556 0.9539
vn -0.1575 0.6983 0.6983
vn -0.1575 -0.9539 -0.2556
vn -0.1575 0.2556 -0.9539
vn -0.1575 0.9539 0.2556
vn 0.1967 0.2538 -0.9471
vn 0.0968 0.9614 0.2576
vn 0.0968 -0.2576 0.9614
vn 0.0968 -0.9614 -0.2576
vn 0.0968 0.9614 -0.2576
vn 0.0968 0.2576 0.9614
vn 0.0968 -0.9614 0.2576
vn 0.0968 0.7038 -0.7038
vn 0.0968 -0.2576 -0.9614
vn 0.0968 0.7038 0.7038
vn 0.0968 -0.7038 0.7038
vn 0.0968 0.2576 -0.9614
vn 0.3550 -0.6610 0.6610
vn 0.1967 -0.6933 -0.6933
vn 0.1967 0.9471 0.2538
vn 0.1967 -0.2538 0.9471
vn 0.1967 -0.9471 -0.2538
vn 0.1967 0.9471 -0.2538
vn 0.1967 0.2538 0.9471
vn 0.1967 -0.9471 0.2538
vn 0.1967 0.6933 -0.6933
vn 0.1967 -0.2538 -0.9471
vn 0.1967 0.6933 0.6933
vn 0.1967 -0.6933 0.6933
vn 0.3550 0.2420 -0.9030
vn 0.3550 -0.6610 -0.6610
vn 0.3550 0.9030 0.2420
vn 0.3550 -0.2420 0.9030
vn 0.3550 -0.9030 -0.2420
vn 0.3550 0.9030 -0.2420
vn 0.3550 0.2420 0.9030
vn 0.3550 -0.9030 0.2420
vn 0.3550 0.6610 -0.6610
vn 0.3550 -0.2420 -0.9030
vn 0.3550 0.6610 0.6610
vn -1.0000 -0.0000 -0.0000
vn 0.4564 -0.8594 -0.2303
vn 0.2871 -0.9253 -0.2479
vn 0.4564 0.8594 -0.2303
vn 0.4564 0.2303 0.8594
vn 0.4564 -0.8594 0.2303
vn 0.4564 0.6292 -0.6292
vn 0.4564 -0.2303 -0.8594
vn 0.4564 0.6291 0.6292
vn 0.4564 -0.6292 0.6291
vn 0.4564 0.2303 -0.8594
vn 0.4564 -0.6291 -0.6292
vn 0.4564 0.8594 0.2303
vn 0.4564 -0.2303 0.8594
vn 0.1599 -0.2555 0.9535
vn 0.2871 0.9253 -0.2479
vn 0.2871 0.2479 0.9253
vn 0.2871 -0.9253 0.2479
vn 0.2871 0.6773 -0.6773
vn 0.2871 -0.2479 -0.9253
vn 0.2871 0.6773 0.6773
vn 0.2871 -0.6773 0.6773
vn 0.2871 0.2479 -0.9253
vn 0.2871 -0.6773 -0.6773
vn 0.2871 0.9253 0.2479
vn 0.2871 -0.2479 0.9253
vn -0.1526 -0.6988 0.6988
vn 0.1599 -0.9535 -0.2555
vn 0.1599 0.9535 -0.2555
vn 0.1599 0.2555 0.9535
vn 0.1599 -0.9535 0.2555
vn 0.1599 0.6980 -0.6980
vn 0.1599 -0.2555 -0.9535
vn 0.1599 0.6980 0.6980
vn 0.1599 -0.6980 0.6980
vn 0.1599 0.2555 -0.9535
vn 0.1599 -0.6980 -0.6980
vn 0.1599 0.9535 0.2555
vn -1.0000 -0.0000 0.0001
vn -0.2803 0.9272 -0.2484
vn -0.1526 0.2558 0.9546
vn -0.1526 -0.6988 -0.6988
vn -0.1526 0.6988 -0.6988
vn -0.1526 -0.2558 0.9546
vn -0.1526 0.6988 0.6988
vn -0.1526 -0.9546 -0.2558
vn -0.1526 0.2558 -0.9546
vn -0.1526 0.9546 0.2558
vn -0.1526 -0.9546 0.2558
vn -0.1526 -0.2558 -0.9546
vn -0.1526 0.9546 -0.2558
vn -0.4476 0.8638 -0.2314
vn -0.2803 -0.6788 0.6788
vn -0.2803 0.2484 0.9272
vn -0.2803 -0.6788 -0.6788
vn -0.2803 0.6788 -0.6788
vn -0.2803 -0.2484 0.9272
vn -0.2803 0.6788 0.6788
vn -0.2803 -0.9272 -0.2484
vn -0.2803 0.2484 -0.9272
vn -0.2803 0.9272 0.2484
vn -0.2803 -0.9272 0.2484
vn -0.2803 -0.2484 -0.9272
vn -0.5873 -0.2094 -0.7818
vn -0.4476 -0.6323 0.6323
vn -0.4476 0.2314 0.8638
vn -0.4476 -0.6323 -0.6323
vn -0.4476 0.6323 -0.6323
vn -0.4476 -0.2314 0.8638
vn -0.4476 0.6323 0.6323
vn -0.4476 -0.8638 -0.2314
vn -0.4476 0.2314 -0.8638
vn -0.4476 0.8638 0.2314
vn -0.4476 -0.8638 0.2314
vn -0.4476 -0.2314 -0.8638
vn -0.5872 0.7818 -0.2095
vn -0.5873 -0.5723 0.5723
vn -0.5873 0.2095 0.7818
vn -0.5873 -0.5723 -0.5723
vn -0.5873 0.5723 -0.5723
vn -0.5873 -0.2095 0.7818
vn -0.5873 0.5723 0.5723
vn -0.5872 -0.7818 -0.2094
vn -0.5873 0.2095 -0.7818
vn -0.5873 0.7818 0.2095
vn -0.5873 -0.7818 0.2095
vn -0.4847 0.5688 -0.6645
vn -0.0000 0.5000 -0.8660
vn 0.2321 -0.1778 0.9563
vn -0.0000 -0.5000 0.8660
vn -0.0000 -0.8660 -0.5000
vn -0.0000 0.1935 0.9811
vn -0.0000 0.9464 -0.3230
vn 0.2321 0.7393 -0.6322
vn -0.4847 -0.2910 0.8249
vn -0.4847 0.2910 0.8249
vn -0.0000 0.5000 0.8660
vn 0.2321 -0.7393 -0.6322
vn -0.0000 -0.5000 -0.8660
vn -0.0000 0.8660 -0.5000
vn -0.0000 -0.9464 -0.3230
vn -0.0000 -0.1935 0.9811
vn 0.2321 0.1778 0.9563
vn -0.4847 -0.5688 -0.6645
vn -0.3043 -0.8963 0.3227
vn -0.0000 -0.8921 0.4518
vn 0.2232 0.6861 -0.6924
vn -0.0000 0.8921 -0.4518
vn 0.1829 0.5715 0.7999
vn -0.3062 0.9005 -0.3087
vn -0.3019 -0.7841 0.5422
vn 0.1789 0.2014 0.9631
vn 0.2308 -0.9641 0.1315
vn -0.3004 0.7925 -0.5308
vn 0.0120 0.4333 0.9012
vn 0.0317 -0.9992 -0.0247
vn 0.0302 0.5917 -0.8056
vn 0.0119 0.3649 0.9310
vn -0.4884 0.1030 -0.8665
vn 0.1343 0.4623 0.8765
vn -0.0000 0.3077 0.9515
vn -0.0000 0.3077 -0.9515
vn 0.1343 0.4623 -0.8765
vn -0.4884 0.1030 0.8665
vn -0.3643 -0.5732 0.7340
vn -0.0000 0.6972 0.7169
vn -0.0000 0.9511 0.3089
vn -0.0000 -0.9511 0.3089
vn -0.0000 -0.6972 0.7169
vn -0.0752 0.6952 0.7149
vn -0.2650 0.5935 0.7600
vn 0.3903 -0.9041 0.1740
vn 0.6339 -0.2737 0.7233
vn 0.6168 0.7832 0.0782
vn 0.6312 0.4180 0.6533
vn 0.3903 0.9041 0.1740
vn 0.6312 -0.4180 0.6533
vn 0.6659 -0.0000 0.7461
vn 0.5838 -0.0000 0.8119
vn 0.7167 -0.6940 0.0693
vn 0.5911 0.2855 0.7544
vn -0.0000 0.8382 0.5453
vn -0.1063 0.9457 0.3071
vn -0.1035 0.1455 0.9839
vn 0.0356 -0.9745 0.2216
vn -0.3594 0.5054 0.7845
vn -0.0000 -0.8382 0.5453
vn -0.4075 0.9105 0.0705
vn 0.0459 -0.9971 0.0614
vn 0.0459 0.9971 0.0614
vn -0.4075 -0.9105 0.0705
vn -0.3594 -0.5054 0.7845
vn 0.0356 0.9745 0.2216
vn -0.0752 -0.6952 0.7149
vn -0.1035 -0.1455 0.9839
vn -0.3988 -0.1719 0.9008
vn -0.3158 -0.9024 0.2931
vn -0.3465 0.1758 0.9214
vn -0.4825 -0.3925 0.7830
vn 0.4976 0.4057 -0.7667
vn 0.5114 0.5544 -0.6566
vn 0.3422 -0.0000 0.9396
vn 0.2394 -0.6594 0.7127
vn 0.2500 -0.0000 0.9682
vn 0.2502 -0.9406 0.2294
vn 0.2543 0.5197 0.8156
vn 0.3838 0.5649 0.7304
vn 0.1371 -0.0000 0.9906
vn 0.3393 -0.5755 0.7441
vn 0.3331 -0.6157 0.7141
vn 0.0350 0.9559 0.2916
vn 0.1030 -0.9460 0.3072
vn 0.1875 -0.9395 0.2866
vn 0.3073 0.5129 0.8016
vn 0.3025 0.9360 0.1801
vn 0.1295 -0.6913 0.7108
vn 0.1363 0.5976 0.7901
vn 0.1567 0.3836 0.9101
vn 0.2560 -0.9310 0.2600
vn 0.0767 0.9537 0.2910
vn 0.3458 0.9104 0.2270
vn 0.8110 0.5684 0.1386
vn 0.3842 0.3296 0.8624
vn 0.4564 0.6292 0.6292
vn 0.4564 0.6291 -0.6292
vn 0.4564 -0.6292 0.6292
vn -0.4476 0.2315 -0.8638
vn -0.4476 -0.2315 -0.8638
vn -0.5873 -0.2095 -0.7818
vn -0.5873 0.7818 -0.2095
vn -0.5873 -0.7818 -0.2095
vn -0.6244 0.5715 0.5325
vn 0.2321 -0.1778 -0.9563
vn -0.0000 -0.8660 0.5000
vn -0.0000 0.1935 -0.9811
vn -0.0000 0.9464 0.3230
vn 0.2655 0.7603 0.5929
vn -0.4847 -0.2910 -0.8249
vn -0.6243 0.1754 -0.7612
vn 0.2321 -0.7393 0.6322
vn -0.0000 0.8660 0.5000
vn -0.0000 -0.9464 0.3230
vn -0.0000 -0.1935 -0.9811
vn 0.2655 0.1333 -0.9548
vn -0.4847 -0.5688 0.6645
vn -0.3043 -0.8963 -0.3227
vn -0.0000 -0.8921 -0.4518
vn 0.2232 0.6861 0.6924
vn -0.0000 0.8921 0.4517
vn 0.1357 0.8338 -0.5352
vn -0.3062 0.9005 0.3087
vn -0.2738 -0.7944 -0.5422
vn 0.1789 0.2014 -0.9631
vn 0.2748 -0.9589 -0.0711
vn -0.2585 0.8052 0.5338
vn 0.0156 0.3832 -0.9235
vn 0.0317 -0.9992 0.0247
vn 0.0005 0.5421 0.8403
vn 0.0119 0.3649 -0.9310
vn -0.0000 0.8921 0.4518
vn -0.4095 0.0746 0.9093
vn 0.0697 0.2670 0.9612
vn -0.3643 -0.5732 -0.7340
vn -0.0752 0.6952 -0.7149
vn -0.2650 0.5935 -0.7600
vn 0.3903 -0.9041 -0.1740
vn 0.6308 0.2746 -0.7257
vn 0.4001 0.9119 -0.0910
vn 0.6312 -0.4180 -0.6533
vn -0.1063 0.9457 -0.3071
vn -0.0000 0.1874 -0.9823
vn -0.1660 -0.9188 -0.3580
vn -0.2555 0.5709 -0.7802
vn 0.2009 -0.9582 -0.2039
vn 0.0459 0.9971 -0.0614
vn -0.3594 -0.5054 -0.7845
vn 0.0356 0.9745 -0.2216
vn -0.0000 -0.6155 -0.7882
vn -0.1035 -0.1455 -0.9839
vn -0.3988 -0.1719 -0.9008
vn -0.3854 -0.9144 -0.1242
vn -0.3265 0.2523 -0.9109
vn -0.4124 0.3156 -0.8546
vn -0.4293 0.7317 -0.5294
vn 0.4976 0.4057 0.7667
vn 0.5114 0.5544 0.6566
vn 0.2394 -0.6594 -0.7127
vn 0.3025 -0.9360 -0.1801
vn 0.2543 0.5197 -0.8156
vn 0.3477 0.5038 -0.7907
vn 0.3393 -0.5755 -0.7441
vn 0.3331 -0.6157 -0.7141
vn 0.0350 0.9559 -0.2916
vn 0.1167 -0.9499 -0.2898
vn 0.2155 -0.9405 -0.2627
vn 0.3393 0.5755 -0.7441
vn 0.3025 0.9360 -0.1801
vn 0.1295 -0.6913 -0.7108
vn 0.1363 0.5976 -0.7901
vn 0.2996 -0.9269 -0.2261
vn 0.0946 0.9575 -0.2724
vn 0.3458 0.9104 -0.2270
vn 0.8110 0.5684 -0.1386
vn 0.3492 0.4168 -0.8393
vn 0.4564 0.6292 0.6291
vn 0.4564 -0.6291 0.6292
vn 0.4564 -0.6292 -0.6292
vn -1.0000 -0.0000 -0.0001
vn -0.2803 0.6787 0.6788
vn -0.4476 -0.2315 0.8638
vn -1.0000 -0.0000 -0.0002
vn -1.0000 -0.0000 0.0002
vn -0.5873 0.2094 -0.7818
vn -0.6244 0.5715 -0.5325
vn 0.2655 -0.1333 0.9548
vn 0.2655 0.7603 -0.5929
vn -0.6244 -0.1754 0.7612
vn -0.6243 0.1754 0.7612
vn 0.2655 -0.7603 -0.5929
vn 0.2655 0.1333 0.9548
vn -0.6244 -0.5715 -0.5325
vn -0.2618 -0.9065 0.3313
vn 0.2647 0.6386 -0.7226
vn -0.0000 0.8921 -0.4517
vn 0.1357 0.8338 0.5352
vn -0.2776 0.9068 -0.3173
vn -0.2738 -0.7944 0.5422
vn 0.1289 -0.1429 0.9813
vn 0.2748 -0.9589 0.0711
vn -0.2585 0.8052 -0.5338
vn 0.0156 0.3832 0.9235
vn 0.0005 -0.9958 -0.0915
vn 0.0005 0.5421 -0.8403
vn 0.0156 0.4152 0.9096
vn -0.4095 0.0746 -0.9093
vn 0.0697 0.2670 -0.9612
vn -0.4095 -0.3358 0.8482
vn -0.0000 0.6155 0.7882
vn -0.2707 0.2311 0.9345
vn 0.4001 -0.9119 0.0910
vn 0.6308 0.2746 0.7257
vn 0.4001 0.9119 0.0910
vn 0.6308 -0.2746 0.7257
vn -0.0896 0.9115 0.4013
vn -0.0000 0.1874 0.9823
vn -0.1660 -0.9188 0.3580
vn -0.2555 0.5709 0.7802
vn 0.2009 -0.9582 0.2039
vn 0.2009 0.9582 0.2039
vn -0.2555 -0.5709 0.7802
vn -0.1660 0.9188 0.3580
vn -0.0000 -0.6155 0.7882
vn -0.0000 -0.1874 0.9823
vn -0.3861 -0.3352 0.8594
vn -0.3854 -0.9144 0.1242
vn -0.3265 0.2523 0.9109
vn -0.4124 0.3156 0.8546
vn -0.4293 0.7317 0.5294
vn 0.4948 -0.0894 -0.8644
vn 0.4979 0.5970 -0.6290
vn 0.2243 -0.6363 0.7381
vn 0.3025 -0.9360 0.1801
vn 0.2009 0.6163 0.7614
vn 0.3477 0.5038 0.7907
vn 0.3073 -0.5129 0.8016
vn 0.3089 -0.5819 0.7523
vn 0.0185 0.9509 0.3088
vn 0.1167 -0.9499 0.2898
vn 0.2155 -0.9405 0.2627
vn 0.3393 0.5755 0.7441
vn 0.2502 0.9406 0.2294
vn 0.1223 -0.6740 0.7285
vn 0.0712 0.6954 0.7151
vn 0.2996 -0.9269 0.2261
vn 0.0946 0.9575 0.2724
vn 0.2981 0.9181 0.2612
vn 0.8158 0.5612 0.1399
vn 0.3492 0.4168 0.8393
vn 0.4564 0.6292 -0.6291
vn 0.4564 -0.6292 -0.6291
vn -0.2803 0.6787 -0.6788
vn -0.5872 0.7818 0.2095
vn -0.5872 -0.7818 0.2094
vn -0.5873 0.2094 0.7818
vn -0.5872 -0.7818 -0.2095
vn -0.4847 0.5688 0.6645
vn 0.2655 -0.1333 -0.9548
vn 0.2321 0.7393 0.6322
vn -0.6243 -0.1754 -0.7612
vn -0.4847 0.2910 -0.8249
vn 0.2655 -0.7603 0.5929
vn 0.2321 0.1778 -0.9563
vn -0.6244 -0.5715 0.5325
vn -0.2618 -0.9065 -0.3313
vn 0.2647 0.6386 0.7226
vn 0.1829 0.5715 -0.7999
vn -0.2776 0.9068 0.3173
vn -0.3019 -0.7841 -0.5422
vn 0.1289 -0.1429 -0.9813
vn 0.2308 -0.9641 -0.1315
vn -0.3004 0.7925 0.5308
vn 0.0120 0.4333 -0.9012
vn 0.0005 -0.9958 0.0915
vn 0.0302 0.5917 0.8056
vn 0.0156 0.4152 -0.9096
vt 0.458333 0.250000
vt 0.375000 0.250000
vt 0.625000 0.371341
vt 0.541667 0.500000
vt 0.541667 0.371341
vt 0.875000 0.500000
vt 0.753659 0.625000
vt 0.753659 0.500000
vt 0.375000 0.500000
vt 0.246341 0.625000
vt 0.246341 0.500000
vt 0.458333 0.371341
vt 0.375000 0.371341
vt 0.500000 0.371341
vt 0.500000 0.500000
vt 0.625000 0.250000
vt 0.541667 0.250000
vt 0.000000 0.000000
vt 0.375000 0.625000
vt 0.375000 0.612701
vt 0.359581 0.580910
vt 0.625000 0.612702
vt 0.625000 0.625000
vt 0.625000 0.562868
vt 0.640419 0.580910
vt 0.541667 0.562868
vt 0.375000 0.562868
vt 0.500000 0.562868
vt 0.500000 0.580910
vt 0.125000 0.625000
vt 0.125000 0.500000
vt 0.625000 0.500000
vt 0.875000 0.625000
vt 0.500000 0.250000
vt 0.458333 0.562868
vt 0.458333 0.500000
vt 0.500000 0.547151
vt 0.458333 0.547151
vt 0.375000 0.515717
vt 0.458333 0.531434
vt 0.375000 0.531434
vt 0.500000 0.515717
vt 0.458333 0.515717
vt 0.375000 0.547151
vt 0.625000 0.531434
vt 0.541667 0.515717
vt 0.625000 0.515717
vt 0.541667 0.531434
vt 0.500000 0.531434
vt 0.541667 0.547151
vt 0.625000 0.547151
vt 1.000000 1.000000
vt 0.916667 0.500000
vt 1.000000 0.500000
vt 0.916667 1.000000
vt 0.833333 0.500000
vt 0.833333 1.000000
vt 0.750000 0.500000
vt 0.750000 1.000000
vt 0.666667 0.500000
vt 0.666667 1.000000
vt 0.583333 0.500000
vt 0.583333 1.000000
vt 0.500000 0.500000
vt 0.500000 1.000000
vt 0.416667 0.500000
vt 0.333333 1.000000
vt 0.333333 0.500000
vt 0.250000 0.500000
vt 0.250000 1.000000
vt 0.166667 0.500000
vt 0.166667 1.000000
vt 0.083333 0.500000
vt 0.083333 1.000000
vt 0.000000 0.500000
vt 0.750000 0.043108
vt 0.853446 0.070826
vt 0.064752 0.356953
vt 0.036094 0.250000
vt 0.416667 1.000000
vt 0.000000 1.000000
vt 0.356953 0.435248
vt 0.250000 0.490000
vt 0.250000 0.463906
vt 0.435248 0.356953
vt 0.370000 0.457846
vt 0.463906 0.250000
vt 0.457846 0.370000
vt 0.457846 0.130000
vt 0.490000 0.250000
vt 0.435248 0.143047
vt 0.370000 0.042154
vt 0.250000 0.036094
vt 0.356953 0.064752
vt 0.130000 0.042154
vt 0.250000 0.010000
vt 0.064752 0.143047
vt 0.143047 0.064752
vt 0.042154 0.130000
vt 0.042154 0.370000
vt 0.010000 0.250000
vt 0.130000 0.457846
vt 0.143047 0.435248
vt 0.405429 0.339737
vt 0.339737 0.405429
vt 0.250000 0.429474
vt 0.429474 0.250000
vt 0.405429 0.160263
vt 0.339737 0.094571
vt 0.250000 0.070526
vt 0.094571 0.160263
vt 0.160263 0.094571
vt 0.070526 0.250000
vt 0.094571 0.339737
vt 0.160263 0.405429
vt 0.750000 0.456892
vt 0.870000 0.457846
vt 0.853446 0.429174
vt 0.957846 0.370000
vt 0.929174 0.353446
vt 0.990000 0.250000
vt 0.956892 0.250000
vt 0.929174 0.146554
vt 0.957846 0.130000
vt 0.870000 0.042154
vt 0.750000 0.010000
vt 0.630000 0.042154
vt 0.646554 0.070826
vt 0.542154 0.130000
vt 0.570826 0.146554
vt 0.510000 0.250000
vt 0.543108 0.250000
vt 0.570826 0.353446
vt 0.542154 0.370000
vt 0.646554 0.429174
vt 0.630000 0.457846
vt 0.750000 0.490000
vt 0.839414 0.250000
vt 0.827435 0.294707
vt 0.794707 0.327435
vt 0.827435 0.205293
vt 0.794707 0.172566
vt 0.750000 0.160586
vt 0.705293 0.172566
vt 0.672566 0.205293
vt 0.660586 0.250000
vt 0.672565 0.294707
vt 0.705293 0.327435
vt 0.750000 0.339414
vt 0.708106 0.322563
vt 0.677437 0.291894
vt 0.750000 0.333789
vt 0.791894 0.322563
vt 0.822563 0.291894
vt 0.833788 0.250000
vt 0.822563 0.208106
vt 0.791894 0.177437
vt 0.750000 0.166212
vt 0.708106 0.177437
vt 0.677437 0.208106
vt 0.666212 0.250000
vt 0.375000 0.125000
vt 0.375000 0.750000
vt 0.625000 0.750000
vt 0.375000 1.000000
vt 0.125000 0.750000
vt 0.625000 0.000000
vt 0.375000 0.000000
vt 0.625000 0.125000
vt 0.375000 0.375000
vt 0.375000 0.875000
vt 0.625000 1.000000
vt 0.250000 0.625000
vt 0.250000 0.750000
vt 0.750000 0.750000
vt 0.750000 0.625000
vt 0.750000 0.500000
vt 0.250000 0.500000
vt 0.625000 0.375000
vt 0.625000 0.875000
vt 0.875000 0.750000
s 0
f 44/1/1 76/2/1 71/1/1
f 35/3/2 11/4/2 39/5/2
f 2/6/3 36/7/3 35/8/3
f 3/9/4 37/10/4 34/11/4
f 38/12/5 3/9/5 34/13/5
f 61/14/6 11/4/6 57/15/6
f 2/16/7 45/17/7 62/16/7
f 62/16/8 72/17/8 75/16/8
f 24/18/9 29/18/9 21/18/9
f 19/19/10 26/20/10 27/19/10
f 22/18/9 27/18/9 30/18/9
f 32/18/9 30/18/9 33/18/9
f 26/20/11 25/21/11 33/20/11
f 28/22/12 29/23/12 33/22/12
f 20/24/13 31/25/13 23/26/13
f 21/23/14 28/22/14 20/24/14
f 18/27/15 25/21/15 26/20/15
f 22/18/9 32/18/9 24/18/9
f 59/28/16 31/25/16 60/29/16
f 60/29/17 33/21/17 25/21/17
f 30/18/9 27/18/9 33/18/9
f 27/19/18 26/20/18 33/19/18
f 29/18/9 32/18/9 33/18/9
f 31/25/19 28/22/19 33/25/19
f 39/5/20 48/17/20 9/17/20
f 10/1/5 34/13/5 1/2/5
f 34/11/4 5/30/4 1/31/4
f 35/8/3 8/23/3 4/32/3
f 2/16/2 39/5/2 9/17/2
f 46/33/21 75/6/21 73/33/21
f 56/34/22 45/17/22 9/17/22
f 15/18/6 46/18/6 6/18/6
f 43/18/6 40/18/6 70/18/6
f 2/6/3 46/33/3 6/33/3
f 5/18/6 42/18/6 16/18/6
f 16/18/6 40/18/6 58/18/6
f 5/30/4 63/31/4 1/31/4
f 48/17/23 55/5/23 52/17/23
f 38/12/24 65/14/24 61/14/24
f 9/17/25 64/34/25 56/34/25
f 38/12/26 49/1/26 50/12/26
f 66/34/6 55/5/6 67/14/6
f 48/17/27 66/34/27 64/34/27
f 50/12/28 67/14/28 65/14/28
f 49/1/29 54/12/29 50/12/29
f 51/5/30 67/14/30 55/5/30
f 49/1/31 66/34/31 53/1/31
f 66/34/6 54/12/6 53/1/6
f 10/1/32 64/34/32 49/1/32
f 39/5/33 65/14/33 51/5/33
f 1/2/34 44/1/34 10/1/34
f 58/18/6 43/18/6 15/18/6
f 56/34/35 44/1/35 41/34/35
f 59/28/16 25/21/16 17/35/16
f 61/14/6 12/36/6 38/12/6
f 41/34/36 71/1/36 68/34/36
f 40/18/6 69/18/6 70/18/6
f 43/18/6 73/18/6 46/18/6
f 47/30/37 76/31/37 63/31/37
f 41/34/38 72/17/38 45/17/38
f 42/18/6 74/18/6 69/18/6
f 70/18/39 75/6/39 72/17/39
f 69/18/40 68/34/40 70/18/40
f 74/30/41 71/1/41 69/18/41
f 85/37/42 17/35/42 90/38/42
f 94/39/43 92/40/43 91/41/43
f 88/42/44 92/40/44 93/43/44
f 18/27/45 80/19/45 89/44/45
f 13/45/46 86/46/46 14/47/46
f 88/42/44 83/48/44 87/49/44
f 81/50/47 13/45/47 95/51/47
f 87/49/42 81/50/42 85/37/42
f 57/15/48 86/46/48 88/42/48
f 89/44/49 17/35/49 18/27/49
f 91/41/50 90/38/50 89/44/50
f 87/49/42 90/38/42 92/40/42
f 8/23/51 14/47/51 4/32/51
f 94/39/52 7/19/52 3/9/52
f 78/18/9 96/18/9 79/18/9
f 91/41/53 84/19/53 94/39/53
f 23/26/54 95/51/54 20/24/54
f 85/37/42 23/26/42 59/28/42
f 77/23/55 20/24/55 95/51/55
f 3/9/56 93/43/56 94/39/56
f 14/47/57 11/4/57 4/32/57
f 57/15/48 93/43/48 12/36/48
f 13/45/58 14/47/58 98/45/58
f 89/44/59 82/19/59 91/41/59
f 79/18/60 98/45/60 14/47/60
f 96/23/61 99/51/61 98/45/61
f 78/18/9 97/18/9 96/18/9
f 77/23/62 99/51/62 97/23/62
f 13/45/63 99/51/63 95/51/63
f 101/52/64 198/53/64 197/54/64
f 103/55/65 199/56/65 198/53/65
f 105/57/66 200/58/66 199/56/66
f 107/59/67 201/60/67 200/58/67
f 109/61/68 202/62/68 201/60/68
f 111/63/69 203/64/69 202/62/69
f 113/65/70 204/66/70 203/64/70
f 204/66/71 117/67/71 205/68/71
f 117/67/72 206/69/72 205/68/72
f 119/70/73 207/71/73 206/69/73
f 103/55/74 138/57/74 105/57/74
f 121/72/75 208/73/75 207/71/75
f 123/74/76 197/75/76 208/73/76
f 112/76/76 226/77/76 110/77/76
f 134/78/77 169/79/77 170/78/77
f 121/72/78 145/70/78 146/72/78
f 117/67/79 145/70/79 119/70/79
f 115/80/80 144/67/80 117/67/80
f 115/80/81 142/65/81 143/80/81
f 113/65/82 141/63/82 142/65/82
f 109/61/83 141/63/83 111/63/83
f 109/61/84 139/59/84 140/61/84
f 123/74/85 137/81/85 101/81/85
f 101/52/86 136/55/86 103/55/86
f 105/57/87 139/59/87 107/59/87
f 121/72/88 147/74/88 123/74/88
f 124/82/89 137/83/89 125/84/89
f 126/85/89 136/86/89 124/82/89
f 127/87/89 138/88/89 126/85/89
f 127/87/89 140/89/89 139/90/89
f 128/91/89 141/92/89 140/89/89
f 130/93/89 141/92/89 129/94/89
f 130/93/89 143/95/89 142/96/89
f 132/97/89 143/95/89 131/98/89
f 133/79/89 144/99/89 132/97/89
f 133/79/89 146/100/89 145/101/89
f 134/78/89 147/102/89 146/100/89
f 135/103/89 137/83/89 147/102/89
f 150/104/90 172/105/90 174/104/90
f 131/98/91 166/93/91 167/98/91
f 128/91/92 163/87/92 164/91/92
f 134/78/93 171/103/93 135/103/93
f 125/84/94 160/82/94 124/82/94
f 131/98/95 168/97/95 132/97/95
f 128/91/96 165/94/96 129/94/96
f 135/103/97 161/84/97 125/84/97
f 126/85/98 160/82/98 162/85/98
f 132/97/99 169/79/99 133/79/99
f 130/93/100 165/94/100 166/93/100
f 127/87/101 162/85/101 163/87/101
f 149/106/89 160/82/89 161/84/89
f 150/104/89 160/82/89 148/105/89
f 151/107/89 162/85/89 150/104/89
f 152/108/89 163/87/89 151/107/89
f 153/109/89 164/91/89 152/108/89
f 154/110/89 165/94/89 153/109/89
f 154/110/89 167/98/89 166/93/89
f 156/111/89 167/98/89 155/112/89
f 157/113/89 168/97/89 156/111/89
f 158/114/89 169/79/89 157/113/89
f 159/115/89 170/78/89 158/114/89
f 149/106/89 171/103/89 159/115/89
f 173/106/102 195/115/102 185/106/102
f 157/113/103 180/111/103 181/113/103
f 153/109/104 178/110/104 154/110/104
f 151/107/105 174/104/105 175/107/105
f 157/113/106 182/114/106 158/114/106
f 154/110/107 179/112/107 155/112/107
f 151/107/108 176/108/108 152/108/108
f 158/114/109 183/115/109 159/115/109
f 149/106/110 172/105/110 148/105/110
f 155/112/111 180/111/111 156/111/111
f 152/108/112 177/109/112 153/109/112
f 159/115/113 173/106/113 149/106/113
f 189/109/114 188/108/114 196/109/114
f 174/104/115 184/105/115 186/104/115
f 181/113/116 192/111/116 193/113/116
f 177/109/117 190/110/117 178/110/117
f 174/104/118 187/107/118 175/107/118
f 182/114/119 193/113/119 194/114/119
f 178/110/120 191/112/120 179/112/120
f 175/107/121 188/108/121 176/108/121
f 182/114/122 195/115/122 183/115/122
f 173/106/123 184/105/123 172/105/123
f 179/112/124 192/111/124 180/111/124
f 177/109/125 188/108/125 189/109/125
f 185/106/126 195/115/126 196/106/126
f 186/104/127 184/105/127 196/104/127
f 193/113/128 192/111/128 196/113/128
f 190/110/129 189/109/129 196/110/129
f 187/107/130 186/104/130 196/107/130
f 194/114/131 193/113/131 196/114/131
f 191/112/132 190/110/132 196/112/132
f 188/108/133 187/107/133 196/108/133
f 195/115/134 194/114/134 196/115/134
f 184/105/135 185/106/135 196/105/135
f 192/111/136 191/112/136 196/111/136
f 100/116/137 198/117/137 102/118/137
f 102/118/137 199/119/137 104/120/137
f 104/120/137 200/121/137 106/122/137
f 108/123/137 200/121/137 201/124/137
f 110/77/137 201/124/137 202/125/137
f 112/76/137 202/125/137 203/126/137
f 112/76/137 204/127/137 114/128/137
f 114/128/137 205/129/137 116/130/137
f 116/130/137 206/131/137 118/132/137
f 120/133/137 206/131/137 207/134/137
f 122/135/137 207/134/137 208/136/137
f 100/116/137 208/136/137 197/137/137
f 212/138/138 235/139/138 211/139/138
f 106/122/72 223/120/72 104/120/72
f 120/133/67 230/132/67 118/132/67
f 114/128/64 227/76/64 112/76/64
f 108/123/73 224/122/73 106/122/73
f 122/135/68 231/133/68 120/133/68
f 102/118/70 221/116/70 100/116/70
f 116/130/65 228/128/65 114/128/65
f 110/77/75 225/123/75 108/123/75
f 100/116/69 232/135/69 122/135/69
f 104/120/71 222/118/71 102/118/71
f 118/132/66 229/130/66 116/130/66
f 210/140/137 221/116/137 222/118/137
f 211/139/137 222/118/137 223/120/137
f 211/139/137 224/122/137 212/138/137
f 212/138/137 225/123/137 213/141/137
f 213/141/137 226/77/137 214/142/137
f 214/142/137 227/76/137 215/143/137
f 216/144/137 227/76/137 228/128/137
f 217/145/137 228/128/137 229/130/137
f 217/145/137 230/132/137 218/146/137
f 218/146/137 231/133/137 219/147/137
f 219/147/137 232/135/137 220/148/137
f 220/148/137 221/116/137 209/149/137
f 236/138/139 247/139/139 235/139/139
f 219/147/140 242/146/140 218/146/140
f 216/144/141 239/143/141 215/143/141
f 212/138/142 237/141/142 236/138/142
f 220/148/143 243/147/143 219/147/143
f 210/140/144 233/149/144 209/149/144
f 217/145/145 240/144/145 216/144/145
f 213/141/146 238/142/146 237/141/146
f 220/148/147 233/149/147 244/148/147
f 211/139/148 234/140/148 210/140/148
f 218/146/149 241/145/149 217/145/149
f 215/143/150 238/142/150 214/142/150
f 250/142/151 275/143/151 274/142/151
f 242/146/152 255/147/152 254/146/152
f 239/143/153 252/144/153 251/143/153
f 237/141/154 248/138/154 236/138/154
f 244/148/155 255/147/155 243/147/155
f 234/140/156 245/149/156 233/149/156
f 241/145/157 252/144/157 240/144/157
f 237/141/158 250/142/158 249/141/158
f 244/148/159 245/149/159 256/148/159
f 235/139/160 246/140/160 234/140/160
f 242/146/161 253/145/161 241/145/161
f 238/142/162 251/143/162 250/142/162
f 268/150/163 291/151/163 267/151/163
f 248/138/164 271/139/164 247/139/164
f 255/147/165 278/146/165 254/146/165
f 252/144/166 275/143/166 251/143/166
f 248/138/167 273/141/167 272/138/167
f 255/147/168 280/148/168 279/147/168
f 245/149/169 270/140/169 269/149/169
f 252/144/170 277/145/170 276/144/170
f 250/142/171 273/141/171 249/141/171
f 245/149/172 280/148/172 256/148/172
f 246/140/173 271/139/173 270/140/173
f 253/145/174 278/146/174 277/145/174
f 257/152/137 270/140/137 258/153/137
f 258/153/137 271/139/137 259/154/137
f 259/154/137 272/138/137 260/155/137
f 260/155/137 273/141/137 261/156/137
f 261/156/137 274/142/137 262/157/137
f 263/158/137 274/142/137 275/143/137
f 264/159/137 275/143/137 276/144/137
f 265/160/137 276/144/137 277/145/137
f 266/161/137 277/145/137 278/146/137
f 267/151/137 278/146/137 279/147/137
f 268/150/137 279/147/137 280/148/137
f 257/152/175 280/148/175 269/149/175
f 284/155/176 297/156/176 296/155/176
f 257/152/177 282/153/177 281/152/177
f 264/159/178 289/160/178 288/159/178
f 261/156/179 286/157/179 285/156/179
f 257/152/180 292/150/180 268/150/180
f 259/154/181 282/153/181 258/153/181
f 266/161/182 289/160/182 265/160/182
f 263/158/183 286/157/183 262/157/183
f 259/154/184 284/155/184 283/154/184
f 267/151/185 290/161/185 266/161/185
f 264/159/186 287/158/186 263/158/186
f 261/156/187 284/155/187 260/155/187
f 296/155/188 309/156/188 308/155/188
f 292/150/189 303/151/189 291/151/189
f 281/152/190 294/153/190 293/152/190
f 288/159/191 301/160/191 300/159/191
f 285/156/192 298/157/192 297/156/192
f 281/152/193 304/150/193 292/150/193
f 283/154/194 294/153/194 282/153/194
f 289/160/195 302/161/195 301/160/195
f 286/157/196 299/158/196 298/157/196
f 284/155/197 295/154/197 283/154/197
f 291/151/198 302/161/198 290/161/198
f 288/159/199 299/158/199 287/158/199
f 311/158/200 324/159/200 323/158/200
f 303/151/201 316/150/201 315/151/201
f 294/153/202 305/152/202 293/152/202
f 300/159/203 313/160/203 312/159/203
f 297/156/204 310/157/204 309/156/204
f 304/150/205 305/152/205 316/150/205
f 294/153/206 307/154/206 306/153/206
f 301/160/207 314/161/207 313/160/207
f 298/157/208 311/158/208 310/157/208
f 296/155/209 307/154/209 295/154/209
f 303/151/210 314/161/210 302/161/210
f 300/159/211 311/158/211 299/158/211
f 320/155/137 324/159/137 328/150/137
f 308/155/212 321/156/212 320/155/212
f 315/151/213 328/150/213 327/151/213
f 306/153/214 317/152/214 305/152/214
f 312/159/215 325/160/215 324/159/215
f 309/156/216 322/157/216 321/156/216
f 316/150/217 317/152/217 328/150/217
f 306/153/218 319/154/218 318/153/218
f 313/160/219 326/161/219 325/160/219
f 311/158/220 322/157/220 310/157/220
f 307/154/221 320/155/221 319/154/221
f 315/151/222 326/161/222 314/161/222
f 337/162/223 332/16/223 331/2/223
f 331/2/224 336/32/224 335/9/224
f 340/23/225 333/163/225 339/19/225
f 334/164/226 329/165/226 333/163/226
f 337/30/227 333/163/227 329/166/227
f 338/33/228 334/164/228 340/23/228
f 336/32/229 338/33/229 340/23/229
f 335/9/227 337/30/227 331/31/227
f 335/9/230 340/23/230 339/19/230
f 330/167/231 337/162/231 329/168/231
f 349/162/232 344/16/232 343/2/232
f 343/2/233 348/32/233 347/9/233
f 352/23/234 345/163/234 351/19/234
f 346/164/235 341/165/235 345/163/235
f 349/30/236 345/163/236 341/166/236
f 350/33/237 346/164/237 352/23/237
f 348/32/238 350/33/238 352/23/238
f 347/9/236 349/30/236 343/31/236
f 347/9/239 352/23/239 351/19/239
f 342/167/240 349/162/240 341/168/240
f 362/169/241 355/2/241 361/162/241
f 365/170/242 360/32/242 359/9/242
f 364/23/243 357/163/243 363/19/243
f 367/171/244 354/172/244 353/165/244
f 370/173/245 357/163/245 367/174/245
f 362/33/246 368/175/246 369/176/246
f 366/177/247 362/33/247 369/176/247
f 359/9/248 370/173/248 365/178/248
f 359/9/249 364/23/249 363/19/249
f 353/168/250 362/169/250 361/162/250
f 355/31/251 370/173/251 361/30/251
f 366/177/252 364/23/252 360/32/252
f 364/23/253 368/175/253 358/164/253
f 370/173/254 353/166/254 361/30/254
f 358/164/244 367/171/244 357/163/244
f 356/16/242 365/170/242 355/2/242
f 382/162/255 377/16/255 376/2/255
f 376/2/6 381/32/6 380/9/6
f 385/23/256 378/163/256 384/19/256
f 379/164/9 374/165/9 378/163/9
f 382/30/29 378/163/29 374/166/29
f 383/33/257 379/164/257 385/23/257
f 381/32/258 383/33/258 385/23/258
f 380/9/29 382/30/29 376/31/29
f 380/9/259 385/23/259 384/19/259
f 375/167/260 382/162/260 374/168/260
f 409/1/261 434/2/261 425/2/261
f 392/4/262 405/3/262 407/5/262
f 36/7/263 387/6/263 405/8/263
f 37/10/264 388/9/264 404/11/264
f 388/9/265 406/12/265 404/13/265
f 423/14/9 392/4/9 407/5/9
f 387/16/266 410/17/266 390/17/266
f 424/16/267 432/17/267 410/17/267
f 19/19/268 401/20/268 397/27/268
f 401/20/269 33/20/269 400/21/269
f 402/22/270 33/22/270 29/23/270
f 403/25/271 398/24/271 399/26/271
f 402/22/272 21/23/272 398/24/272
f 397/27/273 400/21/273 396/35/273
f 421/28/274 403/25/274 399/26/274
f 33/21/275 422/29/275 400/21/275
f 27/19/276 33/19/276 401/20/276
f 403/25/277 33/25/277 402/22/277
f 411/17/278 407/5/278 390/17/278
f 404/13/265 391/1/265 386/2/265
f 5/30/264 404/11/264 386/31/264
f 8/23/263 405/8/263 389/32/263
f 407/5/262 387/16/262 390/17/262
f 46/33/279 433/6/279 424/6/279
f 410/17/280 419/34/280 390/17/280
f 46/33/263 387/6/263 6/33/263
f 425/31/264 5/30/264 386/31/264
f 411/17/23 418/5/23 414/5/23
f 427/14/281 406/12/281 423/14/281
f 426/34/282 390/17/282 419/34/282
f 406/12/283 412/1/283 391/1/283
f 428/34/9 418/5/9 415/17/9
f 428/34/284 411/17/284 426/34/284
f 429/14/285 413/12/285 427/14/285
f 417/12/29 412/1/29 413/12/29
f 414/5/286 429/14/286 427/14/286
f 412/1/287 428/34/287 426/34/287
f 417/12/9 428/34/9 416/1/9
f 391/1/288 426/34/288 419/34/288
f 407/5/289 427/14/289 423/14/289
f 409/1/290 386/2/290 391/1/290
f 419/34/291 409/1/291 391/1/291
f 400/21/274 421/28/274 396/35/274
f 393/36/9 423/14/9 406/12/9
f 408/34/292 431/1/292 409/1/292
f 434/31/293 47/30/293 425/31/293
f 432/17/294 408/34/294 410/17/294
f 432/17/295 433/6/295 70/18/295
f 69/18/296 430/34/296 431/1/296
f 74/30/297 431/1/297 434/31/297
f 396/35/298 437/37/298 442/38/298
f 446/39/299 444/40/299 445/43/299
f 444/40/300 440/42/300 445/43/300
f 80/19/301 397/27/301 441/44/301
f 394/45/302 438/46/302 436/48/302
f 436/48/300 440/42/300 439/49/300
f 394/45/303 435/50/303 447/51/303
f 435/50/298 439/49/298 437/37/298
f 438/46/304 420/15/304 440/42/304
f 441/44/305 396/35/305 442/38/305
f 443/41/306 442/38/306 444/40/306
f 442/38/298 439/49/298 444/40/298
f 8/23/307 395/47/307 79/23/307
f 7/19/308 446/39/308 388/9/308
f 84/19/309 443/41/309 446/39/309
f 447/51/310 399/26/310 398/24/310
f 399/26/298 437/37/298 421/28/298
f 77/23/311 398/24/311 21/23/311
f 388/9/312 445/43/312 393/36/312
f 395/47/313 392/4/313 438/46/313
f 445/43/304 420/15/304 393/36/304
f 394/45/314 448/45/314 395/47/314
f 82/19/315 441/44/315 443/41/315
f 448/45/316 79/18/316 395/47/316
f 96/23/317 449/51/317 97/23/317
f 77/23/318 449/51/318 447/51/318
f 449/51/319 394/45/319 447/51/319
f 548/53/69 451/52/69 547/54/69
f 549/56/68 453/55/68 548/53/68
f 550/58/67 455/57/67 549/56/67
f 551/60/66 457/59/66 550/58/66
f 552/62/65 459/61/65 551/60/65
f 553/64/64 461/63/64 552/62/64
f 554/66/76 463/65/76 553/64/76
f 554/66/75 467/67/75 465/80/75
f 556/69/73 467/67/73 555/68/73
f 557/71/72 469/70/72 556/69/72
f 455/57/83 486/55/83 453/55/83
f 558/73/71 471/72/71 557/71/71
f 547/75/70 473/74/70 558/73/70
f 576/77/70 462/76/70 460/77/70
f 484/78/99 519/79/99 483/79/99
f 471/72/79 495/70/79 469/70/79
f 495/70/78 467/67/78 469/70/78
f 494/67/88 465/80/88 467/67/88
f 493/80/85 463/65/85 465/80/85
f 463/65/86 491/63/86 461/63/86
f 491/63/74 459/61/74 461/63/74
f 459/61/87 489/59/87 457/59/87
f 487/81/81 473/74/81 451/81/81
f 486/55/82 451/52/82 453/55/82
f 489/59/84 455/57/84 457/59/84
f 497/74/80 471/72/80 473/74/80
f 487/83/89 474/82/89 475/84/89
f 486/86/89 476/85/89 474/82/89
f 488/88/89 477/87/89 476/85/89
f 477/87/89 490/89/89 478/91/89
f 478/91/89 491/92/89 479/94/89
f 491/92/89 480/93/89 479/94/89
f 480/93/89 493/95/89 481/98/89
f 493/95/89 482/97/89 481/98/89
f 494/99/89 483/79/89 482/97/89
f 483/79/89 496/100/89 484/78/89
f 484/78/89 497/102/89 485/103/89
f 485/103/89 487/83/89 475/84/89
f 500/104/112 522/105/112 498/105/112
f 517/98/97 480/93/97 481/98/97
f 478/91/101 513/87/101 477/87/101
f 521/103/95 484/78/95 485/103/95
f 510/82/100 475/84/100 474/82/100
f 518/97/93 481/98/93 482/97/93
f 515/94/98 478/91/98 479/94/98
f 475/84/91 521/103/91 485/103/91
f 476/85/96 510/82/96 474/82/96
f 519/79/77 482/97/77 483/79/77
f 480/93/94 515/94/94 479/94/94
f 513/87/92 476/85/92 477/87/92
f 499/106/89 510/82/89 498/105/89
f 510/82/89 500/104/89 498/105/89
f 512/85/89 501/107/89 500/104/89
f 513/87/89 502/108/89 501/107/89
f 514/91/89 503/109/89 502/108/89
f 515/94/89 504/110/89 503/109/89
f 504/110/89 517/98/89 505/112/89
f 517/98/89 506/111/89 505/112/89
f 518/97/89 507/113/89 506/111/89
f 519/79/89 508/114/89 507/113/89
f 520/78/89 509/115/89 508/114/89
f 521/103/89 499/106/89 509/115/89
f 523/106/120 545/115/120 533/115/120
f 507/113/106 530/111/106 506/111/106
f 528/110/110 503/109/110 504/110/110
f 501/107/108 524/104/108 500/104/108
f 532/114/103 507/113/103 508/114/103
f 529/112/113 504/110/113 505/112/113
f 502/108/105 525/107/105 501/107/105
f 533/115/111 508/114/111 509/115/111
f 522/105/104 499/106/104 498/105/104
f 506/111/109 529/112/109 505/112/109
f 503/109/90 526/108/90 502/108/90
f 523/106/107 509/115/107 499/106/107
f 539/109/127 546/109/127 538/108/127
f 524/104/125 534/105/125 522/105/125
f 531/113/119 542/111/119 530/111/119
f 540/110/123 527/109/123 528/110/123
f 537/107/121 524/104/121 525/107/121
f 532/114/116 543/113/116 531/113/116
f 529/112/102 540/110/102 528/110/102
f 538/108/118 525/107/118 526/108/118
f 545/115/124 532/114/124 533/115/124
f 534/105/117 523/106/117 522/105/117
f 542/111/122 529/112/122 530/111/122
f 527/109/115 538/108/115 526/108/115
f 535/106/132 546/106/132 545/115/132
f 536/104/114 546/104/114 534/105/114
f 543/113/131 546/113/131 542/111/131
f 540/110/135 546/110/135 539/109/135
f 537/107/133 546/107/133 536/104/133
f 544/114/128 546/114/128 543/113/128
f 541/112/126 546/112/126 540/110/126
f 538/108/130 546/108/130 537/107/130
f 545/115/136 546/115/136 544/114/136
f 534/105/129 546/105/129 535/106/129
f 542/111/134 546/111/134 541/112/134
f 548/117/137 450/116/137 452/118/137
f 549/119/137 452/118/137 454/120/137
f 550/121/137 454/120/137 456/122/137
f 458/123/137 550/121/137 456/122/137
f 460/77/137 551/124/137 458/123/137
f 462/76/137 552/125/137 460/77/137
f 554/127/137 462/76/137 464/128/137
f 555/129/137 464/128/137 466/130/137
f 556/131/137 466/130/137 468/132/137
f 470/133/137 556/131/137 468/132/137
f 472/135/137 557/134/137 470/133/137
f 450/116/137 558/136/137 472/135/137
f 585/139/142 562/138/142 561/139/142
f 573/120/73 456/122/73 454/120/73
f 580/132/66 470/133/66 468/132/66
f 577/76/69 464/128/69 462/76/69
f 574/122/72 458/123/72 456/122/72
f 581/133/65 472/135/65 470/133/65
f 571/116/76 452/118/76 450/116/76
f 578/128/68 466/130/68 464/128/68
f 575/123/71 460/77/71 458/123/71
f 582/135/64 450/116/64 472/135/64
f 572/118/75 454/120/75 452/118/75
f 579/130/67 468/132/67 466/130/67
f 560/140/137 571/116/137 559/149/137
f 561/139/137 572/118/137 560/140/137
f 562/138/137 573/120/137 561/139/137
f 575/123/137 562/138/137 563/141/137
f 576/77/137 563/141/137 564/142/137
f 577/76/137 564/142/137 565/143/137
f 566/144/137 577/76/137 565/143/137
f 567/145/137 578/128/137 566/144/137
f 580/132/137 567/145/137 568/146/137
f 581/133/137 568/146/137 569/147/137
f 582/135/137 569/147/137 570/148/137
f 571/116/137 570/148/137 559/149/137
f 597/139/154 586/138/154 585/139/154
f 592/146/149 569/147/149 568/146/149
f 589/143/147 566/144/147 565/143/147
f 562/138/138 587/141/138 563/141/138
f 593/147/320 570/148/320 569/147/320
f 583/149/150 560/140/150 559/149/150
f 590/144/321 567/145/321 566/144/321
f 563/141/148 588/142/148 564/142/148
f 570/148/141 583/149/141 559/149/141
f 560/140/322 585/139/322 561/139/322
f 567/145/140 592/146/140 568/146/140
f 588/142/144 565/143/144 564/142/144
f 600/142/169 625/143/169 601/143/169
f 592/146/161 605/147/161 593/147/161
f 589/143/159 602/144/159 590/144/159
f 598/138/139 587/141/139 586/138/139
f 605/147/157 594/148/157 593/147/157
f 595/149/162 584/140/162 583/149/162
f 602/144/155 591/145/155 590/144/155
f 587/141/160 600/142/160 588/142/160
f 606/148/153 583/149/153 594/148/153
f 596/140/158 585/139/158 584/140/158
f 603/145/152 592/146/152 591/145/152
f 588/142/156 601/143/156 589/143/156
f 641/151/178 618/150/178 617/151/178
f 621/139/167 598/138/167 597/139/167
f 628/146/174 605/147/174 604/146/174
f 601/143/172 626/144/172 602/144/172
f 598/138/164 623/141/164 599/141/164
f 629/147/170 606/148/170 605/147/170
f 595/149/151 620/140/151 596/140/151
f 626/144/168 603/145/168 602/144/168
f 623/141/173 600/142/173 599/141/173
f 630/148/166 595/149/166 606/148/166
f 620/140/171 597/139/171 596/140/171
f 603/145/165 628/146/165 604/146/165
f 620/140/175 607/152/175 608/153/175
f 621/139/137 608/153/137 609/154/137
f 622/138/137 609/154/137 610/155/137
f 623/141/137 610/155/137 611/156/137
f 624/142/137 611/156/137 612/157/137
f 613/158/137 624/142/137 612/157/137
f 614/159/137 625/143/137 613/158/137
f 615/160/137 626/144/137 614/159/137
f 616/161/137 627/145/137 615/160/137
f 617/151/137 628/146/137 616/161/137
f 618/150/137 629/147/137 617/151/137
f 607/152/137 630/148/137 618/150/137
f 646/155/197 635/156/197 634/155/197
f 607/152/183 632/153/183 608/153/183
f 614/159/163 639/160/163 615/160/163
f 611/156/181 636/157/181 612/157/181
f 642/150/186 607/152/186 618/150/186
f 632/153/179 609/154/179 608/153/179
f 639/160/185 616/161/185 615/160/185
f 636/157/177 613/158/177 612/157/177
f 609/154/187 634/155/187 610/155/187
f 640/161/182 617/151/182 616/161/182
f 637/158/180 614/159/180 613/158/180
f 634/155/184 611/156/184 610/155/184
f 646/155/209 659/156/209 647/156/209
f 653/151/191 642/150/191 641/151/191
f 643/152/196 632/153/196 631/152/196
f 638/159/189 651/160/189 639/160/189
f 647/156/194 636/157/194 635/156/194
f 654/150/199 631/152/199 642/150/199
f 644/153/192 633/154/192 632/153/192
f 639/160/198 652/161/198 640/161/198
f 636/157/190 649/158/190 637/158/190
f 645/154/176 634/155/176 633/154/176
f 652/161/195 641/151/195 640/161/195
f 649/158/193 638/159/193 637/158/193
f 673/158/217 662/159/217 661/158/217
f 653/151/203 666/150/203 654/150/203
f 655/152/323 644/153/323 643/152/323
f 650/159/201 663/160/201 651/160/201
f 647/156/206 660/157/206 648/157/206
f 654/150/324 655/152/324 643/152/324
f 644/153/204 657/154/204 645/154/204
f 651/160/210 664/161/210 652/161/210
f 660/157/202 649/158/202 648/157/202
f 657/154/188 646/155/188 645/154/188
f 664/161/207 653/151/207 652/161/207
f 661/158/205 650/159/205 649/158/205
f 676/161/137 672/157/137 668/153/137
f 658/155/221 671/156/221 659/156/221
f 665/151/215 678/150/215 666/150/215
f 667/152/220 656/153/220 655/152/220
f 662/159/213 675/160/213 663/160/213
f 671/156/218 660/157/218 659/156/218
f 678/150/325 655/152/325 666/150/325
f 656/153/216 669/154/216 657/154/216
f 675/160/222 664/161/222 663/160/222
f 672/157/214 661/158/214 660/157/214
f 669/154/326 658/155/326 657/154/326
f 664/161/327 677/151/327 665/151/327
f 687/162/328 682/16/328 688/169/328
f 681/2/233 686/32/233 682/16/233
f 683/163/329 690/23/329 689/19/329
f 679/165/235 684/164/235 683/163/235
f 687/30/330 683/163/330 689/19/330
f 684/164/331 688/33/331 690/23/331
f 686/32/332 688/33/332 682/6/332
f 687/30/330 685/9/330 681/31/330
f 685/9/333 690/23/333 686/32/333
f 687/162/334 680/167/334 679/168/334
f 699/162/335 694/16/335 700/169/335
f 693/2/224 698/32/224 694/16/224
f 695/163/336 702/23/336 701/19/336
f 691/165/226 696/164/226 695/163/226
f 699/30/337 695/163/337 701/19/337
f 696/164/338 700/33/338 702/23/338
f 698/32/339 700/33/339 694/6/339
f 699/30/337 697/9/337 693/31/337
f 697/9/340 702/23/340 698/32/340
f 699/162/341 692/167/341 691/168/341
f 705/2/342 712/169/342 711/162/342
f 715/170/343 710/32/343 716/179/343
f 707/163/344 714/23/344 713/19/344
f 717/171/345 704/172/345 718/180/345
f 720/173/346 707/163/346 713/19/346
f 718/175/347 712/33/347 719/176/347
f 716/177/348 712/33/348 706/6/348
f 720/173/349 709/9/349 715/178/349
f 709/9/350 714/23/350 710/32/350
f 703/168/351 712/169/351 704/167/351
f 705/31/352 720/173/352 715/178/352
f 714/23/353 716/177/353 710/32/353
f 714/23/354 718/175/354 719/176/354
f 703/166/355 720/173/355 711/30/355
f 717/171/356 708/164/356 707/163/356
f 715/170/343 706/16/343 705/2/343
f 382/162/357 727/16/357 383/169/357
f 726/2/9 731/32/9 727/16/9
f 728/163/259 385/23/259 384/19/259
f 724/165/6 729/164/6 728/163/6
f 382/30/29 728/163/29 384/19/29
f 729/164/258 383/33/258 385/23/258
f 731/32/257 383/33/257 727/6/257
f 382/30/29 730/9/29 726/31/29
f 730/9/358 385/23/358 731/32/358
f 382/162/255 725/167/255 724/168/255
f 44/1/359 63/2/359 76/2/359
f 35/3/2 4/32/2 11/4/2
f 2/6/3 6/33/3 36/7/3
f 3/9/4 7/19/4 37/10/4
f 38/12/5 12/36/5 3/9/5
f 61/14/6 39/5/6 11/4/6
f 2/16/360 9/17/360 45/17/360
f 62/16/361 45/17/361 72/17/361
f 24/18/9 32/18/9 29/18/9
f 19/19/362 18/27/362 26/20/362
f 22/18/9 19/18/9 27/18/9
f 20/24/363 28/22/363 31/25/363
f 21/23/364 29/23/364 28/22/364
f 18/27/365 17/35/365 25/21/365
f 22/18/9 30/18/9 32/18/9
f 59/28/16 23/26/16 31/25/16
f 60/29/17 31/25/17 33/21/17
f 39/5/20 51/5/20 48/17/20
f 10/1/5 38/12/5 34/13/5
f 34/11/4 37/10/4 5/30/4
f 35/8/3 36/7/3 8/23/3
f 2/16/2 35/3/2 39/5/2
f 46/33/366 62/6/366 75/6/366
f 56/34/367 41/34/367 45/17/367
f 15/18/6 43/18/6 46/18/6
f 2/6/3 62/6/3 46/33/3
f 5/18/6 47/18/6 42/18/6
f 16/18/6 42/18/6 40/18/6
f 5/30/4 47/30/4 63/31/4
f 48/17/23 51/5/23 55/5/23
f 38/12/368 50/12/368 65/14/368
f 9/17/369 48/17/369 64/34/369
f 38/12/26 10/1/26 49/1/26
f 66/34/6 52/17/6 55/5/6
f 48/17/27 52/17/27 66/34/27
f 50/12/370 54/12/370 67/14/370
f 49/1/29 53/1/29 54/12/29
f 51/5/371 65/14/371 67/14/371
f 49/1/31 64/34/31 66/34/31
f 66/34/6 67/14/6 54/12/6
f 10/1/372 56/34/372 64/34/372
f 39/5/373 61/14/373 65/14/373
f 1/2/374 63/2/374 44/1/374
f 58/18/6 40/18/6 43/18/6
f 56/34/375 10/1/375 44/1/375
f 59/28/16 60/29/16 25/21/16
f 61/14/6 57/15/6 12/36/6
f 41/34/376 44/1/376 71/1/376
f 40/18/6 42/18/6 69/18/6
f 43/18/6 70/18/6 73/18/6
f 47/30/377 74/30/377 76/31/377
f 41/34/378 68/34/378 72/17/378
f 42/18/6 47/18/6 74/18/6
f 72/17/379 68/34/379 70/18/379
f 70/18/380 73/18/380 75/6/380
f 69/18/381 71/1/381 68/34/381
f 74/30/382 76/31/382 71/1/382
f 85/37/42 59/28/42 17/35/42
f 94/39/383 93/43/383 92/40/383
f 88/42/44 87/49/44 92/40/44
f 18/27/384 19/19/384 80/19/384
f 13/45/385 83/48/385 86/46/385
f 88/42/44 86/46/44 83/48/44
f 81/50/386 83/48/386 13/45/386
f 87/49/42 83/48/42 81/50/42
f 57/15/48 11/4/48 86/46/48
f 89/44/387 90/38/387 17/35/387
f 91/41/388 92/40/388 90/38/388
f 87/49/42 85/37/42 90/38/42
f 8/23/389 79/23/389 14/47/389
f 94/39/390 84/19/390 7/19/390
f 91/41/391 82/19/391 84/19/391
f 23/26/392 81/50/392 95/51/392
f 85/37/42 81/50/42 23/26/42
f 77/23/393 21/23/393 20/24/393
f 3/9/394 12/36/394 93/43/394
f 14/47/395 86/46/395 11/4/395
f 57/15/48 88/42/48 93/43/48
f 89/44/396 80/19/396 82/19/396
f 79/18/397 96/23/397 98/45/397
f 96/23/398 97/23/398 99/51/398
f 78/18/9 77/18/9 97/18/9
f 77/23/399 95/51/399 99/51/399
f 13/45/400 98/45/400 99/51/400
f 101/52/64 103/55/64 198/53/64
f 103/55/65 105/57/65 199/56/65
f 105/57/66 107/59/66 200/58/66
f 107/59/67 109/61/67 201/60/67
f 109/61/68 111/63/68 202/62/68
f 111/63/69 113/65/69 203/64/69
f 113/65/70 115/80/70 204/66/70
f 204/66/71 115/80/71 117/67/71
f 117/67/72 119/70/72 206/69/72
f 119/70/73 121/72/73 207/71/73
f 103/55/74 136/55/74 138/57/74
f 121/72/75 123/74/75 208/73/75
f 123/74/76 101/81/76 197/75/76
f 112/76/76 227/76/76 226/77/76
f 134/78/77 133/79/77 169/79/77
f 121/72/78 119/70/78 145/70/78
f 117/67/79 144/67/79 145/70/79
f 115/80/80 143/80/80 144/67/80
f 115/80/81 113/65/81 142/65/81
f 113/65/82 111/63/82 141/63/82
f 109/61/83 140/61/83 141/63/83
f 109/61/84 107/59/84 139/59/84
f 123/74/85 147/74/85 137/81/85
f 101/52/86 137/52/86 136/55/86
f 105/57/87 138/57/87 139/59/87
f 121/72/88 146/72/88 147/74/88
f 124/82/89 136/86/89 137/83/89
f 126/85/89 138/88/89 136/86/89
f 127/87/89 139/90/89 138/88/89
f 127/87/89 128/91/89 140/89/89
f 128/91/89 129/94/89 141/92/89
f 130/93/89 142/96/89 141/92/89
f 130/93/89 131/98/89 143/95/89
f 132/97/89 144/99/89 143/95/89
f 133/79/89 145/101/89 144/99/89
f 133/79/89 134/78/89 146/100/89
f 134/78/89 135/103/89 147/102/89
f 135/103/89 125/84/89 137/83/89
f 150/104/90 148/105/90 172/105/90
f 131/98/91 130/93/91 166/93/91
f 128/91/92 127/87/92 163/87/92
f 134/78/93 170/78/93 171/103/93
f 125/84/94 161/84/94 160/82/94
f 131/98/95 167/98/95 168/97/95
f 128/91/96 164/91/96 165/94/96
f 135/103/97 171/103/97 161/84/97
f 126/85/98 124/82/98 160/82/98
f 132/97/99 168/97/99 169/79/99
f 130/93/100 129/94/100 165/94/100
f 127/87/101 126/85/101 162/85/101
f 149/106/89 148/105/89 160/82/89
f 150/104/89 162/85/89 160/82/89
f 151/107/89 163/87/89 162/85/89
f 152/108/89 164/91/89 163/87/89
f 153/109/89 165/94/89 164/91/89
f 154/110/89 166/93/89 165/94/89
f 154/110/89 155/112/89 167/98/89
f 156/111/89 168/97/89 167/98/89
f 157/113/89 169/79/89 168/97/89
f 158/114/89 170/78/89 169/79/89
f 159/115/89 171/103/89 170/78/89
f 149/106/89 161/84/89 171/103/89
f 173/106/102 183/115/102 195/115/102
f 157/113/103 156/111/103 180/111/103
f 153/109/104 177/109/104 178/110/104
f 151/107/105 150/104/105 174/104/105
f 157/113/106 181/113/106 182/114/106
f 154/110/107 178/110/107 179/112/107
f 151/107/108 175/107/108 176/108/108
f 158/114/109 182/114/109 183/115/109
f 149/106/110 173/106/110 172/105/110
f 155/112/111 179/112/111 180/111/111
f 152/108/112 176/108/112 177/109/112
f 159/115/113 183/115/113 173/106/113
f 174/104/115 172/105/115 184/105/115
f 181/113/116 180/111/116 192/111/116
f 177/109/117 189/109/117 190/110/117
f 174/104/118 186/104/118 187/107/118
f 182/114/119 181/113/119 193/113/119
f 178/110/120 190/110/120 191/112/120
f 175/107/121 187/107/121 188/108/121
f 182/114/122 194/114/122 195/115/122
f 173/106/123 185/106/123 184/105/123
f 179/112/124 191/112/124 192/111/124
f 177/109/125 176/108/125 188/108/125
f 100/116/137 197/137/137 198/117/137
f 102/118/137 198/117/137 199/119/137
f 104/120/137 199/119/137 200/121/137
f 108/123/137 106/122/137 200/121/137
f 110/77/137 108/123/137 201/124/137
f 112/76/137 110/77/137 202/125/137
f 112/76/137 203/126/137 204/127/137
f 114/128/137 204/127/137 205/129/137
f 116/130/137 205/129/137 206/131/137
f 120/133/137 118/132/137 206/131/137
f 122/135/137 120/133/137 207/134/137
f 100/116/137 122/135/137 208/136/137
f 212/138/138 236/138/138 235/139/138
f 106/122/72 224/122/72 223/120/72
f 120/133/67 231/133/67 230/132/67
f 114/128/64 228/128/64 227/76/64
f 108/123/73 225/123/73 224/122/73
f 122/135/68 232/135/68 231/133/68
f 102/118/70 222/118/70 221/116/70
f 116/130/65 229/130/65 228/128/65
f 110/77/75 226/77/75 225/123/75
f 100/116/69 221/116/69 232/135/69
f 104/120/71 223/120/71 222/118/71
f 118/132/66 230/132/66 229/130/66
f 210/140/137 209/149/137 221/116/137
f 211/139/137 210/140/137 222/118/137
f 211/139/137 223/120/137 224/122/137
f 212/138/137 224/122/137 225/123/137
f 213/141/137 225/123/137 226/77/137
f 214/142/137 226/77/137 227/76/137
f 216/144/137 215/143/137 227/76/137
f 217/145/137 216/144/137 228/128/137
f 217/145/137 229/130/137 230/132/137
f 218/146/137 230/132/137 231/133/137
f 219/147/137 231/133/137 232/135/137
f 220/148/137 232/135/137 221/116/137
f 236/138/139 248/138/139 247/139/139
f 219/147/140 243/147/140 242/146/140
f 216/144/141 240/144/141 239/143/141
f 212/138/142 213/141/142 237/141/142
f 220/148/143 244/148/143 243/147/143
f 210/140/144 234/140/144 233/149/144
f 217/145/401 241/145/401 240/144/401
f 213/141/402 214/142/402 238/142/402
f 220/148/147 209/149/147 233/149/147
f 211/139/403 235/139/403 234/140/403
f 218/146/149 242/146/149 241/145/149
f 215/143/150 239/143/150 238/142/150
f 250/142/151 251/143/151 275/143/151
f 242/146/152 243/147/152 255/147/152
f 239/143/153 240/144/153 252/144/153
f 237/141/154 249/141/154 248/138/154
f 244/148/155 256/148/155 255/147/155
f 234/140/156 246/140/156 245/149/156
f 241/145/157 253/145/157 252/144/157
f 237/141/158 238/142/158 250/142/158
f 244/148/159 233/149/159 245/149/159
f 235/139/160 247/139/160 246/140/160
f 242/146/161 254/146/161 253/145/161
f 238/142/162 239/143/162 251/143/162
f 268/150/163 292/150/163 291/151/163
f 248/138/164 272/138/164 271/139/164
f 255/147/165 279/147/165 278/146/165
f 252/144/166 276/144/166 275/143/166
f 248/138/167 249/141/167 273/141/167
f 255/147/168 256/148/168 280/148/168
f 245/149/169 246/140/169 270/140/169
f 252/144/170 253/145/170 277/145/170
f 250/142/171 274/142/171 273/141/171
f 245/149/172 269/149/172 280/148/172
f 246/140/173 247/139/173 271/139/173
f 253/145/174 254/146/174 278/146/174
f 257/152/404 269/149/404 270/140/404
f 258/153/137 270/140/137 271/139/137
f 259/154/137 271/139/137 272/138/137
f 260/155/137 272/138/137 273/141/137
f 261/156/137 273/141/137 274/142/137
f 263/158/137 262/157/137 274/142/137
f 264/159/137 263/158/137 275/143/137
f 265/160/137 264/159/137 276/144/137
f 266/161/137 265/160/137 277/145/137
f 267/151/137 266/161/137 278/146/137
f 268/150/137 267/151/137 279/147/137
f 257/152/137 268/150/137 280/148/137
f 284/155/176 285/156/176 297/156/176
f 257/152/177 258/153/177 282/153/177
f 264/159/178 265/160/178 289/160/178
f 261/156/179 262/157/179 286/157/179
f 257/152/180 281/152/180 292/150/180
f 259/154/181 283/154/181 282/153/181
f 266/161/182 290/161/182 289/160/182
f 263/158/183 287/158/183 286/157/183
f 259/154/184 260/155/184 284/155/184
f 267/151/185 291/151/185 290/161/185
f 264/159/186 288/159/186 287/158/186
f 261/156/187 285/156/187 284/155/187
f 296/155/188 297/156/188 309/156/188
f 292/150/189 304/150/189 303/151/189
f 281/152/190 282/153/190 294/153/190
f 288/159/191 289/160/191 301/160/191
f 285/156/192 286/157/192 298/157/192
f 281/152/193 293/152/193 304/150/193
f 283/154/405 295/154/405 294/153/405
f 289/160/195 290/161/195 302/161/195
f 286/157/196 287/158/196 299/158/196
f 284/155/197 296/155/197 295/154/197
f 291/151/198 303/151/198 302/161/198
f 288/159/199 300/159/199 299/158/199
f 311/158/325 312/159/325 324/159/325
f 303/151/201 304/150/201 316/150/201
f 294/153/202 306/153/202 305/152/202
f 300/159/203 301/160/203 313/160/203
f 297/156/204 298/157/204 310/157/204
f 304/150/406 293/152/406 305/152/406
f 294/153/206 295/154/206 307/154/206
f 301/160/207 302/161/207 314/161/207
f 298/157/208 299/158/208 311/158/208
f 296/155/209 308/155/209 307/154/209
f 303/151/210 315/151/210 314/161/210
f 300/159/211 312/159/211 311/158/211
f 328/150/137 317/152/137 318/153/137
f 318/153/175 319/154/175 320/155/175
f 320/155/407 321/156/407 322/157/407
f 322/157/137 323/158/137 324/159/137
f 324/159/404 325/160/404 326/161/404
f 326/161/408 327/151/408 328/150/408
f 328/150/137 318/153/137 320/155/137
f 320/155/137 322/157/137 324/159/137
f 324/159/137 326/161/137 328/150/137
f 308/155/326 309/156/326 321/156/326
f 315/151/213 316/150/213 328/150/213
f 306/153/214 318/153/214 317/152/214
f 312/159/215 313/160/215 325/160/215
f 309/156/216 310/157/216 322/157/216
f 316/150/217 305/152/217 317/152/217
f 306/153/218 307/154/218 319/154/218
f 313/160/327 314/161/327 326/161/327
f 311/158/409 323/158/409 322/157/409
f 307/154/221 308/155/221 320/155/221
f 315/151/222 327/151/222 326/161/222
f 337/162/410 338/169/410 332/16/410
f 331/2/224 332/16/224 336/32/224
f 340/23/411 334/164/411 333/163/411
f 334/164/226 330/172/226 329/165/226
f 337/30/227 339/19/227 333/163/227
f 338/33/228 330/181/228 334/164/228
f 336/32/229 332/6/229 338/33/229
f 335/9/227 339/19/227 337/30/227
f 335/9/412 336/32/412 340/23/412
f 330/167/413 338/169/413 337/162/413
f 349/162/414 350/169/414 344/16/414
f 343/2/233 344/16/233 348/32/233
f 352/23/415 346/164/415 345/163/415
f 346/164/235 342/172/235 341/165/235
f 349/30/236 351/19/236 345/163/236
f 350/33/237 342/181/237 346/164/237
f 348/32/238 344/6/238 350/33/238
f 347/9/236 351/19/236 349/30/236
f 347/9/416 348/32/416 352/23/416
f 342/167/417 350/169/417 349/162/417
f 362/169/418 356/16/418 355/2/418
f 365/170/242 366/179/242 360/32/242
f 364/23/419 358/164/419 357/163/419
f 367/171/420 368/180/420 354/172/420
f 370/173/421 363/19/421 357/163/421
f 362/33/422 354/181/422 368/175/422
f 366/177/423 356/6/423 362/33/423
f 359/9/424 363/19/424 370/173/424
f 359/9/425 360/32/425 364/23/425
f 353/168/426 354/167/426 362/169/426
f 355/31/427 365/178/427 370/173/427
f 366/177/428 369/176/428 364/23/428
f 364/23/429 369/176/429 368/175/429
f 370/173/430 367/174/430 353/166/430
f 358/164/244 368/180/244 367/171/244
f 356/16/242 366/179/242 365/170/242
f 382/162/431 383/169/431 377/16/431
f 376/2/6 377/16/6 381/32/6
f 385/23/358 379/164/358 378/163/358
f 379/164/9 375/172/9 374/165/9
f 382/30/29 384/19/29 378/163/29
f 383/33/257 375/181/257 379/164/257
f 381/32/258 377/6/258 383/33/258
f 380/9/29 384/19/29 382/30/29
f 380/9/432 381/32/432 385/23/432
f 375/167/357 383/169/357 382/162/357
f 409/1/433 431/1/433 434/2/433
f 392/4/262 389/32/262 405/3/262
f 36/7/263 6/33/263 387/6/263
f 37/10/264 7/19/264 388/9/264
f 388/9/265 393/36/265 406/12/265
f 423/14/9 420/15/9 392/4/9
f 387/16/434 424/16/434 410/17/434
f 424/16/435 433/16/435 432/17/435
f 19/19/436 27/19/436 401/20/436
f 403/25/437 402/22/437 398/24/437
f 402/22/438 29/23/438 21/23/438
f 397/27/439 401/20/439 400/21/439
f 421/28/274 422/29/274 403/25/274
f 33/21/275 403/25/275 422/29/275
f 411/17/278 414/5/278 407/5/278
f 404/13/265 406/12/265 391/1/265
f 5/30/264 37/10/264 404/11/264
f 8/23/263 36/7/263 405/8/263
f 407/5/262 405/3/262 387/16/262
f 46/33/440 73/33/440 433/6/440
f 410/17/441 408/34/441 419/34/441
f 46/33/263 424/6/263 387/6/263
f 425/31/264 47/30/264 5/30/264
f 411/17/23 415/17/23 418/5/23
f 427/14/442 413/12/442 406/12/442
f 426/34/443 411/17/443 390/17/443
f 406/12/283 413/12/283 412/1/283
f 428/34/9 429/14/9 418/5/9
f 428/34/284 415/17/284 411/17/284
f 429/14/444 417/12/444 413/12/444
f 417/12/29 416/1/29 412/1/29
f 414/5/445 418/5/445 429/14/445
f 412/1/287 416/1/287 428/34/287
f 417/12/9 429/14/9 428/34/9
f 391/1/446 412/1/446 426/34/446
f 407/5/447 414/5/447 427/14/447
f 409/1/448 425/2/448 386/2/448
f 419/34/449 408/34/449 409/1/449
f 400/21/274 422/29/274 421/28/274
f 393/36/9 420/15/9 423/14/9
f 408/34/450 430/34/450 431/1/450
f 434/31/451 74/30/451 47/30/451
f 432/17/452 430/34/452 408/34/452
f 70/18/453 430/34/453 432/17/453
f 433/6/454 73/18/454 70/18/454
f 69/18/455 70/18/455 430/34/455
f 74/30/456 69/18/456 431/1/456
f 396/35/298 421/28/298 437/37/298
f 446/39/457 443/41/457 444/40/457
f 444/40/300 439/49/300 440/42/300
f 80/19/458 19/19/458 397/27/458
f 394/45/459 395/47/459 438/46/459
f 436/48/300 438/46/300 440/42/300
f 394/45/460 436/48/460 435/50/460
f 435/50/298 436/48/298 439/49/298
f 438/46/304 392/4/304 420/15/304
f 441/44/461 397/27/461 396/35/461
f 443/41/462 441/44/462 442/38/462
f 442/38/298 437/37/298 439/49/298
f 8/23/463 389/32/463 395/47/463
f 7/19/464 84/19/464 446/39/464
f 84/19/465 82/19/465 443/41/465
f 447/51/466 435/50/466 399/26/466
f 399/26/298 435/50/298 437/37/298
f 77/23/467 447/51/467 398/24/467
f 388/9/468 446/39/468 445/43/468
f 395/47/469 389/32/469 392/4/469
f 445/43/304 440/42/304 420/15/304
f 82/19/470 80/19/470 441/44/470
f 448/45/471 96/23/471 79/18/471
f 96/23/472 448/45/472 449/51/472
f 77/23/473 97/23/473 449/51/473
f 449/51/474 448/45/474 394/45/474
f 548/53/69 453/55/69 451/52/69
f 549/56/68 455/57/68 453/55/68
f 550/58/67 457/59/67 455/57/67
f 551/60/66 459/61/66 457/59/66
f 552/62/65 461/63/65 459/61/65
f 553/64/64 463/65/64 461/63/64
f 554/66/76 465/80/76 463/65/76
f 554/66/75 555/68/75 467/67/75
f 556/69/73 469/70/73 467/67/73
f 557/71/72 471/72/72 469/70/72
f 455/57/83 488/57/83 486/55/83
f 558/73/71 473/74/71 471/72/71
f 547/75/70 451/81/70 473/74/70
f 576/77/70 577/76/70 462/76/70
f 484/78/99 520/78/99 519/79/99
f 471/72/79 496/72/79 495/70/79
f 495/70/78 494/67/78 467/67/78
f 494/67/88 493/80/88 465/80/88
f 493/80/85 492/65/85 463/65/85
f 463/65/86 492/65/86 491/63/86
f 491/63/74 490/61/74 459/61/74
f 459/61/87 490/61/87 489/59/87
f 487/81/81 497/74/81 473/74/81
f 486/55/82 487/52/82 451/52/82
f 489/59/84 488/57/84 455/57/84
f 497/74/80 496/72/80 471/72/80
f 487/83/89 486/86/89 474/82/89
f 486/86/89 488/88/89 476/85/89
f 488/88/89 489/90/89 477/87/89
f 477/87/89 489/90/89 490/89/89
f 478/91/89 490/89/89 491/92/89
f 491/92/89 492/96/89 480/93/89
f 480/93/89 492/96/89 493/95/89
f 493/95/89 494/99/89 482/97/89
f 494/99/89 495/101/89 483/79/89
f 483/79/89 495/101/89 496/100/89
f 484/78/89 496/100/89 497/102/89
f 485/103/89 497/102/89 487/83/89
f 500/104/112 524/104/112 522/105/112
f 517/98/97 516/93/97 480/93/97
f 478/91/101 514/91/101 513/87/101
f 521/103/95 520/78/95 484/78/95
f 510/82/100 511/84/100 475/84/100
f 518/97/93 517/98/93 481/98/93
f 515/94/98 514/91/98 478/91/98
f 475/84/91 511/84/91 521/103/91
f 476/85/96 512/85/96 510/82/96
f 519/79/77 518/97/77 482/97/77
f 480/93/94 516/93/94 515/94/94
f 513/87/92 512/85/92 476/85/92
f 499/106/89 511/84/89 510/82/89
f 510/82/89 512/85/89 500/104/89
f 512/85/89 513/87/89 501/107/89
f 513/87/89 514/91/89 502/108/89
f 514/91/89 515/94/89 503/109/89
f 515/94/89 516/93/89 504/110/89
f 504/110/89 516/93/89 517/98/89
f 517/98/89 518/97/89 506/111/89
f 518/97/89 519/79/89 507/113/89
f 519/79/89 520/78/89 508/114/89
f 520/78/89 521/103/89 509/115/89
f 521/103/89 511/84/89 499/106/89
f 523/106/120 535/106/120 545/115/120
f 507/113/106 531/113/106 530/111/106
f 528/110/110 527/109/110 503/109/110
f 501/107/108 525/107/108 524/104/108
f 532/114/103 531/113/103 507/113/103
f 529/112/113 528/110/113 504/110/113
f 502/108/105 526/108/105 525/107/105
f 533/115/111 532/114/111 508/114/111
f 522/105/104 523/106/104 499/106/104
f 506/111/109 530/111/109 529/112/109
f 503/109/90 527/109/90 526/108/90
f 523/106/107 533/115/107 509/115/107
f 524/104/125 536/104/125 534/105/125
f 531/113/119 543/113/119 542/111/119
f 540/110/123 539/109/123 527/109/123
f 537/107/121 536/104/121 524/104/121
f 532/114/116 544/114/116 543/113/116
f 529/112/102 541/112/102 540/110/102
f 538/108/118 537/107/118 525/107/118
f 545/115/124 544/114/124 532/114/124
f 534/105/117 535/106/117 523/106/117
f 542/111/122 541/112/122 529/112/122
f 527/109/115 539/109/115 538/108/115
f 548/117/137 547/137/137 450/116/137
f 549/119/137 548/117/137 452/118/137
f 550/121/137 549/119/137 454/120/137
f 458/123/137 551/124/137 550/121/137
f 460/77/137 552/125/137 551/124/137
f 462/76/137 553/126/137 552/125/137
f 554/127/137 553/126/137 462/76/137
f 555/129/137 554/127/137 464/128/137
f 556/131/137 555/129/137 466/130/137
f 470/133/137 557/134/137 556/131/137
f 472/135/137 558/136/137 557/134/137
f 450/116/137 547/137/137 558/136/137
f 585/139/142 586/138/142 562/138/142
f 573/120/73 574/122/73 456/122/73
f 580/132/66 581/133/66 470/133/66
f 577/76/69 578/128/69 464/128/69
f 574/122/72 575/123/72 458/123/72
f 581/133/65 582/135/65 472/135/65
f 571/116/76 572/118/76 452/118/76
f 578/128/68 579/130/68 466/130/68
f 575/123/71 576/77/71 460/77/71
f 582/135/64 571/116/64 450/116/64
f 572/118/75 573/120/75 454/120/75
f 579/130/67 580/132/67 468/132/67
f 560/140/137 572/118/137 571/116/137
f 561/139/137 573/120/137 572/118/137
f 562/138/137 574/122/137 573/120/137
f 575/123/137 574/122/137 562/138/137
f 576/77/137 575/123/137 563/141/137
f 577/76/137 576/77/137 564/142/137
f 566/144/137 578/128/137 577/76/137
f 567/145/137 579/130/137 578/128/137
f 580/132/137 579/130/137 567/145/137
f 581/133/137 580/132/137 568/146/137
f 582/135/137 581/133/137 569/147/137
f 571/116/137 582/135/137 570/148/137
f 597/139/154 598/138/154 586/138/154
f 592/146/149 593/147/149 569/147/149
f 589/143/147 590/144/147 566/144/147
f 562/138/138 586/138/138 587/141/138
f 593/147/320 594/148/320 570/148/320
f 583/149/150 584/140/150 560/140/150
f 590/144/475 591/145/475 567/145/475
f 563/141/476 587/141/476 588/142/476
f 570/148/141 594/148/141 583/149/141
f 560/140/322 584/140/322 585/139/322
f 567/145/140 591/145/140 592/146/140
f 588/142/144 589/143/144 565/143/144
f 600/142/169 624/142/169 625/143/169
f 592/146/161 604/146/161 605/147/161
f 589/143/159 601/143/159 602/144/159
f 598/138/139 599/141/139 587/141/139
f 605/147/157 606/148/157 594/148/157
f 595/149/162 596/140/162 584/140/162
f 602/144/155 603/145/155 591/145/155
f 587/141/160 599/141/160 600/142/160
f 606/148/153 595/149/153 583/149/153
f 596/140/158 597/139/158 585/139/158
f 603/145/152 604/146/152 592/146/152
f 588/142/156 600/142/156 601/143/156
f 641/151/178 642/150/178 618/150/178
f 621/139/167 622/138/167 598/138/167
f 628/146/174 629/147/174 605/147/174
f 601/143/172 625/143/172 626/144/172
f 598/138/164 622/138/164 623/141/164
f 629/147/170 630/148/170 606/148/170
f 595/149/151 619/149/151 620/140/151
f 626/144/168 627/145/168 603/145/168
f 623/141/173 624/142/173 600/142/173
f 630/148/166 619/149/166 595/149/166
f 620/140/171 621/139/171 597/139/171
f 603/145/165 627/145/165 628/146/165
f 620/140/137 619/149/137 607/152/137
f 621/139/137 620/140/137 608/153/137
f 622/138/137 621/139/137 609/154/137
f 623/141/137 622/138/137 610/155/137
f 624/142/137 623/141/137 611/156/137
f 613/158/137 625/143/137 624/142/137
f 614/159/137 626/144/137 625/143/137
f 615/160/137 627/145/137 626/144/137
f 616/161/137 628/146/137 627/145/137
f 617/151/137 629/147/137 628/146/137
f 618/150/137 630/148/137 629/147/137
f 607/152/404 619/149/404 630/148/404
f 646/155/197 647/156/197 635/156/197
f 607/152/183 631/152/183 632/153/183
f 614/159/163 638/159/163 639/160/163
f 611/156/181 635/156/181 636/157/181
f 642/150/186 631/152/186 607/152/186
f 632/153/179 633/154/179 609/154/179
f 639/160/185 640/161/185 616/161/185
f 636/157/177 637/158/177 613/158/177
f 609/154/187 633/154/187 634/155/187
f 640/161/182 641/151/182 617/151/182
f 637/158/180 638/159/180 614/159/180
f 634/155/184 635/156/184 611/156/184
f 646/155/209 658/155/209 659/156/209
f 653/151/191 654/150/191 642/150/191
f 643/152/196 644/153/196 632/153/196
f 638/159/189 650/159/189 651/160/189
f 647/156/194 648/157/194 636/157/194
f 654/150/199 643/152/199 631/152/199
f 644/153/477 645/154/477 633/154/477
f 639/160/198 651/160/198 652/161/198
f 636/157/190 648/157/190 649/158/190
f 645/154/176 646/155/176 634/155/176
f 652/161/195 653/151/195 641/151/195
f 649/158/193 650/159/193 638/159/193
f 673/158/217 674/159/217 662/159/217
f 653/151/203 665/151/203 666/150/203
f 655/152/208 656/153/208 644/153/208
f 650/159/201 662/159/201 663/160/201
f 647/156/206 659/156/206 660/157/206
f 654/150/211 666/150/211 655/152/211
f 644/153/204 656/153/204 657/154/204
f 651/160/210 663/160/210 664/161/210
f 660/157/202 661/158/202 649/158/202
f 657/154/188 658/155/188 646/155/188
f 664/161/207 665/151/207 653/151/207
f 661/158/205 662/159/205 650/159/205
f 668/153/137 667/152/137 678/150/137
f 678/150/404 677/151/404 676/161/404
f 676/161/408 675/160/408 674/159/408
f 674/159/137 673/158/137 672/157/137
f 672/157/175 671/156/175 670/155/175
f 670/155/407 669/154/407 668/153/407
f 668/153/137 678/150/137 676/161/137
f 676/161/137 674/159/137 672/157/137
f 672/157/137 670/155/137 668/153/137
f 658/155/478 670/155/478 671/156/478
f 665/151/215 677/151/215 678/150/215
f 667/152/220 668/153/220 656/153/220
f 662/159/213 674/159/213 675/160/213
f 671/156/218 672/157/218 660/157/218
f 678/150/325 667/152/325 655/152/325
f 656/153/216 668/153/216 669/154/216
f 675/160/479 676/161/479 664/161/479
f 672/157/480 673/158/480 661/158/480
f 669/154/212 670/155/212 658/155/212
f 664/161/481 676/161/481 677/151/481
f 687/162/482 681/2/482 682/16/482
f 681/2/233 685/9/233 686/32/233
f 683/163/483 684/164/483 690/23/483
f 679/165/235 680/172/235 684/164/235
f 687/30/330 679/166/330 683/163/330
f 684/164/331 680/181/331 688/33/331
f 686/32/332 690/23/332 688/33/332
f 687/30/330 689/19/330 685/9/330
f 685/9/484 689/19/484 690/23/484
f 687/162/485 688/169/485 680/167/485
f 699/162/486 693/2/486 694/16/486
f 693/2/224 697/9/224 698/32/224
f 695/163/487 696/164/487 702/23/487
f 691/165/226 692/172/226 696/164/226
f 699/30/337 691/166/337 695/163/337
f 696/164/338 692/181/338 700/33/338
f 698/32/339 702/23/339 700/33/339
f 699/30/337 701/19/337 697/9/337
f 697/9/488 701/19/488 702/23/488
f 699/162/489 700/169/489 692/167/489
f 705/2/490 706/16/490 712/169/490
f 715/170/343 709/9/343 710/32/343
f 707/163/491 708/164/491 714/23/491
f 717/171/356 703/165/356 704/172/356
f 720/173/492 717/174/492 707/163/492
f 718/175/493 704/181/493 712/33/493
f 716/177/494 719/176/494 712/33/494
f 720/173/495 713/19/495 709/9/495
f 709/9/496 713/19/496 714/23/496
f 703/168/497 711/162/497 712/169/497
f 705/31/498 711/30/498 720/173/498
f 714/23/499 719/176/499 716/177/499
f 714/23/500 708/164/500 718/175/500
f 703/166/501 717/174/501 720/173/501
f 717/171/356 718/180/356 708/164/356
f 715/170/343 716/179/343 706/16/343
f 382/162/260 726/2/260 727/16/260
f 726/2/9 730/9/9 731/32/9
f 728/163/432 729/164/432 385/23/432
f 724/165/6 725/172/6 729/164/6
f 382/30/29 724/166/29 728/163/29
f 729/164/258 725/181/258 383/33/258
f 731/32/257 385/23/257 383/33/257
f 382/30/29 384/19/29 730/9/29
f 730/9/256 384/19/256 385/23/256
f 382/162/431 383/169/431 725/167/431
l 373 371
l 372 373
l 723 721
l 722 723
